<?xml version="1.0" encoding="UTF-8"?>
<svg xmlns="http://www.w3.org/2000/svg" width="453" height="257">
   <defs>
      <style type="text/css">
    @namespace "http://www.w3.org/2000/svg";
    .line                 {fill: none; stroke: #332900; stroke-width: 1;}
    .bold-line            {stroke: #141000; shape-rendering: crispEdges; stroke-width: 2;}
    .thin-line            {stroke: #1F1800; shape-rendering: crispEdges}
    .filled               {fill: #332900; stroke: none;}
    text.terminal         {font-family: Verdana, Sans-serif;
                            font-size: 12px;
                            fill: #141000;
                            font-weight: bold;
                          }
    text.nonterminal      {font-family: Verdana, Sans-serif;
                            font-size: 12px;
                            fill: #1A1400;
                            font-weight: normal;
                          }
    text.regexp           {font-family: Verdana, Sans-serif;
                            font-size: 12px;
                            fill: #1F1800;
                            font-weight: normal;
                          }
    rect, circle, polygon {fill: #332900; stroke: #332900;}
    rect.terminal         {fill: #FFDB4D; stroke: #332900; stroke-width: 1;}
    rect.nonterminal      {fill: #FFEC9E; stroke: #332900; stroke-width: 1;}
    rect.text             {fill: none; stroke: none;}
    polygon.regexp        {fill: #FFF4C7; stroke: #332900; stroke-width: 1;}
  </style>
   </defs>
   <polygon points="9 17 1 13 1 21"/>
   <polygon points="17 17 9 13 9 21"/>
   <a xmlns:xlink="http://www.w3.org/1999/xlink"
       xlink:href="#Negation"
       xlink:title="Negation">
      <rect x="51" y="3" width="76" height="32"/>
      <rect x="49" y="1" width="76" height="32" class="nonterminal"/>
      <text class="nonterminal" x="59" y="21">Negation</text>
   </a>
   <a xmlns:xlink="http://www.w3.org/1999/xlink"
       xlink:href="#ConstraintSentence"
       xlink:title="ConstraintSentence">
      <rect x="51" y="47" width="146" height="32"/>
      <rect x="49" y="45" width="146" height="32" class="nonterminal"/>
      <text class="nonterminal" x="59" y="65">ConstraintSentence</text>
   </a>
   <a xmlns:xlink="http://www.w3.org/1999/xlink"
       xlink:href="#Conjunction"
       xlink:title="Conjunction">
      <rect x="237" y="47" width="96" height="32"/>
      <rect x="235" y="45" width="96" height="32" class="nonterminal"/>
      <text class="nonterminal" x="245" y="65">Conjunction</text>
   </a>
   <a xmlns:xlink="http://www.w3.org/1999/xlink"
       xlink:href="#Disjunction"
       xlink:title="Disjunction">
      <rect x="237" y="91" width="90" height="32"/>
      <rect x="235" y="89" width="90" height="32" class="nonterminal"/>
      <text class="nonterminal" x="245" y="109">Disjunction</text>
   </a>
   <a xmlns:xlink="http://www.w3.org/1999/xlink"
       xlink:href="#ExclusiveDisjunction"
       xlink:title="ExclusiveDisjunction">
      <rect x="237" y="135" width="148" height="32"/>
      <rect x="235" y="133" width="148" height="32" class="nonterminal"/>
      <text class="nonterminal" x="245" y="153">ExclusiveDisjunction</text>
   </a>
   <a xmlns:xlink="http://www.w3.org/1999/xlink"
       xlink:href="#Implication"
       xlink:title="Implication">
      <rect x="237" y="179" width="90" height="32"/>
      <rect x="235" y="177" width="90" height="32" class="nonterminal"/>
      <text class="nonterminal" x="245" y="197">Implication</text>
   </a>
   <a xmlns:xlink="http://www.w3.org/1999/xlink"
       xlink:href="#Biconditional"
       xlink:title="Biconditional">
      <rect x="237" y="223" width="100" height="32"/>
      <rect x="235" y="221" width="100" height="32" class="nonterminal"/>
      <text class="nonterminal" x="245" y="241">Biconditional</text>
   </a>
   <path class="line"
          d="m17 17 h2 m20 0 h10 m76 0 h10 m0 0 h278 m-394 0 h20 m374 0 h20 m-414 0 q10 0 10 10 m394 0 q0 -10 10 -10 m-404 10 v24 m394 0 v-24 m-394 24 q0 10 10 10 m374 0 q10 0 10 -10 m-384 10 h10 m146 0 h10 m20 0 h10 m96 0 h10 m0 0 h52 m-188 0 h20 m168 0 h20 m-208 0 q10 0 10 10 m188 0 q0 -10 10 -10 m-198 10 v24 m188 0 v-24 m-188 24 q0 10 10 10 m168 0 q10 0 10 -10 m-178 10 h10 m90 0 h10 m0 0 h58 m-178 -10 v20 m188 0 v-20 m-188 20 v24 m188 0 v-24 m-188 24 q0 10 10 10 m168 0 q10 0 10 -10 m-178 10 h10 m148 0 h10 m-178 -10 v20 m188 0 v-20 m-188 20 v24 m188 0 v-24 m-188 24 q0 10 10 10 m168 0 q10 0 10 -10 m-178 10 h10 m90 0 h10 m0 0 h58 m-178 -10 v20 m188 0 v-20 m-188 20 v24 m188 0 v-24 m-188 24 q0 10 10 10 m168 0 q10 0 10 -10 m-178 10 h10 m100 0 h10 m0 0 h48 m43 -220 h-3"/>
   <polygon points="443 17 451 13 451 21"/>
   <polygon points="443 17 435 13 435 21"/>
</svg>
