<?xml version="1.0" encoding="UTF-8"?>
<svg xmlns="http://www.w3.org/2000/svg" width="791" height="81">
   <defs>
      <style type="text/css">
    @namespace "http://www.w3.org/2000/svg";
    .line                 {fill: none; stroke: #332900; stroke-width: 1;}
    .bold-line            {stroke: #141000; shape-rendering: crispEdges; stroke-width: 2;}
    .thin-line            {stroke: #1F1800; shape-rendering: crispEdges}
    .filled               {fill: #332900; stroke: none;}
    text.terminal         {font-family: Verdana, Sans-serif;
                            font-size: 12px;
                            fill: #141000;
                            font-weight: bold;
                          }
    text.nonterminal      {font-family: Verdana, Sans-serif;
                            font-size: 12px;
                            fill: #1A1400;
                            font-weight: normal;
                          }
    text.regexp           {font-family: Verdana, Sans-serif;
                            font-size: 12px;
                            fill: #1F1800;
                            font-weight: normal;
                          }
    rect, circle, polygon {fill: #332900; stroke: #332900;}
    rect.terminal         {fill: #FFDB4D; stroke: #332900; stroke-width: 1;}
    rect.nonterminal      {fill: #FFEC9E; stroke: #332900; stroke-width: 1;}
    rect.text             {fill: none; stroke: none;}
    polygon.regexp        {fill: #FFF4C7; stroke: #332900; stroke-width: 1;}
  </style>
   </defs>
   <polygon points="9 17 1 13 1 21"/>
   <polygon points="17 17 9 13 9 21"/>
   <a xmlns:xlink="http://www.w3.org/1999/xlink"
       xlink:href="#ExpressionNegation"
       xlink:title="ExpressionNegation">
      <rect x="51" y="3" width="146" height="32"/>
      <rect x="49" y="1" width="146" height="32" class="nonterminal"/>
      <text class="nonterminal" x="59" y="21">ExpressionNegation</text>
   </a>
   <a xmlns:xlink="http://www.w3.org/1999/xlink"
       xlink:href="#Expression"
       xlink:title="Expression">
      <rect x="51" y="47" width="90" height="32"/>
      <rect x="49" y="45" width="90" height="32" class="nonterminal"/>
      <text class="nonterminal" x="59" y="65">Expression</text>
   </a>
   <a xmlns:xlink="http://www.w3.org/1999/xlink"
       xlink:href="#ExpressionConjunction"
       xlink:title="ExpressionConjunction">
      <rect x="161" y="47" width="164" height="32"/>
      <rect x="159" y="45" width="164" height="32" class="nonterminal"/>
      <text class="nonterminal" x="169" y="65">ExpressionConjunction</text>
   </a>
   <a xmlns:xlink="http://www.w3.org/1999/xlink"
       xlink:href="#ExpressionExclusiveDisjunction"
       xlink:title="ExpressionExclusiveDisjunction">
      <rect x="345" y="47" width="218" height="32"/>
      <rect x="343" y="45" width="218" height="32" class="nonterminal"/>
      <text class="nonterminal" x="353" y="65">ExpressionExclusiveDisjunction</text>
   </a>
   <a xmlns:xlink="http://www.w3.org/1999/xlink"
       xlink:href="#ExpressionDisjunction"
       xlink:title="ExpressionDisjunction">
      <rect x="583" y="47" width="160" height="32"/>
      <rect x="581" y="45" width="160" height="32" class="nonterminal"/>
      <text class="nonterminal" x="591" y="65">ExpressionDisjunction</text>
   </a>
   <path class="line"
          d="m17 17 h2 m20 0 h10 m146 0 h10 m0 0 h546 m-732 0 h20 m712 0 h20 m-752 0 q10 0 10 10 m732 0 q0 -10 10 -10 m-742 10 v24 m732 0 v-24 m-732 24 q0 10 10 10 m712 0 q10 0 10 -10 m-722 10 h10 m90 0 h10 m0 0 h10 m164 0 h10 m0 0 h10 m218 0 h10 m0 0 h10 m160 0 h10 m23 -44 h-3"/>
   <polygon points="781 17 789 13 789 21"/>
   <polygon points="781 17 773 13 773 21"/>
</svg>
