<?xml version="1.0" encoding="UTF-8"?>
<svg xmlns="http://www.w3.org/2000/svg" width="197" height="257">
   <defs>
      <style type="text/css">
    @namespace "http://www.w3.org/2000/svg";
    .line                 {fill: none; stroke: #332900; stroke-width: 1;}
    .bold-line            {stroke: #141000; shape-rendering: crispEdges; stroke-width: 2;}
    .thin-line            {stroke: #1F1800; shape-rendering: crispEdges}
    .filled               {fill: #332900; stroke: none;}
    text.terminal         {font-family: Verdana, Sans-serif;
                            font-size: 12px;
                            fill: #141000;
                            font-weight: bold;
                          }
    text.nonterminal      {font-family: Verdana, Sans-serif;
                            font-size: 12px;
                            fill: #1A1400;
                            font-weight: normal;
                          }
    text.regexp           {font-family: Verdana, Sans-serif;
                            font-size: 12px;
                            fill: #1F1800;
                            font-weight: normal;
                          }
    rect, circle, polygon {fill: #332900; stroke: #332900;}
    rect.terminal         {fill: #FFDB4D; stroke: #332900; stroke-width: 1;}
    rect.nonterminal      {fill: #FFEC9E; stroke: #332900; stroke-width: 1;}
    rect.text             {fill: none; stroke: none;}
    polygon.regexp        {fill: #FFF4C7; stroke: #332900; stroke-width: 1;}
  </style>
   </defs>
   <polygon points="9 17 1 13 1 21"/>
   <polygon points="17 17 9 13 9 21"/>
   <rect x="51" y="3" width="46" height="32" rx="10"/>
   <rect x="49"
          y="1"
          width="46"
          height="32"
          class="terminal"
          rx="10"/>
   <text class="terminal" x="59" y="21">Bag</text>
   <rect x="51" y="47" width="44" height="32" rx="10"/>
   <rect x="49"
          y="45"
          width="44"
          height="32"
          class="terminal"
          rx="10"/>
   <text class="terminal" x="59" y="65">List</text>
   <rect x="51" y="91" width="64" height="32" rx="10"/>
   <rect x="49"
          y="89"
          width="64"
          height="32"
          class="terminal"
          rx="10"/>
   <text class="terminal" x="59" y="109">Maybe</text>
   <rect x="51" y="135" width="98" height="32" rx="10"/>
   <rect x="49"
          y="133"
          width="98"
          height="32"
          class="terminal"
          rx="10"/>
   <text class="terminal" x="59" y="153">OrderedSet</text>
   <rect x="51" y="179" width="84" height="32" rx="10"/>
   <rect x="49"
          y="177"
          width="84"
          height="32"
          class="terminal"
          rx="10"/>
   <text class="terminal" x="59" y="197">Sequence</text>
   <rect x="51" y="223" width="42" height="32" rx="10"/>
   <rect x="49"
          y="221"
          width="42"
          height="32"
          class="terminal"
          rx="10"/>
   <text class="terminal" x="59" y="241">Set</text>
   <path class="line"
          d="m17 17 h2 m20 0 h10 m46 0 h10 m0 0 h52 m-138 0 h20 m118 0 h20 m-158 0 q10 0 10 10 m138 0 q0 -10 10 -10 m-148 10 v24 m138 0 v-24 m-138 24 q0 10 10 10 m118 0 q10 0 10 -10 m-128 10 h10 m44 0 h10 m0 0 h54 m-128 -10 v20 m138 0 v-20 m-138 20 v24 m138 0 v-24 m-138 24 q0 10 10 10 m118 0 q10 0 10 -10 m-128 10 h10 m64 0 h10 m0 0 h34 m-128 -10 v20 m138 0 v-20 m-138 20 v24 m138 0 v-24 m-138 24 q0 10 10 10 m118 0 q10 0 10 -10 m-128 10 h10 m98 0 h10 m-128 -10 v20 m138 0 v-20 m-138 20 v24 m138 0 v-24 m-138 24 q0 10 10 10 m118 0 q10 0 10 -10 m-128 10 h10 m84 0 h10 m0 0 h14 m-128 -10 v20 m138 0 v-20 m-138 20 v24 m138 0 v-24 m-138 24 q0 10 10 10 m118 0 q10 0 10 -10 m-128 10 h10 m42 0 h10 m0 0 h56 m23 -220 h-3"/>
   <polygon points="187 17 195 13 195 21"/>
   <polygon points="187 17 179 13 179 21"/>
</svg>
