<?xml version="1.0" encoding="UTF-8"?>
<svg xmlns="http://www.w3.org/2000/svg" width="181" height="345">
   <defs>
      <style type="text/css">
    @namespace "http://www.w3.org/2000/svg";
    .line                 {fill: none; stroke: #332900; stroke-width: 1;}
    .bold-line            {stroke: #141000; shape-rendering: crispEdges; stroke-width: 2;}
    .thin-line            {stroke: #1F1800; shape-rendering: crispEdges}
    .filled               {fill: #332900; stroke: none;}
    text.terminal         {font-family: Verdana, Sans-serif;
                            font-size: 12px;
                            fill: #141000;
                            font-weight: bold;
                          }
    text.nonterminal      {font-family: Verdana, Sans-serif;
                            font-size: 12px;
                            fill: #1A1400;
                            font-weight: normal;
                          }
    text.regexp           {font-family: Verdana, Sans-serif;
                            font-size: 12px;
                            fill: #1F1800;
                            font-weight: normal;
                          }
    rect, circle, polygon {fill: #332900; stroke: #332900;}
    rect.terminal         {fill: #FFDB4D; stroke: #332900; stroke-width: 1;}
    rect.nonterminal      {fill: #FFEC9E; stroke: #332900; stroke-width: 1;}
    rect.text             {fill: none; stroke: none;}
    polygon.regexp        {fill: #FFF4C7; stroke: #332900; stroke-width: 1;}
  </style>
   </defs>
   <polygon points="9 17 1 13 1 21"/>
   <polygon points="17 17 9 13 9 21"/>
   <rect x="51" y="3" width="72" height="32" rx="10"/>
   <rect x="49"
          y="1"
          width="72"
          height="32"
          class="terminal"
          rx="10"/>
   <text class="terminal" x="59" y="21">boolean</text>
   <rect x="51" y="47" width="82" height="32" rx="10"/>
   <rect x="49"
          y="45"
          width="82"
          height="32"
          class="terminal"
          rx="10"/>
   <text class="terminal" x="59" y="65">unsigned</text>
   <rect x="51" y="91" width="68" height="32" rx="10"/>
   <rect x="49"
          y="89"
          width="68"
          height="32"
          class="terminal"
          rx="10"/>
   <text class="terminal" x="59" y="109">integer</text>
   <rect x="51" y="135" width="72" height="32" rx="10"/>
   <rect x="49"
          y="133"
          width="72"
          height="32"
          class="terminal"
          rx="10"/>
   <text class="terminal" x="59" y="153">decimal</text>
   <rect x="51" y="179" width="66" height="32" rx="10"/>
   <rect x="49"
          y="177"
          width="66"
          height="32"
          class="terminal"
          rx="10"/>
   <text class="terminal" x="59" y="197">double</text>
   <rect x="51" y="223" width="60" height="32" rx="10"/>
   <rect x="49"
          y="221"
          width="60"
          height="32"
          class="terminal"
          rx="10"/>
   <text class="terminal" x="59" y="241">string</text>
   <rect x="51" y="267" width="34" height="32" rx="10"/>
   <rect x="49"
          y="265"
          width="34"
          height="32"
          class="terminal"
          rx="10"/>
   <text class="terminal" x="59" y="285">iri</text>
   <rect x="51" y="311" width="62" height="32" rx="10"/>
   <rect x="49"
          y="309"
          width="62"
          height="32"
          class="terminal"
          rx="10"/>
   <text class="terminal" x="59" y="329">binary</text>
   <path class="line"
          d="m17 17 h2 m20 0 h10 m72 0 h10 m0 0 h10 m-122 0 h20 m102 0 h20 m-142 0 q10 0 10 10 m122 0 q0 -10 10 -10 m-132 10 v24 m122 0 v-24 m-122 24 q0 10 10 10 m102 0 q10 0 10 -10 m-112 10 h10 m82 0 h10 m-112 -10 v20 m122 0 v-20 m-122 20 v24 m122 0 v-24 m-122 24 q0 10 10 10 m102 0 q10 0 10 -10 m-112 10 h10 m68 0 h10 m0 0 h14 m-112 -10 v20 m122 0 v-20 m-122 20 v24 m122 0 v-24 m-122 24 q0 10 10 10 m102 0 q10 0 10 -10 m-112 10 h10 m72 0 h10 m0 0 h10 m-112 -10 v20 m122 0 v-20 m-122 20 v24 m122 0 v-24 m-122 24 q0 10 10 10 m102 0 q10 0 10 -10 m-112 10 h10 m66 0 h10 m0 0 h16 m-112 -10 v20 m122 0 v-20 m-122 20 v24 m122 0 v-24 m-122 24 q0 10 10 10 m102 0 q10 0 10 -10 m-112 10 h10 m60 0 h10 m0 0 h22 m-112 -10 v20 m122 0 v-20 m-122 20 v24 m122 0 v-24 m-122 24 q0 10 10 10 m102 0 q10 0 10 -10 m-112 10 h10 m34 0 h10 m0 0 h48 m-112 -10 v20 m122 0 v-20 m-122 20 v24 m122 0 v-24 m-122 24 q0 10 10 10 m102 0 q10 0 10 -10 m-112 10 h10 m62 0 h10 m0 0 h20 m23 -308 h-3"/>
   <polygon points="171 17 179 13 179 21"/>
   <polygon points="171 17 163 13 163 21"/>
</svg>
