<?xml version="1.0" encoding="UTF-8"?>
<svg xmlns="http://www.w3.org/2000/svg" width="325" height="69">
   <defs>
      <style type="text/css">
    @namespace "http://www.w3.org/2000/svg";
    .line                 {fill: none; stroke: #332900; stroke-width: 1;}
    .bold-line            {stroke: #141000; shape-rendering: crispEdges; stroke-width: 2;}
    .thin-line            {stroke: #1F1800; shape-rendering: crispEdges}
    .filled               {fill: #332900; stroke: none;}
    text.terminal         {font-family: Verdana, Sans-serif;
                            font-size: 12px;
                            fill: #141000;
                            font-weight: bold;
                          }
    text.nonterminal      {font-family: Verdana, Sans-serif;
                            font-size: 12px;
                            fill: #1A1400;
                            font-weight: normal;
                          }
    text.regexp           {font-family: Verdana, Sans-serif;
                            font-size: 12px;
                            fill: #1F1800;
                            font-weight: normal;
                          }
    rect, circle, polygon {fill: #332900; stroke: #332900;}
    rect.terminal         {fill: #FFDB4D; stroke: #332900; stroke-width: 1;}
    rect.nonterminal      {fill: #FFEC9E; stroke: #332900; stroke-width: 1;}
    rect.text             {fill: none; stroke: none;}
    polygon.regexp        {fill: #FFF4C7; stroke: #332900; stroke-width: 1;}
  </style>
   </defs>
   <polygon points="9 17 1 13 1 21"/>
   <polygon points="17 17 9 13 9 21"/>
   <a xmlns:xlink="http://www.w3.org/1999/xlink"
       xlink:href="#Unsigned"
       xlink:title="Unsigned">
      <rect x="31" y="3" width="78" height="32"/>
      <rect x="29" y="1" width="78" height="32" class="nonterminal"/>
      <text class="nonterminal" x="39" y="21">Unsigned</text>
   </a>
   <a xmlns:xlink="http://www.w3.org/1999/xlink"
       xlink:href="#CardinalityRange"
       xlink:title="CardinalityRange">
      <rect x="149" y="35" width="128" height="32"/>
      <rect x="147" y="33" width="128" height="32" class="nonterminal"/>
      <text class="nonterminal" x="157" y="53">CardinalityRange</text>
   </a>
   <path class="line"
          d="m17 17 h2 m0 0 h10 m78 0 h10 m20 0 h10 m0 0 h138 m-168 0 h20 m148 0 h20 m-188 0 q10 0 10 10 m168 0 q0 -10 10 -10 m-178 10 v12 m168 0 v-12 m-168 12 q0 10 10 10 m148 0 q10 0 10 -10 m-158 10 h10 m128 0 h10 m23 -32 h-3"/>
   <polygon points="315 17 323 13 323 21"/>
   <polygon points="315 17 307 13 307 21"/>
</svg>
