<?xml version="1.0" encoding="UTF-8"?>
<svg xmlns="http://www.w3.org/2000/svg" width="223" height="433">
   <defs>
      <style type="text/css">
    @namespace "http://www.w3.org/2000/svg";
    .line                 {fill: none; stroke: #332900; stroke-width: 1;}
    .bold-line            {stroke: #141000; shape-rendering: crispEdges; stroke-width: 2;}
    .thin-line            {stroke: #1F1800; shape-rendering: crispEdges}
    .filled               {fill: #332900; stroke: none;}
    text.terminal         {font-family: Verdana, Sans-serif;
                            font-size: 12px;
                            fill: #141000;
                            font-weight: bold;
                          }
    text.nonterminal      {font-family: Verdana, Sans-serif;
                            font-size: 12px;
                            fill: #1A1400;
                            font-weight: normal;
                          }
    text.regexp           {font-family: Verdana, Sans-serif;
                            font-size: 12px;
                            fill: #1F1800;
                            font-weight: normal;
                          }
    rect, circle, polygon {fill: #332900; stroke: #332900;}
    rect.terminal         {fill: #FFDB4D; stroke: #332900; stroke-width: 1;}
    rect.nonterminal      {fill: #FFEC9E; stroke: #332900; stroke-width: 1;}
    rect.text             {fill: none; stroke: none;}
    polygon.regexp        {fill: #FFF4C7; stroke: #332900; stroke-width: 1;}
  </style>
   </defs>
   <polygon points="9 17 1 13 1 21"/>
   <polygon points="17 17 9 13 9 21"/>
   <rect x="31" y="3" width="28" height="32" rx="10"/>
   <rect x="29"
          y="1"
          width="28"
          height="32"
          class="terminal"
          rx="10"/>
   <text class="terminal" x="39" y="21">\</text>
   <rect x="99" y="3" width="26" height="32" rx="10"/>
   <rect x="97"
          y="1"
          width="26"
          height="32"
          class="terminal"
          rx="10"/>
   <text class="terminal" x="107" y="21">"</text>
   <rect x="99" y="47" width="28" height="32" rx="10"/>
   <rect x="97"
          y="45"
          width="28"
          height="32"
          class="terminal"
          rx="10"/>
   <text class="terminal" x="107" y="65">\</text>
   <rect x="99" y="91" width="28" height="32" rx="10"/>
   <rect x="97"
          y="89"
          width="28"
          height="32"
          class="terminal"
          rx="10"/>
   <text class="terminal" x="107" y="109">/</text>
   <rect x="99" y="135" width="28" height="32" rx="10"/>
   <rect x="97"
          y="133"
          width="28"
          height="32"
          class="terminal"
          rx="10"/>
   <text class="terminal" x="107" y="153">a</text>
   <rect x="99" y="179" width="28" height="32" rx="10"/>
   <rect x="97"
          y="177"
          width="28"
          height="32"
          class="terminal"
          rx="10"/>
   <text class="terminal" x="107" y="197">b</text>
   <rect x="147" y="179" width="28" height="32" rx="10"/>
   <rect x="145"
          y="177"
          width="28"
          height="32"
          class="terminal"
          rx="10"/>
   <text class="terminal" x="155" y="197">e</text>
   <rect x="99" y="223" width="24" height="32" rx="10"/>
   <rect x="97"
          y="221"
          width="24"
          height="32"
          class="terminal"
          rx="10"/>
   <text class="terminal" x="107" y="241">f</text>
   <rect x="99" y="267" width="28" height="32" rx="10"/>
   <rect x="97"
          y="265"
          width="28"
          height="32"
          class="terminal"
          rx="10"/>
   <text class="terminal" x="107" y="285">n</text>
   <rect x="99" y="311" width="26" height="32" rx="10"/>
   <rect x="97"
          y="309"
          width="26"
          height="32"
          class="terminal"
          rx="10"/>
   <text class="terminal" x="107" y="329">r</text>
   <rect x="99" y="355" width="24" height="32" rx="10"/>
   <rect x="97"
          y="353"
          width="24"
          height="32"
          class="terminal"
          rx="10"/>
   <text class="terminal" x="107" y="373">t</text>
   <rect x="99" y="399" width="28" height="32" rx="10"/>
   <rect x="97"
          y="397"
          width="28"
          height="32"
          class="terminal"
          rx="10"/>
   <text class="terminal" x="107" y="417">v</text>
   <path class="line"
          d="m17 17 h2 m0 0 h10 m28 0 h10 m20 0 h10 m26 0 h10 m0 0 h50 m-116 0 h20 m96 0 h20 m-136 0 q10 0 10 10 m116 0 q0 -10 10 -10 m-126 10 v24 m116 0 v-24 m-116 24 q0 10 10 10 m96 0 q10 0 10 -10 m-106 10 h10 m28 0 h10 m0 0 h48 m-106 -10 v20 m116 0 v-20 m-116 20 v24 m116 0 v-24 m-116 24 q0 10 10 10 m96 0 q10 0 10 -10 m-106 10 h10 m28 0 h10 m0 0 h48 m-106 -10 v20 m116 0 v-20 m-116 20 v24 m116 0 v-24 m-116 24 q0 10 10 10 m96 0 q10 0 10 -10 m-106 10 h10 m28 0 h10 m0 0 h48 m-106 -10 v20 m116 0 v-20 m-116 20 v24 m116 0 v-24 m-116 24 q0 10 10 10 m96 0 q10 0 10 -10 m-106 10 h10 m28 0 h10 m0 0 h10 m28 0 h10 m-106 -10 v20 m116 0 v-20 m-116 20 v24 m116 0 v-24 m-116 24 q0 10 10 10 m96 0 q10 0 10 -10 m-106 10 h10 m24 0 h10 m0 0 h52 m-106 -10 v20 m116 0 v-20 m-116 20 v24 m116 0 v-24 m-116 24 q0 10 10 10 m96 0 q10 0 10 -10 m-106 10 h10 m28 0 h10 m0 0 h48 m-106 -10 v20 m116 0 v-20 m-116 20 v24 m116 0 v-24 m-116 24 q0 10 10 10 m96 0 q10 0 10 -10 m-106 10 h10 m26 0 h10 m0 0 h50 m-106 -10 v20 m116 0 v-20 m-116 20 v24 m116 0 v-24 m-116 24 q0 10 10 10 m96 0 q10 0 10 -10 m-106 10 h10 m24 0 h10 m0 0 h52 m-106 -10 v20 m116 0 v-20 m-116 20 v24 m116 0 v-24 m-116 24 q0 10 10 10 m96 0 q10 0 10 -10 m-106 10 h10 m28 0 h10 m0 0 h48 m23 -396 h-3"/>
   <polygon points="213 17 221 13 221 21"/>
   <polygon points="213 17 205 13 205 21"/>
</svg>
