<?xml version="1.0" encoding="UTF-8"?>
<svg xmlns="http://www.w3.org/2000/svg" width="435" height="81">
   <defs>
      <style type="text/css">
    @namespace "http://www.w3.org/2000/svg";
    .line                 {fill: none; stroke: #332900; stroke-width: 1;}
    .bold-line            {stroke: #141000; shape-rendering: crispEdges; stroke-width: 2;}
    .thin-line            {stroke: #1F1800; shape-rendering: crispEdges}
    .filled               {fill: #332900; stroke: none;}
    text.terminal         {font-family: Verdana, Sans-serif;
                            font-size: 12px;
                            fill: #141000;
                            font-weight: bold;
                          }
    text.nonterminal      {font-family: Verdana, Sans-serif;
                            font-size: 12px;
                            fill: #1A1400;
                            font-weight: normal;
                          }
    text.regexp           {font-family: Verdana, Sans-serif;
                            font-size: 12px;
                            fill: #1F1800;
                            font-weight: normal;
                          }
    rect, circle, polygon {fill: #332900; stroke: #332900;}
    rect.terminal         {fill: #FFDB4D; stroke: #332900; stroke-width: 1;}
    rect.nonterminal      {fill: #FFEC9E; stroke: #332900; stroke-width: 1;}
    rect.text             {fill: none; stroke: none;}
    polygon.regexp        {fill: #FFF4C7; stroke: #332900; stroke-width: 1;}
  </style>
   </defs>
   <polygon points="9 17 1 13 1 21"/>
   <polygon points="17 17 9 13 9 21"/>
   <a xmlns:xlink="http://www.w3.org/1999/xlink"
       xlink:href="#BuiltinCollectionType"
       xlink:title="BuiltinCollectionType">
      <rect x="31" y="3" width="150" height="32"/>
      <rect x="29" y="1" width="150" height="32" class="nonterminal"/>
      <text class="nonterminal" x="39" y="21">BuiltinCollectionType</text>
   </a>
   <rect x="201" y="3" width="32" height="32" rx="10"/>
   <rect x="199"
          y="1"
          width="32"
          height="32"
          class="terminal"
          rx="10"/>
   <text class="terminal" x="209" y="21">of</text>
   <rect x="273" y="3" width="28" height="32" rx="10"/>
   <rect x="271"
          y="1"
          width="28"
          height="32"
          class="terminal"
          rx="10"/>
   <text class="terminal" x="281" y="21">_</text>
   <a xmlns:xlink="http://www.w3.org/1999/xlink"
       xlink:href="#TypeReference"
       xlink:title="TypeReference">
      <rect x="273" y="47" width="114" height="32"/>
      <rect x="271" y="45" width="114" height="32" class="nonterminal"/>
      <text class="nonterminal" x="281" y="65">TypeReference</text>
   </a>
   <path class="line"
          d="m17 17 h2 m0 0 h10 m150 0 h10 m0 0 h10 m32 0 h10 m20 0 h10 m28 0 h10 m0 0 h86 m-154 0 h20 m134 0 h20 m-174 0 q10 0 10 10 m154 0 q0 -10 10 -10 m-164 10 v24 m154 0 v-24 m-154 24 q0 10 10 10 m134 0 q10 0 10 -10 m-144 10 h10 m114 0 h10 m23 -44 h-3"/>
   <polygon points="425 17 433 13 433 21"/>
   <polygon points="425 17 417 13 417 21"/>
</svg>
