<?xml version="1.0" encoding="UTF-8"?>
<svg xmlns="http://www.w3.org/2000/svg" width="419" height="81">
   <defs>
      <style type="text/css">
    @namespace "http://www.w3.org/2000/svg";
    .line                 {fill: none; stroke: #332900; stroke-width: 1;}
    .bold-line            {stroke: #141000; shape-rendering: crispEdges; stroke-width: 2;}
    .thin-line            {stroke: #1F1800; shape-rendering: crispEdges}
    .filled               {fill: #332900; stroke: none;}
    text.terminal         {font-family: Verdana, Sans-serif;
                            font-size: 12px;
                            fill: #141000;
                            font-weight: bold;
                          }
    text.nonterminal      {font-family: Verdana, Sans-serif;
                            font-size: 12px;
                            fill: #1A1400;
                            font-weight: normal;
                          }
    text.regexp           {font-family: Verdana, Sans-serif;
                            font-size: 12px;
                            fill: #1F1800;
                            font-weight: normal;
                          }
    rect, circle, polygon {fill: #332900; stroke: #332900;}
    rect.terminal         {fill: #FFDB4D; stroke: #332900; stroke-width: 1;}
    rect.nonterminal      {fill: #FFEC9E; stroke: #332900; stroke-width: 1;}
    rect.text             {fill: none; stroke: none;}
    polygon.regexp        {fill: #FFF4C7; stroke: #332900; stroke-width: 1;}
  </style>
   </defs>
   <polygon points="9 17 1 13 1 21"/>
   <polygon points="17 17 9 13 9 21"/>
   <rect x="31" y="3" width="62" height="32" rx="10"/>
   <rect x="29"
          y="1"
          width="62"
          height="32"
          class="terminal"
          rx="10"/>
   <text class="terminal" x="39" y="21">assert</text>
   <a xmlns:xlink="http://www.w3.org/1999/xlink"
       xlink:href="#Identifier"
       xlink:title="Identifier">
      <rect x="113" y="3" width="78" height="32"/>
      <rect x="111" y="1" width="78" height="32" class="nonterminal"/>
      <text class="nonterminal" x="121" y="21">Identifier</text>
   </a>
   <a xmlns:xlink="http://www.w3.org/1999/xlink"
       xlink:href="#InformalConstraint"
       xlink:title="InformalConstraint">
      <rect x="231" y="3" width="140" height="32"/>
      <rect x="229" y="1" width="140" height="32" class="nonterminal"/>
      <text class="nonterminal" x="239" y="21">InformalConstraint</text>
   </a>
   <a xmlns:xlink="http://www.w3.org/1999/xlink"
       xlink:href="#FormalConstraint"
       xlink:title="FormalConstraint">
      <rect x="231" y="47" width="128" height="32"/>
      <rect x="229" y="45" width="128" height="32" class="nonterminal"/>
      <text class="nonterminal" x="239" y="65">FormalConstraint</text>
   </a>
   <path class="line"
          d="m17 17 h2 m0 0 h10 m62 0 h10 m0 0 h10 m78 0 h10 m20 0 h10 m140 0 h10 m-180 0 h20 m160 0 h20 m-200 0 q10 0 10 10 m180 0 q0 -10 10 -10 m-190 10 v24 m180 0 v-24 m-180 24 q0 10 10 10 m160 0 q10 0 10 -10 m-170 10 h10 m128 0 h10 m0 0 h12 m23 -44 h-3"/>
   <polygon points="409 17 417 13 417 21"/>
   <polygon points="409 17 401 13 401 21"/>
</svg>
