<?xml version="1.0" encoding="UTF-8"?>
<svg xmlns="http://www.w3.org/2000/svg" width="995" height="253">
   <defs>
      <style type="text/css">
    @namespace "http://www.w3.org/2000/svg";
    .line                 {fill: none; stroke: #332900; stroke-width: 1;}
    .bold-line            {stroke: #141000; shape-rendering: crispEdges; stroke-width: 2;}
    .thin-line            {stroke: #1F1800; shape-rendering: crispEdges}
    .filled               {fill: #332900; stroke: none;}
    text.terminal         {font-family: Verdana, Sans-serif;
                            font-size: 12px;
                            fill: #141000;
                            font-weight: bold;
                          }
    text.nonterminal      {font-family: Verdana, Sans-serif;
                            font-size: 12px;
                            fill: #1A1400;
                            font-weight: normal;
                          }
    text.regexp           {font-family: Verdana, Sans-serif;
                            font-size: 12px;
                            fill: #1F1800;
                            font-weight: normal;
                          }
    rect, circle, polygon {fill: #332900; stroke: #332900;}
    rect.terminal         {fill: #FFDB4D; stroke: #332900; stroke-width: 1;}
    rect.nonterminal      {fill: #FFEC9E; stroke: #332900; stroke-width: 1;}
    rect.text             {fill: none; stroke: none;}
    polygon.regexp        {fill: #FFF4C7; stroke: #332900; stroke-width: 1;}
  </style>
   </defs>
   <polygon points="9 17 1 13 1 21"/>
   <polygon points="17 17 9 13 9 21"/>
   <rect x="31" y="3" width="32" height="32" rx="10"/>
   <rect x="29"
          y="1"
          width="32"
          height="32"
          class="terminal"
          rx="10"/>
   <text class="terminal" x="39" y="21">@</text>
   <a xmlns:xlink="http://www.w3.org/1999/xlink"
       xlink:href="#LanguageTagPrimary"
       xlink:title="LanguageTagPrimary">
      <rect x="83" y="3" width="154" height="32"/>
      <rect x="81" y="1" width="154" height="32" class="nonterminal"/>
      <text class="nonterminal" x="91" y="21">LanguageTagPrimary</text>
   </a>
   <a xmlns:xlink="http://www.w3.org/1999/xlink"
       xlink:href="#ControlledLanguageScheme"
       xlink:title="ControlledLanguageScheme">
      <rect x="257" y="3" width="198" height="32"/>
      <rect x="255" y="1" width="198" height="32" class="nonterminal"/>
      <text class="nonterminal" x="265" y="21">ControlledLanguageScheme</text>
   </a>
   <a xmlns:xlink="http://www.w3.org/1999/xlink"
       xlink:href="#ControlledLanguageScheme"
       xlink:title="ControlledLanguageScheme">
      <rect x="495" y="35" width="198" height="32"/>
      <rect x="493" y="33" width="198" height="32" class="nonterminal"/>
      <text class="nonterminal" x="503" y="53">ControlledLanguageScheme</text>
   </a>
   <rect x="733" y="3" width="26" height="32" rx="10"/>
   <rect x="731"
          y="1"
          width="26"
          height="32"
          class="terminal"
          rx="10"/>
   <text class="terminal" x="741" y="21">-</text>
   <a xmlns:xlink="http://www.w3.org/1999/xlink"
       xlink:href="#ETTER"
       xlink:title="ETTER">
      <rect x="779" y="3" width="58" height="32"/>
      <rect x="777" y="1" width="58" height="32" class="nonterminal"/>
      <text class="nonterminal" x="787" y="21">ETTER</text>
   </a>
   <a xmlns:xlink="http://www.w3.org/1999/xlink"
       xlink:href="#ASCII_LETTER"
       xlink:title="ASCII_LETTER">
      <rect x="857" y="3" width="108" height="32"/>
      <rect x="855" y="1" width="108" height="32" class="nonterminal"/>
      <text class="nonterminal" x="865" y="21">ASCII_LETTER</text>
   </a>
   <a xmlns:xlink="http://www.w3.org/1999/xlink"
       xlink:href="#ASCII_LETTER"
       xlink:title="ASCII_LETTER">
      <rect x="25" y="101" width="108" height="32"/>
      <rect x="23" y="99" width="108" height="32" class="nonterminal"/>
      <text class="nonterminal" x="33" y="119">ASCII_LETTER</text>
   </a>
   <a xmlns:xlink="http://www.w3.org/1999/xlink"
       xlink:href="#ASCII_LETTER"
       xlink:title="ASCII_LETTER">
      <rect x="173" y="133" width="108" height="32"/>
      <rect x="171" y="131" width="108" height="32" class="nonterminal"/>
      <text class="nonterminal" x="181" y="151">ASCII_LETTER</text>
   </a>
   <a xmlns:xlink="http://www.w3.org/1999/xlink"
       xlink:href="#ASCII_LETTER"
       xlink:title="ASCII_LETTER">
      <rect x="341" y="133" width="108" height="32"/>
      <rect x="339" y="131" width="108" height="32" class="nonterminal"/>
      <text class="nonterminal" x="349" y="151">ASCII_LETTER</text>
   </a>
   <a xmlns:xlink="http://www.w3.org/1999/xlink"
       xlink:href="#ASCII_LETTER"
       xlink:title="ASCII_LETTER">
      <rect x="509" y="133" width="108" height="32"/>
      <rect x="507" y="131" width="108" height="32" class="nonterminal"/>
      <text class="nonterminal" x="517" y="151">ASCII_LETTER</text>
   </a>
   <a xmlns:xlink="http://www.w3.org/1999/xlink"
       xlink:href="#ASCII_LETTER"
       xlink:title="ASCII_LETTER">
      <rect x="677" y="133" width="108" height="32"/>
      <rect x="675" y="131" width="108" height="32" class="nonterminal"/>
      <text class="nonterminal" x="685" y="151">ASCII_LETTER</text>
   </a>
   <a xmlns:xlink="http://www.w3.org/1999/xlink"
       xlink:href="#ASCII_LETTER"
       xlink:title="ASCII_LETTER">
      <rect x="845" y="133" width="108" height="32"/>
      <rect x="843" y="131" width="108" height="32" class="nonterminal"/>
      <text class="nonterminal" x="853" y="151">ASCII_LETTER</text>
   </a>
   <a xmlns:xlink="http://www.w3.org/1999/xlink"
       xlink:href="#ASCII_LETTER"
       xlink:title="ASCII_LETTER">
      <rect x="839" y="219" width="108" height="32"/>
      <rect x="837" y="217" width="108" height="32" class="nonterminal"/>
      <text class="nonterminal" x="847" y="237">ASCII_LETTER</text>
   </a>
   <path class="line"
          d="m17 17 h2 m0 0 h10 m32 0 h10 m0 0 h10 m154 0 h10 m0 0 h10 m198 0 h10 m20 0 h10 m0 0 h208 m-238 0 h20 m218 0 h20 m-258 0 q10 0 10 10 m238 0 q0 -10 10 -10 m-248 10 v12 m238 0 v-12 m-238 12 q0 10 10 10 m218 0 q10 0 10 -10 m-228 10 h10 m198 0 h10 m20 -32 h10 m26 0 h10 m0 0 h10 m58 0 h10 m0 0 h10 m108 0 h10 m2 0 l2 0 m2 0 l2 0 m2 0 l2 0 m-984 98 l2 0 m2 0 l2 0 m2 0 l2 0 m2 0 h10 m108 0 h10 m20 0 h10 m0 0 h118 m-148 0 h20 m128 0 h20 m-168 0 q10 0 10 10 m148 0 q0 -10 10 -10 m-158 10 v12 m148 0 v-12 m-148 12 q0 10 10 10 m128 0 q10 0 10 -10 m-138 10 h10 m108 0 h10 m40 -32 h10 m0 0 h118 m-148 0 h20 m128 0 h20 m-168 0 q10 0 10 10 m148 0 q0 -10 10 -10 m-158 10 v12 m148 0 v-12 m-148 12 q0 10 10 10 m128 0 q10 0 10 -10 m-138 10 h10 m108 0 h10 m40 -32 h10 m0 0 h118 m-148 0 h20 m128 0 h20 m-168 0 q10 0 10 10 m148 0 q0 -10 10 -10 m-158 10 v12 m148 0 v-12 m-148 12 q0 10 10 10 m128 0 q10 0 10 -10 m-138 10 h10 m108 0 h10 m40 -32 h10 m0 0 h118 m-148 0 h20 m128 0 h20 m-168 0 q10 0 10 10 m148 0 q0 -10 10 -10 m-158 10 v12 m148 0 v-12 m-148 12 q0 10 10 10 m128 0 q10 0 10 -10 m-138 10 h10 m108 0 h10 m40 -32 h10 m0 0 h118 m-148 0 h20 m128 0 h20 m-168 0 q10 0 10 10 m148 0 q0 -10 10 -10 m-158 10 v12 m148 0 v-12 m-148 12 q0 10 10 10 m128 0 q10 0 10 -10 m-138 10 h10 m108 0 h10 m22 -32 l2 0 m2 0 l2 0 m2 0 l2 0 m-198 86 l2 0 m2 0 l2 0 m2 0 l2 0 m22 0 h10 m0 0 h118 m-148 0 h20 m128 0 h20 m-168 0 q10 0 10 10 m148 0 q0 -10 10 -10 m-158 10 v12 m148 0 v-12 m-148 12 q0 10 10 10 m128 0 q10 0 10 -10 m-138 10 h10 m108 0 h10 m23 -32 h-3"/>
   <polygon points="985 201 993 197 993 205"/>
   <polygon points="985 201 977 197 977 205"/>
</svg>
