<?xml version="1.0" encoding="UTF-8"?>
<svg xmlns="http://www.w3.org/2000/svg" width="967" height="155">
   <defs>
      <style type="text/css">
    @namespace "http://www.w3.org/2000/svg";
    .line                 {fill: none; stroke: #332900; stroke-width: 1;}
    .bold-line            {stroke: #141000; shape-rendering: crispEdges; stroke-width: 2;}
    .thin-line            {stroke: #1F1800; shape-rendering: crispEdges}
    .filled               {fill: #332900; stroke: none;}
    text.terminal         {font-family: Verdana, Sans-serif;
                            font-size: 12px;
                            fill: #141000;
                            font-weight: bold;
                          }
    text.nonterminal      {font-family: Verdana, Sans-serif;
                            font-size: 12px;
                            fill: #1A1400;
                            font-weight: normal;
                          }
    text.regexp           {font-family: Verdana, Sans-serif;
                            font-size: 12px;
                            fill: #1F1800;
                            font-weight: normal;
                          }
    rect, circle, polygon {fill: #332900; stroke: #332900;}
    rect.terminal         {fill: #FFDB4D; stroke: #332900; stroke-width: 1;}
    rect.nonterminal      {fill: #FFEC9E; stroke: #332900; stroke-width: 1;}
    rect.text             {fill: none; stroke: none;}
    polygon.regexp        {fill: #FFF4C7; stroke: #332900; stroke-width: 1;}
  </style>
   </defs>
   <polygon points="9 17 1 13 1 21"/>
   <polygon points="17 17 9 13 9 21"/>
   <rect x="31" y="3" width="26" height="32" rx="10"/>
   <rect x="29"
          y="1"
          width="26"
          height="32"
          class="terminal"
          rx="10"/>
   <text class="terminal" x="39" y="21">-</text>
   <a xmlns:xlink="http://www.w3.org/1999/xlink"
       xlink:href="#ASCII_LETTER"
       xlink:title="ASCII_LETTER">
      <rect x="77" y="3" width="108" height="32"/>
      <rect x="75" y="1" width="108" height="32" class="nonterminal"/>
      <text class="nonterminal" x="85" y="21">ASCII_LETTER</text>
   </a>
   <a xmlns:xlink="http://www.w3.org/1999/xlink"
       xlink:href="#ASCII_LETTER"
       xlink:title="ASCII_LETTER">
      <rect x="205" y="3" width="108" height="32"/>
      <rect x="203" y="1" width="108" height="32" class="nonterminal"/>
      <text class="nonterminal" x="213" y="21">ASCII_LETTER</text>
   </a>
   <a xmlns:xlink="http://www.w3.org/1999/xlink"
       xlink:href="#ASCII_LETTER"
       xlink:title="ASCII_LETTER">
      <rect x="333" y="3" width="108" height="32"/>
      <rect x="331" y="1" width="108" height="32" class="nonterminal"/>
      <text class="nonterminal" x="341" y="21">ASCII_LETTER</text>
   </a>
   <a xmlns:xlink="http://www.w3.org/1999/xlink"
       xlink:href="#ASCII_LETTER"
       xlink:title="ASCII_LETTER">
      <rect x="481" y="35" width="108" height="32"/>
      <rect x="479" y="33" width="108" height="32" class="nonterminal"/>
      <text class="nonterminal" x="489" y="53">ASCII_LETTER</text>
   </a>
   <a xmlns:xlink="http://www.w3.org/1999/xlink"
       xlink:href="#ASCII_LETTER"
       xlink:title="ASCII_LETTER">
      <rect x="649" y="35" width="108" height="32"/>
      <rect x="647" y="33" width="108" height="32" class="nonterminal"/>
      <text class="nonterminal" x="657" y="53">ASCII_LETTER</text>
   </a>
   <a xmlns:xlink="http://www.w3.org/1999/xlink"
       xlink:href="#ASCII_LETTER"
       xlink:title="ASCII_LETTER">
      <rect x="817" y="35" width="108" height="32"/>
      <rect x="815" y="33" width="108" height="32" class="nonterminal"/>
      <text class="nonterminal" x="825" y="53">ASCII_LETTER</text>
   </a>
   <a xmlns:xlink="http://www.w3.org/1999/xlink"
       xlink:href="#ASCII_LETTER"
       xlink:title="ASCII_LETTER">
      <rect x="475" y="121" width="108" height="32"/>
      <rect x="473" y="119" width="108" height="32" class="nonterminal"/>
      <text class="nonterminal" x="483" y="139">ASCII_LETTER</text>
   </a>
   <a xmlns:xlink="http://www.w3.org/1999/xlink"
       xlink:href="#ASCII_LETTER"
       xlink:title="ASCII_LETTER">
      <rect x="643" y="121" width="108" height="32"/>
      <rect x="641" y="119" width="108" height="32" class="nonterminal"/>
      <text class="nonterminal" x="651" y="139">ASCII_LETTER</text>
   </a>
   <a xmlns:xlink="http://www.w3.org/1999/xlink"
       xlink:href="#ASCII_LETTER"
       xlink:title="ASCII_LETTER">
      <rect x="811" y="121" width="108" height="32"/>
      <rect x="809" y="119" width="108" height="32" class="nonterminal"/>
      <text class="nonterminal" x="819" y="139">ASCII_LETTER</text>
   </a>
   <path class="line"
          d="m17 17 h2 m0 0 h10 m26 0 h10 m0 0 h10 m108 0 h10 m0 0 h10 m108 0 h10 m0 0 h10 m108 0 h10 m20 0 h10 m0 0 h118 m-148 0 h20 m128 0 h20 m-168 0 q10 0 10 10 m148 0 q0 -10 10 -10 m-158 10 v12 m148 0 v-12 m-148 12 q0 10 10 10 m128 0 q10 0 10 -10 m-138 10 h10 m108 0 h10 m40 -32 h10 m0 0 h118 m-148 0 h20 m128 0 h20 m-168 0 q10 0 10 10 m148 0 q0 -10 10 -10 m-158 10 v12 m148 0 v-12 m-148 12 q0 10 10 10 m128 0 q10 0 10 -10 m-138 10 h10 m108 0 h10 m40 -32 h10 m0 0 h118 m-148 0 h20 m128 0 h20 m-168 0 q10 0 10 10 m148 0 q0 -10 10 -10 m-158 10 v12 m148 0 v-12 m-148 12 q0 10 10 10 m128 0 q10 0 10 -10 m-138 10 h10 m108 0 h10 m22 -32 l2 0 m2 0 l2 0 m2 0 l2 0 m-534 86 l2 0 m2 0 l2 0 m2 0 l2 0 m22 0 h10 m0 0 h118 m-148 0 h20 m128 0 h20 m-168 0 q10 0 10 10 m148 0 q0 -10 10 -10 m-158 10 v12 m148 0 v-12 m-148 12 q0 10 10 10 m128 0 q10 0 10 -10 m-138 10 h10 m108 0 h10 m40 -32 h10 m0 0 h118 m-148 0 h20 m128 0 h20 m-168 0 q10 0 10 10 m148 0 q0 -10 10 -10 m-158 10 v12 m148 0 v-12 m-148 12 q0 10 10 10 m128 0 q10 0 10 -10 m-138 10 h10 m108 0 h10 m40 -32 h10 m0 0 h118 m-148 0 h20 m128 0 h20 m-168 0 q10 0 10 10 m148 0 q0 -10 10 -10 m-158 10 v12 m148 0 v-12 m-148 12 q0 10 10 10 m128 0 q10 0 10 -10 m-138 10 h10 m108 0 h10 m23 -32 h-3"/>
   <polygon points="957 103 965 99 965 107"/>
   <polygon points="957 103 949 99 949 107"/>
</svg>
