<?xml version="1.0" encoding="UTF-8"?>
<svg xmlns="http://www.w3.org/2000/svg" width="633" height="69">
   <defs>
      <style type="text/css">
    @namespace "http://www.w3.org/2000/svg";
    .line                 {fill: none; stroke: #332900; stroke-width: 1;}
    .bold-line            {stroke: #141000; shape-rendering: crispEdges; stroke-width: 2;}
    .thin-line            {stroke: #1F1800; shape-rendering: crispEdges}
    .filled               {fill: #332900; stroke: none;}
    text.terminal         {font-family: Verdana, Sans-serif;
                            font-size: 12px;
                            fill: #141000;
                            font-weight: bold;
                          }
    text.nonterminal      {font-family: Verdana, Sans-serif;
                            font-size: 12px;
                            fill: #1A1400;
                            font-weight: normal;
                          }
    text.regexp           {font-family: Verdana, Sans-serif;
                            font-size: 12px;
                            fill: #1F1800;
                            font-weight: normal;
                          }
    rect, circle, polygon {fill: #332900; stroke: #332900;}
    rect.terminal         {fill: #FFDB4D; stroke: #332900; stroke-width: 1;}
    rect.nonterminal      {fill: #FFEC9E; stroke: #332900; stroke-width: 1;}
    rect.text             {fill: none; stroke: none;}
    polygon.regexp        {fill: #FFF4C7; stroke: #332900; stroke-width: 1;}
  </style>
   </defs>
   <polygon points="9 17 1 13 1 21"/>
   <polygon points="17 17 9 13 9 21"/>
   <rect x="31" y="3" width="80" height="32" rx="10"/>
   <rect x="29"
          y="1"
          width="80"
          height="32"
          class="terminal"
          rx="10"/>
   <text class="terminal" x="39" y="21">datatype</text>
   <a xmlns:xlink="http://www.w3.org/1999/xlink"
       xlink:href="#Identifier"
       xlink:title="Identifier">
      <rect x="131" y="3" width="78" height="32"/>
      <rect x="129" y="1" width="78" height="32" class="nonterminal"/>
      <text class="nonterminal" x="139" y="21">Identifier</text>
   </a>
   <rect x="229" y="3" width="36" height="32" rx="10"/>
   <rect x="227"
          y="1"
          width="36"
          height="32"
          class="terminal"
          rx="10"/>
   <text class="terminal" x="237" y="21">&lt;-</text>
   <a xmlns:xlink="http://www.w3.org/1999/xlink"
       xlink:href="#DataTypeBase"
       xlink:title="DataTypeBase">
      <rect x="285" y="3" width="112" height="32"/>
      <rect x="283" y="1" width="112" height="32" class="nonterminal"/>
      <text class="nonterminal" x="293" y="21">DataTypeBase</text>
   </a>
   <a xmlns:xlink="http://www.w3.org/1999/xlink"
       xlink:href="#AnnotationOnlyBody"
       xlink:title="AnnotationOnlyBody">
      <rect x="437" y="35" width="148" height="32"/>
      <rect x="435" y="33" width="148" height="32" class="nonterminal"/>
      <text class="nonterminal" x="445" y="53">AnnotationOnlyBody</text>
   </a>
   <path class="line"
          d="m17 17 h2 m0 0 h10 m80 0 h10 m0 0 h10 m78 0 h10 m0 0 h10 m36 0 h10 m0 0 h10 m112 0 h10 m20 0 h10 m0 0 h158 m-188 0 h20 m168 0 h20 m-208 0 q10 0 10 10 m188 0 q0 -10 10 -10 m-198 10 v12 m188 0 v-12 m-188 12 q0 10 10 10 m168 0 q10 0 10 -10 m-178 10 h10 m148 0 h10 m23 -32 h-3"/>
   <polygon points="623 17 631 13 631 21"/>
   <polygon points="623 17 615 13 615 21"/>
</svg>
