<?xml version="1.0" encoding="UTF-8"?>
<svg xmlns="http://www.w3.org/2000/svg" width="299" height="81">
   <defs>
      <style type="text/css">
    @namespace "http://www.w3.org/2000/svg";
    .line                 {fill: none; stroke: #332900; stroke-width: 1;}
    .bold-line            {stroke: #141000; shape-rendering: crispEdges; stroke-width: 2;}
    .thin-line            {stroke: #1F1800; shape-rendering: crispEdges}
    .filled               {fill: #332900; stroke: none;}
    text.terminal         {font-family: Verdana, Sans-serif;
                            font-size: 12px;
                            fill: #141000;
                            font-weight: bold;
                          }
    text.nonterminal      {font-family: Verdana, Sans-serif;
                            font-size: 12px;
                            fill: #1A1400;
                            font-weight: normal;
                          }
    text.regexp           {font-family: Verdana, Sans-serif;
                            font-size: 12px;
                            fill: #1F1800;
                            font-weight: normal;
                          }
    rect, circle, polygon {fill: #332900; stroke: #332900;}
    rect.terminal         {fill: #FFDB4D; stroke: #332900; stroke-width: 1;}
    rect.nonterminal      {fill: #FFEC9E; stroke: #332900; stroke-width: 1;}
    rect.text             {fill: none; stroke: none;}
    polygon.regexp        {fill: #FFF4C7; stroke: #332900; stroke-width: 1;}
  </style>
   </defs>
   <polygon points="9 17 1 13 1 21"/>
   <polygon points="17 17 9 13 9 21"/>
   <rect x="51" y="3" width="34" height="32" rx="10"/>
   <rect x="49"
          y="1"
          width="34"
          height="32"
          class="terminal"
          rx="10"/>
   <text class="terminal" x="59" y="21">or</text>
   <rect x="51" y="47" width="30" height="32" rx="10"/>
   <rect x="49"
          y="45"
          width="30"
          height="32"
          class="terminal"
          rx="10"/>
   <text class="terminal" x="59" y="65">∨</text>
   <a xmlns:xlink="http://www.w3.org/1999/xlink"
       xlink:href="#ConstraintSentence"
       xlink:title="ConstraintSentence">
      <rect x="125" y="3" width="146" height="32"/>
      <rect x="123" y="1" width="146" height="32" class="nonterminal"/>
      <text class="nonterminal" x="133" y="21">ConstraintSentence</text>
   </a>
   <path class="line"
          d="m17 17 h2 m20 0 h10 m34 0 h10 m-74 0 h20 m54 0 h20 m-94 0 q10 0 10 10 m74 0 q0 -10 10 -10 m-84 10 v24 m74 0 v-24 m-74 24 q0 10 10 10 m54 0 q10 0 10 -10 m-64 10 h10 m30 0 h10 m0 0 h4 m20 -44 h10 m146 0 h10 m3 0 h-3"/>
   <polygon points="289 17 297 13 297 21"/>
   <polygon points="289 17 281 13 281 21"/>
</svg>
