<?xml version="1.0" encoding="UTF-8"?>
<svg xmlns="http://www.w3.org/2000/svg" width="283" height="81">
   <defs>
      <style type="text/css">
    @namespace "http://www.w3.org/2000/svg";
    .line                 {fill: none; stroke: #332900; stroke-width: 1;}
    .bold-line            {stroke: #141000; shape-rendering: crispEdges; stroke-width: 2;}
    .thin-line            {stroke: #1F1800; shape-rendering: crispEdges}
    .filled               {fill: #332900; stroke: none;}
    text.terminal         {font-family: Verdana, Sans-serif;
                            font-size: 12px;
                            fill: #141000;
                            font-weight: bold;
                          }
    text.nonterminal      {font-family: Verdana, Sans-serif;
                            font-size: 12px;
                            fill: #1A1400;
                            font-weight: normal;
                          }
    text.regexp           {font-family: Verdana, Sans-serif;
                            font-size: 12px;
                            fill: #1F1800;
                            font-weight: normal;
                          }
    rect, circle, polygon {fill: #332900; stroke: #332900;}
    rect.terminal         {fill: #FFDB4D; stroke: #332900; stroke-width: 1;}
    rect.nonterminal      {fill: #FFEC9E; stroke: #332900; stroke-width: 1;}
    rect.text             {fill: none; stroke: none;}
    polygon.regexp        {fill: #FFF4C7; stroke: #332900; stroke-width: 1;}
  </style>
   </defs>
   <polygon points="9 17 1 13 1 21"/>
   <polygon points="17 17 9 13 9 21"/>
   <rect x="31" y="3" width="36" height="32" rx="10"/>
   <rect x="29"
          y="1"
          width="36"
          height="32"
          class="terminal"
          rx="10"/>
   <text class="terminal" x="39" y="21">\\</text>
   <a xmlns:xlink="http://www.w3.org/1999/xlink"
       xlink:href="#CharacterEscape"
       xlink:title="CharacterEscape">
      <rect x="107" y="3" width="128" height="32"/>
      <rect x="105" y="1" width="128" height="32" class="nonterminal"/>
      <text class="nonterminal" x="115" y="21">CharacterEscape</text>
   </a>
   <a xmlns:xlink="http://www.w3.org/1999/xlink"
       xlink:href="#UnicodeEscape"
       xlink:title="UnicodeEscape">
      <rect x="107" y="47" width="116" height="32"/>
      <rect x="105" y="45" width="116" height="32" class="nonterminal"/>
      <text class="nonterminal" x="115" y="65">UnicodeEscape</text>
   </a>
   <path class="line"
          d="m17 17 h2 m0 0 h10 m36 0 h10 m20 0 h10 m128 0 h10 m-168 0 h20 m148 0 h20 m-188 0 q10 0 10 10 m168 0 q0 -10 10 -10 m-178 10 v24 m168 0 v-24 m-168 24 q0 10 10 10 m148 0 q10 0 10 -10 m-158 10 h10 m116 0 h10 m0 0 h12 m23 -44 h-3"/>
   <polygon points="273 17 281 13 281 21"/>
   <polygon points="273 17 265 13 265 21"/>
</svg>
