<?xml version="1.0" encoding="UTF-8"?>
<svg xmlns="http://www.w3.org/2000/svg" width="595" height="103">
   <defs>
      <style type="text/css">
    @namespace "http://www.w3.org/2000/svg";
    .line                 {fill: none; stroke: #332900; stroke-width: 1;}
    .bold-line            {stroke: #141000; shape-rendering: crispEdges; stroke-width: 2;}
    .thin-line            {stroke: #1F1800; shape-rendering: crispEdges}
    .filled               {fill: #332900; stroke: none;}
    text.terminal         {font-family: Verdana, Sans-serif;
                            font-size: 12px;
                            fill: #141000;
                            font-weight: bold;
                          }
    text.nonterminal      {font-family: Verdana, Sans-serif;
                            font-size: 12px;
                            fill: #1A1400;
                            font-weight: normal;
                          }
    text.regexp           {font-family: Verdana, Sans-serif;
                            font-size: 12px;
                            fill: #1F1800;
                            font-weight: normal;
                          }
    rect, circle, polygon {fill: #332900; stroke: #332900;}
    rect.terminal         {fill: #FFDB4D; stroke: #332900; stroke-width: 1;}
    rect.nonterminal      {fill: #FFEC9E; stroke: #332900; stroke-width: 1;}
    rect.text             {fill: none; stroke: none;}
    polygon.regexp        {fill: #FFF4C7; stroke: #332900; stroke-width: 1;}
  </style>
   </defs>
   <polygon points="9 51 1 47 1 55"/>
   <polygon points="17 51 9 47 9 55"/>
   <rect x="51" y="69" width="28" height="32" rx="10"/>
   <rect x="49"
          y="67"
          width="28"
          height="32"
          class="terminal"
          rx="10"/>
   <text class="terminal" x="59" y="87">{</text>
   <rect x="99" y="69" width="42" height="32" rx="10"/>
   <rect x="97"
          y="67"
          width="42"
          height="32"
          class="terminal"
          rx="10"/>
   <text class="terminal" x="107" y="87">xor</text>
   <rect x="161" y="69" width="28" height="32" rx="10"/>
   <rect x="159"
          y="67"
          width="28"
          height="32"
          class="terminal"
          rx="10"/>
   <text class="terminal" x="169" y="87">}</text>
   <rect x="229" y="37" width="32" height="32" rx="10"/>
   <rect x="227"
          y="35"
          width="32"
          height="32"
          class="terminal"
          rx="10"/>
   <text class="terminal" x="237" y="55">of</text>
   <a xmlns:xlink="http://www.w3.org/1999/xlink"
       xlink:href="#Annotation"
       xlink:title="Annotation">
      <rect x="301" y="3" width="90" height="32"/>
      <rect x="299" y="1" width="90" height="32" class="nonterminal"/>
      <text class="nonterminal" x="309" y="21">Annotation</text>
   </a>
   <a xmlns:xlink="http://www.w3.org/1999/xlink"
       xlink:href="#TypeVariant"
       xlink:title="TypeVariant">
      <rect x="451" y="37" width="96" height="32"/>
      <rect x="449" y="35" width="96" height="32" class="nonterminal"/>
      <text class="nonterminal" x="459" y="55">TypeVariant</text>
   </a>
   <path class="line"
          d="m17 51 h2 m20 0 h10 m0 0 h148 m-178 0 h20 m158 0 h20 m-198 0 q10 0 10 10 m178 0 q0 -10 10 -10 m-188 10 v12 m178 0 v-12 m-178 12 q0 10 10 10 m158 0 q10 0 10 -10 m-168 10 h10 m28 0 h10 m0 0 h10 m42 0 h10 m0 0 h10 m28 0 h10 m20 -32 h10 m32 0 h10 m20 0 h10 m0 0 h100 m-130 0 l20 0 m-1 0 q-9 0 -9 -10 l0 -14 q0 -10 10 -10 m110 34 l20 0 m-20 0 q10 0 10 -10 l0 -14 q0 -10 -10 -10 m-110 0 h10 m90 0 h10 m40 34 h10 m96 0 h10 m-136 0 l20 0 m-1 0 q-9 0 -9 -10 l0 -12 q0 -10 10 -10 m116 32 l20 0 m-20 0 q10 0 10 -10 l0 -12 q0 -10 -10 -10 m-116 0 h10 m0 0 h106 m23 32 h-3"/>
   <polygon points="585 51 593 47 593 55"/>
   <polygon points="585 51 577 47 577 55"/>
</svg>
