<?xml version="1.0" encoding="UTF-8"?>
<svg xmlns="http://www.w3.org/2000/svg" width="547" height="71">
   <defs>
      <style type="text/css">
    @namespace "http://www.w3.org/2000/svg";
    .line                 {fill: none; stroke: #332900; stroke-width: 1;}
    .bold-line            {stroke: #141000; shape-rendering: crispEdges; stroke-width: 2;}
    .thin-line            {stroke: #1F1800; shape-rendering: crispEdges}
    .filled               {fill: #332900; stroke: none;}
    text.terminal         {font-family: Verdana, Sans-serif;
                            font-size: 12px;
                            fill: #141000;
                            font-weight: bold;
                          }
    text.nonterminal      {font-family: Verdana, Sans-serif;
                            font-size: 12px;
                            fill: #1A1400;
                            font-weight: normal;
                          }
    text.regexp           {font-family: Verdana, Sans-serif;
                            font-size: 12px;
                            fill: #1F1800;
                            font-weight: normal;
                          }
    rect, circle, polygon {fill: #332900; stroke: #332900;}
    rect.terminal         {fill: #FFDB4D; stroke: #332900; stroke-width: 1;}
    rect.nonterminal      {fill: #FFEC9E; stroke: #332900; stroke-width: 1;}
    rect.text             {fill: none; stroke: none;}
    polygon.regexp        {fill: #FFF4C7; stroke: #332900; stroke-width: 1;}
  </style>
   </defs>
   <polygon points="9 51 1 47 1 55"/>
   <polygon points="17 51 9 47 9 55"/>
   <rect x="31" y="37" width="28" height="32" rx="10"/>
   <rect x="29"
          y="35"
          width="28"
          height="32"
          class="terminal"
          rx="10"/>
   <text class="terminal" x="39" y="55">{</text>
   <rect x="79" y="37" width="34" height="32" rx="10"/>
   <rect x="77"
          y="35"
          width="34"
          height="32"
          class="terminal"
          rx="10"/>
   <text class="terminal" x="87" y="55">or</text>
   <rect x="133" y="37" width="28" height="32" rx="10"/>
   <rect x="131"
          y="35"
          width="28"
          height="32"
          class="terminal"
          rx="10"/>
   <text class="terminal" x="141" y="55">}</text>
   <rect x="181" y="37" width="32" height="32" rx="10"/>
   <rect x="179"
          y="35"
          width="32"
          height="32"
          class="terminal"
          rx="10"/>
   <text class="terminal" x="189" y="55">of</text>
   <a xmlns:xlink="http://www.w3.org/1999/xlink"
       xlink:href="#Annotation"
       xlink:title="Annotation">
      <rect x="253" y="3" width="90" height="32"/>
      <rect x="251" y="1" width="90" height="32" class="nonterminal"/>
      <text class="nonterminal" x="261" y="21">Annotation</text>
   </a>
   <a xmlns:xlink="http://www.w3.org/1999/xlink"
       xlink:href="#TypeVariant"
       xlink:title="TypeVariant">
      <rect x="403" y="37" width="96" height="32"/>
      <rect x="401" y="35" width="96" height="32" class="nonterminal"/>
      <text class="nonterminal" x="411" y="55">TypeVariant</text>
   </a>
   <path class="line"
          d="m17 51 h2 m0 0 h10 m28 0 h10 m0 0 h10 m34 0 h10 m0 0 h10 m28 0 h10 m0 0 h10 m32 0 h10 m20 0 h10 m0 0 h100 m-130 0 l20 0 m-1 0 q-9 0 -9 -10 l0 -14 q0 -10 10 -10 m110 34 l20 0 m-20 0 q10 0 10 -10 l0 -14 q0 -10 -10 -10 m-110 0 h10 m90 0 h10 m40 34 h10 m96 0 h10 m-136 0 l20 0 m-1 0 q-9 0 -9 -10 l0 -12 q0 -10 10 -10 m116 32 l20 0 m-20 0 q10 0 10 -10 l0 -12 q0 -10 -10 -10 m-116 0 h10 m0 0 h106 m23 32 h-3"/>
   <polygon points="537 51 545 47 545 55"/>
   <polygon points="537 51 529 47 529 55"/>
</svg>
