<?xml version="1.0" encoding="UTF-8"?>
<svg xmlns="http://www.w3.org/2000/svg" width="543" height="157">
   <defs>
      <style type="text/css">
    @namespace "http://www.w3.org/2000/svg";
    .line                 {fill: none; stroke: #332900; stroke-width: 1;}
    .bold-line            {stroke: #141000; shape-rendering: crispEdges; stroke-width: 2;}
    .thin-line            {stroke: #1F1800; shape-rendering: crispEdges}
    .filled               {fill: #332900; stroke: none;}
    text.terminal         {font-family: Verdana, Sans-serif;
                            font-size: 12px;
                            fill: #141000;
                            font-weight: bold;
                          }
    text.nonterminal      {font-family: Verdana, Sans-serif;
                            font-size: 12px;
                            fill: #1A1400;
                            font-weight: normal;
                          }
    text.regexp           {font-family: Verdana, Sans-serif;
                            font-size: 12px;
                            fill: #1F1800;
                            font-weight: normal;
                          }
    rect, circle, polygon {fill: #332900; stroke: #332900;}
    rect.terminal         {fill: #FFDB4D; stroke: #332900; stroke-width: 1;}
    rect.nonterminal      {fill: #FFEC9E; stroke: #332900; stroke-width: 1;}
    rect.text             {fill: none; stroke: none;}
    polygon.regexp        {fill: #FFF4C7; stroke: #332900; stroke-width: 1;}
  </style>
   </defs>
   <polygon points="9 17 1 13 1 21"/>
   <polygon points="17 17 9 13 9 21"/>
   <rect x="31" y="3" width="76" height="32" rx="10"/>
   <rect x="29"
          y="1"
          width="76"
          height="32"
          class="terminal"
          rx="10"/>
   <text class="terminal" x="39" y="21">features</text>
   <a xmlns:xlink="http://www.w3.org/1999/xlink"
       xlink:href="#Identifier"
       xlink:title="Identifier">
      <rect x="127" y="3" width="78" height="32"/>
      <rect x="125" y="1" width="78" height="32" class="nonterminal"/>
      <text class="nonterminal" x="135" y="21">Identifier</text>
   </a>
   <a xmlns:xlink="http://www.w3.org/1999/xlink"
       xlink:href="#FeatureSetConjunctiveBody"
       xlink:title="FeatureSetConjunctiveBody">
      <rect x="245" y="35" width="196" height="32"/>
      <rect x="243" y="33" width="196" height="32" class="nonterminal"/>
      <text class="nonterminal" x="253" y="53">FeatureSetConjunctiveBody</text>
   </a>
   <a xmlns:xlink="http://www.w3.org/1999/xlink"
       xlink:href="#FeatureSetDisjunctiveBody"
       xlink:title="FeatureSetDisjunctiveBody">
      <rect x="245" y="79" width="190" height="32"/>
      <rect x="243" y="77" width="190" height="32" class="nonterminal"/>
      <text class="nonterminal" x="253" y="97">FeatureSetDisjunctiveBody</text>
   </a>
   <a xmlns:xlink="http://www.w3.org/1999/xlink"
       xlink:href="#FeatureSetExclusiveDisjunctionBody"
       xlink:title="FeatureSetExclusiveDisjunctionBody">
      <rect x="245" y="123" width="250" height="32"/>
      <rect x="243" y="121" width="250" height="32" class="nonterminal"/>
      <text class="nonterminal" x="253" y="141">FeatureSetExclusiveDisjunctionBody</text>
   </a>
   <path class="line"
          d="m17 17 h2 m0 0 h10 m76 0 h10 m0 0 h10 m78 0 h10 m20 0 h10 m0 0 h260 m-290 0 h20 m270 0 h20 m-310 0 q10 0 10 10 m290 0 q0 -10 10 -10 m-300 10 v12 m290 0 v-12 m-290 12 q0 10 10 10 m270 0 q10 0 10 -10 m-280 10 h10 m196 0 h10 m0 0 h54 m-280 -10 v20 m290 0 v-20 m-290 20 v24 m290 0 v-24 m-290 24 q0 10 10 10 m270 0 q10 0 10 -10 m-280 10 h10 m190 0 h10 m0 0 h60 m-280 -10 v20 m290 0 v-20 m-290 20 v24 m290 0 v-24 m-290 24 q0 10 10 10 m270 0 q10 0 10 -10 m-280 10 h10 m250 0 h10 m23 -120 h-3"/>
   <polygon points="533 17 541 13 541 21"/>
   <polygon points="533 17 525 13 525 21"/>
</svg>
