<?xml version="1.0" encoding="UTF-8"?>
<svg xmlns="http://www.w3.org/2000/svg" width="545" height="69">
   <defs>
      <style type="text/css">
    @namespace "http://www.w3.org/2000/svg";
    .line                 {fill: none; stroke: #332900; stroke-width: 1;}
    .bold-line            {stroke: #141000; shape-rendering: crispEdges; stroke-width: 2;}
    .thin-line            {stroke: #1F1800; shape-rendering: crispEdges}
    .filled               {fill: #332900; stroke: none;}
    text.terminal         {font-family: Verdana, Sans-serif;
                            font-size: 12px;
                            fill: #141000;
                            font-weight: bold;
                          }
    text.nonterminal      {font-family: Verdana, Sans-serif;
                            font-size: 12px;
                            fill: #1A1400;
                            font-weight: normal;
                          }
    text.regexp           {font-family: Verdana, Sans-serif;
                            font-size: 12px;
                            fill: #1F1800;
                            font-weight: normal;
                          }
    rect, circle, polygon {fill: #332900; stroke: #332900;}
    rect.terminal         {fill: #FFDB4D; stroke: #332900; stroke-width: 1;}
    rect.nonterminal      {fill: #FFEC9E; stroke: #332900; stroke-width: 1;}
    rect.text             {fill: none; stroke: none;}
    polygon.regexp        {fill: #FFF4C7; stroke: #332900; stroke-width: 1;}
  </style>
   </defs>
   <polygon points="9 17 1 13 1 21"/>
   <polygon points="17 17 9 13 9 21"/>
   <rect x="31" y="3" width="30" height="32" rx="10"/>
   <rect x="29"
          y="1"
          width="30"
          height="32"
          class="terminal"
          rx="10"/>
   <text class="terminal" x="39" y="21">is</text>
   <a xmlns:xlink="http://www.w3.org/1999/xlink"
       xlink:href="#ConstraintEnvironment"
       xlink:title="ConstraintEnvironment">
      <rect x="101" y="35" width="166" height="32"/>
      <rect x="99" y="33" width="166" height="32" class="nonterminal"/>
      <text class="nonterminal" x="109" y="53">ConstraintEnvironment</text>
   </a>
   <a xmlns:xlink="http://www.w3.org/1999/xlink"
       xlink:href="#ConstraintSentence"
       xlink:title="ConstraintSentence">
      <rect x="307" y="3" width="146" height="32"/>
      <rect x="305" y="1" width="146" height="32" class="nonterminal"/>
      <text class="nonterminal" x="315" y="21">ConstraintSentence</text>
   </a>
   <rect x="473" y="3" width="44" height="32" rx="10"/>
   <rect x="471"
          y="1"
          width="44"
          height="32"
          class="terminal"
          rx="10"/>
   <text class="terminal" x="481" y="21">end</text>
   <path class="line"
          d="m17 17 h2 m0 0 h10 m30 0 h10 m20 0 h10 m0 0 h176 m-206 0 h20 m186 0 h20 m-226 0 q10 0 10 10 m206 0 q0 -10 10 -10 m-216 10 v12 m206 0 v-12 m-206 12 q0 10 10 10 m186 0 q10 0 10 -10 m-196 10 h10 m166 0 h10 m20 -32 h10 m146 0 h10 m0 0 h10 m44 0 h10 m3 0 h-3"/>
   <polygon points="535 17 543 13 543 21"/>
   <polygon points="535 17 527 13 527 21"/>
</svg>
