<?xml version="1.0" encoding="UTF-8"?>
<svg xmlns="http://www.w3.org/2000/svg" width="357" height="69">
   <defs>
      <style type="text/css">
    @namespace "http://www.w3.org/2000/svg";
    .line                 {fill: none; stroke: #332900; stroke-width: 1;}
    .bold-line            {stroke: #141000; shape-rendering: crispEdges; stroke-width: 2;}
    .thin-line            {stroke: #1F1800; shape-rendering: crispEdges}
    .filled               {fill: #332900; stroke: none;}
    text.terminal         {font-family: Verdana, Sans-serif;
                            font-size: 12px;
                            fill: #141000;
                            font-weight: bold;
                          }
    text.nonterminal      {font-family: Verdana, Sans-serif;
                            font-size: 12px;
                            fill: #1A1400;
                            font-weight: normal;
                          }
    text.regexp           {font-family: Verdana, Sans-serif;
                            font-size: 12px;
                            fill: #1F1800;
                            font-weight: normal;
                          }
    rect, circle, polygon {fill: #332900; stroke: #332900;}
    rect.terminal         {fill: #FFDB4D; stroke: #332900; stroke-width: 1;}
    rect.nonterminal      {fill: #FFEC9E; stroke: #332900; stroke-width: 1;}
    rect.text             {fill: none; stroke: none;}
    polygon.regexp        {fill: #FFF4C7; stroke: #332900; stroke-width: 1;}
  </style>
   </defs>
   <polygon points="9 17 1 13 1 21"/>
   <polygon points="17 17 9 13 9 21"/>
   <a xmlns:xlink="http://www.w3.org/1999/xlink"
       xlink:href="#Identifier"
       xlink:title="Identifier">
      <rect x="51" y="35" width="78" height="32"/>
      <rect x="49" y="33" width="78" height="32" class="nonterminal"/>
      <text class="nonterminal" x="59" y="53">Identifier</text>
   </a>
   <rect x="149" y="35" width="36" height="32" rx="10"/>
   <rect x="147"
          y="33"
          width="36"
          height="32"
          class="terminal"
          rx="10"/>
   <text class="terminal" x="157" y="53">-&gt;</text>
   <a xmlns:xlink="http://www.w3.org/1999/xlink"
       xlink:href="#FunctionType"
       xlink:title="FunctionType">
      <rect x="225" y="3" width="104" height="32"/>
      <rect x="223" y="1" width="104" height="32" class="nonterminal"/>
      <text class="nonterminal" x="233" y="21">FunctionType</text>
   </a>
   <path class="line"
          d="m17 17 h2 m20 0 h10 m0 0 h144 m-174 0 h20 m154 0 h20 m-194 0 q10 0 10 10 m174 0 q0 -10 10 -10 m-184 10 v12 m174 0 v-12 m-174 12 q0 10 10 10 m154 0 q10 0 10 -10 m-164 10 h10 m78 0 h10 m0 0 h10 m36 0 h10 m20 -32 h10 m104 0 h10 m3 0 h-3"/>
   <polygon points="347 17 355 13 355 21"/>
   <polygon points="347 17 339 13 339 21"/>
</svg>
