<?xml version="1.0" encoding="UTF-8"?>
<svg xmlns="http://www.w3.org/2000/svg" width="401" height="125">
   <defs>
      <style type="text/css">
    @namespace "http://www.w3.org/2000/svg";
    .line                 {fill: none; stroke: #332900; stroke-width: 1;}
    .bold-line            {stroke: #141000; shape-rendering: crispEdges; stroke-width: 2;}
    .thin-line            {stroke: #1F1800; shape-rendering: crispEdges}
    .filled               {fill: #332900; stroke: none;}
    text.terminal         {font-family: Verdana, Sans-serif;
                            font-size: 12px;
                            fill: #141000;
                            font-weight: bold;
                          }
    text.nonterminal      {font-family: Verdana, Sans-serif;
                            font-size: 12px;
                            fill: #1A1400;
                            font-weight: normal;
                          }
    text.regexp           {font-family: Verdana, Sans-serif;
                            font-size: 12px;
                            fill: #1F1800;
                            font-weight: normal;
                          }
    rect, circle, polygon {fill: #332900; stroke: #332900;}
    rect.terminal         {fill: #FFDB4D; stroke: #332900; stroke-width: 1;}
    rect.nonterminal      {fill: #FFEC9E; stroke: #332900; stroke-width: 1;}
    rect.text             {fill: none; stroke: none;}
    polygon.regexp        {fill: #FFF4C7; stroke: #332900; stroke-width: 1;}
  </style>
   </defs>
   <polygon points="9 17 1 13 1 21"/>
   <polygon points="17 17 9 13 9 21"/>
   <rect x="51" y="3" width="46" height="32" rx="10"/>
   <rect x="49"
          y="1"
          width="46"
          height="32"
          class="terminal"
          rx="10"/>
   <text class="terminal" x="59" y="21">{_}</text>
   <a xmlns:xlink="http://www.w3.org/1999/xlink"
       xlink:href="#Cardinality"
       xlink:title="Cardinality">
      <rect x="71" y="79" width="88" height="32"/>
      <rect x="69" y="77" width="88" height="32" class="nonterminal"/>
      <text class="nonterminal" x="79" y="97">Cardinality</text>
   </a>
   <rect x="219" y="47" width="28" height="32" rx="10"/>
   <rect x="217"
          y="45"
          width="28"
          height="32"
          class="terminal"
          rx="10"/>
   <text class="terminal" x="227" y="65">_</text>
   <a xmlns:xlink="http://www.w3.org/1999/xlink"
       xlink:href="#TypeReference"
       xlink:title="TypeReference">
      <rect x="219" y="91" width="114" height="32"/>
      <rect x="217" y="89" width="114" height="32" class="nonterminal"/>
      <text class="nonterminal" x="227" y="109">TypeReference</text>
   </a>
   <path class="line"
          d="m17 17 h2 m20 0 h10 m46 0 h10 m0 0 h256 m-342 0 h20 m322 0 h20 m-362 0 q10 0 10 10 m342 0 q0 -10 10 -10 m-352 10 v24 m342 0 v-24 m-342 24 q0 10 10 10 m322 0 q10 0 10 -10 m-312 10 h10 m0 0 h98 m-128 0 h20 m108 0 h20 m-148 0 q10 0 10 10 m128 0 q0 -10 10 -10 m-138 10 v12 m128 0 v-12 m-128 12 q0 10 10 10 m108 0 q10 0 10 -10 m-118 10 h10 m88 0 h10 m40 -32 h10 m28 0 h10 m0 0 h86 m-154 0 h20 m134 0 h20 m-174 0 q10 0 10 10 m154 0 q0 -10 10 -10 m-164 10 v24 m154 0 v-24 m-154 24 q0 10 10 10 m134 0 q10 0 10 -10 m-144 10 h10 m114 0 h10 m43 -88 h-3"/>
   <polygon points="391 17 399 13 399 21"/>
   <polygon points="391 17 383 13 383 21"/>
</svg>
