<?xml version="1.0" encoding="UTF-8"?>
<svg xmlns="http://www.w3.org/2000/svg" width="549" height="53">
   <defs>
      <style type="text/css">
    @namespace "http://www.w3.org/2000/svg";
    .line                 {fill: none; stroke: #332900; stroke-width: 1;}
    .bold-line            {stroke: #141000; shape-rendering: crispEdges; stroke-width: 2;}
    .thin-line            {stroke: #1F1800; shape-rendering: crispEdges}
    .filled               {fill: #332900; stroke: none;}
    text.terminal         {font-family: Verdana, Sans-serif;
                            font-size: 12px;
                            fill: #141000;
                            font-weight: bold;
                          }
    text.nonterminal      {font-family: Verdana, Sans-serif;
                            font-size: 12px;
                            fill: #1A1400;
                            font-weight: normal;
                          }
    text.regexp           {font-family: Verdana, Sans-serif;
                            font-size: 12px;
                            fill: #1F1800;
                            font-weight: normal;
                          }
    rect, circle, polygon {fill: #332900; stroke: #332900;}
    rect.terminal         {fill: #FFDB4D; stroke: #332900; stroke-width: 1;}
    rect.nonterminal      {fill: #FFEC9E; stroke: #332900; stroke-width: 1;}
    rect.text             {fill: none; stroke: none;}
    polygon.regexp        {fill: #FFF4C7; stroke: #332900; stroke-width: 1;}
  </style>
   </defs>
   <polygon points="9 33 1 29 1 37"/>
   <polygon points="17 33 9 29 9 37"/>
   <rect x="31" y="19" width="26" height="32" rx="10"/>
   <rect x="29"
          y="17"
          width="26"
          height="32"
          class="terminal"
          rx="10"/>
   <text class="terminal" x="39" y="37">(</text>
   <a xmlns:xlink="http://www.w3.org/1999/xlink"
       xlink:href="#FunctionParameter"
       xlink:title="FunctionParameter">
      <rect x="97" y="19" width="140" height="32"/>
      <rect x="95" y="17" width="140" height="32" class="nonterminal"/>
      <text class="nonterminal" x="105" y="37">FunctionParameter</text>
   </a>
   <rect x="277" y="19" width="26" height="32" rx="10"/>
   <rect x="275"
          y="17"
          width="26"
          height="32"
          class="terminal"
          rx="10"/>
   <text class="terminal" x="285" y="37">)</text>
   <a xmlns:xlink="http://www.w3.org/1999/xlink"
       xlink:href="#HasType"
       xlink:title="HasType">
      <rect x="323" y="19" width="74" height="32"/>
      <rect x="321" y="17" width="74" height="32" class="nonterminal"/>
      <text class="nonterminal" x="331" y="37">HasType</text>
   </a>
   <a xmlns:xlink="http://www.w3.org/1999/xlink"
       xlink:href="#FunctionType"
       xlink:title="FunctionType">
      <rect x="417" y="19" width="104" height="32"/>
      <rect x="415" y="17" width="104" height="32" class="nonterminal"/>
      <text class="nonterminal" x="425" y="37">FunctionType</text>
   </a>
   <path class="line"
          d="m17 33 h2 m0 0 h10 m26 0 h10 m20 0 h10 m140 0 h10 m-180 0 l20 0 m-1 0 q-9 0 -9 -10 l0 -12 q0 -10 10 -10 m160 32 l20 0 m-20 0 q10 0 10 -10 l0 -12 q0 -10 -10 -10 m-160 0 h10 m0 0 h150 m20 32 h10 m26 0 h10 m0 0 h10 m74 0 h10 m0 0 h10 m104 0 h10 m3 0 h-3"/>
   <polygon points="539 33 547 29 547 37"/>
   <polygon points="539 33 531 29 531 37"/>
</svg>
