<?xml version="1.0" encoding="UTF-8"?>
<svg xmlns="http://www.w3.org/2000/svg" width="237" height="169">
   <defs>
      <style type="text/css">
    @namespace "http://www.w3.org/2000/svg";
    .line                 {fill: none; stroke: #332900; stroke-width: 1;}
    .bold-line            {stroke: #141000; shape-rendering: crispEdges; stroke-width: 2;}
    .thin-line            {stroke: #1F1800; shape-rendering: crispEdges}
    .filled               {fill: #332900; stroke: none;}
    text.terminal         {font-family: Verdana, Sans-serif;
                            font-size: 12px;
                            fill: #141000;
                            font-weight: bold;
                          }
    text.nonterminal      {font-family: Verdana, Sans-serif;
                            font-size: 12px;
                            fill: #1A1400;
                            font-weight: normal;
                          }
    text.regexp           {font-family: Verdana, Sans-serif;
                            font-size: 12px;
                            fill: #1F1800;
                            font-weight: normal;
                          }
    rect, circle, polygon {fill: #332900; stroke: #332900;}
    rect.terminal         {fill: #FFDB4D; stroke: #332900; stroke-width: 1;}
    rect.nonterminal      {fill: #FFEC9E; stroke: #332900; stroke-width: 1;}
    rect.text             {fill: none; stroke: none;}
    polygon.regexp        {fill: #FFF4C7; stroke: #332900; stroke-width: 1;}
  </style>
   </defs>
   <polygon points="9 17 1 13 1 21"/>
   <polygon points="17 17 9 13 9 21"/>
   <rect x="51" y="3" width="28" height="32" rx="10"/>
   <rect x="49"
          y="1"
          width="28"
          height="32"
          class="terminal"
          rx="10"/>
   <text class="terminal" x="59" y="21">_</text>
   <a xmlns:xlink="http://www.w3.org/1999/xlink"
       xlink:href="#IdentiferReference"
       xlink:title="IdentiferReference">
      <rect x="51" y="47" width="138" height="32"/>
      <rect x="49" y="45" width="138" height="32" class="nonterminal"/>
      <text class="nonterminal" x="59" y="65">IdentiferReference</text>
   </a>
   <a xmlns:xlink="http://www.w3.org/1999/xlink"
       xlink:href="#BuiltinSimpleType"
       xlink:title="BuiltinSimpleType">
      <rect x="51" y="91" width="132" height="32"/>
      <rect x="49" y="89" width="132" height="32" class="nonterminal"/>
      <text class="nonterminal" x="59" y="109">BuiltinSimpleType</text>
   </a>
   <a xmlns:xlink="http://www.w3.org/1999/xlink"
       xlink:href="#MappingType"
       xlink:title="MappingType">
      <rect x="51" y="135" width="104" height="32"/>
      <rect x="49" y="133" width="104" height="32" class="nonterminal"/>
      <text class="nonterminal" x="59" y="153">MappingType</text>
   </a>
   <path class="line"
          d="m17 17 h2 m20 0 h10 m28 0 h10 m0 0 h110 m-178 0 h20 m158 0 h20 m-198 0 q10 0 10 10 m178 0 q0 -10 10 -10 m-188 10 v24 m178 0 v-24 m-178 24 q0 10 10 10 m158 0 q10 0 10 -10 m-168 10 h10 m138 0 h10 m-168 -10 v20 m178 0 v-20 m-178 20 v24 m178 0 v-24 m-178 24 q0 10 10 10 m158 0 q10 0 10 -10 m-168 10 h10 m132 0 h10 m0 0 h6 m-168 -10 v20 m178 0 v-20 m-178 20 v24 m178 0 v-24 m-178 24 q0 10 10 10 m158 0 q10 0 10 -10 m-168 10 h10 m104 0 h10 m0 0 h34 m23 -132 h-3"/>
   <polygon points="227 17 235 13 235 21"/>
   <polygon points="227 17 219 13 219 21"/>
</svg>
