<?xml version="1.0" encoding="UTF-8"?>
<svg xmlns="http://www.w3.org/2000/svg" width="729" height="81">
   <defs>
      <style type="text/css">
    @namespace "http://www.w3.org/2000/svg";
    .line                 {fill: none; stroke: #332900; stroke-width: 1;}
    .bold-line            {stroke: #141000; shape-rendering: crispEdges; stroke-width: 2;}
    .thin-line            {stroke: #1F1800; shape-rendering: crispEdges}
    .filled               {fill: #332900; stroke: none;}
    text.terminal         {font-family: Verdana, Sans-serif;
                            font-size: 12px;
                            fill: #141000;
                            font-weight: bold;
                          }
    text.nonterminal      {font-family: Verdana, Sans-serif;
                            font-size: 12px;
                            fill: #1A1400;
                            font-weight: normal;
                          }
    text.regexp           {font-family: Verdana, Sans-serif;
                            font-size: 12px;
                            fill: #1F1800;
                            font-weight: normal;
                          }
    rect, circle, polygon {fill: #332900; stroke: #332900;}
    rect.terminal         {fill: #FFDB4D; stroke: #332900; stroke-width: 1;}
    rect.nonterminal      {fill: #FFEC9E; stroke: #332900; stroke-width: 1;}
    rect.text             {fill: none; stroke: none;}
    polygon.regexp        {fill: #FFF4C7; stroke: #332900; stroke-width: 1;}
  </style>
   </defs>
   <polygon points="9 17 1 13 1 21"/>
   <polygon points="17 17 9 13 9 21"/>
   <rect x="31" y="3" width="28" height="32" rx="10"/>
   <rect x="29"
          y="1"
          width="28"
          height="32"
          class="terminal"
          rx="10"/>
   <text class="terminal" x="39" y="21">{</text>
   <a xmlns:xlink="http://www.w3.org/1999/xlink"
       xlink:href="#SequenceOrdering"
       xlink:title="SequenceOrdering">
      <rect x="99" y="35" width="136" height="32"/>
      <rect x="97" y="33" width="136" height="32" class="nonterminal"/>
      <text class="nonterminal" x="107" y="53">SequenceOrdering</text>
   </a>
   <a xmlns:xlink="http://www.w3.org/1999/xlink"
       xlink:href="#SequenceUniqueness"
       xlink:title="SequenceUniqueness">
      <rect x="295" y="35" width="156" height="32"/>
      <rect x="293" y="33" width="156" height="32" class="nonterminal"/>
      <text class="nonterminal" x="303" y="53">SequenceUniqueness</text>
   </a>
   <rect x="511" y="3" width="28" height="32" rx="10"/>
   <rect x="509"
          y="1"
          width="28"
          height="32"
          class="terminal"
          rx="10"/>
   <text class="terminal" x="519" y="21">_</text>
   <a xmlns:xlink="http://www.w3.org/1999/xlink"
       xlink:href="#CardinalityInner"
       xlink:title="CardinalityInner">
      <rect x="511" y="47" width="122" height="32"/>
      <rect x="509" y="45" width="122" height="32" class="nonterminal"/>
      <text class="nonterminal" x="519" y="65">CardinalityInner</text>
   </a>
   <rect x="673" y="3" width="28" height="32" rx="10"/>
   <rect x="671"
          y="1"
          width="28"
          height="32"
          class="terminal"
          rx="10"/>
   <text class="terminal" x="681" y="21">}</text>
   <path class="line"
          d="m17 17 h2 m0 0 h10 m28 0 h10 m20 0 h10 m0 0 h146 m-176 0 h20 m156 0 h20 m-196 0 q10 0 10 10 m176 0 q0 -10 10 -10 m-186 10 v12 m176 0 v-12 m-176 12 q0 10 10 10 m156 0 q10 0 10 -10 m-166 10 h10 m136 0 h10 m40 -32 h10 m0 0 h166 m-196 0 h20 m176 0 h20 m-216 0 q10 0 10 10 m196 0 q0 -10 10 -10 m-206 10 v12 m196 0 v-12 m-196 12 q0 10 10 10 m176 0 q10 0 10 -10 m-186 10 h10 m156 0 h10 m40 -32 h10 m28 0 h10 m0 0 h94 m-162 0 h20 m142 0 h20 m-182 0 q10 0 10 10 m162 0 q0 -10 10 -10 m-172 10 v24 m162 0 v-24 m-162 24 q0 10 10 10 m142 0 q10 0 10 -10 m-152 10 h10 m122 0 h10 m20 -44 h10 m28 0 h10 m3 0 h-3"/>
   <polygon points="719 17 727 13 727 21"/>
   <polygon points="719 17 711 13 711 21"/>
</svg>
