<?xml version="1.0" encoding="UTF-8"?>
<svg xmlns="http://www.w3.org/2000/svg" width="637" height="87">
   <defs>
      <style type="text/css">
    @namespace "http://www.w3.org/2000/svg";
    .line                 {fill: none; stroke: #332900; stroke-width: 1;}
    .bold-line            {stroke: #141000; shape-rendering: crispEdges; stroke-width: 2;}
    .thin-line            {stroke: #1F1800; shape-rendering: crispEdges}
    .filled               {fill: #332900; stroke: none;}
    text.terminal         {font-family: Verdana, Sans-serif;
                            font-size: 12px;
                            fill: #141000;
                            font-weight: bold;
                          }
    text.nonterminal      {font-family: Verdana, Sans-serif;
                            font-size: 12px;
                            fill: #1A1400;
                            font-weight: normal;
                          }
    text.regexp           {font-family: Verdana, Sans-serif;
                            font-size: 12px;
                            fill: #1F1800;
                            font-weight: normal;
                          }
    rect, circle, polygon {fill: #332900; stroke: #332900;}
    rect.terminal         {fill: #FFDB4D; stroke: #332900; stroke-width: 1;}
    rect.nonterminal      {fill: #FFEC9E; stroke: #332900; stroke-width: 1;}
    rect.text             {fill: none; stroke: none;}
    polygon.regexp        {fill: #FFF4C7; stroke: #332900; stroke-width: 1;}
  </style>
   </defs>
   <polygon points="9 51 1 47 1 55"/>
   <polygon points="17 51 9 47 9 55"/>
   <a xmlns:xlink="http://www.w3.org/1999/xlink"
       xlink:href="#IdentifierInitial"
       xlink:title="IdentifierInitial">
      <rect x="31" y="37" width="114" height="32"/>
      <rect x="29" y="35" width="114" height="32" class="nonterminal"/>
      <text class="nonterminal" x="39" y="55">IdentifierInitial</text>
   </a>
   <a xmlns:xlink="http://www.w3.org/1999/xlink"
       xlink:href="#IdentifierChar"
       xlink:title="IdentifierChar">
      <rect x="185" y="3" width="108" height="32"/>
      <rect x="183" y="1" width="108" height="32" class="nonterminal"/>
      <text class="nonterminal" x="193" y="21">IdentifierChar</text>
   </a>
   <rect x="373" y="37" width="28" height="32" rx="10"/>
   <rect x="371"
          y="35"
          width="28"
          height="32"
          class="terminal"
          rx="10"/>
   <text class="terminal" x="381" y="55">_</text>
   <a xmlns:xlink="http://www.w3.org/1999/xlink"
       xlink:href="#IdentifierChar"
       xlink:title="IdentifierChar">
      <rect x="441" y="37" width="108" height="32"/>
      <rect x="439" y="35" width="108" height="32" class="nonterminal"/>
      <text class="nonterminal" x="449" y="55">IdentifierChar</text>
   </a>
   <path class="line"
          d="m17 51 h2 m0 0 h10 m114 0 h10 m20 0 h10 m0 0 h118 m-148 0 l20 0 m-1 0 q-9 0 -9 -10 l0 -14 q0 -10 10 -10 m128 34 l20 0 m-20 0 q10 0 10 -10 l0 -14 q0 -10 -10 -10 m-128 0 h10 m108 0 h10 m60 34 h10 m28 0 h10 m20 0 h10 m108 0 h10 m-148 0 l20 0 m-1 0 q-9 0 -9 -10 l0 -12 q0 -10 10 -10 m128 32 l20 0 m-20 0 q10 0 10 -10 l0 -12 q0 -10 -10 -10 m-128 0 h10 m0 0 h118 m-216 32 l20 0 m-1 0 q-9 0 -9 -10 l0 -28 q0 -10 10 -10 m216 48 l20 0 m-20 0 q10 0 10 -10 l0 -28 q0 -10 -10 -10 m-216 0 h10 m0 0 h206 m-256 48 h20 m256 0 h20 m-296 0 q10 0 10 10 m276 0 q0 -10 10 -10 m-286 10 v14 m276 0 v-14 m-276 14 q0 10 10 10 m256 0 q10 0 10 -10 m-266 10 h10 m0 0 h246 m23 -34 h-3"/>
   <polygon points="627 51 635 47 635 55"/>
   <polygon points="627 51 619 47 619 55"/>
</svg>
