<?xml version="1.0" encoding="UTF-8"?>
<svg xmlns="http://www.w3.org/2000/svg" width="377" height="103">
   <defs>
      <style type="text/css">
    @namespace "http://www.w3.org/2000/svg";
    .line                 {fill: none; stroke: #332900; stroke-width: 1;}
    .bold-line            {stroke: #141000; shape-rendering: crispEdges; stroke-width: 2;}
    .thin-line            {stroke: #1F1800; shape-rendering: crispEdges}
    .filled               {fill: #332900; stroke: none;}
    text.terminal         {font-family: Verdana, Sans-serif;
                            font-size: 12px;
                            fill: #141000;
                            font-weight: bold;
                          }
    text.nonterminal      {font-family: Verdana, Sans-serif;
                            font-size: 12px;
                            fill: #1A1400;
                            font-weight: normal;
                          }
    text.regexp           {font-family: Verdana, Sans-serif;
                            font-size: 12px;
                            fill: #1F1800;
                            font-weight: normal;
                          }
    rect, circle, polygon {fill: #332900; stroke: #332900;}
    rect.terminal         {fill: #FFDB4D; stroke: #332900; stroke-width: 1;}
    rect.nonterminal      {fill: #FFEC9E; stroke: #332900; stroke-width: 1;}
    rect.text             {fill: none; stroke: none;}
    polygon.regexp        {fill: #FFF4C7; stroke: #332900; stroke-width: 1;}
  </style>
   </defs>
   <polygon points="9 17 1 13 1 21"/>
   <polygon points="17 17 9 13 9 21"/>
   <rect x="31" y="3" width="64" height="32" rx="10"/>
   <rect x="29"
          y="1"
          width="64"
          height="32"
          class="terminal"
          rx="10"/>
   <text class="terminal" x="39" y="21">import</text>
   <a xmlns:xlink="http://www.w3.org/1999/xlink"
       xlink:href="#Import"
       xlink:title="Import">
      <rect x="135" y="3" width="62" height="32"/>
      <rect x="133" y="1" width="62" height="32" class="nonterminal"/>
      <text class="nonterminal" x="143" y="21">Import</text>
   </a>
   <rect x="135" y="69" width="26" height="32" rx="10"/>
   <rect x="133"
          y="67"
          width="26"
          height="32"
          class="terminal"
          rx="10"/>
   <text class="terminal" x="143" y="87">[</text>
   <a xmlns:xlink="http://www.w3.org/1999/xlink"
       xlink:href="#Import"
       xlink:title="Import">
      <rect x="201" y="69" width="62" height="32"/>
      <rect x="199" y="67" width="62" height="32" class="nonterminal"/>
      <text class="nonterminal" x="209" y="87">Import</text>
   </a>
   <rect x="303" y="69" width="26" height="32" rx="10"/>
   <rect x="301"
          y="67"
          width="26"
          height="32"
          class="terminal"
          rx="10"/>
   <text class="terminal" x="311" y="87">]</text>
   <path class="line"
          d="m17 17 h2 m0 0 h10 m64 0 h10 m20 0 h10 m62 0 h10 m0 0 h132 m-234 0 h20 m214 0 h20 m-254 0 q10 0 10 10 m234 0 q0 -10 10 -10 m-244 10 v46 m234 0 v-46 m-234 46 q0 10 10 10 m214 0 q10 0 10 -10 m-224 10 h10 m26 0 h10 m20 0 h10 m62 0 h10 m-102 0 l20 0 m-1 0 q-9 0 -9 -10 l0 -12 q0 -10 10 -10 m82 32 l20 0 m-20 0 q10 0 10 -10 l0 -12 q0 -10 -10 -10 m-82 0 h10 m0 0 h72 m20 32 h10 m26 0 h10 m23 -66 h-3"/>
   <polygon points="367 17 375 13 375 21"/>
   <polygon points="367 17 359 13 359 21"/>
</svg>
