<?xml version="1.0" encoding="UTF-8"?>
<svg xmlns="http://www.w3.org/2000/svg" width="445" height="69">
   <defs>
      <style type="text/css">
    @namespace "http://www.w3.org/2000/svg";
    .line                 {fill: none; stroke: #332900; stroke-width: 1;}
    .bold-line            {stroke: #141000; shape-rendering: crispEdges; stroke-width: 2;}
    .thin-line            {stroke: #1F1800; shape-rendering: crispEdges}
    .filled               {fill: #332900; stroke: none;}
    text.terminal         {font-family: Verdana, Sans-serif;
                            font-size: 12px;
                            fill: #141000;
                            font-weight: bold;
                          }
    text.nonterminal      {font-family: Verdana, Sans-serif;
                            font-size: 12px;
                            fill: #1A1400;
                            font-weight: normal;
                          }
    text.regexp           {font-family: Verdana, Sans-serif;
                            font-size: 12px;
                            fill: #1F1800;
                            font-weight: normal;
                          }
    rect, circle, polygon {fill: #332900; stroke: #332900;}
    rect.terminal         {fill: #FFDB4D; stroke: #332900; stroke-width: 1;}
    rect.nonterminal      {fill: #FFEC9E; stroke: #332900; stroke-width: 1;}
    rect.text             {fill: none; stroke: none;}
    polygon.regexp        {fill: #FFF4C7; stroke: #332900; stroke-width: 1;}
  </style>
   </defs>
   <polygon points="9 17 1 13 1 21"/>
   <polygon points="17 17 9 13 9 21"/>
   <rect x="31" y="3" width="30" height="32" rx="10"/>
   <rect x="29"
          y="1"
          width="30"
          height="32"
          class="terminal"
          rx="10"/>
   <text class="terminal" x="39" y="21">=</text>
   <a xmlns:xlink="http://www.w3.org/1999/xlink"
       xlink:href="#QuotedString"
       xlink:title="QuotedString">
      <rect x="81" y="3" width="104" height="32"/>
      <rect x="79" y="1" width="104" height="32" class="nonterminal"/>
      <text class="nonterminal" x="89" y="21">QuotedString</text>
   </a>
   <a xmlns:xlink="http://www.w3.org/1999/xlink"
       xlink:href="#ControlledLanguageTag"
       xlink:title="ControlledLanguageTag">
      <rect x="225" y="35" width="172" height="32"/>
      <rect x="223" y="33" width="172" height="32" class="nonterminal"/>
      <text class="nonterminal" x="233" y="53">ControlledLanguageTag</text>
   </a>
   <path class="line"
          d="m17 17 h2 m0 0 h10 m30 0 h10 m0 0 h10 m104 0 h10 m20 0 h10 m0 0 h182 m-212 0 h20 m192 0 h20 m-232 0 q10 0 10 10 m212 0 q0 -10 10 -10 m-222 10 v12 m212 0 v-12 m-212 12 q0 10 10 10 m192 0 q10 0 10 -10 m-202 10 h10 m172 0 h10 m23 -32 h-3"/>
   <polygon points="435 17 443 13 443 21"/>
   <polygon points="435 17 427 13 427 21"/>
</svg>
