<?xml version="1.0" encoding="UTF-8"?>
<svg xmlns="http://www.w3.org/2000/svg" width="471" height="113">
   <defs>
      <style type="text/css">
    @namespace "http://www.w3.org/2000/svg";
    .line                 {fill: none; stroke: #332900; stroke-width: 1;}
    .bold-line            {stroke: #141000; shape-rendering: crispEdges; stroke-width: 2;}
    .thin-line            {stroke: #1F1800; shape-rendering: crispEdges}
    .filled               {fill: #332900; stroke: none;}
    text.terminal         {font-family: Verdana, Sans-serif;
                            font-size: 12px;
                            fill: #141000;
                            font-weight: bold;
                          }
    text.nonterminal      {font-family: Verdana, Sans-serif;
                            font-size: 12px;
                            fill: #1A1400;
                            font-weight: normal;
                          }
    text.regexp           {font-family: Verdana, Sans-serif;
                            font-size: 12px;
                            fill: #1F1800;
                            font-weight: normal;
                          }
    rect, circle, polygon {fill: #332900; stroke: #332900;}
    rect.terminal         {fill: #FFDB4D; stroke: #332900; stroke-width: 1;}
    rect.nonterminal      {fill: #FFEC9E; stroke: #332900; stroke-width: 1;}
    rect.text             {fill: none; stroke: none;}
    polygon.regexp        {fill: #FFF4C7; stroke: #332900; stroke-width: 1;}
  </style>
   </defs>
   <polygon points="9 33 1 29 1 37"/>
   <polygon points="17 33 9 29 9 37"/>
   <rect x="31" y="19" width="30" height="32" rx="10"/>
   <rect x="29"
          y="17"
          width="30"
          height="32"
          class="terminal"
          rx="10"/>
   <text class="terminal" x="39" y="37">&lt;</text>
   <polygon points="141 35 148 19 326 19 333 35 326 51 148 51"/>
   <polygon points="139 33 146 17 324 17 331 33 324 49 146 49" class="regexp"/>
   <text class="regexp" x="154" y="37">[^&lt;&gt;\"{}|^`#x00-#x20]</text>
   <a xmlns:xlink="http://www.w3.org/1999/xlink"
       xlink:href="#UnicodeEscape"
       xlink:title="UnicodeEscape">
      <rect x="141" y="63" width="116" height="32"/>
      <rect x="139" y="61" width="116" height="32" class="nonterminal"/>
      <text class="nonterminal" x="149" y="81">UnicodeEscape</text>
   </a>
   <rect x="413" y="19" width="30" height="32" rx="10"/>
   <rect x="411"
          y="17"
          width="30"
          height="32"
          class="terminal"
          rx="10"/>
   <text class="terminal" x="421" y="37">&gt;</text>
   <path class="line"
          d="m17 33 h2 m0 0 h10 m30 0 h10 m60 0 h10 m192 0 h10 m-232 0 h20 m212 0 h20 m-252 0 q10 0 10 10 m232 0 q0 -10 10 -10 m-242 10 v24 m232 0 v-24 m-232 24 q0 10 10 10 m212 0 q10 0 10 -10 m-222 10 h10 m116 0 h10 m0 0 h76 m-252 -44 l20 0 m-1 0 q-9 0 -9 -10 l0 -12 q0 -10 10 -10 m252 32 l20 0 m-20 0 q10 0 10 -10 l0 -12 q0 -10 -10 -10 m-252 0 h10 m0 0 h242 m-292 32 h20 m292 0 h20 m-332 0 q10 0 10 10 m312 0 q0 -10 10 -10 m-322 10 v58 m312 0 v-58 m-312 58 q0 10 10 10 m292 0 q10 0 10 -10 m-302 10 h10 m0 0 h282 m20 -78 h10 m30 0 h10 m3 0 h-3"/>
   <polygon points="461 33 469 29 469 37"/>
   <polygon points="461 33 453 29 453 37"/>
</svg>
