<?xml version="1.0" encoding="UTF-8"?>
<svg xmlns="http://www.w3.org/2000/svg" width="809" height="37">
   <defs>
      <style type="text/css">
    @namespace "http://www.w3.org/2000/svg";
    .line                 {fill: none; stroke: #332900; stroke-width: 1;}
    .bold-line            {stroke: #141000; shape-rendering: crispEdges; stroke-width: 2;}
    .thin-line            {stroke: #1F1800; shape-rendering: crispEdges}
    .filled               {fill: #332900; stroke: none;}
    text.terminal         {font-family: Verdana, Sans-serif;
                            font-size: 12px;
                            fill: #141000;
                            font-weight: bold;
                          }
    text.nonterminal      {font-family: Verdana, Sans-serif;
                            font-size: 12px;
                            fill: #1A1400;
                            font-weight: normal;
                          }
    text.regexp           {font-family: Verdana, Sans-serif;
                            font-size: 12px;
                            fill: #1F1800;
                            font-weight: normal;
                          }
    rect, circle, polygon {fill: #332900; stroke: #332900;}
    rect.terminal         {fill: #FFDB4D; stroke: #332900; stroke-width: 1;}
    rect.nonterminal      {fill: #FFEC9E; stroke: #332900; stroke-width: 1;}
    rect.text             {fill: none; stroke: none;}
    polygon.regexp        {fill: #FFF4C7; stroke: #332900; stroke-width: 1;}
  </style>
   </defs>
   <polygon points="9 17 1 13 1 21"/>
   <polygon points="17 17 9 13 9 21"/>
   <rect x="31" y="3" width="26" height="32" rx="10"/>
   <rect x="29"
          y="1"
          width="26"
          height="32"
          class="terminal"
          rx="10"/>
   <text class="terminal" x="39" y="21">-</text>
   <a xmlns:xlink="http://www.w3.org/1999/xlink"
       xlink:href="#ASCII_LETTER_UPPER"
       xlink:title="ASCII_LETTER_UPPER">
      <rect x="77" y="3" width="158" height="32"/>
      <rect x="75" y="1" width="158" height="32" class="nonterminal"/>
      <text class="nonterminal" x="85" y="21">ASCII_LETTER_UPPER</text>
   </a>
   <a xmlns:xlink="http://www.w3.org/1999/xlink"
       xlink:href="#ASCII_LETTER_LOWER"
       xlink:title="ASCII_LETTER_LOWER">
      <rect x="255" y="3" width="162" height="32"/>
      <rect x="253" y="1" width="162" height="32" class="nonterminal"/>
      <text class="nonterminal" x="263" y="21">ASCII_LETTER_LOWER</text>
   </a>
   <a xmlns:xlink="http://www.w3.org/1999/xlink"
       xlink:href="#ASCII_LETTER_LOWER"
       xlink:title="ASCII_LETTER_LOWER">
      <rect x="437" y="3" width="162" height="32"/>
      <rect x="435" y="1" width="162" height="32" class="nonterminal"/>
      <text class="nonterminal" x="445" y="21">ASCII_LETTER_LOWER</text>
   </a>
   <a xmlns:xlink="http://www.w3.org/1999/xlink"
       xlink:href="#ASCII_LETTER_LOWER"
       xlink:title="ASCII_LETTER_LOWER">
      <rect x="619" y="3" width="162" height="32"/>
      <rect x="617" y="1" width="162" height="32" class="nonterminal"/>
      <text class="nonterminal" x="627" y="21">ASCII_LETTER_LOWER</text>
   </a>
   <path class="line"
          d="m17 17 h2 m0 0 h10 m26 0 h10 m0 0 h10 m158 0 h10 m0 0 h10 m162 0 h10 m0 0 h10 m162 0 h10 m0 0 h10 m162 0 h10 m3 0 h-3"/>
   <polygon points="799 17 807 13 807 21"/>
   <polygon points="799 17 791 13 791 21"/>
</svg>
