<?xml version="1.0" encoding="UTF-8"?>
<svg xmlns="http://www.w3.org/2000/svg" width="903" height="69">
   <defs>
      <style type="text/css">
    @namespace "http://www.w3.org/2000/svg";
    .line                 {fill: none; stroke: #332900; stroke-width: 1;}
    .bold-line            {stroke: #141000; shape-rendering: crispEdges; stroke-width: 2;}
    .thin-line            {stroke: #1F1800; shape-rendering: crispEdges}
    .filled               {fill: #332900; stroke: none;}
    text.terminal         {font-family: Verdana, Sans-serif;
                            font-size: 12px;
                            fill: #141000;
                            font-weight: bold;
                          }
    text.nonterminal      {font-family: Verdana, Sans-serif;
                            font-size: 12px;
                            fill: #1A1400;
                            font-weight: normal;
                          }
    text.regexp           {font-family: Verdana, Sans-serif;
                            font-size: 12px;
                            fill: #1F1800;
                            font-weight: normal;
                          }
    rect, circle, polygon {fill: #332900; stroke: #332900;}
    rect.terminal         {fill: #FFDB4D; stroke: #332900; stroke-width: 1;}
    rect.nonterminal      {fill: #FFEC9E; stroke: #332900; stroke-width: 1;}
    rect.text             {fill: none; stroke: none;}
    polygon.regexp        {fill: #FFF4C7; stroke: #332900; stroke-width: 1;}
  </style>
   </defs>
   <polygon points="9 17 1 13 1 21"/>
   <polygon points="17 17 9 13 9 21"/>
   <rect x="31" y="3" width="32" height="32" rx="10"/>
   <rect x="29"
          y="1"
          width="32"
          height="32"
          class="terminal"
          rx="10"/>
   <text class="terminal" x="39" y="21">@</text>
   <a xmlns:xlink="http://www.w3.org/1999/xlink"
       xlink:href="#LanguageTagPrimary"
       xlink:title="LanguageTagPrimary">
      <rect x="83" y="3" width="154" height="32"/>
      <rect x="81" y="1" width="154" height="32" class="nonterminal"/>
      <text class="nonterminal" x="91" y="21">LanguageTagPrimary</text>
   </a>
   <a xmlns:xlink="http://www.w3.org/1999/xlink"
       xlink:href="#LanguageTagExtended"
       xlink:title="LanguageTagExtended">
      <rect x="277" y="35" width="166" height="32"/>
      <rect x="275" y="33" width="166" height="32" class="nonterminal"/>
      <text class="nonterminal" x="285" y="53">LanguageTagExtended</text>
   </a>
   <a xmlns:xlink="http://www.w3.org/1999/xlink"
       xlink:href="#LanguageTagScript"
       xlink:title="LanguageTagScript">
      <rect x="503" y="35" width="142" height="32"/>
      <rect x="501" y="33" width="142" height="32" class="nonterminal"/>
      <text class="nonterminal" x="511" y="53">LanguageTagScript</text>
   </a>
   <a xmlns:xlink="http://www.w3.org/1999/xlink"
       xlink:href="#LanguageTagRegion"
       xlink:title="LanguageTagRegion">
      <rect x="705" y="35" width="150" height="32"/>
      <rect x="703" y="33" width="150" height="32" class="nonterminal"/>
      <text class="nonterminal" x="713" y="53">LanguageTagRegion</text>
   </a>
   <path class="line"
          d="m17 17 h2 m0 0 h10 m32 0 h10 m0 0 h10 m154 0 h10 m20 0 h10 m0 0 h176 m-206 0 h20 m186 0 h20 m-226 0 q10 0 10 10 m206 0 q0 -10 10 -10 m-216 10 v12 m206 0 v-12 m-206 12 q0 10 10 10 m186 0 q10 0 10 -10 m-196 10 h10 m166 0 h10 m40 -32 h10 m0 0 h152 m-182 0 h20 m162 0 h20 m-202 0 q10 0 10 10 m182 0 q0 -10 10 -10 m-192 10 v12 m182 0 v-12 m-182 12 q0 10 10 10 m162 0 q10 0 10 -10 m-172 10 h10 m142 0 h10 m40 -32 h10 m0 0 h160 m-190 0 h20 m170 0 h20 m-210 0 q10 0 10 10 m190 0 q0 -10 10 -10 m-200 10 v12 m190 0 v-12 m-190 12 q0 10 10 10 m170 0 q10 0 10 -10 m-180 10 h10 m150 0 h10 m23 -32 h-3"/>
   <polygon points="893 17 901 13 901 21"/>
   <polygon points="893 17 885 13 885 21"/>
</svg>
