<?xml version="1.0" encoding="UTF-8"?>
<svg xmlns="http://www.w3.org/2000/svg" width="837" height="343">
   <defs>
      <style type="text/css">
    @namespace "http://www.w3.org/2000/svg";
    .line                 {fill: none; stroke: #332900; stroke-width: 1;}
    .bold-line            {stroke: #141000; shape-rendering: crispEdges; stroke-width: 2;}
    .thin-line            {stroke: #1F1800; shape-rendering: crispEdges}
    .filled               {fill: #332900; stroke: none;}
    text.terminal         {font-family: Verdana, Sans-serif;
                            font-size: 12px;
                            fill: #141000;
                            font-weight: bold;
                          }
    text.nonterminal      {font-family: Verdana, Sans-serif;
                            font-size: 12px;
                            fill: #1A1400;
                            font-weight: normal;
                          }
    text.regexp           {font-family: Verdana, Sans-serif;
                            font-size: 12px;
                            fill: #1F1800;
                            font-weight: normal;
                          }
    rect, circle, polygon {fill: #332900; stroke: #332900;}
    rect.terminal         {fill: #FFDB4D; stroke: #332900; stroke-width: 1;}
    rect.nonterminal      {fill: #FFEC9E; stroke: #332900; stroke-width: 1;}
    rect.text             {fill: none; stroke: none;}
    polygon.regexp        {fill: #FFF4C7; stroke: #332900; stroke-width: 1;}
  </style>
   </defs>
   <polygon points="9 17 1 13 1 21"/>
   <polygon points="17 17 9 13 9 21"/>
   <rect x="31" y="3" width="32" height="32" rx="10"/>
   <rect x="29"
          y="1"
          width="32"
          height="32"
          class="terminal"
          rx="10"/>
   <text class="terminal" x="39" y="21">@</text>
   <a xmlns:xlink="http://www.w3.org/1999/xlink"
       xlink:href="#ASCII_LETTER_LOWER"
       xlink:title="ASCII_LETTER_LOWER">
      <rect x="83" y="3" width="162" height="32"/>
      <rect x="81" y="1" width="162" height="32" class="nonterminal"/>
      <text class="nonterminal" x="91" y="21">ASCII_LETTER_LOWER</text>
   </a>
   <a xmlns:xlink="http://www.w3.org/1999/xlink"
       xlink:href="#ASCII_LETTER_LOWER"
       xlink:title="ASCII_LETTER_LOWER">
      <rect x="265" y="3" width="162" height="32"/>
      <rect x="263" y="1" width="162" height="32" class="nonterminal"/>
      <text class="nonterminal" x="273" y="21">ASCII_LETTER_LOWER</text>
   </a>
   <a xmlns:xlink="http://www.w3.org/1999/xlink"
       xlink:href="#ASCII_LETTER_LOWER"
       xlink:title="ASCII_LETTER_LOWER">
      <rect x="467" y="35" width="162" height="32"/>
      <rect x="465" y="33" width="162" height="32" class="nonterminal"/>
      <text class="nonterminal" x="475" y="53">ASCII_LETTER_LOWER</text>
   </a>
   <rect x="669" y="3" width="26" height="32" rx="10"/>
   <rect x="667"
          y="1"
          width="26"
          height="32"
          class="terminal"
          rx="10"/>
   <text class="terminal" x="677" y="21">-</text>
   <a xmlns:xlink="http://www.w3.org/1999/xlink"
       xlink:href="#ASCII_LETTER_UPPER"
       xlink:title="ASCII_LETTER_UPPER">
      <rect x="140" y="117" width="158" height="32"/>
      <rect x="138" y="115" width="158" height="32" class="nonterminal"/>
      <text class="nonterminal" x="148" y="135">ASCII_LETTER_UPPER</text>
   </a>
   <a xmlns:xlink="http://www.w3.org/1999/xlink"
       xlink:href="#ASCII_LETTER_UPPER"
       xlink:title="ASCII_LETTER_UPPER">
      <rect x="318" y="117" width="158" height="32"/>
      <rect x="316" y="115" width="158" height="32" class="nonterminal"/>
      <text class="nonterminal" x="326" y="135">ASCII_LETTER_UPPER</text>
   </a>
   <a xmlns:xlink="http://www.w3.org/1999/xlink"
       xlink:href="#ASCII_LETTER_UPPER"
       xlink:title="ASCII_LETTER_UPPER">
      <rect x="496" y="117" width="158" height="32"/>
      <rect x="494" y="115" width="158" height="32" class="nonterminal"/>
      <text class="nonterminal" x="504" y="135">ASCII_LETTER_UPPER</text>
   </a>
   <rect x="674" y="117" width="26" height="32" rx="10"/>
   <rect x="672"
          y="115"
          width="26"
          height="32"
          class="terminal"
          rx="10"/>
   <text class="terminal" x="682" y="135">-</text>
   <a xmlns:xlink="http://www.w3.org/1999/xlink"
       xlink:href="#ASCII_LETTER_UPPER"
       xlink:title="ASCII_LETTER_UPPER">
      <rect x="45" y="199" width="158" height="32"/>
      <rect x="43" y="197" width="158" height="32" class="nonterminal"/>
      <text class="nonterminal" x="53" y="217">ASCII_LETTER_UPPER</text>
   </a>
   <a xmlns:xlink="http://www.w3.org/1999/xlink"
       xlink:href="#ASCII_LETTER_LOWER"
       xlink:title="ASCII_LETTER_LOWER">
      <rect x="223" y="199" width="162" height="32"/>
      <rect x="221" y="197" width="162" height="32" class="nonterminal"/>
      <text class="nonterminal" x="231" y="217">ASCII_LETTER_LOWER</text>
   </a>
   <a xmlns:xlink="http://www.w3.org/1999/xlink"
       xlink:href="#ASCII_LETTER_LOWER"
       xlink:title="ASCII_LETTER_LOWER">
      <rect x="405" y="199" width="162" height="32"/>
      <rect x="403" y="197" width="162" height="32" class="nonterminal"/>
      <text class="nonterminal" x="413" y="217">ASCII_LETTER_LOWER</text>
   </a>
   <a xmlns:xlink="http://www.w3.org/1999/xlink"
       xlink:href="#ASCII_LETTER_LOWER"
       xlink:title="ASCII_LETTER_LOWER">
      <rect x="587" y="199" width="162" height="32"/>
      <rect x="585" y="197" width="162" height="32" class="nonterminal"/>
      <text class="nonterminal" x="595" y="217">ASCII_LETTER_LOWER</text>
   </a>
   <rect x="769" y="199" width="26" height="32" rx="10"/>
   <rect x="767"
          y="197"
          width="26"
          height="32"
          class="terminal"
          rx="10"/>
   <text class="terminal" x="777" y="217">-</text>
   <a xmlns:xlink="http://www.w3.org/1999/xlink"
       xlink:href="#ASCII_LETTER_UPPER"
       xlink:title="ASCII_LETTER_UPPER">
      <rect x="453" y="265" width="158" height="32"/>
      <rect x="451" y="263" width="158" height="32" class="nonterminal"/>
      <text class="nonterminal" x="461" y="283">ASCII_LETTER_UPPER</text>
   </a>
   <a xmlns:xlink="http://www.w3.org/1999/xlink"
       xlink:href="#ASCII_LETTER_UPPER"
       xlink:title="ASCII_LETTER_UPPER">
      <rect x="631" y="265" width="158" height="32"/>
      <rect x="629" y="263" width="158" height="32" class="nonterminal"/>
      <text class="nonterminal" x="639" y="283">ASCII_LETTER_UPPER</text>
   </a>
   <a xmlns:xlink="http://www.w3.org/1999/xlink"
       xlink:href="#ASCII_DIGIT"
       xlink:title="ASCII_DIGIT">
      <rect x="453" y="309" width="98" height="32"/>
      <rect x="451" y="307" width="98" height="32" class="nonterminal"/>
      <text class="nonterminal" x="461" y="327">ASCII_DIGIT</text>
   </a>
   <a xmlns:xlink="http://www.w3.org/1999/xlink"
       xlink:href="#ASCII_DIGIT"
       xlink:title="ASCII_DIGIT">
      <rect x="571" y="309" width="98" height="32"/>
      <rect x="569" y="307" width="98" height="32" class="nonterminal"/>
      <text class="nonterminal" x="579" y="327">ASCII_DIGIT</text>
   </a>
   <a xmlns:xlink="http://www.w3.org/1999/xlink"
       xlink:href="#ASCII_DIGIT"
       xlink:title="ASCII_DIGIT">
      <rect x="689" y="309" width="98" height="32"/>
      <rect x="687" y="307" width="98" height="32" class="nonterminal"/>
      <text class="nonterminal" x="697" y="327">ASCII_DIGIT</text>
   </a>
   <path class="line"
          d="m17 17 h2 m0 0 h10 m32 0 h10 m0 0 h10 m162 0 h10 m0 0 h10 m162 0 h10 m20 0 h10 m0 0 h172 m-202 0 h20 m182 0 h20 m-222 0 q10 0 10 10 m202 0 q0 -10 10 -10 m-212 10 v12 m202 0 v-12 m-202 12 q0 10 10 10 m182 0 q10 0 10 -10 m-192 10 h10 m162 0 h10 m20 -32 h10 m26 0 h10 m2 0 l2 0 m2 0 l2 0 m2 0 l2 0 m-619 82 l2 0 m2 0 l2 0 m2 0 l2 0 m22 0 h10 m0 0 h570 m-600 0 h20 m580 0 h20 m-620 0 q10 0 10 10 m600 0 q0 -10 10 -10 m-610 10 v12 m600 0 v-12 m-600 12 q0 10 10 10 m580 0 q10 0 10 -10 m-590 10 h10 m158 0 h10 m0 0 h10 m158 0 h10 m0 0 h10 m158 0 h10 m0 0 h10 m26 0 h10 m22 -32 l2 0 m2 0 l2 0 m2 0 l2 0 m-739 82 l2 0 m2 0 l2 0 m2 0 l2 0 m22 0 h10 m0 0 h760 m-790 0 h20 m770 0 h20 m-810 0 q10 0 10 10 m790 0 q0 -10 10 -10 m-800 10 v12 m790 0 v-12 m-790 12 q0 10 10 10 m770 0 q10 0 10 -10 m-780 10 h10 m158 0 h10 m0 0 h10 m162 0 h10 m0 0 h10 m162 0 h10 m0 0 h10 m162 0 h10 m0 0 h10 m26 0 h10 m22 -32 l2 0 m2 0 l2 0 m2 0 l2 0 m-426 98 l2 0 m2 0 l2 0 m2 0 l2 0 m22 0 h10 m158 0 h10 m0 0 h10 m158 0 h10 m-376 0 h20 m356 0 h20 m-396 0 q10 0 10 10 m376 0 q0 -10 10 -10 m-386 10 v24 m376 0 v-24 m-376 24 q0 10 10 10 m356 0 q10 0 10 -10 m-366 10 h10 m98 0 h10 m0 0 h10 m98 0 h10 m0 0 h10 m98 0 h10 m0 0 h2 m23 -44 h-3"/>
   <polygon points="827 279 835 275 835 283"/>
   <polygon points="827 279 819 275 819 283"/>
</svg>
