<?xml version="1.0" encoding="UTF-8"?>
<svg xmlns="http://www.w3.org/2000/svg" width="327" height="37">
   <defs>
      <style type="text/css">
    @namespace "http://www.w3.org/2000/svg";
    .line                 {fill: none; stroke: #332900; stroke-width: 1;}
    .bold-line            {stroke: #141000; shape-rendering: crispEdges; stroke-width: 2;}
    .thin-line            {stroke: #1F1800; shape-rendering: crispEdges}
    .filled               {fill: #332900; stroke: none;}
    text.terminal         {font-family: Verdana, Sans-serif;
                            font-size: 12px;
                            fill: #141000;
                            font-weight: bold;
                          }
    text.nonterminal      {font-family: Verdana, Sans-serif;
                            font-size: 12px;
                            fill: #1A1400;
                            font-weight: normal;
                          }
    text.regexp           {font-family: Verdana, Sans-serif;
                            font-size: 12px;
                            fill: #1F1800;
                            font-weight: normal;
                          }
    rect, circle, polygon {fill: #332900; stroke: #332900;}
    rect.terminal         {fill: #FFDB4D; stroke: #332900; stroke-width: 1;}
    rect.nonterminal      {fill: #FFEC9E; stroke: #332900; stroke-width: 1;}
    rect.text             {fill: none; stroke: none;}
    polygon.regexp        {fill: #FFF4C7; stroke: #332900; stroke-width: 1;}
  </style>
   </defs>
   <polygon points="9 17 1 13 1 21"/>
   <polygon points="17 17 9 13 9 21"/>
   <a xmlns:xlink="http://www.w3.org/1999/xlink"
       xlink:href="#SimpleValue"
       xlink:title="SimpleValue">
      <rect x="31" y="3" width="98" height="32"/>
      <rect x="29" y="1" width="98" height="32" class="nonterminal"/>
      <text class="nonterminal" x="39" y="21">SimpleValue</text>
   </a>
   <a xmlns:xlink="http://www.w3.org/1999/xlink"
       xlink:href="#HasType"
       xlink:title="HasType">
      <rect x="149" y="3" width="74" height="32"/>
      <rect x="147" y="1" width="74" height="32" class="nonterminal"/>
      <text class="nonterminal" x="157" y="21">HasType</text>
   </a>
   <a xmlns:xlink="http://www.w3.org/1999/xlink"
       xlink:href="#Value"
       xlink:title="Value">
      <rect x="243" y="3" width="56" height="32"/>
      <rect x="241" y="1" width="56" height="32" class="nonterminal"/>
      <text class="nonterminal" x="251" y="21">Value</text>
   </a>
   <path class="line"
          d="m17 17 h2 m0 0 h10 m98 0 h10 m0 0 h10 m74 0 h10 m0 0 h10 m56 0 h10 m3 0 h-3"/>
   <polygon points="317 17 325 13 325 21"/>
   <polygon points="317 17 309 13 309 21"/>
</svg>
