<?xml version="1.0" encoding="UTF-8"?>
<svg xmlns="http://www.w3.org/2000/svg" width="629" height="113">
   <defs>
      <style type="text/css">
    @namespace "http://www.w3.org/2000/svg";
    .line                 {fill: none; stroke: #332900; stroke-width: 1;}
    .bold-line            {stroke: #141000; shape-rendering: crispEdges; stroke-width: 2;}
    .thin-line            {stroke: #1F1800; shape-rendering: crispEdges}
    .filled               {fill: #332900; stroke: none;}
    text.terminal         {font-family: Verdana, Sans-serif;
                            font-size: 12px;
                            fill: #141000;
                            font-weight: bold;
                          }
    text.nonterminal      {font-family: Verdana, Sans-serif;
                            font-size: 12px;
                            fill: #1A1400;
                            font-weight: normal;
                          }
    text.regexp           {font-family: Verdana, Sans-serif;
                            font-size: 12px;
                            fill: #1F1800;
                            font-weight: normal;
                          }
    rect, circle, polygon {fill: #332900; stroke: #332900;}
    rect.terminal         {fill: #FFDB4D; stroke: #332900; stroke-width: 1;}
    rect.nonterminal      {fill: #FFEC9E; stroke: #332900; stroke-width: 1;}
    rect.text             {fill: none; stroke: none;}
    polygon.regexp        {fill: #FFF4C7; stroke: #332900; stroke-width: 1;}
  </style>
   </defs>
   <polygon points="9 17 1 13 1 21"/>
   <polygon points="17 17 9 13 9 21"/>
   <rect x="31" y="3" width="38" height="32" rx="10"/>
   <rect x="29"
          y="1"
          width="38"
          height="32"
          class="terminal"
          rx="10"/>
   <text class="terminal" x="39" y="21">ref</text>
   <a xmlns:xlink="http://www.w3.org/1999/xlink"
       xlink:href="#Identifier"
       xlink:title="Identifier">
      <rect x="89" y="3" width="78" height="32"/>
      <rect x="87" y="1" width="78" height="32" class="nonterminal"/>
      <text class="nonterminal" x="97" y="21">Identifier</text>
   </a>
   <a xmlns:xlink="http://www.w3.org/1999/xlink"
       xlink:href="#PropertyMember"
       xlink:title="PropertyMember">
      <rect x="207" y="3" width="124" height="32"/>
      <rect x="205" y="1" width="124" height="32" class="nonterminal"/>
      <text class="nonterminal" x="215" y="21">PropertyMember</text>
   </a>
   <a xmlns:xlink="http://www.w3.org/1999/xlink"
       xlink:href="#TypeExpressionFromTo"
       xlink:title="TypeExpressionFromTo">
      <rect x="207" y="47" width="166" height="32"/>
      <rect x="205" y="45" width="166" height="32" class="nonterminal"/>
      <text class="nonterminal" x="215" y="65">TypeExpressionFromTo</text>
   </a>
   <a xmlns:xlink="http://www.w3.org/1999/xlink"
       xlink:href="#AnnotationOnlyBody"
       xlink:title="AnnotationOnlyBody">
      <rect x="413" y="79" width="148" height="32"/>
      <rect x="411" y="77" width="148" height="32" class="nonterminal"/>
      <text class="nonterminal" x="421" y="97">AnnotationOnlyBody</text>
   </a>
   <path class="line"
          d="m17 17 h2 m0 0 h10 m38 0 h10 m0 0 h10 m78 0 h10 m20 0 h10 m124 0 h10 m0 0 h250 m-414 0 h20 m394 0 h20 m-434 0 q10 0 10 10 m414 0 q0 -10 10 -10 m-424 10 v24 m414 0 v-24 m-414 24 q0 10 10 10 m394 0 q10 0 10 -10 m-404 10 h10 m166 0 h10 m20 0 h10 m0 0 h158 m-188 0 h20 m168 0 h20 m-208 0 q10 0 10 10 m188 0 q0 -10 10 -10 m-198 10 v12 m188 0 v-12 m-188 12 q0 10 10 10 m168 0 q10 0 10 -10 m-178 10 h10 m148 0 h10 m43 -76 h-3"/>
   <polygon points="619 17 627 13 627 21"/>
   <polygon points="619 17 611 13 611 21"/>
</svg>
