<?xml version="1.0" encoding="UTF-8"?>
<svg xmlns="http://www.w3.org/2000/svg" width="761" height="113">
   <defs>
      <style type="text/css">
    @namespace "http://www.w3.org/2000/svg";
    .line                 {fill: none; stroke: #332900; stroke-width: 1;}
    .bold-line            {stroke: #141000; shape-rendering: crispEdges; stroke-width: 2;}
    .thin-line            {stroke: #1F1800; shape-rendering: crispEdges}
    .filled               {fill: #332900; stroke: none;}
    text.terminal         {font-family: Verdana, Sans-serif;
                            font-size: 12px;
                            fill: #141000;
                            font-weight: bold;
                          }
    text.nonterminal      {font-family: Verdana, Sans-serif;
                            font-size: 12px;
                            fill: #1A1400;
                            font-weight: normal;
                          }
    text.regexp           {font-family: Verdana, Sans-serif;
                            font-size: 12px;
                            fill: #1F1800;
                            font-weight: normal;
                          }
    rect, circle, polygon {fill: #332900; stroke: #332900;}
    rect.terminal         {fill: #FFDB4D; stroke: #332900; stroke-width: 1;}
    rect.nonterminal      {fill: #FFEC9E; stroke: #332900; stroke-width: 1;}
    rect.text             {fill: none; stroke: none;}
    polygon.regexp        {fill: #FFF4C7; stroke: #332900; stroke-width: 1;}
  </style>
   </defs>
   <polygon points="9 17 1 13 1 21"/>
   <polygon points="17 17 9 13 9 21"/>
   <rect x="31" y="3" width="38" height="32" rx="10"/>
   <rect x="29"
          y="1"
          width="38"
          height="32"
          class="terminal"
          rx="10"/>
   <text class="terminal" x="39" y="21">ref</text>
   <a xmlns:xlink="http://www.w3.org/1999/xlink"
       xlink:href="#Identifier"
       xlink:title="Identifier">
      <rect x="89" y="3" width="78" height="32"/>
      <rect x="87" y="1" width="78" height="32" class="nonterminal"/>
      <text class="nonterminal" x="97" y="21">Identifier</text>
   </a>
   <a xmlns:xlink="http://www.w3.org/1999/xlink"
       xlink:href="#PropertyMember"
       xlink:title="PropertyMember">
      <rect x="207" y="3" width="124" height="32"/>
      <rect x="205" y="1" width="124" height="32" class="nonterminal"/>
      <text class="nonterminal" x="215" y="21">PropertyMember</text>
   </a>
   <a xmlns:xlink="http://www.w3.org/1999/xlink"
       xlink:href="#InverseName"
       xlink:title="InverseName">
      <rect x="227" y="79" width="104" height="32"/>
      <rect x="225" y="77" width="104" height="32" class="nonterminal"/>
      <text class="nonterminal" x="235" y="97">InverseName</text>
   </a>
   <a xmlns:xlink="http://www.w3.org/1999/xlink"
       xlink:href="#TypeExpressionTo"
       xlink:title="TypeExpressionTo">
      <rect x="371" y="47" width="134" height="32"/>
      <rect x="369" y="45" width="134" height="32" class="nonterminal"/>
      <text class="nonterminal" x="379" y="65">TypeExpressionTo</text>
   </a>
   <a xmlns:xlink="http://www.w3.org/1999/xlink"
       xlink:href="#AnnotationOnlyBody"
       xlink:title="AnnotationOnlyBody">
      <rect x="545" y="79" width="148" height="32"/>
      <rect x="543" y="77" width="148" height="32" class="nonterminal"/>
      <text class="nonterminal" x="553" y="97">AnnotationOnlyBody</text>
   </a>
   <path class="line"
          d="m17 17 h2 m0 0 h10 m38 0 h10 m0 0 h10 m78 0 h10 m20 0 h10 m124 0 h10 m0 0 h382 m-546 0 h20 m526 0 h20 m-566 0 q10 0 10 10 m546 0 q0 -10 10 -10 m-556 10 v24 m546 0 v-24 m-546 24 q0 10 10 10 m526 0 q10 0 10 -10 m-516 10 h10 m0 0 h114 m-144 0 h20 m124 0 h20 m-164 0 q10 0 10 10 m144 0 q0 -10 10 -10 m-154 10 v12 m144 0 v-12 m-144 12 q0 10 10 10 m124 0 q10 0 10 -10 m-134 10 h10 m104 0 h10 m20 -32 h10 m134 0 h10 m20 0 h10 m0 0 h158 m-188 0 h20 m168 0 h20 m-208 0 q10 0 10 10 m188 0 q0 -10 10 -10 m-198 10 v12 m188 0 v-12 m-188 12 q0 10 10 10 m168 0 q10 0 10 -10 m-178 10 h10 m148 0 h10 m43 -76 h-3"/>
   <polygon points="751 17 759 13 759 21"/>
   <polygon points="751 17 743 13 743 21"/>
</svg>
