<?xml version="1.0" encoding="UTF-8"?>
<svg xmlns="http://www.w3.org/2000/svg" width="631" height="71">
   <defs>
      <style type="text/css">
    @namespace "http://www.w3.org/2000/svg";
    .line                 {fill: none; stroke: #332900; stroke-width: 1;}
    .bold-line            {stroke: #141000; shape-rendering: crispEdges; stroke-width: 2;}
    .thin-line            {stroke: #1F1800; shape-rendering: crispEdges}
    .filled               {fill: #332900; stroke: none;}
    text.terminal         {font-family: Verdana, Sans-serif;
                            font-size: 12px;
                            fill: #141000;
                            font-weight: bold;
                          }
    text.nonterminal      {font-family: Verdana, Sans-serif;
                            font-size: 12px;
                            fill: #1A1400;
                            font-weight: normal;
                          }
    text.regexp           {font-family: Verdana, Sans-serif;
                            font-size: 12px;
                            fill: #1F1800;
                            font-weight: normal;
                          }
    rect, circle, polygon {fill: #332900; stroke: #332900;}
    rect.terminal         {fill: #FFDB4D; stroke: #332900; stroke-width: 1;}
    rect.nonterminal      {fill: #FFEC9E; stroke: #332900; stroke-width: 1;}
    rect.text             {fill: none; stroke: none;}
    polygon.regexp        {fill: #FFF4C7; stroke: #332900; stroke-width: 1;}
  </style>
   </defs>
   <polygon points="9 51 1 47 1 55"/>
   <polygon points="17 51 9 47 9 55"/>
   <rect x="31" y="37" width="30" height="32" rx="10"/>
   <rect x="29"
          y="35"
          width="30"
          height="32"
          class="terminal"
          rx="10"/>
   <text class="terminal" x="39" y="55">is</text>
   <a xmlns:xlink="http://www.w3.org/1999/xlink"
       xlink:href="#ImportStatement"
       xlink:title="ImportStatement">
      <rect x="101" y="3" width="128" height="32"/>
      <rect x="99" y="1" width="128" height="32" class="nonterminal"/>
      <text class="nonterminal" x="109" y="21">ImportStatement</text>
   </a>
   <a xmlns:xlink="http://www.w3.org/1999/xlink"
       xlink:href="#Annotation"
       xlink:title="Annotation">
      <rect x="289" y="3" width="90" height="32"/>
      <rect x="287" y="1" width="90" height="32" class="nonterminal"/>
      <text class="nonterminal" x="297" y="21">Annotation</text>
   </a>
   <a xmlns:xlink="http://www.w3.org/1999/xlink"
       xlink:href="#Definition"
       xlink:title="Definition">
      <rect x="439" y="3" width="80" height="32"/>
      <rect x="437" y="1" width="80" height="32" class="nonterminal"/>
      <text class="nonterminal" x="447" y="21">Definition</text>
   </a>
   <rect x="559" y="37" width="44" height="32" rx="10"/>
   <rect x="557"
          y="35"
          width="44"
          height="32"
          class="terminal"
          rx="10"/>
   <text class="terminal" x="567" y="55">end</text>
   <path class="line"
          d="m17 51 h2 m0 0 h10 m30 0 h10 m20 0 h10 m0 0 h138 m-168 0 l20 0 m-1 0 q-9 0 -9 -10 l0 -14 q0 -10 10 -10 m148 34 l20 0 m-20 0 q10 0 10 -10 l0 -14 q0 -10 -10 -10 m-148 0 h10 m128 0 h10 m40 34 h10 m0 0 h100 m-130 0 l20 0 m-1 0 q-9 0 -9 -10 l0 -14 q0 -10 10 -10 m110 34 l20 0 m-20 0 q10 0 10 -10 l0 -14 q0 -10 -10 -10 m-110 0 h10 m90 0 h10 m40 34 h10 m0 0 h90 m-120 0 l20 0 m-1 0 q-9 0 -9 -10 l0 -14 q0 -10 10 -10 m100 34 l20 0 m-20 0 q10 0 10 -10 l0 -14 q0 -10 -10 -10 m-100 0 h10 m80 0 h10 m20 34 h10 m44 0 h10 m3 0 h-3"/>
   <polygon points="621 51 629 47 629 55"/>
   <polygon points="621 51 613 47 613 55"/>
</svg>
