<?xml version="1.0" encoding="UTF-8"?>
<svg xmlns="http://www.w3.org/2000/svg" width="401" height="69">
   <defs>
      <style type="text/css">
    @namespace "http://www.w3.org/2000/svg";
    .line                 {fill: none; stroke: #332900; stroke-width: 1;}
    .bold-line            {stroke: #141000; shape-rendering: crispEdges; stroke-width: 2;}
    .thin-line            {stroke: #1F1800; shape-rendering: crispEdges}
    .filled               {fill: #332900; stroke: none;}
    text.terminal         {font-family: Verdana, Sans-serif;
                            font-size: 12px;
                            fill: #141000;
                            font-weight: bold;
                          }
    text.nonterminal      {font-family: Verdana, Sans-serif;
                            font-size: 12px;
                            fill: #1A1400;
                            font-weight: normal;
                          }
    text.regexp           {font-family: Verdana, Sans-serif;
                            font-size: 12px;
                            fill: #1F1800;
                            font-weight: normal;
                          }
    rect, circle, polygon {fill: #332900; stroke: #332900;}
    rect.terminal         {fill: #FFDB4D; stroke: #332900; stroke-width: 1;}
    rect.nonterminal      {fill: #FFEC9E; stroke: #332900; stroke-width: 1;}
    rect.text             {fill: none; stroke: none;}
    polygon.regexp        {fill: #FFF4C7; stroke: #332900; stroke-width: 1;}
  </style>
   </defs>
   <polygon points="9 17 1 13 1 21"/>
   <polygon points="17 17 9 13 9 21"/>
   <rect x="31" y="3" width="78" height="32" rx="10"/>
   <rect x="29"
          y="1"
          width="78"
          height="32"
          class="terminal"
          rx="10"/>
   <text class="terminal" x="39" y="21">property</text>
   <a xmlns:xlink="http://www.w3.org/1999/xlink"
       xlink:href="#Identifier"
       xlink:title="Identifier">
      <rect x="129" y="3" width="78" height="32"/>
      <rect x="127" y="1" width="78" height="32" class="nonterminal"/>
      <text class="nonterminal" x="137" y="21">Identifier</text>
   </a>
   <a xmlns:xlink="http://www.w3.org/1999/xlink"
       xlink:href="#PropertyBody"
       xlink:title="PropertyBody">
      <rect x="247" y="35" width="106" height="32"/>
      <rect x="245" y="33" width="106" height="32" class="nonterminal"/>
      <text class="nonterminal" x="255" y="53">PropertyBody</text>
   </a>
   <path class="line"
          d="m17 17 h2 m0 0 h10 m78 0 h10 m0 0 h10 m78 0 h10 m20 0 h10 m0 0 h116 m-146 0 h20 m126 0 h20 m-166 0 q10 0 10 10 m146 0 q0 -10 10 -10 m-156 10 v12 m146 0 v-12 m-146 12 q0 10 10 10 m126 0 q10 0 10 -10 m-136 10 h10 m106 0 h10 m23 -32 h-3"/>
   <polygon points="391 17 399 13 399 21"/>
   <polygon points="391 17 383 13 383 21"/>
</svg>
