<?xml version="1.0" encoding="UTF-8"?>
<svg xmlns="http://www.w3.org/2000/svg" width="345" height="125">
   <defs>
      <style type="text/css">
    @namespace "http://www.w3.org/2000/svg";
    .line                 {fill: none; stroke: #332900; stroke-width: 1;}
    .bold-line            {stroke: #141000; shape-rendering: crispEdges; stroke-width: 2;}
    .thin-line            {stroke: #1F1800; shape-rendering: crispEdges}
    .filled               {fill: #332900; stroke: none;}
    text.terminal         {font-family: Verdana, Sans-serif;
                            font-size: 12px;
                            fill: #141000;
                            font-weight: bold;
                          }
    text.nonterminal      {font-family: Verdana, Sans-serif;
                            font-size: 12px;
                            fill: #1A1400;
                            font-weight: normal;
                          }
    text.regexp           {font-family: Verdana, Sans-serif;
                            font-size: 12px;
                            fill: #1F1800;
                            font-weight: normal;
                          }
    rect, circle, polygon {fill: #332900; stroke: #332900;}
    rect.terminal         {fill: #FFDB4D; stroke: #332900; stroke-width: 1;}
    rect.nonterminal      {fill: #FFEC9E; stroke: #332900; stroke-width: 1;}
    rect.text             {fill: none; stroke: none;}
    polygon.regexp        {fill: #FFF4C7; stroke: #332900; stroke-width: 1;}
  </style>
   </defs>
   <polygon points="9 17 1 13 1 21"/>
   <polygon points="17 17 9 13 9 21"/>
   <rect x="51" y="3" width="44" height="32" rx="10"/>
   <rect x="49"
          y="1"
          width="44"
          height="32"
          class="terminal"
          rx="10"/>
   <text class="terminal" x="59" y="21">self</text>
   <a xmlns:xlink="http://www.w3.org/1999/xlink"
       xlink:href="#Identifer"
       xlink:title="Identifer">
      <rect x="71" y="91" width="74" height="32"/>
      <rect x="69" y="89" width="74" height="32" class="nonterminal"/>
      <text class="nonterminal" x="79" y="109">Identifer</text>
   </a>
   <rect x="71" y="47" width="24" height="32" rx="10"/>
   <rect x="69"
          y="45"
          width="24"
          height="32"
          class="terminal"
          rx="10"/>
   <text class="terminal" x="79" y="65">,</text>
   <a xmlns:xlink="http://www.w3.org/1999/xlink"
       xlink:href="#IteratorSource"
       xlink:title="IteratorSource">
      <rect x="185" y="91" width="112" height="32"/>
      <rect x="183" y="89" width="112" height="32" class="nonterminal"/>
      <text class="nonterminal" x="193" y="109">IteratorSource</text>
   </a>
   <path class="line"
          d="m17 17 h2 m20 0 h10 m44 0 h10 m0 0 h202 m-286 0 h20 m266 0 h20 m-306 0 q10 0 10 10 m286 0 q0 -10 10 -10 m-296 10 v68 m286 0 v-68 m-286 68 q0 10 10 10 m266 0 q10 0 10 -10 m-256 10 h10 m74 0 h10 m-114 0 l20 0 m-1 0 q-9 0 -9 -10 l0 -24 q0 -10 10 -10 m94 44 l20 0 m-20 0 q10 0 10 -10 l0 -24 q0 -10 -10 -10 m-94 0 h10 m24 0 h10 m0 0 h50 m20 44 h10 m112 0 h10 m23 -88 h-3"/>
   <polygon points="335 17 343 13 343 21"/>
   <polygon points="335 17 327 13 327 21"/>
</svg>
