<?xml version="1.0" encoding="UTF-8"?>
<svg xmlns="http://www.w3.org/2000/svg" width="303" height="81">
   <defs>
      <style type="text/css">
    @namespace "http://www.w3.org/2000/svg";
    .line                 {fill: none; stroke: #332900; stroke-width: 1;}
    .bold-line            {stroke: #141000; shape-rendering: crispEdges; stroke-width: 2;}
    .thin-line            {stroke: #1F1800; shape-rendering: crispEdges}
    .filled               {fill: #332900; stroke: none;}
    text.terminal         {font-family: Verdana, Sans-serif;
                            font-size: 12px;
                            fill: #141000;
                            font-weight: bold;
                          }
    text.nonterminal      {font-family: Verdana, Sans-serif;
                            font-size: 12px;
                            fill: #1A1400;
                            font-weight: normal;
                          }
    text.regexp           {font-family: Verdana, Sans-serif;
                            font-size: 12px;
                            fill: #1F1800;
                            font-weight: normal;
                          }
    rect, circle, polygon {fill: #332900; stroke: #332900;}
    rect.terminal         {fill: #FFDB4D; stroke: #332900; stroke-width: 1;}
    rect.nonterminal      {fill: #FFEC9E; stroke: #332900; stroke-width: 1;}
    rect.text             {fill: none; stroke: none;}
    polygon.regexp        {fill: #FFF4C7; stroke: #332900; stroke-width: 1;}
  </style>
   </defs>
   <polygon points="9 17 1 13 1 21"/>
   <polygon points="17 17 9 13 9 21"/>
   <rect x="51" y="3" width="44" height="32" rx="10"/>
   <rect x="49"
          y="1"
          width="44"
          height="32"
          class="terminal"
          rx="10"/>
   <text class="terminal" x="59" y="21">self</text>
   <a xmlns:xlink="http://www.w3.org/1999/xlink"
       xlink:href="#Identifer"
       xlink:title="Identifer">
      <rect x="51" y="47" width="74" height="32"/>
      <rect x="49" y="45" width="74" height="32" class="nonterminal"/>
      <text class="nonterminal" x="59" y="65">Identifer</text>
   </a>
   <a xmlns:xlink="http://www.w3.org/1999/xlink"
       xlink:href="#IteratorTarget"
       xlink:title="IteratorTarget">
      <rect x="145" y="47" width="110" height="32"/>
      <rect x="143" y="45" width="110" height="32" class="nonterminal"/>
      <text class="nonterminal" x="153" y="65">IteratorTarget</text>
   </a>
   <path class="line"
          d="m17 17 h2 m20 0 h10 m44 0 h10 m0 0 h160 m-244 0 h20 m224 0 h20 m-264 0 q10 0 10 10 m244 0 q0 -10 10 -10 m-254 10 v24 m244 0 v-24 m-244 24 q0 10 10 10 m224 0 q10 0 10 -10 m-234 10 h10 m74 0 h10 m0 0 h10 m110 0 h10 m23 -44 h-3"/>
   <polygon points="293 17 301 13 301 21"/>
   <polygon points="293 17 285 13 285 21"/>
</svg>
