<?xml version="1.0" encoding="UTF-8"?>
<svg xmlns="http://www.w3.org/2000/svg" width="319" height="159">
   <defs>
      <style type="text/css">
    @namespace "http://www.w3.org/2000/svg";
    .line                 {fill: none; stroke: #332900; stroke-width: 1;}
    .bold-line            {stroke: #141000; shape-rendering: crispEdges; stroke-width: 2;}
    .thin-line            {stroke: #1F1800; shape-rendering: crispEdges}
    .filled               {fill: #332900; stroke: none;}
    text.terminal         {font-family: Verdana, Sans-serif;
                            font-size: 12px;
                            fill: #141000;
                            font-weight: bold;
                          }
    text.nonterminal      {font-family: Verdana, Sans-serif;
                            font-size: 12px;
                            fill: #1A1400;
                            font-weight: normal;
                          }
    text.regexp           {font-family: Verdana, Sans-serif;
                            font-size: 12px;
                            fill: #1F1800;
                            font-weight: normal;
                          }
    rect, circle, polygon {fill: #332900; stroke: #332900;}
    rect.terminal         {fill: #FFDB4D; stroke: #332900; stroke-width: 1;}
    rect.nonterminal      {fill: #FFEC9E; stroke: #332900; stroke-width: 1;}
    rect.text             {fill: none; stroke: none;}
    polygon.regexp        {fill: #FFF4C7; stroke: #332900; stroke-width: 1;}
  </style>
   </defs>
   <polygon points="9 139 1 135 1 143"/>
   <polygon points="17 139 9 135 9 143"/>
   <rect x="31" y="125" width="26" height="32" rx="10"/>
   <rect x="29"
          y="123"
          width="26"
          height="32"
          class="terminal"
          rx="10"/>
   <text class="terminal" x="39" y="143">"</text>
   <a xmlns:xlink="http://www.w3.org/1999/xlink"
       xlink:href="#NotAllowed"
       xlink:title="NotAllowed">
      <rect x="97" y="91" width="90" height="32"/>
      <rect x="95" y="89" width="90" height="32" class="nonterminal"/>
      <text class="nonterminal" x="105" y="109">NotAllowed</text>
   </a>
   <a xmlns:xlink="http://www.w3.org/1999/xlink"
       xlink:href="#CharacterEscape"
       xlink:title="CharacterEscape">
      <rect x="97" y="47" width="128" height="32"/>
      <rect x="95" y="45" width="128" height="32" class="nonterminal"/>
      <text class="nonterminal" x="105" y="65">CharacterEscape</text>
   </a>
   <a xmlns:xlink="http://www.w3.org/1999/xlink"
       xlink:href="#UnicodeEscape"
       xlink:title="UnicodeEscape">
      <rect x="97" y="3" width="116" height="32"/>
      <rect x="95" y="1" width="116" height="32" class="nonterminal"/>
      <text class="nonterminal" x="105" y="21">UnicodeEscape</text>
   </a>
   <rect x="265" y="125" width="26" height="32" rx="10"/>
   <rect x="263"
          y="123"
          width="26"
          height="32"
          class="terminal"
          rx="10"/>
   <text class="terminal" x="273" y="143">"</text>
   <path class="line"
          d="m17 139 h2 m0 0 h10 m26 0 h10 m20 0 h10 m0 0 h138 m-168 0 l20 0 m-1 0 q-9 0 -9 -10 l0 -14 q0 -10 10 -10 m148 34 l20 0 m-20 0 q10 0 10 -10 l0 -14 q0 -10 -10 -10 m-148 0 h10 m90 0 h10 m0 0 h38 m-158 10 l0 -44 q0 -10 10 -10 m158 54 l0 -44 q0 -10 -10 -10 m-148 0 h10 m128 0 h10 m-158 10 l0 -44 q0 -10 10 -10 m158 54 l0 -44 q0 -10 -10 -10 m-148 0 h10 m116 0 h10 m0 0 h12 m20 122 h10 m26 0 h10 m3 0 h-3"/>
   <polygon points="309 139 317 135 317 143"/>
   <polygon points="309 139 301 135 301 143"/>
</svg>
