<?xml version="1.0" encoding="UTF-8"?>
<svg xmlns="http://www.w3.org/2000/svg" width="617" height="141">
   <defs>
      <style type="text/css">
    @namespace "http://www.w3.org/2000/svg";
    .line                 {fill: none; stroke: #332900; stroke-width: 1;}
    .bold-line            {stroke: #141000; shape-rendering: crispEdges; stroke-width: 2;}
    .thin-line            {stroke: #1F1800; shape-rendering: crispEdges}
    .filled               {fill: #332900; stroke: none;}
    text.terminal         {font-family: Verdana, Sans-serif;
                            font-size: 12px;
                            fill: #141000;
                            font-weight: bold;
                          }
    text.nonterminal      {font-family: Verdana, Sans-serif;
                            font-size: 12px;
                            fill: #1A1400;
                            font-weight: normal;
                          }
    text.regexp           {font-family: Verdana, Sans-serif;
                            font-size: 12px;
                            fill: #1F1800;
                            font-weight: normal;
                          }
    rect, circle, polygon {fill: #332900; stroke: #332900;}
    rect.terminal         {fill: #FFDB4D; stroke: #332900; stroke-width: 1;}
    rect.nonterminal      {fill: #FFEC9E; stroke: #332900; stroke-width: 1;}
    rect.text             {fill: none; stroke: none;}
    polygon.regexp        {fill: #FFF4C7; stroke: #332900; stroke-width: 1;}
  </style>
   </defs>
   <polygon points="9 33 1 29 1 37"/>
   <polygon points="17 33 9 29 9 37"/>
   <a xmlns:xlink="http://www.w3.org/1999/xlink"
       xlink:href="#SequenceValueConstraint"
       xlink:title="SequenceValueConstraint">
      <rect x="51" y="51" width="184" height="32"/>
      <rect x="49" y="49" width="184" height="32" class="nonterminal"/>
      <text class="nonterminal" x="59" y="69">SequenceValueConstraint</text>
   </a>
   <rect x="275" y="19" width="26" height="32" rx="10"/>
   <rect x="273"
          y="17"
          width="26"
          height="32"
          class="terminal"
          rx="10"/>
   <text class="terminal" x="283" y="37">[</text>
   <a xmlns:xlink="http://www.w3.org/1999/xlink"
       xlink:href="#SimpleValue"
       xlink:title="SimpleValue">
      <rect x="361" y="19" width="98" height="32"/>
      <rect x="359" y="17" width="98" height="32" class="nonterminal"/>
      <text class="nonterminal" x="369" y="37">SimpleValue</text>
   </a>
   <a xmlns:xlink="http://www.w3.org/1999/xlink"
       xlink:href="#ValueConstructor"
       xlink:title="ValueConstructor">
      <rect x="361" y="63" width="130" height="32"/>
      <rect x="359" y="61" width="130" height="32" class="nonterminal"/>
      <text class="nonterminal" x="369" y="81">ValueConstructor</text>
   </a>
   <a xmlns:xlink="http://www.w3.org/1999/xlink"
       xlink:href="#IdentifierReference"
       xlink:title="IdentifierReference">
      <rect x="361" y="107" width="142" height="32"/>
      <rect x="359" y="105" width="142" height="32" class="nonterminal"/>
      <text class="nonterminal" x="369" y="125">IdentifierReference</text>
   </a>
   <rect x="563" y="19" width="26" height="32" rx="10"/>
   <rect x="561"
          y="17"
          width="26"
          height="32"
          class="terminal"
          rx="10"/>
   <text class="terminal" x="571" y="37">]</text>
   <path class="line"
          d="m17 33 h2 m20 0 h10 m0 0 h194 m-224 0 h20 m204 0 h20 m-244 0 q10 0 10 10 m224 0 q0 -10 10 -10 m-234 10 v12 m224 0 v-12 m-224 12 q0 10 10 10 m204 0 q10 0 10 -10 m-214 10 h10 m184 0 h10 m20 -32 h10 m26 0 h10 m40 0 h10 m98 0 h10 m0 0 h44 m-182 0 h20 m162 0 h20 m-202 0 q10 0 10 10 m182 0 q0 -10 10 -10 m-192 10 v24 m182 0 v-24 m-182 24 q0 10 10 10 m162 0 q10 0 10 -10 m-172 10 h10 m130 0 h10 m0 0 h12 m-172 -10 v20 m182 0 v-20 m-182 20 v24 m182 0 v-24 m-182 24 q0 10 10 10 m162 0 q10 0 10 -10 m-172 10 h10 m142 0 h10 m-202 -88 l20 0 m-1 0 q-9 0 -9 -10 l0 -12 q0 -10 10 -10 m202 32 l20 0 m-20 0 q10 0 10 -10 l0 -12 q0 -10 -10 -10 m-202 0 h10 m0 0 h192 m20 32 h10 m26 0 h10 m3 0 h-3"/>
   <polygon points="607 33 615 29 615 37"/>
   <polygon points="607 33 599 29 599 37"/>
</svg>
