<?xml version="1.0" encoding="UTF-8"?>
<svg xmlns="http://www.w3.org/2000/svg" width="617" height="191">
   <defs>
      <style type="text/css">
    @namespace "http://www.w3.org/2000/svg";
    .line                 {fill: none; stroke: #332900; stroke-width: 1;}
    .bold-line            {stroke: #141000; shape-rendering: crispEdges; stroke-width: 2;}
    .thin-line            {stroke: #1F1800; shape-rendering: crispEdges}
    .filled               {fill: #332900; stroke: none;}
    text.terminal         {font-family: Verdana, Sans-serif;
                            font-size: 12px;
                            fill: #141000;
                            font-weight: bold;
                          }
    text.nonterminal      {font-family: Verdana, Sans-serif;
                            font-size: 12px;
                            fill: #1A1400;
                            font-weight: normal;
                          }
    text.regexp           {font-family: Verdana, Sans-serif;
                            font-size: 12px;
                            fill: #1F1800;
                            font-weight: normal;
                          }
    rect, circle, polygon {fill: #332900; stroke: #332900;}
    rect.terminal         {fill: #FFDB4D; stroke: #332900; stroke-width: 1;}
    rect.nonterminal      {fill: #FFEC9E; stroke: #332900; stroke-width: 1;}
    rect.text             {fill: none; stroke: none;}
    polygon.regexp        {fill: #FFF4C7; stroke: #332900; stroke-width: 1;}
  </style>
   </defs>
   <polygon points="9 95 1 91 1 99"/>
   <polygon points="17 95 9 91 9 99"/>
   <a xmlns:xlink="http://www.w3.org/1999/xlink"
       xlink:href="#SequenceValueConstraint"
       xlink:title="SequenceValueConstraint">
      <rect x="71" y="113" width="184" height="32"/>
      <rect x="69" y="111" width="184" height="32" class="nonterminal"/>
      <text class="nonterminal" x="79" y="131">SequenceValueConstraint</text>
   </a>
   <rect x="295" y="81" width="26" height="32" rx="10"/>
   <rect x="293"
          y="79"
          width="26"
          height="32"
          class="terminal"
          rx="10"/>
   <text class="terminal" x="303" y="99">[</text>
   <a xmlns:xlink="http://www.w3.org/1999/xlink"
       xlink:href="#SimpleValue"
       xlink:title="SimpleValue">
      <rect x="361" y="47" width="98" height="32"/>
      <rect x="359" y="45" width="98" height="32" class="nonterminal"/>
      <text class="nonterminal" x="369" y="65">SimpleValue</text>
   </a>
   <a xmlns:xlink="http://www.w3.org/1999/xlink"
       xlink:href="#IdentifierReference"
       xlink:title="IdentifierReference">
      <rect x="361" y="3" width="142" height="32"/>
      <rect x="359" y="1" width="142" height="32" class="nonterminal"/>
      <text class="nonterminal" x="369" y="21">IdentifierReference</text>
   </a>
   <rect x="543" y="81" width="26" height="32" rx="10"/>
   <rect x="541"
          y="79"
          width="26"
          height="32"
          class="terminal"
          rx="10"/>
   <text class="terminal" x="551" y="99">]</text>
   <rect x="51" y="157" width="28" height="32" rx="10"/>
   <rect x="49"
          y="155"
          width="28"
          height="32"
          class="terminal"
          rx="10"/>
   <text class="terminal" x="59" y="175">∅</text>
   <path class="line"
          d="m17 95 h2 m40 0 h10 m0 0 h194 m-224 0 h20 m204 0 h20 m-244 0 q10 0 10 10 m224 0 q0 -10 10 -10 m-234 10 v12 m224 0 v-12 m-224 12 q0 10 10 10 m204 0 q10 0 10 -10 m-214 10 h10 m184 0 h10 m20 -32 h10 m26 0 h10 m20 0 h10 m0 0 h152 m-182 0 l20 0 m-1 0 q-9 0 -9 -10 l0 -14 q0 -10 10 -10 m162 34 l20 0 m-20 0 q10 0 10 -10 l0 -14 q0 -10 -10 -10 m-162 0 h10 m98 0 h10 m0 0 h44 m-172 10 l0 -44 q0 -10 10 -10 m172 54 l0 -44 q0 -10 -10 -10 m-162 0 h10 m142 0 h10 m20 78 h10 m26 0 h10 m-558 0 h20 m538 0 h20 m-578 0 q10 0 10 10 m558 0 q0 -10 10 -10 m-568 10 v56 m558 0 v-56 m-558 56 q0 10 10 10 m538 0 q10 0 10 -10 m-548 10 h10 m28 0 h10 m0 0 h490 m23 -76 h-3"/>
   <polygon points="607 95 615 91 615 99"/>
   <polygon points="607 95 599 91 599 99"/>
</svg>
