<?xml version="1.0" encoding="UTF-8"?>
<svg xmlns="http://www.w3.org/2000/svg" width="715" height="97">
   <defs>
      <style type="text/css">
    @namespace "http://www.w3.org/2000/svg";
    .line                 {fill: none; stroke: #332900; stroke-width: 1;}
    .bold-line            {stroke: #141000; shape-rendering: crispEdges; stroke-width: 2;}
    .thin-line            {stroke: #1F1800; shape-rendering: crispEdges}
    .filled               {fill: #332900; stroke: none;}
    text.terminal         {font-family: Verdana, Sans-serif;
                            font-size: 12px;
                            fill: #141000;
                            font-weight: bold;
                          }
    text.nonterminal      {font-family: Verdana, Sans-serif;
                            font-size: 12px;
                            fill: #1A1400;
                            font-weight: normal;
                          }
    text.regexp           {font-family: Verdana, Sans-serif;
                            font-size: 12px;
                            fill: #1F1800;
                            font-weight: normal;
                          }
    rect, circle, polygon {fill: #332900; stroke: #332900;}
    rect.terminal         {fill: #FFDB4D; stroke: #332900; stroke-width: 1;}
    rect.nonterminal      {fill: #FFEC9E; stroke: #332900; stroke-width: 1;}
    rect.text             {fill: none; stroke: none;}
    polygon.regexp        {fill: #FFF4C7; stroke: #332900; stroke-width: 1;}
  </style>
   </defs>
   <polygon points="9 33 1 29 1 37"/>
   <polygon points="17 33 9 29 9 37"/>
   <rect x="31" y="19" width="28" height="32" rx="10"/>
   <rect x="29"
          y="17"
          width="28"
          height="32"
          class="terminal"
          rx="10"/>
   <text class="terminal" x="39" y="37">{</text>
   <a xmlns:xlink="http://www.w3.org/1999/xlink"
       xlink:href="#VariableNameSet"
       xlink:title="VariableNameSet">
      <rect x="99" y="19" width="130" height="32"/>
      <rect x="97" y="17" width="130" height="32" class="nonterminal"/>
      <text class="nonterminal" x="107" y="37">VariableNameSet</text>
   </a>
   <a xmlns:xlink="http://www.w3.org/1999/xlink"
       xlink:href="#MappingVariable"
       xlink:title="MappingVariable">
      <rect x="99" y="63" width="124" height="32"/>
      <rect x="97" y="61" width="124" height="32" class="nonterminal"/>
      <text class="nonterminal" x="107" y="81">MappingVariable</text>
   </a>
   <rect x="269" y="19" width="26" height="32" rx="10"/>
   <rect x="267"
          y="17"
          width="26"
          height="32"
          class="terminal"
          rx="10"/>
   <text class="terminal" x="277" y="37">|</text>
   <a xmlns:xlink="http://www.w3.org/1999/xlink"
       xlink:href="#VariableBinding"
       xlink:title="VariableBinding">
      <rect x="335" y="19" width="118" height="32"/>
      <rect x="333" y="17" width="118" height="32" class="nonterminal"/>
      <text class="nonterminal" x="343" y="37">VariableBinding</text>
   </a>
   <a xmlns:xlink="http://www.w3.org/1999/xlink"
       xlink:href="#ConstraintSentence"
       xlink:title="ConstraintSentence">
      <rect x="493" y="19" width="146" height="32"/>
      <rect x="491" y="17" width="146" height="32" class="nonterminal"/>
      <text class="nonterminal" x="501" y="37">ConstraintSentence</text>
   </a>
   <rect x="659" y="19" width="28" height="32" rx="10"/>
   <rect x="657"
          y="17"
          width="28"
          height="32"
          class="terminal"
          rx="10"/>
   <text class="terminal" x="667" y="37">}</text>
   <path class="line"
          d="m17 33 h2 m0 0 h10 m28 0 h10 m20 0 h10 m130 0 h10 m-170 0 h20 m150 0 h20 m-190 0 q10 0 10 10 m170 0 q0 -10 10 -10 m-180 10 v24 m170 0 v-24 m-170 24 q0 10 10 10 m150 0 q10 0 10 -10 m-160 10 h10 m124 0 h10 m0 0 h6 m20 -44 h10 m26 0 h10 m20 0 h10 m118 0 h10 m-158 0 l20 0 m-1 0 q-9 0 -9 -10 l0 -12 q0 -10 10 -10 m138 32 l20 0 m-20 0 q10 0 10 -10 l0 -12 q0 -10 -10 -10 m-138 0 h10 m0 0 h128 m20 32 h10 m146 0 h10 m0 0 h10 m28 0 h10 m3 0 h-3"/>
   <polygon points="705 33 713 29 713 37"/>
   <polygon points="705 33 697 29 697 37"/>
</svg>
