<?xml version="1.0" encoding="UTF-8"?>
<svg xmlns="http://www.w3.org/2000/svg" width="177" height="345">
   <defs>
      <style type="text/css">
    @namespace "http://www.w3.org/2000/svg";
    .line                 {fill: none; stroke: #332900; stroke-width: 1;}
    .bold-line            {stroke: #141000; shape-rendering: crispEdges; stroke-width: 2;}
    .thin-line            {stroke: #1F1800; shape-rendering: crispEdges}
    .filled               {fill: #332900; stroke: none;}
    text.terminal         {font-family: Verdana, Sans-serif;
                            font-size: 12px;
                            fill: #141000;
                            font-weight: bold;
                          }
    text.nonterminal      {font-family: Verdana, Sans-serif;
                            font-size: 12px;
                            fill: #1A1400;
                            font-weight: normal;
                          }
    text.regexp           {font-family: Verdana, Sans-serif;
                            font-size: 12px;
                            fill: #1F1800;
                            font-weight: normal;
                          }
    rect, circle, polygon {fill: #332900; stroke: #332900;}
    rect.terminal         {fill: #FFDB4D; stroke: #332900; stroke-width: 1;}
    rect.nonterminal      {fill: #FFEC9E; stroke: #332900; stroke-width: 1;}
    rect.text             {fill: none; stroke: none;}
    polygon.regexp        {fill: #FFF4C7; stroke: #332900; stroke-width: 1;}
  </style>
   </defs>
   <polygon points="9 17 1 13 1 21"/>
   <polygon points="17 17 9 13 9 21"/>
   <a xmlns:xlink="http://www.w3.org/1999/xlink"
       xlink:href="#Boolean"
       xlink:title="Boolean">
      <rect x="51" y="3" width="72" height="32"/>
      <rect x="49" y="1" width="72" height="32" class="nonterminal"/>
      <text class="nonterminal" x="59" y="21">Boolean</text>
   </a>
   <a xmlns:xlink="http://www.w3.org/1999/xlink"
       xlink:href="#Unsigned"
       xlink:title="Unsigned">
      <rect x="51" y="47" width="78" height="32"/>
      <rect x="49" y="45" width="78" height="32" class="nonterminal"/>
      <text class="nonterminal" x="59" y="65">Unsigned</text>
   </a>
   <a xmlns:xlink="http://www.w3.org/1999/xlink"
       xlink:href="#Integer"
       xlink:title="Integer">
      <rect x="51" y="91" width="66" height="32"/>
      <rect x="49" y="89" width="66" height="32" class="nonterminal"/>
      <text class="nonterminal" x="59" y="109">Integer</text>
   </a>
   <a xmlns:xlink="http://www.w3.org/1999/xlink"
       xlink:href="#Decimal"
       xlink:title="Decimal">
      <rect x="51" y="135" width="70" height="32"/>
      <rect x="49" y="133" width="70" height="32" class="nonterminal"/>
      <text class="nonterminal" x="59" y="153">Decimal</text>
   </a>
   <a xmlns:xlink="http://www.w3.org/1999/xlink"
       xlink:href="#Double"
       xlink:title="Double">
      <rect x="51" y="179" width="64" height="32"/>
      <rect x="49" y="177" width="64" height="32" class="nonterminal"/>
      <text class="nonterminal" x="59" y="197">Double</text>
   </a>
   <a xmlns:xlink="http://www.w3.org/1999/xlink"
       xlink:href="#String"
       xlink:title="String">
      <rect x="51" y="223" width="58" height="32"/>
      <rect x="49" y="221" width="58" height="32" class="nonterminal"/>
      <text class="nonterminal" x="59" y="241">String</text>
   </a>
   <a xmlns:xlink="http://www.w3.org/1999/xlink"
       xlink:href="#Iri"
       xlink:title="Iri">
      <rect x="51" y="267" width="32" height="32"/>
      <rect x="49" y="265" width="32" height="32" class="nonterminal"/>
      <text class="nonterminal" x="59" y="285">Iri</text>
   </a>
   <a xmlns:xlink="http://www.w3.org/1999/xlink"
       xlink:href="#Binary"
       xlink:title="Binary">
      <rect x="51" y="311" width="60" height="32"/>
      <rect x="49" y="309" width="60" height="32" class="nonterminal"/>
      <text class="nonterminal" x="59" y="329">Binary</text>
   </a>
   <path class="line"
          d="m17 17 h2 m20 0 h10 m72 0 h10 m0 0 h6 m-118 0 h20 m98 0 h20 m-138 0 q10 0 10 10 m118 0 q0 -10 10 -10 m-128 10 v24 m118 0 v-24 m-118 24 q0 10 10 10 m98 0 q10 0 10 -10 m-108 10 h10 m78 0 h10 m-108 -10 v20 m118 0 v-20 m-118 20 v24 m118 0 v-24 m-118 24 q0 10 10 10 m98 0 q10 0 10 -10 m-108 10 h10 m66 0 h10 m0 0 h12 m-108 -10 v20 m118 0 v-20 m-118 20 v24 m118 0 v-24 m-118 24 q0 10 10 10 m98 0 q10 0 10 -10 m-108 10 h10 m70 0 h10 m0 0 h8 m-108 -10 v20 m118 0 v-20 m-118 20 v24 m118 0 v-24 m-118 24 q0 10 10 10 m98 0 q10 0 10 -10 m-108 10 h10 m64 0 h10 m0 0 h14 m-108 -10 v20 m118 0 v-20 m-118 20 v24 m118 0 v-24 m-118 24 q0 10 10 10 m98 0 q10 0 10 -10 m-108 10 h10 m58 0 h10 m0 0 h20 m-108 -10 v20 m118 0 v-20 m-118 20 v24 m118 0 v-24 m-118 24 q0 10 10 10 m98 0 q10 0 10 -10 m-108 10 h10 m32 0 h10 m0 0 h46 m-108 -10 v20 m118 0 v-20 m-118 20 v24 m118 0 v-24 m-118 24 q0 10 10 10 m98 0 q10 0 10 -10 m-108 10 h10 m60 0 h10 m0 0 h18 m23 -308 h-3"/>
   <polygon points="167 17 175 13 175 21"/>
   <polygon points="167 17 159 13 159 21"/>
</svg>
