<?xml version="1.0" encoding="UTF-8"?>
<svg xmlns="http://www.w3.org/2000/svg" width="485" height="115">
   <defs>
      <style type="text/css">
    @namespace "http://www.w3.org/2000/svg";
    .line                 {fill: none; stroke: #332900; stroke-width: 1;}
    .bold-line            {stroke: #141000; shape-rendering: crispEdges; stroke-width: 2;}
    .thin-line            {stroke: #1F1800; shape-rendering: crispEdges}
    .filled               {fill: #332900; stroke: none;}
    text.terminal         {font-family: Verdana, Sans-serif;
                            font-size: 12px;
                            fill: #141000;
                            font-weight: bold;
                          }
    text.nonterminal      {font-family: Verdana, Sans-serif;
                            font-size: 12px;
                            fill: #1A1400;
                            font-weight: normal;
                          }
    text.regexp           {font-family: Verdana, Sans-serif;
                            font-size: 12px;
                            fill: #1F1800;
                            font-weight: normal;
                          }
    rect, circle, polygon {fill: #332900; stroke: #332900;}
    rect.terminal         {fill: #FFDB4D; stroke: #332900; stroke-width: 1;}
    rect.nonterminal      {fill: #FFEC9E; stroke: #332900; stroke-width: 1;}
    rect.text             {fill: none; stroke: none;}
    polygon.regexp        {fill: #FFF4C7; stroke: #332900; stroke-width: 1;}
  </style>
   </defs>
   <polygon points="9 95 1 91 1 99"/>
   <polygon points="17 95 9 91 9 99"/>
   <rect x="31" y="81" width="30" height="32" rx="10"/>
   <rect x="29"
          y="79"
          width="30"
          height="32"
          class="terminal"
          rx="10"/>
   <text class="terminal" x="39" y="99">is</text>
   <a xmlns:xlink="http://www.w3.org/1999/xlink"
       xlink:href="#Annotation"
       xlink:title="Annotation">
      <rect x="101" y="47" width="90" height="32"/>
      <rect x="99" y="45" width="90" height="32" class="nonterminal"/>
      <text class="nonterminal" x="109" y="65">Annotation</text>
   </a>
   <a xmlns:xlink="http://www.w3.org/1999/xlink"
       xlink:href="#MemberByValue"
       xlink:title="MemberByValue">
      <rect x="251" y="47" width="122" height="32"/>
      <rect x="249" y="45" width="122" height="32" class="nonterminal"/>
      <text class="nonterminal" x="259" y="65">MemberByValue</text>
   </a>
   <a xmlns:xlink="http://www.w3.org/1999/xlink"
       xlink:href="#StructureGroup"
       xlink:title="StructureGroup">
      <rect x="251" y="3" width="116" height="32"/>
      <rect x="249" y="1" width="116" height="32" class="nonterminal"/>
      <text class="nonterminal" x="259" y="21">StructureGroup</text>
   </a>
   <rect x="413" y="81" width="44" height="32" rx="10"/>
   <rect x="411"
          y="79"
          width="44"
          height="32"
          class="terminal"
          rx="10"/>
   <text class="terminal" x="421" y="99">end</text>
   <path class="line"
          d="m17 95 h2 m0 0 h10 m30 0 h10 m20 0 h10 m0 0 h100 m-130 0 l20 0 m-1 0 q-9 0 -9 -10 l0 -14 q0 -10 10 -10 m110 34 l20 0 m-20 0 q10 0 10 -10 l0 -14 q0 -10 -10 -10 m-110 0 h10 m90 0 h10 m40 34 h10 m0 0 h132 m-162 0 l20 0 m-1 0 q-9 0 -9 -10 l0 -14 q0 -10 10 -10 m142 34 l20 0 m-20 0 q10 0 10 -10 l0 -14 q0 -10 -10 -10 m-142 0 h10 m122 0 h10 m-152 10 l0 -44 q0 -10 10 -10 m152 54 l0 -44 q0 -10 -10 -10 m-142 0 h10 m116 0 h10 m0 0 h6 m20 78 h10 m44 0 h10 m3 0 h-3"/>
   <polygon points="475 95 483 91 483 99"/>
   <polygon points="475 95 467 91 467 99"/>
</svg>
