<?xml version="1.0" encoding="UTF-8"?>
<svg xmlns="http://www.w3.org/2000/svg" width="617" height="69">
   <defs>
      <style type="text/css">
    @namespace "http://www.w3.org/2000/svg";
    .line                 {fill: none; stroke: #332900; stroke-width: 1;}
    .bold-line            {stroke: #141000; shape-rendering: crispEdges; stroke-width: 2;}
    .thin-line            {stroke: #1F1800; shape-rendering: crispEdges}
    .filled               {fill: #332900; stroke: none;}
    text.terminal         {font-family: Verdana, Sans-serif;
                            font-size: 12px;
                            fill: #141000;
                            font-weight: bold;
                          }
    text.nonterminal      {font-family: Verdana, Sans-serif;
                            font-size: 12px;
                            fill: #1A1400;
                            font-weight: normal;
                          }
    text.regexp           {font-family: Verdana, Sans-serif;
                            font-size: 12px;
                            fill: #1F1800;
                            font-weight: normal;
                          }
    rect, circle, polygon {fill: #332900; stroke: #332900;}
    rect.terminal         {fill: #FFDB4D; stroke: #332900; stroke-width: 1;}
    rect.nonterminal      {fill: #FFEC9E; stroke: #332900; stroke-width: 1;}
    rect.text             {fill: none; stroke: none;}
    polygon.regexp        {fill: #FFF4C7; stroke: #332900; stroke-width: 1;}
  </style>
   </defs>
   <polygon points="9 17 1 13 1 21"/>
   <polygon points="17 17 9 13 9 21"/>
   <a xmlns:xlink="http://www.w3.org/1999/xlink"
       xlink:href="#IdentifierReference"
       xlink:title="IdentifierReference">
      <rect x="31" y="3" width="142" height="32"/>
      <rect x="29" y="1" width="142" height="32" class="nonterminal"/>
      <text class="nonterminal" x="39" y="21">IdentifierReference</text>
   </a>
   <a xmlns:xlink="http://www.w3.org/1999/xlink"
       xlink:href="#TypeVariantRename"
       xlink:title="TypeVariantRename">
      <rect x="213" y="35" width="148" height="32"/>
      <rect x="211" y="33" width="148" height="32" class="nonterminal"/>
      <text class="nonterminal" x="221" y="53">TypeVariantRename</text>
   </a>
   <a xmlns:xlink="http://www.w3.org/1999/xlink"
       xlink:href="#AnnotationOnlyBody"
       xlink:title="AnnotationOnlyBody">
      <rect x="421" y="35" width="148" height="32"/>
      <rect x="419" y="33" width="148" height="32" class="nonterminal"/>
      <text class="nonterminal" x="429" y="53">AnnotationOnlyBody</text>
   </a>
   <path class="line"
          d="m17 17 h2 m0 0 h10 m142 0 h10 m20 0 h10 m0 0 h158 m-188 0 h20 m168 0 h20 m-208 0 q10 0 10 10 m188 0 q0 -10 10 -10 m-198 10 v12 m188 0 v-12 m-188 12 q0 10 10 10 m168 0 q10 0 10 -10 m-178 10 h10 m148 0 h10 m40 -32 h10 m0 0 h158 m-188 0 h20 m168 0 h20 m-208 0 q10 0 10 10 m188 0 q0 -10 10 -10 m-198 10 v12 m188 0 v-12 m-188 12 q0 10 10 10 m168 0 q10 0 10 -10 m-178 10 h10 m148 0 h10 m23 -32 h-3"/>
   <polygon points="607 17 615 13 615 21"/>
   <polygon points="607 17 599 13 599 21"/>
</svg>
