<?xml version="1.0" encoding="UTF-8"?>
<svg xmlns="http://www.w3.org/2000/svg" width="489" height="101">
   <defs>
      <style type="text/css">
    @namespace "http://www.w3.org/2000/svg";
    .line                 {fill: none; stroke: #332900; stroke-width: 1;}
    .bold-line            {stroke: #141000; shape-rendering: crispEdges; stroke-width: 2;}
    .thin-line            {stroke: #1F1800; shape-rendering: crispEdges}
    .filled               {fill: #332900; stroke: none;}
    text.terminal         {font-family: Verdana, Sans-serif;
                            font-size: 12px;
                            fill: #141000;
                            font-weight: bold;
                          }
    text.nonterminal      {font-family: Verdana, Sans-serif;
                            font-size: 12px;
                            fill: #1A1400;
                            font-weight: normal;
                          }
    text.regexp           {font-family: Verdana, Sans-serif;
                            font-size: 12px;
                            fill: #1F1800;
                            font-weight: normal;
                          }
    rect, circle, polygon {fill: #332900; stroke: #332900;}
    rect.terminal         {fill: #FFDB4D; stroke: #332900; stroke-width: 1;}
    rect.nonterminal      {fill: #FFEC9E; stroke: #332900; stroke-width: 1;}
    rect.text             {fill: none; stroke: none;}
    polygon.regexp        {fill: #FFF4C7; stroke: #332900; stroke-width: 1;}
  </style>
   </defs>
   <polygon points="9 17 1 13 1 21"/>
   <polygon points="17 17 9 13 9 21"/>
   <rect x="31" y="3" width="38" height="32" rx="10"/>
   <rect x="29"
          y="1"
          width="38"
          height="32"
          class="terminal"
          rx="10"/>
   <text class="terminal" x="39" y="21">u{</text>
   <a xmlns:xlink="http://www.w3.org/1999/xlink"
       xlink:href="#HexPair"
       xlink:title="HexPair">
      <rect x="89" y="3" width="68" height="32"/>
      <rect x="87" y="1" width="68" height="32" class="nonterminal"/>
      <text class="nonterminal" x="97" y="21">HexPair</text>
   </a>
   <a xmlns:xlink="http://www.w3.org/1999/xlink"
       xlink:href="#HexPair"
       xlink:title="HexPair">
      <rect x="197" y="35" width="68" height="32"/>
      <rect x="195" y="33" width="68" height="32" class="nonterminal"/>
      <text class="nonterminal" x="205" y="53">HexPair</text>
   </a>
   <a xmlns:xlink="http://www.w3.org/1999/xlink"
       xlink:href="#HexPair"
       xlink:title="HexPair">
      <rect x="305" y="67" width="68" height="32"/>
      <rect x="303" y="65" width="68" height="32" class="nonterminal"/>
      <text class="nonterminal" x="313" y="85">HexPair</text>
   </a>
   <rect x="433" y="3" width="28" height="32" rx="10"/>
   <rect x="431"
          y="1"
          width="28"
          height="32"
          class="terminal"
          rx="10"/>
   <text class="terminal" x="441" y="21">}</text>
   <path class="line"
          d="m17 17 h2 m0 0 h10 m38 0 h10 m0 0 h10 m68 0 h10 m20 0 h10 m0 0 h206 m-236 0 h20 m216 0 h20 m-256 0 q10 0 10 10 m236 0 q0 -10 10 -10 m-246 10 v12 m236 0 v-12 m-236 12 q0 10 10 10 m216 0 q10 0 10 -10 m-226 10 h10 m68 0 h10 m20 0 h10 m0 0 h78 m-108 0 h20 m88 0 h20 m-128 0 q10 0 10 10 m108 0 q0 -10 10 -10 m-118 10 v12 m108 0 v-12 m-108 12 q0 10 10 10 m88 0 q10 0 10 -10 m-98 10 h10 m68 0 h10 m40 -64 h10 m28 0 h10 m3 0 h-3"/>
   <polygon points="479 17 487 13 487 21"/>
   <polygon points="479 17 471 13 471 21"/>
</svg>
