<?xml version="1.0" encoding="UTF-8"?>
<svg xmlns="http://www.w3.org/2000/svg" width="479" height="97">
   <defs>
      <style type="text/css">
    @namespace "http://www.w3.org/2000/svg";
    .line                 {fill: none; stroke: #332900; stroke-width: 1;}
    .bold-line            {stroke: #141000; shape-rendering: crispEdges; stroke-width: 2;}
    .thin-line            {stroke: #1F1800; shape-rendering: crispEdges}
    .filled               {fill: #332900; stroke: none;}
    text.terminal         {font-family: Verdana, Sans-serif;
                            font-size: 12px;
                            fill: #141000;
                            font-weight: bold;
                          }
    text.nonterminal      {font-family: Verdana, Sans-serif;
                            font-size: 12px;
                            fill: #1A1400;
                            font-weight: normal;
                          }
    text.regexp           {font-family: Verdana, Sans-serif;
                            font-size: 12px;
                            fill: #1F1800;
                            font-weight: normal;
                          }
    rect, circle, polygon {fill: #332900; stroke: #332900;}
    rect.terminal         {fill: #FFDB4D; stroke: #332900; stroke-width: 1;}
    rect.nonterminal      {fill: #FFEC9E; stroke: #332900; stroke-width: 1;}
    rect.text             {fill: none; stroke: none;}
    polygon.regexp        {fill: #FFF4C7; stroke: #332900; stroke-width: 1;}
  </style>
   </defs>
   <polygon points="9 33 1 29 1 37"/>
   <polygon points="17 33 9 29 9 37"/>
   <rect x="51" y="19" width="56" height="32" rx="10"/>
   <rect x="49"
          y="17"
          width="56"
          height="32"
          class="terminal"
          rx="10"/>
   <text class="terminal" x="59" y="37">forall</text>
   <rect x="51" y="63" width="28" height="32" rx="10"/>
   <rect x="49"
          y="61"
          width="28"
          height="32"
          class="terminal"
          rx="10"/>
   <text class="terminal" x="59" y="81">∀</text>
   <a xmlns:xlink="http://www.w3.org/1999/xlink"
       xlink:href="#QuantifierBinding"
       xlink:title="QuantifierBinding">
      <rect x="167" y="19" width="128" height="32"/>
      <rect x="165" y="17" width="128" height="32" class="nonterminal"/>
      <text class="nonterminal" x="175" y="37">QuantifierBinding</text>
   </a>
   <a xmlns:xlink="http://www.w3.org/1999/xlink"
       xlink:href="#QuantifiedBody"
       xlink:title="QuantifiedBody">
      <rect x="335" y="19" width="116" height="32"/>
      <rect x="333" y="17" width="116" height="32" class="nonterminal"/>
      <text class="nonterminal" x="343" y="37">QuantifiedBody</text>
   </a>
   <path class="line"
          d="m17 33 h2 m20 0 h10 m56 0 h10 m-96 0 h20 m76 0 h20 m-116 0 q10 0 10 10 m96 0 q0 -10 10 -10 m-106 10 v24 m96 0 v-24 m-96 24 q0 10 10 10 m76 0 q10 0 10 -10 m-86 10 h10 m28 0 h10 m0 0 h28 m40 -44 h10 m128 0 h10 m-168 0 l20 0 m-1 0 q-9 0 -9 -10 l0 -12 q0 -10 10 -10 m148 32 l20 0 m-20 0 q10 0 10 -10 l0 -12 q0 -10 -10 -10 m-148 0 h10 m0 0 h138 m20 32 h10 m116 0 h10 m3 0 h-3"/>
   <polygon points="469 33 477 29 477 37"/>
   <polygon points="469 33 461 29 461 37"/>
</svg>
