<?xml version="1.0" encoding="UTF-8"?>
<svg xmlns="http://www.w3.org/2000/svg" width="331" height="115">
   <defs>
      <style type="text/css">
    @namespace "http://www.w3.org/2000/svg";
    .line                 {fill: none; stroke: #332900; stroke-width: 1;}
    .bold-line            {stroke: #141000; shape-rendering: crispEdges; stroke-width: 2;}
    .thin-line            {stroke: #1F1800; shape-rendering: crispEdges}
    .filled               {fill: #332900; stroke: none;}
    text.terminal         {font-family: Verdana, Sans-serif;
                            font-size: 12px;
                            fill: #141000;
                            font-weight: bold;
                          }
    text.nonterminal      {font-family: Verdana, Sans-serif;
                            font-size: 12px;
                            fill: #1A1400;
                            font-weight: normal;
                          }
    text.regexp           {font-family: Verdana, Sans-serif;
                            font-size: 12px;
                            fill: #1F1800;
                            font-weight: normal;
                          }
    rect, circle, polygon {fill: #332900; stroke: #332900;}
    rect.terminal         {fill: #FFDB4D; stroke: #332900; stroke-width: 1;}
    rect.nonterminal      {fill: #FFEC9E; stroke: #332900; stroke-width: 1;}
    rect.text             {fill: none; stroke: none;}
    polygon.regexp        {fill: #FFF4C7; stroke: #332900; stroke-width: 1;}
  </style>
   </defs>
   <polygon points="9 51 1 47 1 55"/>
   <polygon points="17 51 9 47 9 55"/>
   <a xmlns:xlink="http://www.w3.org/1999/xlink"
       xlink:href="#NonZero"
       xlink:title="NonZero">
      <rect x="51" y="37" width="74" height="32"/>
      <rect x="49" y="35" width="74" height="32" class="nonterminal"/>
      <text class="nonterminal" x="59" y="55">NonZero</text>
   </a>
   <a xmlns:xlink="http://www.w3.org/1999/xlink"
       xlink:href="#ASCII_DIGIT"
       xlink:title="ASCII_DIGIT">
      <rect x="165" y="3" width="98" height="32"/>
      <rect x="163" y="1" width="98" height="32" class="nonterminal"/>
      <text class="nonterminal" x="173" y="21">ASCII_DIGIT</text>
   </a>
   <rect x="51" y="81" width="28" height="32" rx="10"/>
   <rect x="49"
          y="79"
          width="28"
          height="32"
          class="terminal"
          rx="10"/>
   <text class="terminal" x="59" y="99">0</text>
   <path class="line"
          d="m17 51 h2 m20 0 h10 m74 0 h10 m20 0 h10 m0 0 h108 m-138 0 l20 0 m-1 0 q-9 0 -9 -10 l0 -14 q0 -10 10 -10 m118 34 l20 0 m-20 0 q10 0 10 -10 l0 -14 q0 -10 -10 -10 m-118 0 h10 m98 0 h10 m-252 34 h20 m252 0 h20 m-292 0 q10 0 10 10 m272 0 q0 -10 10 -10 m-282 10 v24 m272 0 v-24 m-272 24 q0 10 10 10 m252 0 q10 0 10 -10 m-262 10 h10 m28 0 h10 m0 0 h204 m23 -44 h-3"/>
   <polygon points="321 51 329 47 329 55"/>
   <polygon points="321 51 313 47 313 55"/>
</svg>
