<?xml version="1.0" encoding="UTF-8"?>
<svg xmlns="http://www.w3.org/2000/svg" width="241" height="213">
   <defs>
      <style type="text/css">
    @namespace "http://www.w3.org/2000/svg";
    .line                 {fill: none; stroke: #332900; stroke-width: 1;}
    .bold-line            {stroke: #141000; shape-rendering: crispEdges; stroke-width: 2;}
    .thin-line            {stroke: #1F1800; shape-rendering: crispEdges}
    .filled               {fill: #332900; stroke: none;}
    text.terminal         {font-family: Verdana, Sans-serif;
                            font-size: 12px;
                            fill: #141000;
                            font-weight: bold;
                          }
    text.nonterminal      {font-family: Verdana, Sans-serif;
                            font-size: 12px;
                            fill: #1A1400;
                            font-weight: normal;
                          }
    text.regexp           {font-family: Verdana, Sans-serif;
                            font-size: 12px;
                            fill: #1F1800;
                            font-weight: normal;
                          }
    rect, circle, polygon {fill: #332900; stroke: #332900;}
    rect.terminal         {fill: #FFDB4D; stroke: #332900; stroke-width: 1;}
    rect.nonterminal      {fill: #FFEC9E; stroke: #332900; stroke-width: 1;}
    rect.text             {fill: none; stroke: none;}
    polygon.regexp        {fill: #FFF4C7; stroke: #332900; stroke-width: 1;}
  </style>
   </defs>
   <polygon points="9 17 1 13 1 21"/>
   <polygon points="17 17 9 13 9 21"/>
   <a xmlns:xlink="http://www.w3.org/1999/xlink"
       xlink:href="#SimpleValue"
       xlink:title="SimpleValue">
      <rect x="51" y="3" width="98" height="32"/>
      <rect x="49" y="1" width="98" height="32" class="nonterminal"/>
      <text class="nonterminal" x="59" y="21">SimpleValue</text>
   </a>
   <a xmlns:xlink="http://www.w3.org/1999/xlink"
       xlink:href="#ValueConstructor"
       xlink:title="ValueConstructor">
      <rect x="51" y="47" width="130" height="32"/>
      <rect x="49" y="45" width="130" height="32" class="nonterminal"/>
      <text class="nonterminal" x="59" y="65">ValueConstructor</text>
   </a>
   <a xmlns:xlink="http://www.w3.org/1999/xlink"
       xlink:href="#IdentifierReference"
       xlink:title="IdentifierReference">
      <rect x="51" y="91" width="142" height="32"/>
      <rect x="49" y="89" width="142" height="32" class="nonterminal"/>
      <text class="nonterminal" x="59" y="109">IdentifierReference</text>
   </a>
   <a xmlns:xlink="http://www.w3.org/1999/xlink"
       xlink:href="#MappingValue"
       xlink:title="MappingValue">
      <rect x="51" y="135" width="108" height="32"/>
      <rect x="49" y="133" width="108" height="32" class="nonterminal"/>
      <text class="nonterminal" x="59" y="153">MappingValue</text>
   </a>
   <a xmlns:xlink="http://www.w3.org/1999/xlink"
       xlink:href="#SequenceOfValues"
       xlink:title="SequenceOfValues">
      <rect x="51" y="179" width="138" height="32"/>
      <rect x="49" y="177" width="138" height="32" class="nonterminal"/>
      <text class="nonterminal" x="59" y="197">SequenceOfValues</text>
   </a>
   <path class="line"
          d="m17 17 h2 m20 0 h10 m98 0 h10 m0 0 h44 m-182 0 h20 m162 0 h20 m-202 0 q10 0 10 10 m182 0 q0 -10 10 -10 m-192 10 v24 m182 0 v-24 m-182 24 q0 10 10 10 m162 0 q10 0 10 -10 m-172 10 h10 m130 0 h10 m0 0 h12 m-172 -10 v20 m182 0 v-20 m-182 20 v24 m182 0 v-24 m-182 24 q0 10 10 10 m162 0 q10 0 10 -10 m-172 10 h10 m142 0 h10 m-172 -10 v20 m182 0 v-20 m-182 20 v24 m182 0 v-24 m-182 24 q0 10 10 10 m162 0 q10 0 10 -10 m-172 10 h10 m108 0 h10 m0 0 h34 m-172 -10 v20 m182 0 v-20 m-182 20 v24 m182 0 v-24 m-182 24 q0 10 10 10 m162 0 q10 0 10 -10 m-172 10 h10 m138 0 h10 m0 0 h4 m23 -176 h-3"/>
   <polygon points="231 17 239 13 239 21"/>
   <polygon points="231 17 223 13 223 21"/>
</svg>
