<?xml version="1.0" encoding="UTF-8" standalone="no"?>
<!DOCTYPE svg PUBLIC "-//W3C//DTD SVG 1.1//EN"
 "http://www.w3.org/Graphics/SVG/1.1/DTD/svg11.dtd">
<!-- Generated by graphviz version 8.0.5 (20230430.1635)
 -->
<!-- Title: G Pages: 1 -->
<svg width="300pt" height="335pt"
 viewBox="0.00 0.00 300.00 334.50" xmlns="http://www.w3.org/2000/svg" xmlns:xlink="http://www.w3.org/1999/xlink">
<g id="graph0" class="graph" transform="scale(1 1) rotate(0) translate(4 330.5)">
<title>G</title>
<g id="clust1" class="cluster">
<title>cluster_0</title>
<polygon fill="none" stroke="grey" stroke-dasharray="5,2" points="10,-167.25 10,-318.5 142,-318.5 142,-167.25 10,-167.25"/>
<text text-anchor="middle" x="76" y="-305" font-family="Helvetica,Arial,sans-serif" font-size="10.00" fill="grey">Abstract Models</text>
</g>
<g id="clust2" class="cluster">
<title>cluster_1</title>
<polygon fill="none" stroke="grey" stroke-dasharray="5,2" points="8,-8 8,-159.25 144,-159.25 144,-8 8,-8"/>
<text text-anchor="middle" x="76" y="-145.75" font-family="Helvetica,Arial,sans-serif" font-size="10.00" fill="grey">Concrete Models</text>
</g>
<g id="clust3" class="cluster">
<title>cluster_2</title>
<polygon fill="none" stroke="grey" stroke-dasharray="5,2" points="152,-80 152,-159.25 284,-159.25 284,-80 152,-80"/>
<text text-anchor="middle" x="218" y="-145.75" font-family="Helvetica,Arial,sans-serif" font-size="10.00" fill="grey">Artifacts</text>
</g>
<!-- concept -->
<g id="node1" class="node">
<title>concept</title>
<polygon fill="none" stroke="black" points="130,-287.25 22,-287.25 22,-251.25 130,-251.25 130,-287.25"/>
<text text-anchor="middle" x="76" y="-271" font-family="Helvetica,Arial,sans-serif" font-size="10.00">Conceptual Models</text>
<text text-anchor="middle" x="76" y="-259.75" font-family="Helvetica,Arial,sans-serif" font-size="10.00">(e.g. concept maps)</text>
</g>
<!-- logical -->
<g id="node2" class="node">
<title>logical</title>
<polygon fill="none" stroke="black" points="130,-215.25 22,-215.25 22,-179.25 130,-179.25 130,-215.25"/>
<text text-anchor="middle" x="76" y="-199" font-family="Helvetica,Arial,sans-serif" font-size="10.00">Logical Models</text>
<text text-anchor="middle" x="76" y="-187.75" font-family="Helvetica,Arial,sans-serif" font-size="10.00">(e.g. UML)</text>
</g>
<!-- concept&#45;&gt;logical -->
<g id="edge1" class="edge">
<title>concept&#45;&gt;logical</title>
<path fill="none" stroke="black" d="M70.08,-250.95C69.28,-243.15 69.06,-233.76 69.42,-225.08"/>
<polygon fill="black" stroke="black" points="70.1,-215.35 73.89,-225.65 69.75,-220.34 69.4,-225.33 69.4,-225.33 69.4,-225.33 69.75,-220.34 64.91,-225.01 70.1,-215.35 70.1,-215.35"/>
<text text-anchor="middle" x="45.63" y="-234.14" font-family="Helvetica,Arial,sans-serif" font-size="9.00" fill="darkgrey"> &#160;transform &#160;</text>
</g>
<!-- logical&#45;&gt;concept -->
<g id="edge2" class="edge">
<title>logical&#45;&gt;concept</title>
<path fill="none" stroke="black" d="M81.9,-215.35C82.71,-223.13 82.94,-232.51 82.59,-241.2"/>
<polygon fill="black" stroke="black" points="81.92,-250.95 78.12,-240.66 82.26,-245.96 82.61,-240.97 82.61,-240.97 82.61,-240.97 82.26,-245.96 87.1,-241.28 81.92,-250.95 81.92,-250.95"/>
<text text-anchor="middle" x="103.37" y="-234.54" font-family="Helvetica,Arial,sans-serif" font-size="9.00" fill="darkgrey"> &#160;abstract &#160;</text>
</g>
<!-- physical -->
<g id="node3" class="node">
<title>physical</title>
<polygon fill="none" stroke="black" points="130,-128 22,-128 22,-92 130,-92 130,-128"/>
<text text-anchor="middle" x="76" y="-111.75" font-family="Helvetica,Arial,sans-serif" font-size="10.00">Physical Models</text>
<text text-anchor="middle" x="76" y="-100.5" font-family="Helvetica,Arial,sans-serif" font-size="10.00">(e.g. profiled UML)</text>
</g>
<!-- logical&#45;&gt;physical -->
<g id="edge3" class="edge">
<title>logical&#45;&gt;physical</title>
<path fill="none" stroke="black" d="M81.55,-179C82.83,-167.21 83.08,-151.36 82.33,-137.92"/>
<polygon fill="black" stroke="black" points="81.55,-128.23 86.83,-137.83 81.95,-133.21 82.35,-138.19 82.35,-138.19 82.35,-138.19 81.95,-133.21 77.86,-138.55 81.55,-128.23 81.55,-128.23"/>
</g>
<!-- physical&#45;&gt;logical -->
<g id="edge4" class="edge">
<title>physical&#45;&gt;logical</title>
<path fill="none" stroke="black" d="M70.45,-128.23C69.18,-140.01 68.92,-155.86 69.67,-169.3"/>
<polygon fill="black" stroke="black" points="70.45,-179 65.17,-169.39 70.05,-174.01 69.65,-169.03 69.65,-169.03 69.65,-169.03 70.05,-174.01 74.14,-168.67 70.45,-179 70.45,-179"/>
</g>
<!-- develop -->
<g id="node4" class="node">
<title>develop</title>
<polygon fill="none" stroke="black" points="132.38,-56 19.62,-56 19.62,-20 132.38,-20 132.38,-56"/>
<text text-anchor="middle" x="76" y="-39.75" font-family="Helvetica,Arial,sans-serif" font-size="10.00">Development Artifacts</text>
<text text-anchor="middle" x="76" y="-28.5" font-family="Helvetica,Arial,sans-serif" font-size="10.00">(e.g. source, config)</text>
</g>
<!-- physical&#45;&gt;develop -->
<g id="edge5" class="edge">
<title>physical&#45;&gt;develop</title>
<path fill="none" stroke="black" d="M70.08,-91.7C69.28,-83.9 69.06,-74.51 69.42,-65.83"/>
<polygon fill="black" stroke="black" points="70.1,-56.1 73.89,-66.4 69.75,-61.09 69.4,-66.08 69.4,-66.08 69.4,-66.08 69.75,-61.09 64.91,-65.76 70.1,-56.1 70.1,-56.1"/>
<text text-anchor="middle" x="45.63" y="-74.89" font-family="Helvetica,Arial,sans-serif" font-size="9.00" fill="darkgrey"> &#160;transform &#160;</text>
</g>
<!-- develop&#45;&gt;physical -->
<g id="edge6" class="edge">
<title>develop&#45;&gt;physical</title>
<path fill="none" stroke="black" d="M81.9,-56.1C82.71,-63.88 82.94,-73.26 82.59,-81.95"/>
<polygon fill="black" stroke="black" points="81.92,-91.7 78.12,-81.41 82.26,-86.71 82.61,-81.72 82.61,-81.72 82.61,-81.72 82.26,-86.71 87.1,-82.03 81.92,-91.7 81.92,-91.7"/>
<text text-anchor="middle" x="103.37" y="-75.29" font-family="Helvetica,Arial,sans-serif" font-size="9.00" fill="darkgrey"> &#160;abstract &#160;</text>
</g>
<!-- deploy -->
<g id="node5" class="node">
<title>deploy</title>
<polygon fill="none" stroke="black" points="272,-128 164,-128 164,-124 160,-124 160,-120 164,-120 164,-100 160,-100 160,-96 164,-96 164,-92 272,-92 272,-128"/>
<polyline fill="none" stroke="black" points="164,-124 168,-124 168,-120 164,-120"/>
<polyline fill="none" stroke="black" points="164,-100 168,-100 168,-96 164,-96"/>
<text text-anchor="middle" x="218" y="-111.75" font-family="Helvetica,Arial,sans-serif" font-size="10.00">Deployment Artifacts</text>
<text text-anchor="middle" x="218" y="-100.5" font-family="Helvetica,Arial,sans-serif" font-size="10.00">(e.g. executables)</text>
</g>
<!-- develop&#45;&gt;deploy -->
<g id="edge7" class="edge">
<title>develop&#45;&gt;deploy</title>
<path fill="none" stroke="black" d="M117.18,-56.38C136.89,-65.63 160.29,-77.1 179.62,-86.96"/>
<polygon fill="black" stroke="black" points="188.47,-91.52 177.52,-90.94 184.02,-89.23 179.58,-86.94 179.58,-86.94 179.58,-86.94 184.02,-89.23 181.63,-82.94 188.47,-91.52 188.47,-91.52"/>
</g>
<!-- deploy&#45;&gt;develop -->
<g id="edge8" class="edge">
<title>deploy&#45;&gt;develop</title>
<path fill="none" stroke="black" d="M176.6,-91.52C156.79,-82.22 133.29,-70.7 113.95,-60.82"/>
<polygon fill="black" stroke="black" points="105.1,-56.26 116.05,-56.84 109.55,-58.55 113.99,-60.84 113.99,-60.84 113.99,-60.84 109.55,-58.55 111.93,-64.84 105.1,-56.26 105.1,-56.26"/>
</g>
</g>
</svg>
