<?xml version="1.0" encoding="UTF-8" standalone="no"?>
<!DOCTYPE svg PUBLIC "-//W3C//DTD SVG 1.1//EN"
 "http://www.w3.org/Graphics/SVG/1.1/DTD/svg11.dtd">
<!-- Generated by graphviz version 8.0.5 (20230430.1635)
 -->
<!-- Title: G Pages: 1 -->
<svg width="464pt" height="318pt"
 viewBox="0.00 0.00 463.88 318.05" xmlns="http://www.w3.org/2000/svg" xmlns:xlink="http://www.w3.org/1999/xlink">
<g id="graph0" class="graph" transform="scale(1 1) rotate(0) translate(4 314.05)">
<title>G</title>
<!-- domain -->
<g id="node1" class="node">
<title>domain</title>
<ellipse fill="none" stroke="black" cx="218.62" cy="-288.45" rx="36" ry="21.6"/>
<text text-anchor="middle" x="218.62" y="-290.2" font-family="Helvetica,Arial,sans-serif" font-size="10.00">Domain</text>
<text text-anchor="middle" x="218.62" y="-278.95" font-family="Helvetica,Arial,sans-serif" font-size="10.00">Model</text>
</g>
<!-- docs -->
<g id="node2" class="node">
<title>docs</title>
<polygon fill="none" stroke="black" points="115.62,-221.1 39.62,-221.1 39.62,-177.9 121.62,-177.9 121.62,-215.1 115.62,-221.1"/>
<polyline fill="none" stroke="black" points="115.62,-221.1 115.62,-215.1"/>
<polyline fill="none" stroke="black" points="121.62,-215.1 115.62,-215.1"/>
<text text-anchor="middle" x="80.62" y="-195.62" font-family="Helvetica,Arial,sans-serif" font-size="10.00">Documentation</text>
</g>
<!-- domain&#45;&gt;docs -->
<g id="edge1" class="edge">
<title>domain&#45;&gt;docs</title>
<path fill="none" stroke="black" d="M194.04,-272.31C182.57,-265.22 168.75,-256.64 156.38,-248.85 145.34,-241.9 133.43,-234.34 122.4,-227.3"/>
<polygon fill="black" stroke="black" points="124.69,-223.97 114.38,-221.54 120.92,-229.87 124.69,-223.97"/>
<text text-anchor="middle" x="175.75" y="-240.3" font-family="Helvetica,Arial,sans-serif" font-size="9.00" fill="darkgrey">transform</text>
</g>
<!-- service -->
<g id="node3" class="node">
<title>service</title>
<ellipse fill="none" stroke="black" stroke-dasharray="1,5" cx="179.62" cy="-199.5" rx="40.42" ry="21.6"/>
<text text-anchor="middle" x="179.62" y="-201.25" font-family="Helvetica,Arial,sans-serif" font-size="10.00">Service</text>
<text text-anchor="middle" x="179.62" y="-190" font-family="Helvetica,Arial,sans-serif" font-size="10.00">Definition</text>
</g>
<!-- domain&#45;&gt;service -->
<g id="edge2" class="edge">
<title>domain&#45;&gt;service</title>
<path fill="none" stroke="black" d="M209.58,-267.28C204.69,-256.39 198.56,-242.72 193.12,-230.59"/>
<polygon fill="black" stroke="black" points="196.04,-229.55 188.76,-221.86 189.66,-232.42 196.04,-229.55"/>
<text text-anchor="middle" x="219.75" y="-240.3" font-family="Helvetica,Arial,sans-serif" font-size="9.00" fill="darkgrey">transform</text>
</g>
<!-- data -->
<g id="node8" class="node">
<title>data</title>
<ellipse fill="none" stroke="black" stroke-dasharray="1,5" cx="278.62" cy="-199.5" rx="40.42" ry="21.6"/>
<text text-anchor="middle" x="278.62" y="-201.25" font-family="Helvetica,Arial,sans-serif" font-size="10.00">Data</text>
<text text-anchor="middle" x="278.62" y="-190" font-family="Helvetica,Arial,sans-serif" font-size="10.00">Definition</text>
</g>
<!-- domain&#45;&gt;data -->
<g id="edge7" class="edge">
<title>domain&#45;&gt;data</title>
<path fill="none" stroke="black" d="M231.94,-268.15C239.89,-256.64 250.12,-241.81 258.98,-228.97"/>
<polygon fill="black" stroke="black" points="262.34,-231.26 265.14,-221.04 256.58,-227.29 262.34,-231.26"/>
<text text-anchor="middle" x="269.75" y="-240.3" font-family="Helvetica,Arial,sans-serif" font-size="9.00" fill="darkgrey">transform</text>
</g>
<!-- message -->
<g id="node11" class="node">
<title>message</title>
<ellipse fill="none" stroke="black" stroke-dasharray="1,5" cx="405.62" cy="-199.5" rx="40.42" ry="21.6"/>
<text text-anchor="middle" x="405.62" y="-201.25" font-family="Helvetica,Arial,sans-serif" font-size="10.00">Message</text>
<text text-anchor="middle" x="405.62" y="-190" font-family="Helvetica,Arial,sans-serif" font-size="10.00">Definition</text>
</g>
<!-- domain&#45;&gt;message -->
<g id="edge10" class="edge">
<title>domain&#45;&gt;message</title>
<path fill="none" stroke="black" d="M246.62,-274.43C278.29,-259.71 330.09,-235.62 365.92,-218.96"/>
<polygon fill="black" stroke="black" points="366.98,-221.86 374.58,-214.47 364.03,-215.51 366.98,-221.86"/>
<text text-anchor="middle" x="337.75" y="-240.3" font-family="Helvetica,Arial,sans-serif" font-size="9.00" fill="darkgrey">transform</text>
</g>
<!-- smithy -->
<g id="node4" class="node">
<title>smithy</title>
<polygon fill="none" stroke="black" points="173.62,-132.15 101.62,-132.15 101.62,-128.15 97.62,-128.15 97.62,-124.15 101.62,-124.15 101.62,-96.95 97.62,-96.95 97.62,-92.95 101.62,-92.95 101.62,-88.95 173.62,-88.95 173.62,-132.15"/>
<polyline fill="none" stroke="black" points="101.62,-128.15 105.62,-128.15 105.62,-124.15 101.62,-124.15"/>
<polyline fill="none" stroke="black" points="101.62,-96.95 105.62,-96.95 105.62,-92.95 101.62,-92.95"/>
<text text-anchor="middle" x="137.62" y="-112.3" font-family="Helvetica,Arial,sans-serif" font-size="10.00">Smithy</text>
<text text-anchor="middle" x="137.62" y="-101.05" font-family="Helvetica,Arial,sans-serif" font-size="10.00">(IDL)</text>
</g>
<!-- service&#45;&gt;smithy -->
<g id="edge3" class="edge">
<title>service&#45;&gt;smithy</title>
<path fill="none" stroke="black" d="M169.88,-178.33C164.7,-167.59 158.21,-154.16 152.41,-142.16"/>
<polygon fill="black" stroke="black" points="155.25,-141 147.75,-133.52 148.95,-144.04 155.25,-141"/>
<text text-anchor="middle" x="179.75" y="-151.35" font-family="Helvetica,Arial,sans-serif" font-size="9.00" fill="darkgrey">transform</text>
</g>
<!-- oas -->
<g id="node5" class="node">
<title>oas</title>
<polygon fill="none" stroke="black" points="81.25,-43.2 0,-43.2 0,-39.2 -4,-39.2 -4,-35.2 0,-35.2 0,-8 -4,-8 -4,-4 0,-4 0,0 81.25,0 81.25,-43.2"/>
<polyline fill="none" stroke="black" points="0,-39.2 4,-39.2 4,-35.2 0,-35.2"/>
<polyline fill="none" stroke="black" points="0,-8 4,-8 4,-4 0,-4"/>
<text text-anchor="middle" x="40.62" y="-17.72" font-family="Helvetica,Arial,sans-serif" font-size="10.00">OpenAPI Spec</text>
</g>
<!-- smithy&#45;&gt;oas -->
<g id="edge4" class="edge">
<title>smithy&#45;&gt;oas</title>
<path fill="none" stroke="black" d="M114.14,-88.5C101.4,-77.07 85.47,-62.8 71.7,-50.46"/>
<polygon fill="black" stroke="black" points="74.67,-48.52 64.89,-44.45 70,-53.74 74.67,-48.52"/>
<text text-anchor="middle" x="111.75" y="-62.4" font-family="Helvetica,Arial,sans-serif" font-size="9.00" fill="darkgrey">transform</text>
</g>
<!-- stubs -->
<g id="node6" class="node">
<title>stubs</title>
<polygon fill="none" stroke="black" points="176.38,-43.2 98.88,-43.2 98.88,-39.2 94.88,-39.2 94.88,-35.2 98.88,-35.2 98.88,-8 94.88,-8 94.88,-4 98.88,-4 98.88,0 176.38,0 176.38,-43.2"/>
<polyline fill="none" stroke="black" points="98.88,-39.2 102.88,-39.2 102.88,-35.2 98.88,-35.2"/>
<polyline fill="none" stroke="black" points="98.88,-8 102.88,-8 102.88,-4 98.88,-4"/>
<text text-anchor="middle" x="137.62" y="-23.35" font-family="Helvetica,Arial,sans-serif" font-size="10.00">Service Stubs</text>
<text text-anchor="middle" x="137.62" y="-12.1" font-family="Helvetica,Arial,sans-serif" font-size="10.00">(code)</text>
</g>
<!-- smithy&#45;&gt;stubs -->
<g id="edge5" class="edge">
<title>smithy&#45;&gt;stubs</title>
<path fill="none" stroke="black" d="M137.62,-88.5C137.62,-78.25 137.62,-65.7 137.62,-54.32"/>
<polygon fill="black" stroke="black" points="141.13,-54.45 137.62,-44.45 134.13,-54.45 141.13,-54.45"/>
<text text-anchor="middle" x="156.75" y="-62.4" font-family="Helvetica,Arial,sans-serif" font-size="9.00" fill="darkgrey">transform</text>
</g>
<!-- client -->
<g id="node7" class="node">
<title>client</title>
<polygon fill="none" stroke="black" points="268.5,-43.2 194.75,-43.2 194.75,-39.2 190.75,-39.2 190.75,-35.2 194.75,-35.2 194.75,-8 190.75,-8 190.75,-4 194.75,-4 194.75,0 268.5,0 268.5,-43.2"/>
<polyline fill="none" stroke="black" points="194.75,-39.2 198.75,-39.2 198.75,-35.2 194.75,-35.2"/>
<polyline fill="none" stroke="black" points="194.75,-8 198.75,-8 198.75,-4 194.75,-4"/>
<text text-anchor="middle" x="231.62" y="-23.35" font-family="Helvetica,Arial,sans-serif" font-size="10.00">Client Library</text>
<text text-anchor="middle" x="231.62" y="-12.1" font-family="Helvetica,Arial,sans-serif" font-size="10.00">(code)</text>
</g>
<!-- smithy&#45;&gt;client -->
<g id="edge6" class="edge">
<title>smithy&#45;&gt;client</title>
<path fill="none" stroke="black" d="M160.32,-88.74C166.58,-82.98 173.37,-76.73 179.62,-70.95 186.59,-64.51 194.06,-57.58 201.11,-51.03"/>
<polygon fill="black" stroke="black" points="203.19,-53.94 208.13,-44.57 198.42,-48.82 203.19,-53.94"/>
<text text-anchor="middle" x="208.75" y="-62.4" font-family="Helvetica,Arial,sans-serif" font-size="9.00" fill="darkgrey">transform</text>
</g>
<!-- dbsql -->
<g id="node9" class="node">
<title>dbsql</title>
<polygon fill="none" stroke="black" points="263.62,-132.15 191.62,-132.15 191.62,-128.15 187.62,-128.15 187.62,-124.15 191.62,-124.15 191.62,-96.95 187.62,-96.95 187.62,-92.95 191.62,-92.95 191.62,-88.95 263.62,-88.95 263.62,-132.15"/>
<polyline fill="none" stroke="black" points="191.62,-128.15 195.62,-128.15 195.62,-124.15 191.62,-124.15"/>
<polyline fill="none" stroke="black" points="191.62,-96.95 195.62,-96.95 195.62,-92.95 191.62,-92.95"/>
<text text-anchor="middle" x="227.62" y="-106.67" font-family="Helvetica,Arial,sans-serif" font-size="10.00">SQL DDL</text>
</g>
<!-- data&#45;&gt;dbsql -->
<g id="edge8" class="edge">
<title>data&#45;&gt;dbsql</title>
<path fill="none" stroke="black" d="M267.05,-178.77C260.65,-167.86 252.56,-154.07 245.38,-141.82"/>
<polygon fill="black" stroke="black" points="247.94,-140.27 239.86,-133.41 241.9,-143.81 247.94,-140.27"/>
<text text-anchor="middle" x="274.75" y="-151.35" font-family="Helvetica,Arial,sans-serif" font-size="9.00" fill="darkgrey">transform</text>
</g>
<!-- dbjson -->
<g id="node10" class="node">
<title>dbjson</title>
<polygon fill="none" stroke="black" points="363.62,-132.15 281.62,-132.15 281.62,-128.15 277.62,-128.15 277.62,-124.15 281.62,-124.15 281.62,-96.95 277.62,-96.95 277.62,-92.95 281.62,-92.95 281.62,-88.95 363.62,-88.95 363.62,-132.15"/>
<polyline fill="none" stroke="black" points="281.62,-128.15 285.62,-128.15 285.62,-124.15 281.62,-124.15"/>
<polyline fill="none" stroke="black" points="281.62,-96.95 285.62,-96.95 285.62,-92.95 281.62,-92.95"/>
<text text-anchor="middle" x="322.62" y="-106.67" font-family="Helvetica,Arial,sans-serif" font-size="10.00">JSON Schema</text>
</g>
<!-- data&#45;&gt;dbjson -->
<g id="edge9" class="edge">
<title>data&#45;&gt;dbjson</title>
<path fill="none" stroke="black" d="M288.83,-178.33C294.26,-167.59 301.06,-154.16 307.13,-142.16"/>
<polygon fill="black" stroke="black" points="310.62,-144.02 312.02,-133.52 304.38,-140.86 310.62,-144.02"/>
<text text-anchor="middle" x="321.75" y="-151.35" font-family="Helvetica,Arial,sans-serif" font-size="9.00" fill="darkgrey">transform</text>
</g>
<!-- thrift -->
<g id="node12" class="node">
<title>thrift</title>
<polygon fill="none" stroke="black" points="455.88,-132.15 381.38,-132.15 381.38,-128.15 377.38,-128.15 377.38,-124.15 381.38,-124.15 381.38,-96.95 377.38,-96.95 377.38,-92.95 381.38,-92.95 381.38,-88.95 455.88,-88.95 455.88,-132.15"/>
<polyline fill="none" stroke="black" points="381.38,-128.15 385.38,-128.15 385.38,-124.15 381.38,-124.15"/>
<polyline fill="none" stroke="black" points="381.38,-96.95 385.38,-96.95 385.38,-92.95 381.38,-92.95"/>
<text text-anchor="middle" x="418.62" y="-112.3" font-family="Helvetica,Arial,sans-serif" font-size="10.00">Apache Thrift</text>
<text text-anchor="middle" x="418.62" y="-101.05" font-family="Helvetica,Arial,sans-serif" font-size="10.00">(IDL)</text>
</g>
<!-- message&#45;&gt;thrift -->
<g id="edge11" class="edge">
<title>message&#45;&gt;thrift</title>
<path fill="none" stroke="black" d="M408.71,-177.89C410.25,-167.54 412.16,-154.77 413.89,-143.21"/>
<polygon fill="black" stroke="black" points="417.46,-144.02 415.48,-133.61 410.54,-142.98 417.46,-144.02"/>
<text text-anchor="middle" x="431.75" y="-151.35" font-family="Helvetica,Arial,sans-serif" font-size="9.00" fill="darkgrey">transform</text>
</g>
</g>
</svg>
