<?xml version="1.0" encoding="UTF-8" standalone="no"?>
<!DOCTYPE svg PUBLIC "-//W3C//DTD SVG 1.1//EN"
 "http://www.w3.org/Graphics/SVG/1.1/DTD/svg11.dtd">
<!-- Generated by graphviz version 8.0.5 (20230430.1635)
 -->
<!-- Title: G Pages: 1 -->
<svg width="607pt" height="455pt"
 viewBox="0.00 0.00 607.00 455.40" xmlns="http://www.w3.org/2000/svg" xmlns:xlink="http://www.w3.org/1999/xlink">
<g id="graph0" class="graph" transform="scale(1 1) rotate(0) translate(4 451.4)">
<title>G</title>
<g id="clust1" class="cluster">
<title>cluster_0</title>
<polygon fill="none" stroke="black" points="83,-163 83,-403.4 363,-403.4 363,-163 83,-163"/>
<text text-anchor="middle" x="223" y="-386.1" font-family="Helvetica,Arial,sans-serif" font-size="14.00">Core Library</text>
</g>
<g id="clust2" class="cluster">
<title>cluster_1</title>
<polygon fill="none" stroke="black" points="399,-80 399,-241.57 591,-241.57 591,-80 399,-80"/>
<text text-anchor="middle" x="495" y="-224.27" font-family="Helvetica,Arial,sans-serif" font-size="14.00">Emacs Support</text>
</g>
<g id="clust3" class="cluster">
<title>cluster_2</title>
<polygon fill="none" stroke="black" points="8,-8 8,-155 264,-155 264,-8 8,-8"/>
<text text-anchor="middle" x="136" y="-137.7" font-family="Helvetica,Arial,sans-serif" font-size="14.00">Command&#45;Line Tool</text>
</g>
<!-- grammar -->
<g id="node1" class="node">
<title>grammar</title>
<ellipse fill="none" stroke="black" cx="315" cy="-350.83" rx="40.48" ry="21.57"/>
<text text-anchor="middle" x="315" y="-352.58" font-family="Helvetica,Arial,sans-serif" font-size="10.00">Grammar</text>
<text text-anchor="middle" x="315" y="-341.33" font-family="Helvetica,Arial,sans-serif" font-size="10.00">Definition</text>
</g>
<!-- parser -->
<g id="node2" class="node">
<title>parser</title>
<ellipse fill="none" stroke="black" cx="315" cy="-271.7" rx="31.47" ry="21.57"/>
<text text-anchor="middle" x="315" y="-273.45" font-family="Helvetica,Arial,sans-serif" font-size="10.00">Parser</text>
<text text-anchor="middle" x="315" y="-262.2" font-family="Helvetica,Arial,sans-serif" font-size="10.00">Dylib</text>
</g>
<!-- grammar&#45;&gt;parser -->
<g id="edge1" class="edge">
<title>grammar&#45;&gt;parser</title>
<path fill="none" stroke="black" d="M315,-329.16C315,-321.62 315,-312.89 315,-304.6"/>
<polygon fill="black" stroke="black" points="318.5,-304.7 315,-294.7 311.5,-304.7 318.5,-304.7"/>
</g>
<!-- rust -->
<g id="node3" class="node">
<title>rust</title>
<ellipse fill="none" stroke="black" cx="129" cy="-192.57" rx="37.83" ry="21.57"/>
<text text-anchor="middle" x="129" y="-194.32" font-family="Helvetica,Arial,sans-serif" font-size="10.00">Rust</text>
<text text-anchor="middle" x="129" y="-183.07" font-family="Helvetica,Arial,sans-serif" font-size="10.00">Bindings</text>
</g>
<!-- parser&#45;&gt;rust -->
<g id="edge2" class="edge">
<title>parser&#45;&gt;rust</title>
<path fill="none" stroke="black" d="M283.38,-269.3C253.97,-266.83 209.73,-260.05 176,-241.57 166.33,-236.27 157.4,-228.34 149.97,-220.45"/>
<polygon fill="black" stroke="black" points="153.33,-218.83 144.08,-213.67 148.09,-223.47 153.33,-218.83"/>
</g>
<!-- npm -->
<g id="node4" class="node">
<title>npm</title>
<ellipse fill="none" stroke="black" cx="223" cy="-192.57" rx="37.83" ry="21.57"/>
<text text-anchor="middle" x="223" y="-194.32" font-family="Helvetica,Arial,sans-serif" font-size="10.00">Node</text>
<text text-anchor="middle" x="223" y="-183.07" font-family="Helvetica,Arial,sans-serif" font-size="10.00">Bindings</text>
</g>
<!-- parser&#45;&gt;npm -->
<g id="edge3" class="edge">
<title>parser&#45;&gt;npm</title>
<path fill="none" stroke="black" d="M291.42,-256.82C284.31,-252.27 276.63,-246.99 270,-241.57 262.04,-235.06 253.99,-227.35 246.86,-220.03"/>
<polygon fill="black" stroke="black" points="249.95,-218.15 240.53,-213.31 244.88,-222.97 249.95,-218.15"/>
</g>
<!-- wasm -->
<g id="node5" class="node">
<title>wasm</title>
<ellipse fill="none" stroke="black" cx="317" cy="-192.57" rx="37.83" ry="21.57"/>
<text text-anchor="middle" x="317" y="-194.32" font-family="Helvetica,Arial,sans-serif" font-size="10.00">WASM</text>
<text text-anchor="middle" x="317" y="-183.07" font-family="Helvetica,Arial,sans-serif" font-size="10.00">Bindings</text>
</g>
<!-- parser&#45;&gt;wasm -->
<g id="edge4" class="edge">
<title>parser&#45;&gt;wasm</title>
<path fill="none" stroke="black" d="M315.54,-250.03C315.73,-242.48 315.96,-233.76 316.17,-225.46"/>
<polygon fill="black" stroke="black" points="319.7,-225.65 316.46,-215.56 312.7,-225.47 319.7,-225.65"/>
</g>
<!-- emode -->
<g id="node7" class="node">
<title>emode</title>
<ellipse fill="none" stroke="black" cx="467" cy="-192.57" rx="43.19" ry="18"/>
<text text-anchor="middle" x="467" y="-188.69" font-family="Helvetica,Arial,sans-serif" font-size="10.00">Editing Mode</text>
</g>
<!-- parser&#45;&gt;emode -->
<g id="edge8" class="edge">
<title>parser&#45;&gt;emode</title>
<path fill="none" stroke="black" d="M339.76,-258.14C364.44,-245.61 402.62,-226.24 430.72,-211.98"/>
<polygon fill="black" stroke="black" points="431.87,-214.81 439.2,-207.17 428.7,-208.57 431.87,-214.81"/>
</g>
<!-- api -->
<g id="node14" class="node">
<title>api</title>
<ellipse fill="none" stroke="black" cx="129" cy="-106" rx="27" ry="18"/>
<text text-anchor="middle" x="129" y="-102.12" font-family="Helvetica,Arial,sans-serif" font-size="10.00">API</text>
</g>
<!-- rust&#45;&gt;api -->
<g id="edge16" class="edge">
<title>rust&#45;&gt;api</title>
<path fill="none" stroke="black" d="M129,-170.66C129,-159.95 129,-146.76 129,-135.16"/>
<polygon fill="black" stroke="black" points="132.5,-135.25 129,-125.25 125.5,-135.25 132.5,-135.25"/>
</g>
<!-- treesit -->
<g id="node6" class="node">
<title>treesit</title>
<polygon fill="none" stroke="dimgrey" points="389.88,-447.4 328.12,-447.4 328.12,-443.4 324.12,-443.4 324.12,-439.4 328.12,-439.4 328.12,-419.4 324.12,-419.4 324.12,-415.4 328.12,-415.4 328.12,-411.4 389.88,-411.4 389.88,-447.4"/>
<polyline fill="none" stroke="dimgrey" points="328.12,-443.4 332.12,-443.4 332.12,-439.4 328.12,-439.4"/>
<polyline fill="none" stroke="dimgrey" points="328.12,-419.4 332.12,-419.4 332.12,-415.4 328.12,-415.4"/>
<text text-anchor="middle" x="359" y="-431.15" font-family="Helvetica,Arial,sans-serif" font-size="10.00" fill="dimgrey">Tree&#45;Sitter</text>
<text text-anchor="middle" x="359" y="-419.9" font-family="Helvetica,Arial,sans-serif" font-size="10.00" fill="dimgrey">C Library</text>
</g>
<!-- treesit&#45;&gt;grammar -->
<g id="edge5" class="edge">
<title>treesit&#45;&gt;grammar</title>
<path fill="none" stroke="black" d="M349.02,-411.03C343.94,-402.2 337.64,-391.23 331.84,-381.15"/>
<polygon fill="black" stroke="black" points="334.52,-379.77 326.5,-372.84 328.45,-383.26 334.52,-379.77"/>
</g>
<!-- ets -->
<g id="node10" class="node">
<title>ets</title>
<polygon fill="none" stroke="dimgrey" points="473.88,-368.83 412.12,-368.83 412.12,-364.83 408.12,-364.83 408.12,-360.83 412.12,-360.83 412.12,-340.83 408.12,-340.83 408.12,-336.83 412.12,-336.83 412.12,-332.83 473.88,-332.83 473.88,-368.83"/>
<polyline fill="none" stroke="dimgrey" points="412.12,-364.83 416.12,-364.83 416.12,-360.83 412.12,-360.83"/>
<polyline fill="none" stroke="dimgrey" points="412.12,-340.83 416.12,-340.83 416.12,-336.83 412.12,-336.83"/>
<text text-anchor="middle" x="443" y="-352.58" font-family="Helvetica,Arial,sans-serif" font-size="10.00" fill="dimgrey">Emacs</text>
<text text-anchor="middle" x="443" y="-341.33" font-family="Helvetica,Arial,sans-serif" font-size="10.00" fill="dimgrey">Tree&#45;Sitter</text>
</g>
<!-- treesit&#45;&gt;ets -->
<g id="edge9" class="edge">
<title>treesit&#45;&gt;ets</title>
<path fill="none" stroke="black" d="M378.06,-411.03C389.34,-400.75 403.8,-387.57 416.21,-376.25"/>
<polygon fill="black" stroke="black" points="417.98,-379.46 423.01,-370.14 413.27,-374.29 417.98,-379.46"/>
</g>
<!-- spell -->
<g id="node8" class="node">
<title>spell</title>
<ellipse fill="none" stroke="black" cx="453" cy="-106" rx="45.86" ry="18"/>
<text text-anchor="middle" x="453" y="-102.12" font-family="Helvetica,Arial,sans-serif" font-size="10.00">Spell Checker</text>
</g>
<!-- emode&#45;&gt;spell -->
<g id="edge6" class="edge">
<title>emode&#45;&gt;spell</title>
<path fill="none" stroke="black" d="M464.17,-174.45C462.3,-163.18 459.81,-148.15 457.66,-135.15"/>
<polygon fill="black" stroke="black" points="460.96,-134.67 455.88,-125.38 454.06,-135.82 460.96,-134.67"/>
</g>
<!-- flycheck -->
<g id="node9" class="node">
<title>flycheck</title>
<ellipse fill="none" stroke="black" cx="550" cy="-106" rx="32.99" ry="18"/>
<text text-anchor="middle" x="550" y="-102.12" font-family="Helvetica,Arial,sans-serif" font-size="10.00">Flycheck</text>
</g>
<!-- emode&#45;&gt;flycheck -->
<g id="edge7" class="edge">
<title>emode&#45;&gt;flycheck</title>
<path fill="none" stroke="black" d="M485.4,-176.01C492.63,-169.69 500.89,-162.18 508,-155 515.44,-147.49 523.17,-138.91 529.94,-131.09"/>
<polygon fill="black" stroke="black" points="533.02,-133.88 536.85,-124.01 527.7,-129.33 533.02,-133.88"/>
</g>
<!-- ets_hl -->
<g id="node11" class="node">
<title>ets_hl</title>
<polygon fill="none" stroke="dimgrey" points="433.25,-289.7 370.75,-289.7 370.75,-285.7 366.75,-285.7 366.75,-281.7 370.75,-281.7 370.75,-261.7 366.75,-261.7 366.75,-257.7 370.75,-257.7 370.75,-253.7 433.25,-253.7 433.25,-289.7"/>
<polyline fill="none" stroke="dimgrey" points="370.75,-285.7 374.75,-285.7 374.75,-281.7 370.75,-281.7"/>
<polyline fill="none" stroke="dimgrey" points="370.75,-261.7 374.75,-261.7 374.75,-257.7 370.75,-257.7"/>
<text text-anchor="middle" x="402" y="-273.45" font-family="Helvetica,Arial,sans-serif" font-size="10.00" fill="dimgrey">Tree&#45;Sitter</text>
<text text-anchor="middle" x="402" y="-262.2" font-family="Helvetica,Arial,sans-serif" font-size="10.00" fill="dimgrey">Highlighter</text>
</g>
<!-- ets&#45;&gt;ets_hl -->
<g id="edge10" class="edge">
<title>ets&#45;&gt;ets_hl</title>
<path fill="none" stroke="black" d="M433.9,-332.72C428.73,-323 422.15,-310.61 416.31,-299.62"/>
<polygon fill="black" stroke="black" points="419,-298.22 411.22,-291.04 412.82,-301.51 419,-298.22"/>
</g>
<!-- ets_indent -->
<g id="node12" class="node">
<title>ets_indent</title>
<polygon fill="none" stroke="dimgrey" points="512.88,-289.7 451.12,-289.7 451.12,-285.7 447.12,-285.7 447.12,-281.7 451.12,-281.7 451.12,-261.7 447.12,-261.7 447.12,-257.7 451.12,-257.7 451.12,-253.7 512.88,-253.7 512.88,-289.7"/>
<polyline fill="none" stroke="dimgrey" points="451.12,-285.7 455.12,-285.7 455.12,-281.7 451.12,-281.7"/>
<polyline fill="none" stroke="dimgrey" points="451.12,-261.7 455.12,-261.7 455.12,-257.7 451.12,-257.7"/>
<text text-anchor="middle" x="482" y="-273.45" font-family="Helvetica,Arial,sans-serif" font-size="10.00" fill="dimgrey">Tree&#45;Sitter</text>
<text text-anchor="middle" x="482" y="-262.2" font-family="Helvetica,Arial,sans-serif" font-size="10.00" fill="dimgrey">Indenter</text>
</g>
<!-- ets&#45;&gt;ets_indent -->
<g id="edge11" class="edge">
<title>ets&#45;&gt;ets_indent</title>
<path fill="none" stroke="black" d="M451.66,-332.72C456.57,-323 462.83,-310.61 468.39,-299.62"/>
<polygon fill="black" stroke="black" points="471.85,-301.54 473.23,-291.04 465.6,-298.38 471.85,-301.54"/>
</g>
<!-- ets_fold -->
<g id="node13" class="node">
<title>ets_fold</title>
<polygon fill="none" stroke="dimgrey" points="592.88,-289.7 531.12,-289.7 531.12,-285.7 527.12,-285.7 527.12,-281.7 531.12,-281.7 531.12,-261.7 527.12,-261.7 527.12,-257.7 531.12,-257.7 531.12,-253.7 592.88,-253.7 592.88,-289.7"/>
<polyline fill="none" stroke="dimgrey" points="531.12,-285.7 535.12,-285.7 535.12,-281.7 531.12,-281.7"/>
<polyline fill="none" stroke="dimgrey" points="531.12,-261.7 535.12,-261.7 535.12,-257.7 531.12,-257.7"/>
<text text-anchor="middle" x="562" y="-273.45" font-family="Helvetica,Arial,sans-serif" font-size="10.00" fill="dimgrey">Tree&#45;Sitter</text>
<text text-anchor="middle" x="562" y="-262.2" font-family="Helvetica,Arial,sans-serif" font-size="10.00" fill="dimgrey">Folder</text>
</g>
<!-- ets&#45;&gt;ets_fold -->
<g id="edge12" class="edge">
<title>ets&#45;&gt;ets_fold</title>
<path fill="none" stroke="black" d="M469.71,-332.52C486.4,-321.71 508.09,-307.64 526.25,-295.87"/>
<polygon fill="black" stroke="black" points="527.9,-298.33 534.38,-289.95 524.09,-292.45 527.9,-298.33"/>
</g>
<!-- ets_hl&#45;&gt;emode -->
<g id="edge13" class="edge">
<title>ets_hl&#45;&gt;emode</title>
<path fill="none" stroke="black" d="M416.43,-253.58C425.19,-243.18 436.52,-229.74 446.24,-218.21"/>
<polygon fill="black" stroke="black" points="449.51,-220.75 453.28,-210.85 444.16,-216.24 449.51,-220.75"/>
</g>
<!-- ets_indent&#45;&gt;emode -->
<g id="edge14" class="edge">
<title>ets_indent&#45;&gt;emode</title>
<path fill="none" stroke="black" d="M478.67,-253.58C476.84,-244.16 474.52,-232.24 472.43,-221.5"/>
<polygon fill="black" stroke="black" points="475.72,-221.05 470.37,-211.9 468.84,-222.39 475.72,-221.05"/>
</g>
<!-- ets_fold&#45;&gt;emode -->
<g id="edge15" class="edge">
<title>ets_fold&#45;&gt;emode</title>
<path fill="none" stroke="black" d="M540.92,-253.58C527.21,-242.45 509.19,-227.83 494.38,-215.8"/>
<polygon fill="black" stroke="black" points="497.06,-212.65 487.09,-209.07 492.65,-218.09 497.06,-212.65"/>
</g>
<!-- fmt -->
<g id="node15" class="node">
<title>fmt</title>
<ellipse fill="none" stroke="black" cx="50" cy="-34" rx="34.32" ry="18"/>
<text text-anchor="middle" x="50" y="-30.12" font-family="Helvetica,Arial,sans-serif" font-size="10.00">Formatter</text>
</g>
<!-- api&#45;&gt;fmt -->
<g id="edge17" class="edge">
<title>api&#45;&gt;fmt</title>
<path fill="none" stroke="black" d="M113.39,-91.17C102.4,-81.43 87.45,-68.19 74.83,-57.01"/>
<polygon fill="black" stroke="black" points="77.75,-55.03 67.94,-51.01 73.11,-60.26 77.75,-55.03"/>
</g>
<!-- linter -->
<g id="node16" class="node">
<title>linter</title>
<ellipse fill="none" stroke="black" cx="129" cy="-34" rx="27" ry="18"/>
<text text-anchor="middle" x="129" y="-30.12" font-family="Helvetica,Arial,sans-serif" font-size="10.00">Linter</text>
</g>
<!-- api&#45;&gt;linter -->
<g id="edge18" class="edge">
<title>api&#45;&gt;linter</title>
<path fill="none" stroke="black" d="M129,-87.7C129,-80.24 129,-71.32 129,-62.97"/>
<polygon fill="black" stroke="black" points="132.5,-63.1 129,-53.1 125.5,-63.1 132.5,-63.1"/>
</g>
<!-- diagrams -->
<g id="node17" class="node">
<title>diagrams</title>
<ellipse fill="none" stroke="black" cx="215" cy="-34" rx="40.97" ry="18"/>
<text text-anchor="middle" x="215" y="-30.12" font-family="Helvetica,Arial,sans-serif" font-size="10.00">Diagrammer</text>
</g>
<!-- api&#45;&gt;diagrams -->
<g id="edge19" class="edge">
<title>api&#45;&gt;diagrams</title>
<path fill="none" stroke="black" d="M145.58,-91.5C157.55,-81.76 173.97,-68.4 187.83,-57.11"/>
<polygon fill="black" stroke="black" points="189.53,-59.43 195.07,-50.41 185.11,-54 189.53,-59.43"/>
</g>
</g>
</svg>
