<?xml version="1.0" encoding="UTF-8" standalone="no"?>
<!DOCTYPE svg PUBLIC "-//W3C//DTD SVG 1.1//EN"
 "http://www.w3.org/Graphics/SVG/1.1/DTD/svg11.dtd">
<!-- Generated by graphviz version 8.0.5 (20230430.1635)
 -->
<!-- Title: G Pages: 1 -->
<svg width="418pt" height="112pt"
 viewBox="0.00 0.00 418.01 112.20" xmlns="http://www.w3.org/2000/svg" xmlns:xlink="http://www.w3.org/1999/xlink">
<g id="graph0" class="graph" transform="scale(1 1) rotate(0) translate(4 108.2)">
<title>G</title>
<!-- semantics -->
<g id="node1" class="node">
<title>semantics</title>
<ellipse fill="none" stroke="black" cx="37.24" cy="-82.6" rx="37.24" ry="21.6"/>
<text text-anchor="middle" x="37.24" y="-84.35" font-family="Helvetica,Arial,sans-serif" font-size="10.00">Abstract</text>
<text text-anchor="middle" x="37.24" y="-73.1" font-family="Helvetica,Arial,sans-serif" font-size="10.00">Model</text>
</g>
<!-- transform -->
<g id="node2" class="node">
<title>transform</title>
<polygon fill="none" stroke="black" points="246.54,-40.2 164.49,-40.2 164.49,-9 246.54,-9 258.54,-24.6 246.54,-40.2"/>
<text text-anchor="middle" x="211.51" y="-20.72" font-family="Helvetica,Arial,sans-serif" font-size="10.00">Transformation</text>
</g>
<!-- semantics&#45;&gt;transform -->
<g id="edge1" class="edge">
<title>semantics&#45;&gt;transform</title>
<path fill="none" stroke="black" d="M66.96,-69.2C75.12,-65.62 84.08,-61.9 92.49,-58.85 112.12,-51.74 133.99,-45.06 153.52,-39.52"/>
<polygon fill="black" stroke="black" points="154.41,-42.62 163.1,-36.56 152.53,-35.88 154.41,-42.62"/>
<text text-anchor="middle" x="119.49" y="-60.8" font-family="Helvetica,Arial,sans-serif" font-size="9.00" fill="darkgrey">source</text>
</g>
<!-- other -->
<g id="node4" class="node">
<title>other</title>
<ellipse fill="none" stroke="black" stroke-dasharray="5,2" cx="370.65" cy="-53.6" rx="39.36" ry="21.6"/>
<text text-anchor="middle" x="370.65" y="-55.35" font-family="Helvetica,Arial,sans-serif" font-size="10.00">Concrete</text>
<text text-anchor="middle" x="370.65" y="-44.1" font-family="Helvetica,Arial,sans-serif" font-size="10.00">Model(s)</text>
</g>
<!-- transform&#45;&gt;other -->
<g id="edge3" class="edge">
<title>transform&#45;&gt;other</title>
<path fill="none" stroke="black" d="M258.81,-33.14C278.74,-36.82 302.03,-41.12 322.11,-44.83"/>
<polygon fill="black" stroke="black" points="321.42,-48.44 331.89,-46.82 322.69,-41.56 321.42,-48.44"/>
<text text-anchor="middle" x="294.91" y="-43.8" font-family="Helvetica,Arial,sans-serif" font-size="9.00" fill="darkgrey">generate</text>
</g>
<!-- tsq -->
<g id="node3" class="node">
<title>tsq</title>
<ellipse fill="none" stroke="black" cx="37.24" cy="-21.6" rx="36" ry="21.6"/>
<text text-anchor="middle" x="37.24" y="-17.72" font-family="Helvetica,Arial,sans-serif" font-size="10.00">Rules</text>
</g>
<!-- tsq&#45;&gt;transform -->
<g id="edge2" class="edge">
<title>tsq&#45;&gt;transform</title>
<path fill="none" stroke="black" d="M73.52,-22.21C96.53,-22.62 127.09,-23.15 153.51,-23.61"/>
<polygon fill="black" stroke="black" points="153.1,-27.12 163.16,-23.79 153.22,-20.12 153.1,-27.12"/>
<text text-anchor="middle" x="119.49" y="-24.8" font-family="Helvetica,Arial,sans-serif" font-size="9.00" fill="darkgrey">select/project</text>
</g>
<!-- other&#45;&gt;semantics -->
<g id="edge4" class="edge">
<title>other&#45;&gt;semantics</title>
<path fill="none" stroke="black" d="M331.3,-56.96C270.29,-62.29 151.3,-72.71 85.25,-78.49"/>
<polygon fill="black" stroke="black" points="85,-75.08 75.34,-79.44 85.61,-82.06 85,-75.08"/>
<text text-anchor="middle" x="211.51" y="-72.8" font-family="Helvetica,Arial,sans-serif" font-size="9.00" fill="darkgrey">abstraction</text>
</g>
</g>
</svg>
