<?xml version="1.0" encoding="UTF-8" standalone="no"?>
<!DOCTYPE svg PUBLIC "-//W3C//DTD SVG 1.1//EN"
 "http://www.w3.org/Graphics/SVG/1.1/DTD/svg11.dtd">
<!-- Generated by graphviz version 8.0.5 (20230430.1635)
 -->
<!-- Title: G Pages: 1 -->
<svg width="443pt" height="112pt"
 viewBox="0.00 0.00 442.90 112.13" xmlns="http://www.w3.org/2000/svg" xmlns:xlink="http://www.w3.org/1999/xlink">
<g id="graph0" class="graph" transform="scale(1 1) rotate(0) translate(4 108.13)">
<title>G</title>
<!-- semantics -->
<g id="node1" class="node">
<title>semantics</title>
<ellipse fill="none" stroke="black" cx="43.66" cy="-82.57" rx="40.48" ry="21.57"/>
<text text-anchor="middle" x="43.66" y="-84.32" font-family="Helvetica,Arial,sans-serif" font-size="10.00">Semantic</text>
<text text-anchor="middle" x="43.66" y="-73.07" font-family="Helvetica,Arial,sans-serif" font-size="10.00">Model</text>
</g>
<!-- transform -->
<g id="node2" class="node">
<title>transform</title>
<polygon fill="none" stroke="black" points="246.63,-65.59 164.58,-65.59 164.58,-37.54 246.63,-37.54 258.63,-51.57 246.63,-65.59"/>
<text text-anchor="middle" x="211.6" y="-47.69" font-family="Helvetica,Arial,sans-serif" font-size="10.00">Transformation</text>
</g>
<!-- semantics&#45;&gt;transform -->
<g id="edge1" class="edge">
<title>semantics&#45;&gt;transform</title>
<path fill="none" stroke="black" d="M82.32,-75.53C103.38,-71.6 130.06,-66.61 153.63,-62.21"/>
<polygon fill="black" stroke="black" points="154.02,-65.51 163.21,-60.23 152.74,-58.63 154.02,-65.51"/>
<text text-anchor="middle" x="125.95" y="-71.77" font-family="Helvetica,Arial,sans-serif" font-size="9.00" fill="darkgrey">source</text>
</g>
<!-- other -->
<g id="node4" class="node">
<title>other</title>
<ellipse fill="none" stroke="black" stroke-dasharray="5,2" cx="376.39" cy="-51.57" rx="58.51" ry="21.57"/>
<text text-anchor="middle" x="376.39" y="-53.32" font-family="Helvetica,Arial,sans-serif" font-size="10.00">Implementation</text>
<text text-anchor="middle" x="376.39" y="-42.07" font-family="Helvetica,Arial,sans-serif" font-size="10.00">Model(s)</text>
</g>
<!-- transform&#45;&gt;other -->
<g id="edge3" class="edge">
<title>transform&#45;&gt;other</title>
<path fill="none" stroke="black" d="M258.82,-51.57C273.63,-51.57 290.37,-51.57 306.45,-51.57"/>
<polygon fill="black" stroke="black" points="306.45,-55.07 316.45,-51.57 306.45,-48.07 306.45,-55.07"/>
<text text-anchor="middle" x="288.25" y="-52.77" font-family="Helvetica,Arial,sans-serif" font-size="9.00" fill="darkgrey">target</text>
</g>
<!-- tsq -->
<g id="node3" class="node">
<title>tsq</title>
<ellipse fill="none" stroke="black" cx="43.66" cy="-21.57" rx="43.66" ry="21.57"/>
<text text-anchor="middle" x="43.66" y="-23.32" font-family="Helvetica,Arial,sans-serif" font-size="10.00">Tree&#45;Sitter</text>
<text text-anchor="middle" x="43.66" y="-12.07" font-family="Helvetica,Arial,sans-serif" font-size="10.00">Queries</text>
</g>
<!-- tsq&#45;&gt;transform -->
<g id="edge2" class="edge">
<title>tsq&#45;&gt;transform</title>
<path fill="none" stroke="black" d="M85.26,-28.91C105.79,-32.62 131.05,-37.18 153.51,-41.24"/>
<polygon fill="black" stroke="black" points="152.81,-44.86 163.27,-43.19 154.05,-37.97 152.81,-44.86"/>
<text text-anchor="middle" x="125.95" y="-40.77" font-family="Helvetica,Arial,sans-serif" font-size="9.00" fill="darkgrey">selections</text>
</g>
</g>
</svg>
