<?xml version="1.0" encoding="UTF-8" standalone="no"?>
<!DOCTYPE svg PUBLIC "-//W3C//DTD SVG 1.1//EN"
 "http://www.w3.org/Graphics/SVG/1.1/DTD/svg11.dtd">
<!-- Generated by graphviz version 8.0.5 (20230430.1635)
 -->
<!-- Title: G Pages: 1 -->
<svg width="1170pt" height="474pt"
 viewBox="0.00 0.00 1169.72 473.84" xmlns="http://www.w3.org/2000/svg" xmlns:xlink="http://www.w3.org/1999/xlink">
<g id="graph0" class="graph" transform="scale(1 1) rotate(0) translate(4 469.84)">
<title>G</title>
<!-- ModelElement -->
<g id="node1" class="node">
<title>ModelElement</title>
<ellipse fill="none" stroke="grey" cx="1101.97" cy="-94.24" rx="43.7" ry="21.6"/>
<text text-anchor="middle" x="1101.97" y="-90.36" font-family="Helvetica,Arial,sans-serif" font-size="10.00" fill="grey">ModelElement</text>
</g>
<!-- Module -->
<g id="node2" class="node">
<title>Module</title>
<ellipse fill="none" stroke="blue" stroke-width="2" cx="702.51" cy="-55.24" rx="36" ry="21.6"/>
<text text-anchor="middle" x="702.51" y="-51.36" font-family="Helvetica,Arial,sans-serif" font-size="10.00" fill="blue">Module</text>
</g>
<!-- Module&#45;&gt;ModelElement -->
<g id="edge1" class="edge">
<title>Module&#45;&gt;ModelElement</title>
<path fill="none" stroke="black" d="M739.27,-57.73C765.07,-59.6 800.72,-62.33 832.03,-65.24 907.28,-72.22 994.19,-81.88 1048.37,-88.1"/>
<polygon fill="none" stroke="black" points="1047.75,-91.66 1058.08,-89.33 1048.55,-84.71 1047.75,-91.66"/>
<text text-anchor="middle" x="889.13" y="-76.44" font-family="Helvetica,Arial,sans-serif" font-size="9.00" fill="darkgrey">rdfs:subClassOf</text>
</g>
<!-- Classifier -->
<g id="node4" class="node">
<title>Classifier</title>
<ellipse fill="none" stroke="grey" cx="889.13" cy="-188.24" rx="36" ry="21.6"/>
<text text-anchor="middle" x="889.13" y="-184.36" font-family="Helvetica,Arial,sans-serif" font-size="10.00" fill="grey">Classifier</text>
</g>
<!-- Module&#45;&gt;Classifier -->
<g id="edge2" class="edge">
<title>Module&#45;&gt;Classifier</title>
<path fill="none" stroke="black" d="M751.19,-62.3C782.26,-67.68 819.31,-75.79 832.03,-85.49 855.51,-103.38 870.4,-134.04 878.9,-157.23"/>
<polygon fill="black" stroke="black" points="751.06,-62.28 744.49,-65.24 739.22,-60.32 745.8,-57.35 751.06,-62.28"/>
<polygon fill="black" stroke="black" points="882.15,-166.65 874.63,-158.67 880.52,-161.92 878.89,-157.2 878.89,-157.2 878.89,-157.2 880.52,-161.92 883.14,-155.73 882.15,-166.65 882.15,-166.65"/>
<text text-anchor="middle" x="796.03" y="-87.44" font-family="Helvetica,Arial,sans-serif" font-size="9.00" fill="darkgrey">hasDefinition</text>
<text text-anchor="middle" x="880.28" y="-158.1" font-family="Helvetica,Arial,sans-serif" font-size="9.00" fill="darkgrey">*</text>
</g>
<!-- Cardinality -->
<g id="node3" class="node">
<title>Cardinality</title>
<ellipse fill="none" stroke="black" cx="889.13" cy="-381.24" rx="36" ry="21.6"/>
<text text-anchor="middle" x="889.13" y="-377.36" font-family="Helvetica,Arial,sans-serif" font-size="10.00">Cardinality</text>
</g>
<!-- integer -->
<g id="node15" class="node">
<title>integer</title>
<polygon fill="lightgrey" stroke="lightgrey" points="1161.72,-432.84 1042.22,-432.84 1042.22,-389.64 1161.72,-389.64 1161.72,-432.84"/>
<text text-anchor="middle" x="1101.97" y="-407.36" font-family="Helvetica,Arial,sans-serif" font-size="10.00">xsd:nonNegativeInteger</text>
</g>
<!-- Cardinality&#45;&gt;integer -->
<g id="edge25" class="edge">
<title>Cardinality&#45;&gt;integer</title>
<path fill="none" stroke="black" d="M937.53,-375.85C963.39,-374.1 995.83,-373.85 1024.22,-379.49 1031.68,-380.97 1039.32,-383.19 1046.76,-385.78"/>
<polygon fill="black" stroke="black" points="937.52,-375.85 931.86,-380.31 925.56,-376.8 931.22,-372.34 937.52,-375.85"/>
<polygon fill="black" stroke="black" points="1056.03,-389.23 1045.09,-389.96 1051.35,-387.48 1046.66,-385.74 1046.66,-385.74 1046.66,-385.74 1051.35,-387.48 1048.23,-381.52 1056.03,-389.23 1056.03,-389.23"/>
<text text-anchor="middle" x="985.22" y="-380.44" font-family="Helvetica,Arial,sans-serif" font-size="9.00" fill="darkgrey">owl:maxCardinality</text>
<text text-anchor="middle" x="1053.41" y="-380.68" font-family="Helvetica,Arial,sans-serif" font-size="9.00" fill="darkgrey">?</text>
</g>
<!-- Cardinality&#45;&gt;integer -->
<g id="edge26" class="edge">
<title>Cardinality&#45;&gt;integer</title>
<path fill="none" stroke="black" d="M937.15,-387.94C940.22,-388.38 943.26,-388.82 946.22,-389.24 974.34,-393.24 1005.32,-397.65 1032.14,-401.46"/>
<polygon fill="black" stroke="black" points="937.31,-387.97 930.81,-391.08 925.43,-386.27 931.94,-383.16 937.31,-387.97"/>
<polygon fill="black" stroke="black" points="1041.82,-402.83 1031.28,-405.88 1036.87,-402.13 1031.92,-401.43 1031.92,-401.43 1031.92,-401.43 1036.87,-402.13 1032.55,-396.97 1041.82,-402.83 1041.82,-402.83"/>
<text text-anchor="middle" x="985.22" y="-400.44" font-family="Helvetica,Arial,sans-serif" font-size="9.00" fill="darkgrey">owl:minCardinality</text>
</g>
<!-- Classifier&#45;&gt;ModelElement -->
<g id="edge3" class="edge">
<title>Classifier&#45;&gt;ModelElement</title>
<path fill="none" stroke="black" d="M918.56,-175.56C954.7,-159.45 1017.37,-131.51 1059.01,-112.94"/>
<polygon fill="none" stroke="black" points="1060.15,-115.82 1067.86,-108.55 1057.3,-109.43 1060.15,-115.82"/>
<text text-anchor="middle" x="985.22" y="-163.44" font-family="Helvetica,Arial,sans-serif" font-size="9.00" fill="darkgrey">rdfs:subClassOf</text>
</g>
<!-- Entity -->
<g id="node5" class="node">
<title>Entity</title>
<ellipse fill="none" stroke="black" cx="195.75" cy="-249.24" rx="36" ry="21.6"/>
<text text-anchor="middle" x="195.75" y="-245.36" font-family="Helvetica,Arial,sans-serif" font-size="10.00">Entity</text>
</g>
<!-- Member -->
<g id="node9" class="node">
<title>Member</title>
<ellipse fill="none" stroke="grey" cx="702.51" cy="-350.24" rx="36" ry="21.6"/>
<text text-anchor="middle" x="702.51" y="-346.36" font-family="Helvetica,Arial,sans-serif" font-size="10.00" fill="grey">Member</text>
</g>
<!-- Entity&#45;&gt;Member -->
<g id="edge12" class="edge">
<title>Entity&#45;&gt;Member</title>
<path fill="none" stroke="black" d="M241.18,-261.67C312.23,-281.02 456.1,-318 580.5,-336.24 605.66,-339.92 633.87,-343.24 656.72,-345.71"/>
<polygon fill="black" stroke="black" points="241.22,-261.68 234.38,-263.95 229.65,-258.51 236.49,-256.24 241.22,-261.68"/>
<polygon fill="black" stroke="black" points="666.49,-346.75 656.07,-350.17 661.52,-346.22 656.55,-345.69 656.55,-345.69 656.55,-345.69 661.52,-346.22 657.02,-341.22 666.49,-346.75 666.49,-346.75"/>
<text text-anchor="middle" x="447.38" y="-317.44" font-family="Helvetica,Arial,sans-serif" font-size="9.00" fill="darkgrey">hasIdentifier</text>
<text text-anchor="middle" x="663.87" y="-338.2" font-family="Helvetica,Arial,sans-serif" font-size="9.00" fill="darkgrey">1</text>
</g>
<!-- Structure -->
<g id="node10" class="node">
<title>Structure</title>
<ellipse fill="none" stroke="black" cx="368.25" cy="-249.24" rx="36" ry="21.6"/>
<text text-anchor="middle" x="368.25" y="-245.36" font-family="Helvetica,Arial,sans-serif" font-size="10.00">Structure</text>
</g>
<!-- Entity&#45;&gt;Structure -->
<g id="edge11" class="edge">
<title>Entity&#45;&gt;Structure</title>
<path fill="none" stroke="black" d="M232.08,-249.24C257.91,-249.24 293.19,-249.24 321.22,-249.24"/>
<polygon fill="none" stroke="black" points="320.97,-252.74 330.97,-249.24 320.97,-245.74 320.97,-252.74"/>
<text text-anchor="middle" x="282" y="-250.44" font-family="Helvetica,Arial,sans-serif" font-size="9.00" fill="darkgrey">rdfs:subClassOf</text>
</g>
<!-- Enumeration -->
<g id="node6" class="node">
<title>Enumeration</title>
<ellipse fill="none" stroke="black" cx="702.51" cy="-425.24" rx="39.51" ry="21.6"/>
<text text-anchor="middle" x="702.51" y="-421.36" font-family="Helvetica,Arial,sans-serif" font-size="10.00">Enumeration</text>
</g>
<!-- Enumeration&#45;&gt;Classifier -->
<g id="edge6" class="edge">
<title>Enumeration&#45;&gt;Classifier</title>
<path fill="none" stroke="black" d="M722.52,-406.29C732.89,-396.84 746.36,-385.87 760.03,-378.49 789.5,-362.56 808.75,-380.31 832.03,-356.24 853.17,-334.38 840.7,-319.17 850.03,-290.24 857.75,-266.29 867.74,-239.68 875.55,-219.64"/>
<polygon fill="none" stroke="black" points="879.12,-221.12 879.53,-210.53 872.61,-218.55 879.12,-221.12"/>
<text text-anchor="middle" x="796.03" y="-379.44" font-family="Helvetica,Arial,sans-serif" font-size="9.00" fill="darkgrey">rdfs:subClassOf</text>
</g>
<!-- ValueVariant -->
<g id="node13" class="node">
<title>ValueVariant</title>
<ellipse fill="none" stroke="black" cx="889.13" cy="-444.24" rx="39.1" ry="21.6"/>
<text text-anchor="middle" x="889.13" y="-440.36" font-family="Helvetica,Arial,sans-serif" font-size="10.00">ValueVariant</text>
</g>
<!-- Enumeration&#45;&gt;ValueVariant -->
<g id="edge7" class="edge">
<title>Enumeration&#45;&gt;ValueVariant</title>
<path fill="none" stroke="black" d="M754.66,-430.5C781.51,-433.26 814.19,-436.63 840.5,-439.33"/>
<polygon fill="black" stroke="black" points="754.6,-430.49 748.22,-433.86 742.66,-429.27 749.04,-425.9 754.6,-430.49"/>
<polygon fill="black" stroke="black" points="850.24,-440.34 839.83,-443.79 845.27,-439.83 840.29,-439.31 840.29,-439.31 840.29,-439.31 845.27,-439.83 840.75,-434.84 850.24,-440.34 850.24,-440.34"/>
<text text-anchor="middle" x="796.03" y="-438.44" font-family="Helvetica,Arial,sans-serif" font-size="9.00" fill="darkgrey">hasVariant</text>
<text text-anchor="middle" x="848.36" y="-431.79" font-family="Helvetica,Arial,sans-serif" font-size="9.00" fill="darkgrey">*</text>
</g>
<!-- Event -->
<g id="node7" class="node">
<title>Event</title>
<ellipse fill="none" stroke="black" cx="36" cy="-278.24" rx="36" ry="21.6"/>
<text text-anchor="middle" x="36" y="-274.36" font-family="Helvetica,Arial,sans-serif" font-size="10.00">Event</text>
</g>
<!-- Event&#45;&gt;Entity -->
<g id="edge14" class="edge">
<title>Event&#45;&gt;Entity</title>
<path fill="none" stroke="black" d="M83.65,-269.66C105.07,-265.72 130.32,-261.08 151.33,-257.22"/>
<polygon fill="none" stroke="black" points="83.53,-269.68 78.35,-274.7 71.73,-271.85 76.91,-266.83 83.53,-269.68"/>
<polygon fill="black" stroke="black" points="160.96,-255.45 151.94,-261.68 156.05,-256.35 151.13,-257.26 151.13,-257.26 151.13,-257.26 156.05,-256.35 150.32,-252.83 160.96,-255.45 160.96,-255.45"/>
<text text-anchor="middle" x="115.88" y="-268.44" font-family="Helvetica,Arial,sans-serif" font-size="9.00" fill="darkgrey">eventSource</text>
</g>
<!-- Event&#45;&gt;Structure -->
<g id="edge13" class="edge">
<title>Event&#45;&gt;Structure</title>
<path fill="none" stroke="black" d="M72.05,-280.5C78.04,-280.81 84.2,-281.07 90,-281.24 112.99,-281.89 118.75,-281.36 141.75,-281.24 181.75,-281.01 191.98,-284.52 231.75,-280.24 268.97,-276.23 277.81,-271.8 314.25,-263.24 317.63,-262.44 321.13,-261.59 324.63,-260.71"/>
<polygon fill="none" stroke="black" points="325.27,-263.91 334.09,-258.04 323.53,-257.12 325.27,-263.91"/>
<text text-anchor="middle" x="195.75" y="-283.44" font-family="Helvetica,Arial,sans-serif" font-size="9.00" fill="darkgrey">rdfs:subClassOf</text>
</g>
<!-- Group -->
<g id="node8" class="node">
<title>Group</title>
<ellipse fill="none" stroke="grey" cx="526.5" cy="-193.24" rx="36" ry="21.6"/>
<text text-anchor="middle" x="526.5" y="-189.36" font-family="Helvetica,Arial,sans-serif" font-size="10.00" fill="grey">Group</text>
</g>
<!-- Group&#45;&gt;ModelElement -->
<g id="edge19" class="edge">
<title>Group&#45;&gt;ModelElement</title>
<path fill="none" stroke="black" d="M536.46,-172.08C554.08,-133.69 597.32,-53.77 663,-24.24 800.05,37.39 982.67,-35.62 1061.73,-73.81"/>
<polygon fill="none" stroke="black" points="1059.78,-77.24 1070.3,-78.5 1062.86,-70.96 1059.78,-77.24"/>
<text text-anchor="middle" x="796.03" y="-4.44" font-family="Helvetica,Arial,sans-serif" font-size="9.00" fill="darkgrey">rdfs:subClassOf</text>
</g>
<!-- Group&#45;&gt;Member -->
<g id="edge20" class="edge">
<title>Group&#45;&gt;Member</title>
<path fill="none" stroke="black" d="M573.42,-203.6C598.03,-211.43 626.92,-224.69 645,-246.49 666.54,-272.46 644.67,-291.91 663,-320.24 664.91,-323.19 667.21,-325.97 669.72,-328.55"/>
<polygon fill="black" stroke="black" points="573.41,-203.59 566.53,-205.75 561.89,-200.23 568.77,-198.07 573.41,-203.59"/>
<polygon fill="black" stroke="black" points="676.76,-334.95 666.33,-331.55 673.05,-331.58 669.35,-328.22 669.35,-328.22 669.35,-328.22 673.05,-331.58 672.38,-324.89 676.76,-334.95 676.76,-334.95"/>
<text text-anchor="middle" x="612.75" y="-247.44" font-family="Helvetica,Arial,sans-serif" font-size="9.00" fill="darkgrey">hasMember</text>
<text text-anchor="middle" x="678.63" y="-326.4" font-family="Helvetica,Arial,sans-serif" font-size="9.00" fill="darkgrey">*</text>
</g>
<!-- Member&#45;&gt;ModelElement -->
<g id="edge21" class="edge">
<title>Member&#45;&gt;ModelElement</title>
<path fill="none" stroke="black" d="M734.33,-339.56C760.81,-329.96 799.71,-314.86 832.03,-298.24 922,-251.96 946.32,-240.8 1024.22,-176.24 1043.65,-160.13 1063.06,-139.35 1077.49,-122.74"/>
<polygon fill="none" stroke="black" points="1080.72,-125.35 1084.56,-115.48 1075.4,-120.8 1080.72,-125.35"/>
<text text-anchor="middle" x="889.13" y="-288.44" font-family="Helvetica,Arial,sans-serif" font-size="9.00" fill="darkgrey">rdfs:subClassOf</text>
</g>
<!-- Member&#45;&gt;Cardinality -->
<g id="edge22" class="edge">
<title>Member&#45;&gt;Cardinality</title>
<path fill="none" stroke="black" d="M733.68,-375.94C741.74,-381.39 750.8,-386.36 760.03,-389.24 787.73,-397.87 820.39,-395.65 845.8,-391.38"/>
<polygon fill="black" stroke="black" points="733.77,-376.01 726.56,-375.68 724.1,-368.9 731.3,-369.23 733.77,-376.01"/>
<polygon fill="black" stroke="black" points="855.51,-389.6 846.49,-395.83 850.59,-390.5 845.68,-391.41 845.68,-391.41 845.68,-391.41 850.59,-390.5 844.86,-386.98 855.51,-389.6 855.51,-389.6"/>
<text text-anchor="middle" x="796.03" y="-395.44" font-family="Helvetica,Arial,sans-serif" font-size="9.00" fill="darkgrey">sourceCardinality</text>
<text text-anchor="middle" x="852.89" y="-381.05" font-family="Helvetica,Arial,sans-serif" font-size="9.00" fill="darkgrey">?</text>
</g>
<!-- Member&#45;&gt;Cardinality -->
<g id="edge24" class="edge">
<title>Member&#45;&gt;Cardinality</title>
<path fill="none" stroke="black" d="M749.95,-342.19C774.76,-339.55 805.55,-338.95 832.03,-346.49 841.09,-349.07 850.12,-353.58 858.2,-358.51"/>
<polygon fill="black" stroke="black" points="750.02,-342.18 744.56,-346.89 738.11,-343.66 743.57,-338.95 750.02,-342.18"/>
<polygon fill="black" stroke="black" points="866.56,-363.96 855.73,-362.26 862.37,-361.22 858.18,-358.49 858.18,-358.49 858.18,-358.49 862.37,-361.22 860.64,-354.72 866.56,-363.96 866.56,-363.96"/>
<text text-anchor="middle" x="796.03" y="-347.44" font-family="Helvetica,Arial,sans-serif" font-size="9.00" fill="darkgrey">targetCardinality</text>
<text text-anchor="middle" x="863.94" y="-355.41" font-family="Helvetica,Arial,sans-serif" font-size="9.00" fill="darkgrey">?</text>
</g>
<!-- Member&#45;&gt;Classifier -->
<g id="edge23" class="edge">
<title>Member&#45;&gt;Classifier</title>
<path fill="none" stroke="black" d="M736.82,-325.74C738.66,-323.95 740.41,-322.11 742.03,-320.24 752.63,-307.96 747.45,-298.73 760.03,-288.49 786.1,-267.25 804.79,-284.96 832.03,-265.24 849.1,-252.88 863.07,-233.75 872.8,-217.65"/>
<polygon fill="none" stroke="black" points="736.92,-325.65 735.04,-332.61 727.89,-333.56 729.77,-326.6 736.92,-325.65"/>
<polygon fill="black" stroke="black" points="877.76,-209.08 876.65,-219.99 875.26,-213.41 872.75,-217.73 872.75,-217.73 872.75,-217.73 875.26,-213.41 868.86,-215.48 877.76,-209.08 877.76,-209.08"/>
<text text-anchor="middle" x="796.03" y="-289.44" font-family="Helvetica,Arial,sans-serif" font-size="9.00" fill="darkgrey">targetClassifier</text>
</g>
<!-- Structure&#45;&gt;Classifier -->
<g id="edge8" class="edge">
<title>Structure&#45;&gt;Classifier</title>
<path fill="none" stroke="black" d="M387.95,-230.92C410.29,-210.29 449.79,-177.63 490.5,-162.24 632.56,-108.53 687.06,-105.97 832.03,-151.24 841.23,-154.11 850.34,-158.99 858.46,-164.27"/>
<polygon fill="none" stroke="black" points="856.27,-167.71 866.47,-170.57 860.28,-161.97 856.27,-167.71"/>
<text text-anchor="middle" x="612.75" y="-133.44" font-family="Helvetica,Arial,sans-serif" font-size="9.00" fill="darkgrey">rdfs:subClassOf</text>
</g>
<!-- Structure&#45;&gt;Group -->
<g id="edge9" class="edge">
<title>Structure&#45;&gt;Group</title>
<path fill="none" stroke="black" d="M411.69,-234.03C434.76,-225.76 463.12,-215.59 485.76,-207.48"/>
<polygon fill="black" stroke="black" points="411.89,-233.95 407.59,-239.74 400.6,-238 404.89,-232.21 411.89,-233.95"/>
<polygon fill="black" stroke="black" points="495.08,-204.14 487.18,-211.75 490.37,-205.83 485.67,-207.51 485.67,-207.51 485.67,-207.51 490.37,-205.83 484.15,-203.28 495.08,-204.14 495.08,-204.14"/>
<text text-anchor="middle" x="447.38" y="-230.44" font-family="Helvetica,Arial,sans-serif" font-size="9.00" fill="darkgrey">hasGroup</text>
<text text-anchor="middle" x="493.2" y="-195.59" font-family="Helvetica,Arial,sans-serif" font-size="9.00" fill="darkgrey">*</text>
</g>
<!-- Structure&#45;&gt;Member -->
<g id="edge10" class="edge">
<title>Structure&#45;&gt;Member</title>
<path fill="none" stroke="black" d="M413.18,-262.59C477.95,-282.28 598.19,-318.83 660.97,-337.91"/>
<polygon fill="black" stroke="black" points="413.15,-262.58 406.25,-264.66 401.67,-259.09 408.57,-257.01 413.15,-262.58"/>
<polygon fill="black" stroke="black" points="670.17,-340.71 659.29,-342.1 665.38,-339.25 660.6,-337.8 660.6,-337.8 660.6,-337.8 665.38,-339.25 661.91,-333.49 670.17,-340.71 670.17,-340.71"/>
<text text-anchor="middle" x="526.5" y="-307.44" font-family="Helvetica,Arial,sans-serif" font-size="9.00" fill="darkgrey">hasMember</text>
<text text-anchor="middle" x="672.04" y="-339.47" font-family="Helvetica,Arial,sans-serif" font-size="9.00" fill="darkgrey">*</text>
</g>
<!-- Union -->
<g id="node11" class="node">
<title>Union</title>
<ellipse fill="none" stroke="black" cx="702.51" cy="-289.24" rx="36" ry="21.6"/>
<text text-anchor="middle" x="702.51" y="-285.36" font-family="Helvetica,Arial,sans-serif" font-size="10.00">Union</text>
</g>
<!-- Union&#45;&gt;Classifier -->
<g id="edge15" class="edge">
<title>Union&#45;&gt;Classifier</title>
<path fill="none" stroke="black" d="M727.62,-273.2C737.41,-267.13 749,-260.49 760.03,-255.49 790.66,-241.61 802.34,-248.03 832.03,-232.24 841.76,-227.06 851.51,-220.16 860.09,-213.36"/>
<polygon fill="none" stroke="black" points="862.06,-215.45 867.56,-206.39 857.61,-210.05 862.06,-215.45"/>
<text text-anchor="middle" x="796.03" y="-256.44" font-family="Helvetica,Arial,sans-serif" font-size="9.00" fill="darkgrey">rdfs:subClassOf</text>
</g>
<!-- Union&#45;&gt;Classifier -->
<g id="edge16" class="edge">
<title>Union&#45;&gt;Classifier</title>
<path fill="none" stroke="black" d="M736.34,-264.59C738.37,-262.54 740.29,-260.42 742.03,-258.24 753.38,-244.03 745.94,-232.99 760.03,-221.49 766.8,-215.96 810.79,-205.25 845.36,-197.48"/>
<polygon fill="none" stroke="black" points="736.58,-264.37 734.82,-271.37 727.69,-272.43 729.45,-265.44 736.58,-264.37"/>
<polygon fill="black" stroke="black" points="854.82,-195.37 846.04,-201.94 849.94,-196.46 845.06,-197.54 845.06,-197.54 845.06,-197.54 849.94,-196.46 844.08,-193.15 854.82,-195.37 854.82,-195.37"/>
<text text-anchor="middle" x="796.03" y="-222.44" font-family="Helvetica,Arial,sans-serif" font-size="9.00" fill="darkgrey">variantType</text>
<text text-anchor="middle" x="852.19" y="-196.57" font-family="Helvetica,Arial,sans-serif" font-size="9.00" fill="darkgrey">+</text>
</g>
<!-- Property -->
<g id="node12" class="node">
<title>Property</title>
<ellipse fill="none" stroke="black" cx="526.5" cy="-254.24" rx="36" ry="21.6"/>
<text text-anchor="middle" x="526.5" y="-250.36" font-family="Helvetica,Arial,sans-serif" font-size="10.00">Property</text>
</g>
<!-- Property&#45;&gt;Classifier -->
<g id="edge17" class="edge">
<title>Property&#45;&gt;Classifier</title>
<path fill="none" stroke="black" d="M548.77,-237.05C553.44,-233 558.25,-228.59 562.5,-224.24 571.33,-215.2 570.69,-210.2 580.5,-202.24 612.57,-176.22 622.88,-169.26 663,-159.49 726.26,-144.07 801.66,-160.54 847.16,-174.15"/>
<polygon fill="none" stroke="black" points="845.92,-177.74 856.51,-177.35 847.99,-171.05 845.92,-177.74"/>
<text text-anchor="middle" x="702.51" y="-160.44" font-family="Helvetica,Arial,sans-serif" font-size="9.00" fill="darkgrey">rdfs:subClassOf</text>
</g>
<!-- Property&#45;&gt;Member -->
<g id="edge18" class="edge">
<title>Property&#45;&gt;Member</title>
<path fill="none" stroke="black" d="M562.57,-257.43C587.77,-261.28 621.34,-269.77 645,-288.49 657.72,-298.55 652.4,-307.96 663,-320.24 665.03,-322.58 667.26,-324.87 669.6,-327.07"/>
<polygon fill="none" stroke="black" points="666.96,-330.27 676.82,-334.15 671.53,-324.97 666.96,-330.27"/>
<text text-anchor="middle" x="612.75" y="-289.44" font-family="Helvetica,Arial,sans-serif" font-size="9.00" fill="darkgrey">role</text>
</g>
<!-- ValueVariant&#45;&gt;integer -->
<g id="edge27" class="edge">
<title>ValueVariant&#45;&gt;integer</title>
<path fill="none" stroke="black" d="M939.4,-436.53C967.06,-432.2 1002.01,-426.73 1032.32,-421.98"/>
<polygon fill="black" stroke="black" points="939.6,-436.49 934.29,-441.37 927.74,-438.35 933.05,-433.47 939.6,-436.49"/>
<polygon fill="black" stroke="black" points="1041.99,-420.47 1032.8,-426.46 1037.05,-421.24 1032.11,-422.02 1032.11,-422.02 1032.11,-422.02 1037.05,-421.24 1031.41,-417.57 1041.99,-420.47 1041.99,-420.47"/>
<text text-anchor="middle" x="985.22" y="-436.44" font-family="Helvetica,Arial,sans-serif" font-size="9.00" fill="darkgrey">hasValue</text>
</g>
<!-- Datatype -->
<g id="node14" class="node">
<title>Datatype</title>
<ellipse fill="none" stroke="black" cx="702.51" cy="-200.24" rx="36" ry="21.6"/>
<text text-anchor="middle" x="702.51" y="-196.36" font-family="Helvetica,Arial,sans-serif" font-size="10.00">Datatype</text>
</g>
<!-- Datatype&#45;&gt;Classifier -->
<g id="edge4" class="edge">
<title>Datatype&#45;&gt;Classifier</title>
<path fill="none" stroke="black" d="M736.84,-192.88C744.43,-191.49 752.48,-190.24 760.03,-189.49 787.19,-186.79 817.74,-186.39 842.19,-186.71"/>
<polygon fill="none" stroke="black" points="841.91,-190.22 851.97,-186.9 842.03,-183.22 841.91,-190.22"/>
<text text-anchor="middle" x="796.03" y="-190.44" font-family="Helvetica,Arial,sans-serif" font-size="9.00" fill="darkgrey">rdfs:subClassOf</text>
</g>
<!-- Datatype&#45;&gt;Datatype -->
<g id="edge5" class="edge">
<title>Datatype&#45;&gt;Datatype</title>
<path fill="none" stroke="black" stroke-dasharray="5,2" d="M686.38,-219.8C683.64,-230.28 689.02,-239.84 702.51,-239.84 710.95,-239.84 716.22,-236.1 718.31,-230.75"/>
<polygon fill="none" stroke="black" points="721.84,-230.9 718.65,-220.8 714.84,-230.68 721.84,-230.9"/>
<text text-anchor="middle" x="702.51" y="-241.04" font-family="Helvetica,Arial,sans-serif" font-size="9.00" fill="darkgrey">baseDatatype</text>
</g>
</g>
</svg>
