<?xml version="1.0" encoding="UTF-8" standalone="no"?>
<!DOCTYPE svg PUBLIC "-//W3C//DTD SVG 1.1//EN"
 "http://www.w3.org/Graphics/SVG/1.1/DTD/svg11.dtd">
<!-- Generated by graphviz version 8.0.5 (20230430.1635)
 -->
<!-- Title: G Pages: 1 -->
<svg width="1171pt" height="474pt"
 viewBox="0.00 0.00 1171.40 473.96" xmlns="http://www.w3.org/2000/svg" xmlns:xlink="http://www.w3.org/1999/xlink">
<g id="graph0" class="graph" transform="scale(1 1) rotate(0) translate(4 469.96)">
<title>G</title>
<!-- ModelElement -->
<g id="node1" class="node">
<title>ModelElement</title>
<ellipse fill="none" stroke="grey" cx="1103.65" cy="-94.36" rx="43.7" ry="21.6"/>
<text text-anchor="middle" x="1103.65" y="-90.48" font-family="Helvetica,Arial,sans-serif" font-size="10.00" fill="grey">ModelElement</text>
</g>
<!-- Module -->
<g id="node2" class="node">
<title>Module</title>
<ellipse fill="none" stroke="blue" stroke-width="2" cx="702.51" cy="-55.36" rx="36" ry="21.6"/>
<text text-anchor="middle" x="702.51" y="-51.48" font-family="Helvetica,Arial,sans-serif" font-size="10.00" fill="blue">Module</text>
</g>
<!-- Module&#45;&gt;ModelElement -->
<g id="edge1" class="edge">
<title>Module&#45;&gt;ModelElement</title>
<path fill="none" stroke="black" d="M739.27,-57.86C765.07,-59.74 800.72,-62.46 832.03,-65.36 907.96,-72.38 995.7,-82.07 1050.19,-88.28"/>
<polygon fill="none" stroke="black" points="1049.63,-91.85 1059.96,-89.51 1050.42,-84.9 1049.63,-91.85"/>
<text text-anchor="middle" x="889.96" y="-76.56" font-family="Helvetica,Arial,sans-serif" font-size="9.00" fill="darkgrey">rdfs:subClassOf</text>
</g>
<!-- Classifier -->
<g id="node4" class="node">
<title>Classifier</title>
<ellipse fill="none" stroke="grey" cx="889.96" cy="-188.36" rx="36" ry="21.6"/>
<text text-anchor="middle" x="889.96" y="-184.48" font-family="Helvetica,Arial,sans-serif" font-size="10.00" fill="grey">Classifier</text>
</g>
<!-- Module&#45;&gt;Classifier -->
<g id="edge2" class="edge">
<title>Module&#45;&gt;Classifier</title>
<path fill="none" stroke="black" d="M751.17,-62.45C782.23,-67.84 819.28,-75.96 832.03,-85.61 855.65,-103.49 870.79,-134.16 879.48,-157.35"/>
<polygon fill="black" stroke="black" points="751.04,-62.43 744.47,-65.39 739.21,-60.46 745.78,-57.5 751.04,-62.43"/>
<polygon fill="black" stroke="black" points="882.81,-166.77 875.23,-158.84 881.14,-162.05 879.47,-157.34 879.47,-157.34 879.47,-157.34 881.14,-162.05 883.72,-155.84 882.81,-166.77 882.81,-166.77"/>
<text text-anchor="middle" x="796.03" y="-87.56" font-family="Helvetica,Arial,sans-serif" font-size="9.00" fill="darkgrey">hasDefinition</text>
<text text-anchor="middle" x="880.93" y="-158.22" font-family="Helvetica,Arial,sans-serif" font-size="9.00" fill="darkgrey">*</text>
</g>
<!-- Cardinality -->
<g id="node3" class="node">
<title>Cardinality</title>
<ellipse fill="none" stroke="black" cx="889.96" cy="-381.36" rx="36" ry="21.6"/>
<text text-anchor="middle" x="889.96" y="-377.48" font-family="Helvetica,Arial,sans-serif" font-size="10.00">Cardinality</text>
</g>
<!-- integer -->
<g id="node15" class="node">
<title>integer</title>
<polygon fill="lightgrey" stroke="lightgrey" points="1163.4,-432.96 1043.9,-432.96 1043.9,-389.76 1163.4,-389.76 1163.4,-432.96"/>
<text text-anchor="middle" x="1103.65" y="-407.48" font-family="Helvetica,Arial,sans-serif" font-size="10.00">xsd:nonNegativeInteger</text>
</g>
<!-- Cardinality&#45;&gt;integer -->
<g id="edge25" class="edge">
<title>Cardinality&#45;&gt;integer</title>
<path fill="none" stroke="black" d="M938.66,-375.94C964.68,-374.18 997.33,-373.93 1025.9,-379.61 1033.36,-381.09 1041,-383.31 1048.43,-385.9"/>
<polygon fill="black" stroke="black" points="938.57,-375.95 932.91,-380.41 926.61,-376.9 932.27,-372.44 938.57,-375.95"/>
<polygon fill="black" stroke="black" points="1057.71,-389.35 1046.77,-390.08 1053.02,-387.61 1048.34,-385.86 1048.34,-385.86 1048.34,-385.86 1053.02,-387.61 1049.9,-381.64 1057.71,-389.35 1057.71,-389.35"/>
<text text-anchor="middle" x="986.9" y="-380.56" font-family="Helvetica,Arial,sans-serif" font-size="9.00" fill="darkgrey">owl:maxCardinality</text>
<text text-anchor="middle" x="1055.08" y="-380.8" font-family="Helvetica,Arial,sans-serif" font-size="9.00" fill="darkgrey">?</text>
</g>
<!-- Cardinality&#45;&gt;integer -->
<g id="edge26" class="edge">
<title>Cardinality&#45;&gt;integer</title>
<path fill="none" stroke="black" d="M938.15,-388.05C966.41,-392.05 1002.82,-397.21 1034.2,-401.66"/>
<polygon fill="black" stroke="black" points="938.22,-388.06 931.72,-391.18 926.34,-386.37 932.84,-383.25 938.22,-388.06"/>
<polygon fill="black" stroke="black" points="1043.77,-403.01 1033.23,-406.07 1038.82,-402.31 1033.87,-401.61 1033.87,-401.61 1033.87,-401.61 1038.82,-402.31 1034.5,-397.16 1043.77,-403.01 1043.77,-403.01"/>
<text text-anchor="middle" x="986.9" y="-400.56" font-family="Helvetica,Arial,sans-serif" font-size="9.00" fill="darkgrey">owl:minCardinality</text>
</g>
<!-- Classifier&#45;&gt;ModelElement -->
<g id="edge3" class="edge">
<title>Classifier&#45;&gt;ModelElement</title>
<path fill="none" stroke="black" d="M919.51,-175.68C955.79,-159.57 1018.72,-131.63 1060.52,-113.07"/>
<polygon fill="none" stroke="black" points="1061.68,-115.94 1069.4,-108.68 1058.84,-109.54 1061.68,-115.94"/>
<text text-anchor="middle" x="986.9" y="-161.56" font-family="Helvetica,Arial,sans-serif" font-size="9.00" fill="darkgrey">rdfs:subClassOf</text>
</g>
<!-- Entity -->
<g id="node5" class="node">
<title>Entity</title>
<ellipse fill="none" stroke="black" cx="195.75" cy="-249.36" rx="36" ry="21.6"/>
<text text-anchor="middle" x="195.75" y="-245.48" font-family="Helvetica,Arial,sans-serif" font-size="10.00">Entity</text>
</g>
<!-- Member -->
<g id="node9" class="node">
<title>Member</title>
<ellipse fill="none" stroke="grey" cx="702.51" cy="-350.36" rx="36" ry="21.6"/>
<text text-anchor="middle" x="702.51" y="-346.48" font-family="Helvetica,Arial,sans-serif" font-size="10.00" fill="grey">Member</text>
</g>
<!-- Entity&#45;&gt;Member -->
<g id="edge12" class="edge">
<title>Entity&#45;&gt;Member</title>
<path fill="none" stroke="black" d="M241.18,-261.79C312.23,-281.14 456.1,-318.12 580.5,-336.36 605.66,-340.05 633.87,-343.36 656.72,-345.83"/>
<polygon fill="black" stroke="black" points="241.22,-261.81 234.38,-264.08 229.65,-258.63 236.49,-256.36 241.22,-261.81"/>
<polygon fill="black" stroke="black" points="666.49,-346.88 656.07,-350.29 661.52,-346.35 656.55,-345.82 656.55,-345.82 656.55,-345.82 661.52,-346.35 657.02,-341.34 666.49,-346.88 666.49,-346.88"/>
<text text-anchor="middle" x="447.37" y="-317.56" font-family="Helvetica,Arial,sans-serif" font-size="9.00" fill="darkgrey">hasIdentifier</text>
<text text-anchor="middle" x="663.87" y="-338.33" font-family="Helvetica,Arial,sans-serif" font-size="9.00" fill="darkgrey">1</text>
</g>
<!-- Structure -->
<g id="node10" class="node">
<title>Structure</title>
<ellipse fill="none" stroke="black" cx="368.25" cy="-249.36" rx="36" ry="21.6"/>
<text text-anchor="middle" x="368.25" y="-245.48" font-family="Helvetica,Arial,sans-serif" font-size="10.00">Structure</text>
</g>
<!-- Entity&#45;&gt;Structure -->
<g id="edge11" class="edge">
<title>Entity&#45;&gt;Structure</title>
<path fill="none" stroke="black" d="M232.08,-249.36C257.91,-249.36 293.19,-249.36 321.22,-249.36"/>
<polygon fill="none" stroke="black" points="320.97,-252.86 330.97,-249.36 320.97,-245.86 320.97,-252.86"/>
<text text-anchor="middle" x="282" y="-250.56" font-family="Helvetica,Arial,sans-serif" font-size="9.00" fill="darkgrey">rdfs:subClassOf</text>
</g>
<!-- Enumeration -->
<g id="node6" class="node">
<title>Enumeration</title>
<ellipse fill="none" stroke="black" cx="702.51" cy="-425.36" rx="39.51" ry="21.6"/>
<text text-anchor="middle" x="702.51" y="-421.48" font-family="Helvetica,Arial,sans-serif" font-size="10.00">Enumeration</text>
</g>
<!-- Enumeration&#45;&gt;Classifier -->
<g id="edge6" class="edge">
<title>Enumeration&#45;&gt;Classifier</title>
<path fill="none" stroke="black" d="M722.52,-406.41C732.89,-396.96 746.36,-385.99 760.03,-378.61 789.5,-362.69 808.75,-380.44 832.03,-356.36 853.17,-334.5 840.6,-319.26 850.03,-290.36 857.86,-266.38 868.07,-239.77 876.07,-219.74"/>
<polygon fill="none" stroke="black" points="879.65,-221.21 880.14,-210.63 873.16,-218.6 879.65,-221.21"/>
<text text-anchor="middle" x="796.03" y="-379.56" font-family="Helvetica,Arial,sans-serif" font-size="9.00" fill="darkgrey">rdfs:subClassOf</text>
</g>
<!-- EnumVariant -->
<g id="node13" class="node">
<title>EnumVariant</title>
<ellipse fill="none" stroke="black" cx="889.96" cy="-444.36" rx="39.93" ry="21.6"/>
<text text-anchor="middle" x="889.96" y="-440.48" font-family="Helvetica,Arial,sans-serif" font-size="10.00">EnumVariant</text>
</g>
<!-- Enumeration&#45;&gt;EnumVariant -->
<g id="edge7" class="edge">
<title>Enumeration&#45;&gt;EnumVariant</title>
<path fill="none" stroke="black" d="M754.39,-430.57C781.27,-433.33 814.09,-436.69 840.58,-439.4"/>
<polygon fill="black" stroke="black" points="754.32,-430.57 747.95,-433.93 742.39,-429.34 748.76,-425.97 754.32,-430.57"/>
<polygon fill="black" stroke="black" points="850.4,-440.41 839.99,-443.87 845.43,-439.9 840.45,-439.39 840.45,-439.39 840.45,-439.39 845.43,-439.9 840.91,-434.91 850.4,-440.41 850.4,-440.41"/>
<text text-anchor="middle" x="796.03" y="-438.56" font-family="Helvetica,Arial,sans-serif" font-size="9.00" fill="darkgrey">hasVariant</text>
<text text-anchor="middle" x="848.53" y="-441.61" font-family="Helvetica,Arial,sans-serif" font-size="9.00" fill="darkgrey">*</text>
</g>
<!-- Event -->
<g id="node7" class="node">
<title>Event</title>
<ellipse fill="none" stroke="black" cx="36" cy="-278.36" rx="36" ry="21.6"/>
<text text-anchor="middle" x="36" y="-274.48" font-family="Helvetica,Arial,sans-serif" font-size="10.00">Event</text>
</g>
<!-- Event&#45;&gt;Entity -->
<g id="edge14" class="edge">
<title>Event&#45;&gt;Entity</title>
<path fill="none" stroke="black" d="M83.65,-269.78C105.07,-265.85 130.32,-261.2 151.33,-257.34"/>
<polygon fill="none" stroke="black" points="83.53,-269.81 78.35,-274.82 71.73,-271.98 76.91,-266.96 83.53,-269.81"/>
<polygon fill="black" stroke="black" points="160.96,-255.57 151.94,-261.8 156.05,-256.47 151.13,-257.38 151.13,-257.38 151.13,-257.38 156.05,-256.47 150.32,-252.95 160.96,-255.57 160.96,-255.57"/>
<text text-anchor="middle" x="115.88" y="-268.56" font-family="Helvetica,Arial,sans-serif" font-size="9.00" fill="darkgrey">eventSource</text>
</g>
<!-- Event&#45;&gt;Structure -->
<g id="edge13" class="edge">
<title>Event&#45;&gt;Structure</title>
<path fill="none" stroke="black" d="M72.05,-280.62C78.04,-280.93 84.2,-281.2 90,-281.36 112.99,-282.01 118.75,-281.49 141.75,-281.36 181.75,-281.14 191.98,-284.64 231.75,-280.36 268.97,-276.36 277.81,-271.92 314.25,-263.36 317.63,-262.57 321.13,-261.71 324.63,-260.83"/>
<polygon fill="none" stroke="black" points="325.27,-264.03 334.09,-258.16 323.53,-257.25 325.27,-264.03"/>
<text text-anchor="middle" x="195.75" y="-283.56" font-family="Helvetica,Arial,sans-serif" font-size="9.00" fill="darkgrey">rdfs:subClassOf</text>
</g>
<!-- Group -->
<g id="node8" class="node">
<title>Group</title>
<ellipse fill="none" stroke="grey" cx="526.5" cy="-193.36" rx="36" ry="21.6"/>
<text text-anchor="middle" x="526.5" y="-189.48" font-family="Helvetica,Arial,sans-serif" font-size="10.00" fill="grey">Group</text>
</g>
<!-- Group&#45;&gt;ModelElement -->
<g id="edge19" class="edge">
<title>Group&#45;&gt;ModelElement</title>
<path fill="none" stroke="black" d="M536.46,-172.21C554.08,-133.81 597.32,-53.89 663,-24.36 800.56,37.5 983.88,-35.63 1063.26,-73.89"/>
<polygon fill="none" stroke="black" points="1061.34,-77.34 1071.86,-78.6 1064.42,-71.05 1061.34,-77.34"/>
<text text-anchor="middle" x="796.03" y="-4.56" font-family="Helvetica,Arial,sans-serif" font-size="9.00" fill="darkgrey">rdfs:subClassOf</text>
</g>
<!-- Group&#45;&gt;Member -->
<g id="edge20" class="edge">
<title>Group&#45;&gt;Member</title>
<path fill="none" stroke="black" d="M573.42,-203.72C598.03,-211.55 626.92,-224.81 645,-246.61 666.54,-272.58 644.67,-292.03 663,-320.36 664.91,-323.31 667.21,-326.09 669.72,-328.68"/>
<polygon fill="black" stroke="black" points="573.41,-203.71 566.53,-205.87 561.89,-200.35 568.77,-198.19 573.41,-203.71"/>
<polygon fill="black" stroke="black" points="676.76,-335.07 666.33,-331.68 673.05,-331.71 669.35,-328.34 669.35,-328.34 669.35,-328.34 673.05,-331.71 672.38,-325.01 676.76,-335.07 676.76,-335.07"/>
<text text-anchor="middle" x="612.75" y="-247.56" font-family="Helvetica,Arial,sans-serif" font-size="9.00" fill="darkgrey">hasMember</text>
<text text-anchor="middle" x="674.88" y="-326.52" font-family="Helvetica,Arial,sans-serif" font-size="9.00" fill="darkgrey">*</text>
</g>
<!-- Member&#45;&gt;ModelElement -->
<g id="edge21" class="edge">
<title>Member&#45;&gt;ModelElement</title>
<path fill="none" stroke="black" d="M734.34,-339.71C760.83,-330.13 799.74,-315.04 832.03,-298.36 922.9,-251.42 946.86,-239.27 1025.9,-174.36 1045.02,-158.65 1064.3,-138.54 1078.75,-122.41"/>
<polygon fill="none" stroke="black" points="1080.84,-125.2 1084.84,-115.39 1075.6,-120.56 1080.84,-125.2"/>
<text text-anchor="middle" x="889.96" y="-288.56" font-family="Helvetica,Arial,sans-serif" font-size="9.00" fill="darkgrey">rdfs:subClassOf</text>
</g>
<!-- Member&#45;&gt;Cardinality -->
<g id="edge22" class="edge">
<title>Member&#45;&gt;Cardinality</title>
<path fill="none" stroke="black" d="M733.68,-376.07C741.74,-381.51 750.8,-386.48 760.03,-389.36 788.01,-398.08 821.01,-395.81 846.62,-391.5"/>
<polygon fill="black" stroke="black" points="733.77,-376.13 726.56,-375.8 724.1,-369.03 731.3,-369.36 733.77,-376.13"/>
<polygon fill="black" stroke="black" points="856.4,-389.7 847.38,-395.94 851.49,-390.61 846.57,-391.51 846.57,-391.51 846.57,-391.51 851.49,-390.61 845.75,-387.09 856.4,-389.7 856.4,-389.7"/>
<text text-anchor="middle" x="796.03" y="-395.56" font-family="Helvetica,Arial,sans-serif" font-size="9.00" fill="darkgrey">sourceCardinality</text>
<text text-anchor="middle" x="853.78" y="-381.15" font-family="Helvetica,Arial,sans-serif" font-size="9.00" fill="darkgrey">?</text>
</g>
<!-- Member&#45;&gt;Cardinality -->
<g id="edge24" class="edge">
<title>Member&#45;&gt;Cardinality</title>
<path fill="none" stroke="black" d="M749.93,-342.38C774.73,-339.76 805.53,-339.16 832.03,-346.61 841.38,-349.24 850.71,-353.87 859.04,-358.92"/>
<polygon fill="black" stroke="black" points="750,-342.37 744.54,-347.08 738.1,-343.84 743.56,-339.14 750,-342.37"/>
<polygon fill="black" stroke="black" points="867.31,-364.26 856.47,-362.61 863.11,-361.55 858.91,-358.83 858.91,-358.83 858.91,-358.83 863.11,-361.55 861.35,-355.05 867.31,-364.26 867.31,-364.26"/>
<text text-anchor="middle" x="796.03" y="-347.56" font-family="Helvetica,Arial,sans-serif" font-size="9.00" fill="darkgrey">targetCardinality</text>
<text text-anchor="middle" x="864.68" y="-355.71" font-family="Helvetica,Arial,sans-serif" font-size="9.00" fill="darkgrey">?</text>
</g>
<!-- Member&#45;&gt;Classifier -->
<g id="edge23" class="edge">
<title>Member&#45;&gt;Classifier</title>
<path fill="none" stroke="black" d="M736.82,-325.86C738.66,-324.07 740.41,-322.24 742.03,-320.36 752.63,-308.08 747.45,-298.86 760.03,-288.61 786.1,-267.37 804.72,-284.99 832.03,-265.36 849.23,-253 863.41,-233.87 873.32,-217.77"/>
<polygon fill="none" stroke="black" points="736.92,-325.77 735.04,-332.74 727.89,-333.68 729.77,-326.72 736.92,-325.77"/>
<polygon fill="black" stroke="black" points="878.37,-209.2 877.17,-220.1 875.83,-213.51 873.29,-217.81 873.29,-217.81 873.29,-217.81 875.83,-213.51 869.42,-215.53 878.37,-209.2 878.37,-209.2"/>
<text text-anchor="middle" x="796.03" y="-289.56" font-family="Helvetica,Arial,sans-serif" font-size="9.00" fill="darkgrey">targetClassifier</text>
</g>
<!-- Structure&#45;&gt;Classifier -->
<g id="edge8" class="edge">
<title>Structure&#45;&gt;Classifier</title>
<path fill="none" stroke="black" d="M387.95,-231.04C410.29,-210.41 449.79,-177.75 490.5,-162.36 632.56,-108.66 686.91,-106.59 832.03,-151.36 841.52,-154.29 850.94,-159.3 859.29,-164.7"/>
<polygon fill="none" stroke="black" points="857.01,-168.07 867.23,-170.88 860.99,-162.32 857.01,-168.07"/>
<text text-anchor="middle" x="612.75" y="-133.56" font-family="Helvetica,Arial,sans-serif" font-size="9.00" fill="darkgrey">rdfs:subClassOf</text>
</g>
<!-- Structure&#45;&gt;Group -->
<g id="edge9" class="edge">
<title>Structure&#45;&gt;Group</title>
<path fill="none" stroke="black" d="M411.69,-234.15C434.76,-225.88 463.12,-215.72 485.76,-207.6"/>
<polygon fill="black" stroke="black" points="411.89,-234.08 407.59,-239.87 400.6,-238.13 404.89,-232.34 411.89,-234.08"/>
<polygon fill="black" stroke="black" points="495.08,-204.26 487.18,-211.87 490.37,-205.95 485.67,-207.64 485.67,-207.64 485.67,-207.64 490.37,-205.95 484.15,-203.4 495.08,-204.26 495.08,-204.26"/>
<text text-anchor="middle" x="447.37" y="-230.56" font-family="Helvetica,Arial,sans-serif" font-size="9.00" fill="darkgrey">hasGroup</text>
<text text-anchor="middle" x="493.2" y="-195.71" font-family="Helvetica,Arial,sans-serif" font-size="9.00" fill="darkgrey">*</text>
</g>
<!-- Structure&#45;&gt;Member -->
<g id="edge10" class="edge">
<title>Structure&#45;&gt;Member</title>
<path fill="none" stroke="black" d="M413.18,-262.71C477.95,-282.4 598.19,-318.95 660.97,-338.03"/>
<polygon fill="black" stroke="black" points="413.15,-262.7 406.25,-264.79 401.67,-259.21 408.57,-257.13 413.15,-262.7"/>
<polygon fill="black" stroke="black" points="670.17,-340.83 659.29,-342.23 665.38,-339.38 660.6,-337.92 660.6,-337.92 660.6,-337.92 665.38,-339.38 661.91,-333.62 670.17,-340.83 670.17,-340.83"/>
<text text-anchor="middle" x="526.5" y="-307.56" font-family="Helvetica,Arial,sans-serif" font-size="9.00" fill="darkgrey">hasMember</text>
<text text-anchor="middle" x="668.29" y="-332.28" font-family="Helvetica,Arial,sans-serif" font-size="9.00" fill="darkgrey">*</text>
</g>
<!-- Union -->
<g id="node11" class="node">
<title>Union</title>
<ellipse fill="none" stroke="black" cx="702.51" cy="-289.36" rx="36" ry="21.6"/>
<text text-anchor="middle" x="702.51" y="-285.48" font-family="Helvetica,Arial,sans-serif" font-size="10.00">Union</text>
</g>
<!-- Union&#45;&gt;Classifier -->
<g id="edge15" class="edge">
<title>Union&#45;&gt;Classifier</title>
<path fill="none" stroke="black" d="M727.62,-273.33C737.41,-267.25 749,-260.61 760.03,-255.61 790.66,-241.73 802.28,-248.04 832.03,-232.36 842.06,-227.07 852.13,-220.01 860.96,-213.08"/>
<polygon fill="none" stroke="black" points="862.77,-215.31 868.32,-206.28 858.35,-209.88 862.77,-215.31"/>
<text text-anchor="middle" x="796.03" y="-256.56" font-family="Helvetica,Arial,sans-serif" font-size="9.00" fill="darkgrey">rdfs:subClassOf</text>
</g>
<!-- Union&#45;&gt;Classifier -->
<g id="edge16" class="edge">
<title>Union&#45;&gt;Classifier</title>
<path fill="none" stroke="black" d="M736.34,-264.71C738.37,-262.66 740.29,-260.54 742.03,-258.36 753.38,-244.15 745.93,-233.1 760.03,-221.61 766.85,-216.05 811.13,-205.35 845.92,-197.59"/>
<polygon fill="none" stroke="black" points="736.58,-264.5 734.82,-271.49 727.69,-272.55 729.45,-265.56 736.58,-264.5"/>
<polygon fill="black" stroke="black" points="855.44,-195.48 846.65,-202.03 850.56,-196.56 845.68,-197.64 845.68,-197.64 845.68,-197.64 850.56,-196.56 844.7,-193.25 855.44,-195.48 855.44,-195.48"/>
<text text-anchor="middle" x="796.03" y="-222.56" font-family="Helvetica,Arial,sans-serif" font-size="9.00" fill="darkgrey">variantType</text>
<text text-anchor="middle" x="852.82" y="-196.68" font-family="Helvetica,Arial,sans-serif" font-size="9.00" fill="darkgrey">+</text>
</g>
<!-- Property -->
<g id="node12" class="node">
<title>Property</title>
<ellipse fill="none" stroke="black" cx="526.5" cy="-254.36" rx="36" ry="21.6"/>
<text text-anchor="middle" x="526.5" y="-250.48" font-family="Helvetica,Arial,sans-serif" font-size="10.00">Property</text>
</g>
<!-- Property&#45;&gt;Classifier -->
<g id="edge17" class="edge">
<title>Property&#45;&gt;Classifier</title>
<path fill="none" stroke="black" d="M548.77,-237.17C553.44,-233.12 558.25,-228.71 562.5,-224.36 571.33,-215.32 570.69,-210.32 580.5,-202.36 612.57,-176.34 622.88,-169.39 663,-159.61 726.49,-144.14 802.17,-160.62 847.85,-174.25"/>
<polygon fill="none" stroke="black" points="846.64,-177.85 857.23,-177.45 848.71,-171.16 846.64,-177.85"/>
<text text-anchor="middle" x="702.51" y="-160.56" font-family="Helvetica,Arial,sans-serif" font-size="9.00" fill="darkgrey">rdfs:subClassOf</text>
</g>
<!-- Property&#45;&gt;Member -->
<g id="edge18" class="edge">
<title>Property&#45;&gt;Member</title>
<path fill="none" stroke="black" d="M562.57,-257.55C587.77,-261.4 621.34,-269.89 645,-288.61 657.72,-298.67 652.4,-308.08 663,-320.36 665.03,-322.7 667.26,-324.99 669.6,-327.19"/>
<polygon fill="none" stroke="black" points="666.96,-330.4 676.82,-334.27 671.53,-325.09 666.96,-330.4"/>
<text text-anchor="middle" x="612.75" y="-289.56" font-family="Helvetica,Arial,sans-serif" font-size="9.00" fill="darkgrey">role</text>
</g>
<!-- EnumVariant&#45;&gt;integer -->
<g id="edge27" class="edge">
<title>EnumVariant&#45;&gt;integer</title>
<path fill="none" stroke="black" d="M941.38,-436.5C969.07,-432.18 1003.81,-426.77 1033.94,-422.07"/>
<polygon fill="black" stroke="black" points="941.56,-436.47 936.24,-441.35 929.7,-438.32 935.01,-433.44 941.56,-436.47"/>
<polygon fill="black" stroke="black" points="1043.55,-420.57 1034.36,-426.56 1038.61,-421.34 1033.67,-422.11 1033.67,-422.11 1033.67,-422.11 1038.61,-421.34 1032.98,-417.67 1043.55,-420.57 1043.55,-420.57"/>
<text text-anchor="middle" x="986.9" y="-435.56" font-family="Helvetica,Arial,sans-serif" font-size="9.00" fill="darkgrey">hasValue</text>
</g>
<!-- Datatype -->
<g id="node14" class="node">
<title>Datatype</title>
<ellipse fill="none" stroke="black" cx="702.51" cy="-200.36" rx="36" ry="21.6"/>
<text text-anchor="middle" x="702.51" y="-196.48" font-family="Helvetica,Arial,sans-serif" font-size="10.00">Datatype</text>
</g>
<!-- Datatype&#45;&gt;Classifier -->
<g id="edge4" class="edge">
<title>Datatype&#45;&gt;Classifier</title>
<path fill="none" stroke="black" d="M736.84,-193C744.43,-191.61 752.48,-190.36 760.03,-189.61 787.36,-186.9 818.12,-186.5 842.73,-186.82"/>
<polygon fill="none" stroke="black" points="842.51,-190.33 852.57,-187.01 842.64,-183.33 842.51,-190.33"/>
<text text-anchor="middle" x="796.03" y="-190.56" font-family="Helvetica,Arial,sans-serif" font-size="9.00" fill="darkgrey">rdfs:subClassOf</text>
</g>
<!-- Datatype&#45;&gt;Datatype -->
<g id="edge5" class="edge">
<title>Datatype&#45;&gt;Datatype</title>
<path fill="none" stroke="black" stroke-dasharray="5,2" d="M686.38,-219.92C683.64,-230.41 689.02,-239.96 702.51,-239.96 710.95,-239.96 716.22,-236.23 718.31,-230.87"/>
<polygon fill="none" stroke="black" points="721.84,-231.02 718.65,-220.92 714.84,-230.81 721.84,-231.02"/>
<text text-anchor="middle" x="702.51" y="-241.16" font-family="Helvetica,Arial,sans-serif" font-size="9.00" fill="darkgrey">baseDatatype</text>
</g>
</g>
</svg>
