<?xml version="1.0" encoding="UTF-8" standalone="no"?>
<!DOCTYPE svg PUBLIC "-//W3C//DTD SVG 1.1//EN"
 "http://www.w3.org/Graphics/SVG/1.1/DTD/svg11.dtd">
<!-- Generated by graphviz version 8.0.5 (20230430.1635)
 -->
<!-- Title: G Pages: 1 -->
<svg width="1171pt" height="408pt"
 viewBox="0.00 0.00 1171.40 407.73" xmlns="http://www.w3.org/2000/svg" xmlns:xlink="http://www.w3.org/1999/xlink">
<g id="graph0" class="graph" transform="scale(1 1) rotate(0) translate(4 403.73)">
<title>G</title>
<!-- ModelElement -->
<g id="node1" class="node">
<title>ModelElement</title>
<ellipse fill="none" stroke="grey" cx="1103.65" cy="-157.98" rx="43.7" ry="21.6"/>
<text text-anchor="middle" x="1103.65" y="-154.11" font-family="Helvetica,Arial,sans-serif" font-size="10.00" fill="grey">ModelElement</text>
</g>
<!-- Module -->
<g id="node2" class="node">
<title>Module</title>
<ellipse fill="none" stroke="blue" stroke-width="2" cx="702.51" cy="-204.98" rx="36" ry="21.6"/>
<text text-anchor="middle" x="702.51" y="-201.11" font-family="Helvetica,Arial,sans-serif" font-size="10.00" fill="blue">Module</text>
</g>
<!-- Module&#45;&gt;ModelElement -->
<g id="edge1" class="edge">
<title>Module&#45;&gt;ModelElement</title>
<path fill="none" stroke="black" d="M738.59,-200.85C808.86,-192.58 967.25,-173.93 1050.02,-164.18"/>
<polygon fill="none" stroke="black" points="1050.17,-167.57 1059.7,-162.92 1049.35,-160.62 1050.17,-167.57"/>
<text text-anchor="middle" x="889.96" y="-188.18" font-family="Helvetica,Arial,sans-serif" font-size="9.00" fill="darkgrey">rdfs:subClassOf</text>
</g>
<!-- Classifier -->
<g id="node4" class="node">
<title>Classifier</title>
<ellipse fill="none" stroke="grey" cx="889.96" cy="-128.98" rx="36" ry="21.6"/>
<text text-anchor="middle" x="889.96" y="-125.11" font-family="Helvetica,Arial,sans-serif" font-size="10.00" fill="grey">Classifier</text>
</g>
<!-- Module&#45;&gt;Classifier -->
<g id="edge2" class="edge">
<title>Module&#45;&gt;Classifier</title>
<path fill="none" stroke="black" d="M735.68,-179.63C745.3,-172.4 754.7,-165.8 760.03,-163.23 786.96,-150.29 819.5,-141.7 845.15,-136.35"/>
<polygon fill="black" stroke="black" points="735.59,-179.7 733.25,-186.52 726.06,-186.99 728.39,-180.17 735.59,-179.7"/>
<polygon fill="black" stroke="black" points="854.61,-134.46 845.69,-140.83 849.71,-135.44 844.81,-136.42 844.81,-136.42 844.81,-136.42 849.71,-135.44 843.92,-132.01 854.61,-134.46 854.61,-134.46"/>
<text text-anchor="middle" x="796.03" y="-164.18" font-family="Helvetica,Arial,sans-serif" font-size="9.00" fill="darkgrey">hasDefinition</text>
<text text-anchor="middle" x="852.74" y="-125.91" font-family="Helvetica,Arial,sans-serif" font-size="9.00" fill="darkgrey">*</text>
</g>
<!-- Cardinality -->
<g id="node3" class="node">
<title>Cardinality</title>
<ellipse fill="none" stroke="black" cx="889.96" cy="-376.98" rx="36" ry="21.6"/>
<text text-anchor="middle" x="889.96" y="-373.11" font-family="Helvetica,Arial,sans-serif" font-size="10.00">Cardinality</text>
</g>
<!-- integer -->
<g id="node14" class="node">
<title>integer</title>
<polygon fill="lightgrey" stroke="lightgrey" points="1163.4,-398.58 1043.9,-398.58 1043.9,-355.38 1163.4,-355.38 1163.4,-398.58"/>
<text text-anchor="middle" x="1103.65" y="-373.11" font-family="Helvetica,Arial,sans-serif" font-size="10.00">xsd:nonNegativeInteger</text>
</g>
<!-- Cardinality&#45;&gt;integer -->
<g id="edge23" class="edge">
<title>Cardinality&#45;&gt;integer</title>
<path fill="none" stroke="black" d="M939.04,-376.98C966.99,-376.98 1002.69,-376.98 1033.61,-376.98"/>
<polygon fill="black" stroke="black" points="939.3,-376.98 933.3,-380.98 927.3,-376.98 933.3,-372.98 939.3,-376.98"/>
<polygon fill="black" stroke="black" points="1043.46,-376.98 1033.46,-381.48 1038.46,-376.98 1033.46,-376.98 1033.46,-376.98 1033.46,-376.98 1038.46,-376.98 1033.46,-372.48 1043.46,-376.98 1043.46,-376.98"/>
<text text-anchor="middle" x="986.9" y="-378.18" font-family="Helvetica,Arial,sans-serif" font-size="9.00" fill="darkgrey">owl:maxCardinality</text>
<text text-anchor="middle" x="1040.83" y="-368.43" font-family="Helvetica,Arial,sans-serif" font-size="9.00" fill="darkgrey">?</text>
</g>
<!-- Cardinality&#45;&gt;integer -->
<g id="edge24" class="edge">
<title>Cardinality&#45;&gt;integer</title>
<path fill="none" stroke="black" d="M936.81,-386.62C940.55,-387.17 944.28,-387.64 947.9,-387.98 982.41,-391.29 991.32,-390.45 1025.9,-387.98 1028.51,-387.8 1031.18,-387.58 1033.86,-387.33"/>
<polygon fill="black" stroke="black" points="936.95,-386.65 930.37,-389.6 925.11,-384.66 931.69,-381.71 936.95,-386.65"/>
<polygon fill="black" stroke="black" points="1043.66,-386.3 1034.18,-391.82 1038.68,-386.82 1033.71,-387.34 1033.71,-387.34 1033.71,-387.34 1038.68,-386.82 1033.24,-382.87 1043.66,-386.3 1043.66,-386.3"/>
<text text-anchor="middle" x="986.9" y="-391.18" font-family="Helvetica,Arial,sans-serif" font-size="9.00" fill="darkgrey">owl:minCardinality</text>
</g>
<!-- Classifier&#45;&gt;ModelElement -->
<g id="edge3" class="edge">
<title>Classifier&#45;&gt;ModelElement</title>
<path fill="none" stroke="black" d="M925.45,-133.71C959.32,-138.35 1011.45,-145.49 1050.41,-150.83"/>
<polygon fill="none" stroke="black" points="1049.89,-154.43 1060.28,-152.32 1050.84,-147.49 1049.89,-154.43"/>
<text text-anchor="middle" x="986.9" y="-147.18" font-family="Helvetica,Arial,sans-serif" font-size="9.00" fill="darkgrey">rdfs:subClassOf</text>
</g>
<!-- Entity -->
<g id="node5" class="node">
<title>Entity</title>
<ellipse fill="none" stroke="black" cx="195.75" cy="-237.98" rx="36" ry="21.6"/>
<text text-anchor="middle" x="195.75" y="-234.11" font-family="Helvetica,Arial,sans-serif" font-size="10.00">Entity</text>
</g>
<!-- Member -->
<g id="node9" class="node">
<title>Member</title>
<ellipse fill="none" stroke="grey" cx="702.51" cy="-326.98" rx="36" ry="21.6"/>
<text text-anchor="middle" x="702.51" y="-323.11" font-family="Helvetica,Arial,sans-serif" font-size="10.00" fill="grey">Member</text>
</g>
<!-- Entity&#45;&gt;Member -->
<g id="edge12" class="edge">
<title>Entity&#45;&gt;Member</title>
<path fill="none" stroke="black" d="M241.34,-249.95C244.18,-250.65 247,-251.34 249.75,-251.98 356.12,-277.06 382.67,-284.23 490.5,-301.98 530.26,-308.53 540.48,-308.22 580.5,-312.98 605.84,-316 634.17,-319.28 657.05,-321.91"/>
<polygon fill="black" stroke="black" points="241.41,-249.96 234.61,-252.36 229.79,-247 236.59,-244.61 241.41,-249.96"/>
<polygon fill="black" stroke="black" points="666.82,-323.03 656.37,-326.36 661.85,-322.46 656.88,-321.89 656.88,-321.89 656.88,-321.89 661.85,-322.46 657.4,-317.42 666.82,-323.03 666.82,-323.03"/>
<text text-anchor="middle" x="447.37" y="-299.18" font-family="Helvetica,Arial,sans-serif" font-size="9.00" fill="darkgrey">hasIdentifier</text>
<text text-anchor="middle" x="664.19" y="-314.48" font-family="Helvetica,Arial,sans-serif" font-size="9.00" fill="darkgrey">1</text>
</g>
<!-- Structure -->
<g id="node10" class="node">
<title>Structure</title>
<ellipse fill="none" stroke="black" cx="368.25" cy="-237.98" rx="36" ry="21.6"/>
<text text-anchor="middle" x="368.25" y="-234.11" font-family="Helvetica,Arial,sans-serif" font-size="10.00">Structure</text>
</g>
<!-- Entity&#45;&gt;Structure -->
<g id="edge11" class="edge">
<title>Entity&#45;&gt;Structure</title>
<path fill="none" stroke="black" d="M232.08,-237.98C257.91,-237.98 293.19,-237.98 321.22,-237.98"/>
<polygon fill="none" stroke="black" points="320.97,-241.48 330.97,-237.98 320.97,-234.48 320.97,-241.48"/>
<text text-anchor="middle" x="282" y="-239.18" font-family="Helvetica,Arial,sans-serif" font-size="9.00" fill="darkgrey">rdfs:subClassOf</text>
</g>
<!-- Enumeration -->
<g id="node6" class="node">
<title>Enumeration</title>
<ellipse fill="none" stroke="black" cx="702.51" cy="-265.98" rx="39.51" ry="21.6"/>
<text text-anchor="middle" x="702.51" y="-262.11" font-family="Helvetica,Arial,sans-serif" font-size="10.00">Enumeration</text>
</g>
<!-- Enumeration&#45;&gt;Classifier -->
<g id="edge6" class="edge">
<title>Enumeration&#45;&gt;Classifier</title>
<path fill="none" stroke="black" d="M728.65,-249.6C754.92,-232.24 797.11,-203.7 832.03,-176.98 841.52,-169.72 851.58,-161.44 860.57,-153.83"/>
<polygon fill="none" stroke="black" points="862.47,-155.95 867.79,-146.79 857.92,-150.64 862.47,-155.95"/>
<text text-anchor="middle" x="796.03" y="-227.18" font-family="Helvetica,Arial,sans-serif" font-size="9.00" fill="darkgrey">rdfs:subClassOf</text>
</g>
<!-- EnumVariant -->
<g id="node12" class="node">
<title>EnumVariant</title>
<ellipse fill="none" stroke="black" cx="889.96" cy="-252.98" rx="39.93" ry="21.6"/>
<text text-anchor="middle" x="889.96" y="-249.11" font-family="Helvetica,Arial,sans-serif" font-size="10.00">EnumVariant</text>
</g>
<!-- Enumeration&#45;&gt;EnumVariant -->
<g id="edge7" class="edge">
<title>Enumeration&#45;&gt;EnumVariant</title>
<path fill="none" stroke="black" d="M751.95,-255.27C754.68,-254.87 757.38,-254.52 760.03,-254.23 786.32,-251.4 815.8,-250.92 839.93,-251.22"/>
<polygon fill="black" stroke="black" points="751.94,-255.28 746.7,-260.24 740.11,-257.31 745.35,-252.35 751.94,-255.28"/>
<polygon fill="black" stroke="black" points="849.92,-251.39 839.84,-255.72 844.92,-251.3 839.92,-251.22 839.92,-251.22 839.92,-251.22 844.92,-251.3 840,-246.72 849.92,-251.39 849.92,-251.39"/>
<text text-anchor="middle" x="796.03" y="-255.18" font-family="Helvetica,Arial,sans-serif" font-size="9.00" fill="darkgrey">hasVariant</text>
<text text-anchor="middle" x="848.04" y="-242.84" font-family="Helvetica,Arial,sans-serif" font-size="9.00" fill="darkgrey">*</text>
</g>
<!-- Event -->
<g id="node7" class="node">
<title>Event</title>
<ellipse fill="none" stroke="black" cx="36" cy="-266.98" rx="36" ry="21.6"/>
<text text-anchor="middle" x="36" y="-263.11" font-family="Helvetica,Arial,sans-serif" font-size="10.00">Event</text>
</g>
<!-- Event&#45;&gt;Entity -->
<g id="edge14" class="edge">
<title>Event&#45;&gt;Entity</title>
<path fill="none" stroke="black" d="M83.65,-258.41C105.07,-254.47 130.32,-249.83 151.33,-245.97"/>
<polygon fill="none" stroke="black" points="83.53,-258.43 78.35,-263.45 71.73,-260.6 76.91,-255.58 83.53,-258.43"/>
<polygon fill="black" stroke="black" points="160.96,-244.2 151.94,-250.43 156.05,-245.1 151.13,-246 151.13,-246 151.13,-246 156.05,-245.1 150.32,-241.58 160.96,-244.2 160.96,-244.2"/>
<text text-anchor="middle" x="115.88" y="-257.18" font-family="Helvetica,Arial,sans-serif" font-size="9.00" fill="darkgrey">eventSource</text>
</g>
<!-- Event&#45;&gt;Structure -->
<g id="edge13" class="edge">
<title>Event&#45;&gt;Structure</title>
<path fill="none" stroke="black" d="M72.05,-269.25C78.04,-269.56 84.2,-269.82 90,-269.98 112.99,-270.63 118.75,-270.11 141.75,-269.98 181.75,-269.76 191.98,-273.26 231.75,-268.98 268.97,-264.98 277.81,-260.55 314.25,-251.98 317.63,-251.19 321.13,-250.34 324.63,-249.46"/>
<polygon fill="none" stroke="black" points="325.27,-252.65 334.09,-246.78 323.53,-245.87 325.27,-252.65"/>
<text text-anchor="middle" x="195.75" y="-272.18" font-family="Helvetica,Arial,sans-serif" font-size="9.00" fill="darkgrey">rdfs:subClassOf</text>
</g>
<!-- Group -->
<g id="node8" class="node">
<title>Group</title>
<ellipse fill="none" stroke="grey" cx="526.5" cy="-230.98" rx="36" ry="21.6"/>
<text text-anchor="middle" x="526.5" y="-227.11" font-family="Helvetica,Arial,sans-serif" font-size="10.00" fill="grey">Group</text>
</g>
<!-- Group&#45;&gt;ModelElement -->
<g id="edge17" class="edge">
<title>Group&#45;&gt;ModelElement</title>
<path fill="none" stroke="black" d="M533.91,-209.48C548.45,-165.11 588.56,-64.22 663,-23.98 805.32,52.96 997.99,-76.04 1071.98,-133.02"/>
<polygon fill="none" stroke="black" points="1069.36,-136.2 1079.4,-139.6 1073.67,-130.68 1069.36,-136.2"/>
<text text-anchor="middle" x="796.03" y="-9.18" font-family="Helvetica,Arial,sans-serif" font-size="9.00" fill="darkgrey">rdfs:subClassOf</text>
</g>
<!-- Group&#45;&gt;Member -->
<g id="edge18" class="edge">
<title>Group&#45;&gt;Member</title>
<path fill="none" stroke="black" d="M575.25,-236.4C598.27,-241 625.13,-249.51 645,-265.23 657.72,-275.3 652.4,-284.71 663,-296.98 665.3,-299.64 667.86,-302.23 670.54,-304.69"/>
<polygon fill="black" stroke="black" points="575.28,-236.41 568.68,-239.31 563.46,-234.33 570.06,-231.43 575.28,-236.41"/>
<polygon fill="black" stroke="black" points="677.82,-310.9 667.29,-307.83 674.01,-307.65 670.21,-304.41 670.21,-304.41 670.21,-304.41 674.01,-307.65 673.13,-300.98 677.82,-310.9 677.82,-310.9"/>
<text text-anchor="middle" x="612.75" y="-266.18" font-family="Helvetica,Arial,sans-serif" font-size="9.00" fill="darkgrey">hasMember</text>
<text text-anchor="middle" x="675.94" y="-302.35" font-family="Helvetica,Arial,sans-serif" font-size="9.00" fill="darkgrey">*</text>
</g>
<!-- Member&#45;&gt;ModelElement -->
<g id="edge19" class="edge">
<title>Member&#45;&gt;ModelElement</title>
<path fill="none" stroke="black" d="M738.66,-325.09C784.4,-321.58 866.03,-311.66 929.9,-283.98 986.49,-259.46 1042.39,-213.69 1074.66,-184.59"/>
<polygon fill="none" stroke="black" points="1076.71,-187.54 1081.73,-178.21 1071.99,-182.38 1076.71,-187.54"/>
<text text-anchor="middle" x="889.96" y="-309.18" font-family="Helvetica,Arial,sans-serif" font-size="9.00" fill="darkgrey">rdfs:subClassOf</text>
</g>
<!-- Member&#45;&gt;Cardinality -->
<g id="edge20" class="edge">
<title>Member&#45;&gt;Cardinality</title>
<path fill="none" stroke="black" d="M740.9,-347.38C747.16,-350.25 753.68,-352.92 760.03,-354.98 787.39,-363.88 819.24,-369.36 844.44,-372.63"/>
<polygon fill="black" stroke="black" points="740.89,-347.38 733.75,-348.35 730.11,-342.13 737.25,-341.16 740.89,-347.38"/>
<polygon fill="black" stroke="black" points="854.1,-373.81 843.63,-377.06 849.14,-373.2 844.18,-372.59 844.18,-372.59 844.18,-372.59 849.14,-373.2 844.73,-368.13 854.1,-373.81 854.1,-373.81"/>
<text text-anchor="middle" x="796.03" y="-371.18" font-family="Helvetica,Arial,sans-serif" font-size="9.00" fill="darkgrey">sourceCardinality</text>
<text text-anchor="middle" x="851.48" y="-365.26" font-family="Helvetica,Arial,sans-serif" font-size="9.00" fill="darkgrey">?</text>
</g>
<!-- Member&#45;&gt;Cardinality -->
<g id="edge22" class="edge">
<title>Member&#45;&gt;Cardinality</title>
<path fill="none" stroke="black" d="M751.39,-328.99C776.01,-331.12 806.19,-335.45 832.03,-344.23 840.5,-347.11 849.13,-351.31 857.02,-355.73"/>
<polygon fill="black" stroke="black" points="751.58,-329 745.3,-332.55 739.61,-328.11 745.89,-324.57 751.58,-329"/>
<polygon fill="black" stroke="black" points="865.57,-360.78 854.67,-359.57 861.26,-358.24 856.96,-355.7 856.96,-355.7 856.96,-355.7 861.26,-358.24 859.24,-351.82 865.57,-360.78 865.57,-360.78"/>
<text text-anchor="middle" x="796.03" y="-345.18" font-family="Helvetica,Arial,sans-serif" font-size="9.00" fill="darkgrey">targetCardinality</text>
<text text-anchor="middle" x="868.2" y="-352.23" font-family="Helvetica,Arial,sans-serif" font-size="9.00" fill="darkgrey">?</text>
</g>
<!-- Member&#45;&gt;Classifier -->
<g id="edge21" class="edge">
<title>Member&#45;&gt;Classifier</title>
<path fill="none" stroke="black" d="M735.29,-302.15C743.1,-296.75 751.64,-291.42 760.03,-287.23 790.12,-272.23 809.88,-289.28 832.03,-263.98 861.49,-230.34 828.5,-204.18 850.03,-164.98 852.46,-160.56 855.64,-156.38 859.13,-152.54"/>
<polygon fill="none" stroke="black" points="735.29,-302.15 732.77,-308.9 725.56,-309.17 728.09,-302.41 735.29,-302.15"/>
<polygon fill="black" stroke="black" points="866.11,-145.6 862.19,-155.84 862.56,-149.13 859.02,-152.65 859.02,-152.65 859.02,-152.65 862.56,-149.13 855.85,-149.45 866.11,-145.6 866.11,-145.6"/>
<text text-anchor="middle" x="796.03" y="-288.18" font-family="Helvetica,Arial,sans-serif" font-size="9.00" fill="darkgrey">targetClassifier</text>
</g>
<!-- Structure&#45;&gt;Classifier -->
<g id="edge8" class="edge">
<title>Structure&#45;&gt;Classifier</title>
<path fill="none" stroke="black" d="M386.46,-219.04C428.42,-174.42 541.51,-63.55 663,-23.98 698.99,-12.26 800.84,-23.54 832.03,-44.98 851.26,-58.2 865.84,-80.23 875.42,-98.42"/>
<polygon fill="none" stroke="black" points="872.63,-99.66 880.23,-107.04 878.89,-96.53 872.63,-99.66"/>
<text text-anchor="middle" x="612.75" y="-60.18" font-family="Helvetica,Arial,sans-serif" font-size="9.00" fill="darkgrey">rdfs:subClassOf</text>
</g>
<!-- Structure&#45;&gt;Group -->
<g id="edge9" class="edge">
<title>Structure&#45;&gt;Group</title>
<path fill="none" stroke="black" d="M417.26,-235.83C437.33,-234.93 460.53,-233.89 480.29,-233.01"/>
<polygon fill="black" stroke="black" points="417.2,-235.84 411.39,-240.1 405.22,-236.37 411.03,-232.11 417.2,-235.84"/>
<polygon fill="black" stroke="black" points="490.28,-232.56 480.49,-237.51 485.29,-232.79 480.29,-233.01 480.29,-233.01 480.29,-233.01 485.29,-232.79 480.09,-228.51 490.28,-232.56 490.28,-232.56"/>
<text text-anchor="middle" x="447.37" y="-236.18" font-family="Helvetica,Arial,sans-serif" font-size="9.00" fill="darkgrey">hasGroup</text>
<text text-anchor="middle" x="488.41" y="-224.01" font-family="Helvetica,Arial,sans-serif" font-size="9.00" fill="darkgrey">*</text>
</g>
<!-- Structure&#45;&gt;Member -->
<g id="edge10" class="edge">
<title>Structure&#45;&gt;Member</title>
<path fill="none" stroke="black" d="M414.09,-250C478.69,-267.3 597.03,-299 659.82,-315.82"/>
<polygon fill="black" stroke="black" points="414.18,-250.02 407.35,-252.33 402.58,-246.91 409.42,-244.6 414.18,-250.02"/>
<polygon fill="black" stroke="black" points="669.41,-318.38 658.58,-320.14 664.58,-317.09 659.75,-315.8 659.75,-315.8 659.75,-315.8 664.58,-317.09 660.91,-311.45 669.41,-318.38 669.41,-318.38"/>
<text text-anchor="middle" x="526.5" y="-289.18" font-family="Helvetica,Arial,sans-serif" font-size="9.00" fill="darkgrey">hasMember</text>
<text text-anchor="middle" x="671.28" y="-312.27" font-family="Helvetica,Arial,sans-serif" font-size="9.00" fill="darkgrey">*</text>
</g>
<!-- Union -->
<g id="node11" class="node">
<title>Union</title>
<ellipse fill="none" stroke="black" cx="702.51" cy="-54.98" rx="36" ry="21.6"/>
<text text-anchor="middle" x="702.51" y="-51.11" font-family="Helvetica,Arial,sans-serif" font-size="10.00">Union</text>
</g>
<!-- Union&#45;&gt;Classifier -->
<g id="edge15" class="edge">
<title>Union&#45;&gt;Classifier</title>
<path fill="none" stroke="black" d="M733.12,-66.78C759.17,-77.17 798.12,-92.7 832.03,-106.23 837.59,-108.45 843.46,-110.8 849.22,-113.1"/>
<polygon fill="none" stroke="black" points="847.83,-116.71 858.42,-117.17 850.43,-110.21 847.83,-116.71"/>
<text text-anchor="middle" x="796.03" y="-107.18" font-family="Helvetica,Arial,sans-serif" font-size="9.00" fill="darkgrey">rdfs:subClassOf</text>
</g>
<!-- Union&#45;&gt;Classifier -->
<g id="edge16" class="edge">
<title>Union&#45;&gt;Classifier</title>
<path fill="none" stroke="black" d="M751.11,-49.99C776.38,-49.36 807.23,-51.93 832.03,-64.23 848.13,-72.23 861.65,-86.97 871.47,-100.37"/>
<polygon fill="none" stroke="black" points="750.99,-49.99 745.19,-54.27 739,-50.56 744.81,-46.28 750.99,-49.99"/>
<polygon fill="black" stroke="black" points="877.1,-108.46 867.7,-102.82 874.25,-104.36 871.39,-100.25 871.39,-100.25 871.39,-100.25 874.25,-104.36 875.09,-97.68 877.1,-108.46 877.1,-108.46"/>
<text text-anchor="middle" x="796.03" y="-65.18" font-family="Helvetica,Arial,sans-serif" font-size="9.00" fill="darkgrey">variantType</text>
<text text-anchor="middle" x="874.48" y="-99.91" font-family="Helvetica,Arial,sans-serif" font-size="9.00" fill="darkgrey">+</text>
</g>
<!-- EnumVariant&#45;&gt;integer -->
<g id="edge25" class="edge">
<title>EnumVariant&#45;&gt;integer</title>
<path fill="none" stroke="black" d="M929.01,-275.27C964.8,-296.23 1018.44,-327.66 1056.62,-350.02"/>
<polygon fill="black" stroke="black" points="928.91,-275.21 921.71,-275.63 918.55,-269.14 925.75,-268.73 928.91,-275.21"/>
<polygon fill="black" stroke="black" points="1065,-354.93 1054.1,-353.76 1060.69,-352.41 1056.37,-349.88 1056.37,-349.88 1056.37,-349.88 1060.69,-352.41 1058.65,-346 1065,-354.93 1065,-354.93"/>
<text text-anchor="middle" x="986.9" y="-330.18" font-family="Helvetica,Arial,sans-serif" font-size="9.00" fill="darkgrey">hasValue</text>
</g>
<!-- Datatype -->
<g id="node13" class="node">
<title>Datatype</title>
<ellipse fill="none" stroke="black" cx="702.51" cy="-115.98" rx="36" ry="21.6"/>
<text text-anchor="middle" x="702.51" y="-112.11" font-family="Helvetica,Arial,sans-serif" font-size="10.00">Datatype</text>
</g>
<!-- Datatype&#45;&gt;Classifier -->
<g id="edge4" class="edge">
<title>Datatype&#45;&gt;Classifier</title>
<path fill="none" stroke="black" d="M738.4,-118.43C768.09,-120.51 810.96,-123.52 843.37,-125.79"/>
<polygon fill="none" stroke="black" points="842.7,-129.32 852.92,-126.53 843.19,-122.34 842.7,-129.32"/>
<text text-anchor="middle" x="796.03" y="-125.18" font-family="Helvetica,Arial,sans-serif" font-size="9.00" fill="darkgrey">rdfs:subClassOf</text>
</g>
<!-- Datatype&#45;&gt;Datatype -->
<g id="edge5" class="edge">
<title>Datatype&#45;&gt;Datatype</title>
<path fill="none" stroke="black" stroke-dasharray="5,2" d="M686.38,-135.54C683.64,-146.03 689.02,-155.58 702.51,-155.58 710.95,-155.58 716.22,-151.85 718.31,-146.49"/>
<polygon fill="none" stroke="black" points="721.84,-146.65 718.65,-136.54 714.84,-146.43 721.84,-146.65"/>
<text text-anchor="middle" x="702.51" y="-156.78" font-family="Helvetica,Arial,sans-serif" font-size="9.00" fill="darkgrey">baseDatatype</text>
</g>
</g>
</svg>
