<?xml version="1.0" encoding="UTF-8" standalone="no"?>
<!DOCTYPE svg PUBLIC "-//W3C//DTD SVG 1.1//EN"
 "http://www.w3.org/Graphics/SVG/1.1/DTD/svg11.dtd">
<!-- Generated by graphviz version 8.0.5 (20230430.1635)
 -->
<!-- Title: G Pages: 1 -->
<svg width="738pt" height="347pt"
 viewBox="0.00 0.00 737.62 347.00" xmlns="http://www.w3.org/2000/svg" xmlns:xlink="http://www.w3.org/1999/xlink">
<g id="graph0" class="graph" transform="scale(1 1) rotate(0) translate(36 311)">
<title>G</title>
<text text-anchor="middle" x="332.81" y="-5.7" font-family="Helvetica,Arial,sans-serif" font-size="14.00">module rentals</text>
<!-- cids_vehicleidentificationnumber -->
<g id="node1" class="node">
<title>cids_vehicleidentificationnumber</title>
<ellipse fill="none" stroke="dimgrey" stroke-dasharray="5,2" cx="220" cy="-41" rx="94.23" ry="18"/>
<text text-anchor="middle" x="220" y="-37.12" font-family="Helvetica,Arial,sans-serif" font-size="10.00" fill="dimgrey">cids:VehicleIdentificationNumber</text>
</g>
<!-- class -->
<g id="node2" class="node">
<title>class</title>
<ellipse fill="none" stroke="black" stroke-width="1.5" cx="27" cy="-41" rx="27" ry="18"/>
<text text-anchor="middle" x="27" y="-37.12" font-family="Helvetica,Arial,sans-serif" font-size="10.00">Class</text>
</g>
<!-- vehicle -->
<g id="node3" class="node">
<title>vehicle</title>
<ellipse fill="none" stroke="black" stroke-width="1.5" cx="220" cy="-149" rx="28.55" ry="18"/>
<text text-anchor="middle" x="220" y="-145.12" font-family="Helvetica,Arial,sans-serif" font-size="10.00">Vehicle</text>
</g>
<!-- vehicle&#45;&gt;cids_vehicleidentificationnumber -->
<g id="edge1" class="edge">
<title>vehicle&#45;&gt;cids_vehicleidentificationnumber</title>
<g id="a_edge1"><a xlink:title="vin">
<path fill="none" stroke="black" d="M220,-125.68C220,-125.68 220,-64.41 220,-64.41"/>
<polygon fill="black" stroke="black" points="225,-129.68 215,-129.68 215,-127.68 225,-127.68 225,-129.68"/>
<polyline fill="none" stroke="black" points="220,-130.68 220,-125.68"/>
<polygon fill="black" stroke="black" points="215,-60.41 225,-60.41 225,-62.41 215,-62.41 215,-60.41"/>
<polyline fill="none" stroke="black" points="220,-59.41 220,-64.41"/>
</a>
</g>
</g>
<!-- vehicle&#45;&gt;class -->
<g id="edge2" class="edge">
<title>vehicle&#45;&gt;class</title>
<g id="a_edge2"><a xlink:title="rentalClass">
<path fill="none" stroke="black" d="M181.25,-149C181.25,-149 36,-149 36,-149 36,-149 36,-63.35 36,-63.35"/>
<polygon fill="black" stroke="black" points="181.25,-149 191.25,-153.5 186.25,-149 191.25,-149 191.25,-149 191.25,-149 186.25,-149 191.25,-144.5 181.25,-149 181.25,-149"/>
<polygon fill="black" stroke="black" points="31,-59.35 41,-59.35 41,-61.35 31,-61.35 31,-59.35"/>
<polyline fill="none" stroke="black" points="36,-58.35 36,-63.35"/>
</a>
</g>
</g>
<!-- location -->
<g id="node4" class="node">
<title>location</title>
<ellipse fill="none" stroke="black" stroke-width="1.5" cx="417" cy="-41" rx="31.21" ry="18"/>
<text text-anchor="middle" x="417" y="-37.12" font-family="Helvetica,Arial,sans-serif" font-size="10.00">Location</text>
</g>
<!-- vehicle&#45;&gt;location -->
<g id="edge3" class="edge">
<title>vehicle&#45;&gt;location</title>
<g id="a_edge3"><a xlink:title="onProperty">
<path fill="none" stroke="black" d="M257.38,-143C257.38,-143 408.29,-143 408.29,-143 408.29,-143 408.29,-63.77 408.29,-63.77"/>
<polygon fill="black" stroke="black" points="257.38,-143 247.38,-138.5 252.38,-143 247.38,-143 247.38,-143 247.38,-143 252.38,-143 247.38,-147.5 257.38,-143 257.38,-143"/>
<polygon fill="black" stroke="black" points="403.29,-59.77 413.29,-59.77 413.29,-61.77 403.29,-61.77 403.29,-59.77"/>
<polyline fill="none" stroke="black" points="408.29,-58.77 408.29,-63.77"/>
</a>
</g>
</g>
<!-- customer -->
<g id="node5" class="node">
<title>customer</title>
<ellipse fill="none" stroke="black" stroke-width="1.5" cx="502" cy="-149" rx="34.76" ry="18"/>
<text text-anchor="middle" x="502" y="-145.12" font-family="Helvetica,Arial,sans-serif" font-size="10.00">Customer</text>
</g>
<!-- booking -->
<g id="node6" class="node">
<title>booking</title>
<ellipse fill="none" stroke="black" stroke-width="1.5" cx="358" cy="-257" rx="30.32" ry="18"/>
<text text-anchor="middle" x="358" y="-253.12" font-family="Helvetica,Arial,sans-serif" font-size="10.00">Booking</text>
</g>
<!-- booking&#45;&gt;class -->
<g id="edge5" class="edge">
<title>booking&#45;&gt;class</title>
<g id="a_edge5"><a xlink:title="bookingClass">
<path fill="none" stroke="black" d="M319.01,-263C319.01,-263 18,-263 18,-263 18,-263 18,-63.42 18,-63.42"/>
<polygon fill="black" stroke="black" points="319.01,-263 329.01,-267.5 324.01,-263 329.01,-263 329.01,-263 329.01,-263 324.01,-263 329.01,-258.5 319.01,-263 319.01,-263"/>
<polygon fill="black" stroke="black" points="13,-59.42 23,-59.42 23,-61.42 13,-61.42 13,-59.42"/>
<polyline fill="none" stroke="black" points="18,-58.42 18,-63.42"/>
</a>
</g>
</g>
<!-- booking&#45;&gt;vehicle -->
<g id="edge6" class="edge">
<title>booking&#45;&gt;vehicle</title>
<g id="a_edge6"><a xlink:title="vehicle">
<path fill="none" stroke="black" d="M319.07,-251C319.07,-251 220,-251 220,-251 220,-251 220,-172.24 220,-172.24"/>
<polygon fill="black" stroke="black" points="319.07,-251 329.07,-255.5 324.07,-251 329.07,-251 329.07,-251 329.07,-251 324.07,-251 329.07,-246.5 319.07,-251 319.07,-251"/>
<polygon fill="black" stroke="black" points="215,-168.24 225,-168.24 225,-170.24 215,-170.24 215,-168.24"/>
<polyline fill="none" stroke="black" points="220,-167.24 220,-172.24"/>
</a>
</g>
</g>
<!-- booking&#45;&gt;location -->
<g id="edge7" class="edge">
<title>booking&#45;&gt;location</title>
<g id="a_edge7"><a xlink:title="from">
<path fill="none" stroke="black" d="M396.98,-251C396.98,-251 428.25,-251 428.25,-251 428.25,-251 428.25,-63.19 428.25,-63.19"/>
<polygon fill="black" stroke="black" points="396.98,-251 386.98,-246.5 391.98,-251 386.98,-251 386.98,-251 386.98,-251 391.98,-251 386.98,-255.5 396.98,-251 396.98,-251"/>
<polygon fill="black" stroke="black" points="423.25,-59.19 433.25,-59.19 433.25,-61.19 423.25,-61.19 423.25,-59.19"/>
<polyline fill="none" stroke="black" points="428.25,-58.19 428.25,-63.19"/>
</a>
</g>
</g>
<!-- booking&#45;&gt;customer -->
<g id="edge8" class="edge">
<title>booking&#45;&gt;customer</title>
<g id="a_edge8"><a xlink:title="customer">
<path fill="none" stroke="black" d="M356.73,-228.76C356.73,-228.76 356.73,-155 356.73,-155 356.73,-155 463.67,-155 463.67,-155"/>
<polygon fill="black" stroke="black" points="356.73,-228.76 352.23,-238.76 356.73,-233.76 356.73,-238.76 356.73,-238.76 356.73,-238.76 356.73,-233.76 361.23,-238.76 356.73,-228.76 356.73,-228.76"/>
<polygon fill="black" stroke="black" points="467.67,-150 467.67,-160 465.67,-160 465.67,-150 467.67,-150"/>
<polyline fill="none" stroke="black" points="468.67,-155 463.67,-155"/>
</a>
</g>
</g>
<!-- unknown -->
<g id="node7" class="node">
<title>unknown</title>
<polygon fill="none" stroke="grey" points="665.62,-167 608.38,-167 608.38,-131 665.62,-131 665.62,-167"/>
<text text-anchor="middle" x="637" y="-145.12" font-family="Helvetica,Arial,sans-serif" font-size="10.00" fill="grey">Unknown</text>
</g>
<!-- booking&#45;&gt;unknown -->
<g id="edge4" class="edge">
<title>booking&#45;&gt;unknown</title>
<g id="a_edge4"><a xlink:title="bookingCode">
<path fill="none" stroke="black" d="M392.07,-263C392.07,-263 637,-263 637,-263 637,-263 637,-172.32 637,-172.32"/>
<polygon fill="black" stroke="black" points="388.07,-268 388.07,-258 390.07,-258 390.07,-268 388.07,-268"/>
<polyline fill="none" stroke="black" points="387.07,-263 392.07,-263"/>
<polygon fill="black" stroke="black" points="632,-168.32 642,-168.32 642,-170.32 632,-170.32 632,-168.32"/>
<polyline fill="none" stroke="black" points="637,-167.32 637,-172.32"/>
</a>
</g>
</g>
</g>
</svg>
