<?xml version="1.0" encoding="UTF-8" standalone="no"?>
<!DOCTYPE svg PUBLIC "-//W3C//DTD SVG 1.1//EN"
 "http://www.w3.org/Graphics/SVG/1.1/DTD/svg11.dtd">
<!-- Generated by graphviz version 8.0.5 (20230430.1635)
 -->
<!-- Title: G Pages: 1 -->
<svg width="284pt" height="208pt"
 viewBox="0.00 0.00 283.76 207.50" xmlns="http://www.w3.org/2000/svg" xmlns:xlink="http://www.w3.org/1999/xlink">
<g id="graph0" class="graph" transform="scale(1 1) rotate(0) translate(4 203.5)">
<title>G</title>
<!-- booking -->
<g id="node1" class="node">
<title>booking</title>
<ellipse fill="none" stroke="black" cx="147" cy="-181.5" rx="30.32" ry="18"/>
<text text-anchor="middle" x="147" y="-177.62" font-family="Helvetica,Arial,sans-serif" font-size="10.00">Booking</text>
</g>
<!-- class -->
<g id="node2" class="node">
<title>class</title>
<ellipse fill="none" stroke="black" cx="27" cy="-18" rx="27" ry="18"/>
<text text-anchor="middle" x="27" y="-14.12" font-family="Helvetica,Arial,sans-serif" font-size="10.00">Class</text>
</g>
<!-- booking&#45;&gt;class -->
<g id="edge1" class="edge">
<title>booking&#45;&gt;class</title>
<path fill="none" stroke="black" d="M117.55,-176.3C85.04,-169.92 34.2,-154.37 10.75,-117.75 -3.12,-96.1 4.48,-66.48 13.36,-45.34"/>
<polygon fill="black" stroke="black" points="16.91,-46.98 17.87,-36.43 10.54,-44.08 16.91,-46.98"/>
<text text-anchor="middle" x="39.12" y="-96.08" font-family="Helvetica,Arial,sans-serif" font-size="9.00" fill="dimgrey">bookingClass</text>
<text text-anchor="middle" x="18.05" y="-51.75" font-family="Helvetica,Arial,sans-serif" font-size="9.00" fill="blue">1..1</text>
</g>
<!-- vehicle -->
<g id="node3" class="node">
<title>vehicle</title>
<ellipse fill="none" stroke="black" cx="105" cy="-99.75" rx="28.55" ry="18"/>
<text text-anchor="middle" x="105" y="-95.88" font-family="Helvetica,Arial,sans-serif" font-size="10.00">Vehicle</text>
</g>
<!-- booking&#45;&gt;vehicle -->
<g id="edge2" class="edge">
<title>booking&#45;&gt;vehicle</title>
<path fill="none" stroke="black" d="M137.28,-164.26C133.85,-158.4 130.04,-151.7 126.75,-145.5 123.63,-139.64 120.43,-133.26 117.47,-127.2"/>
<polygon fill="black" stroke="black" points="120.27,-125.96 112.77,-118.47 113.96,-129 120.27,-125.96"/>
<text text-anchor="middle" x="141.62" y="-136.95" font-family="Helvetica,Arial,sans-serif" font-size="9.00" fill="dimgrey">vehicle</text>
<text text-anchor="middle" x="128.26" y="-126.45" font-family="Helvetica,Arial,sans-serif" font-size="9.00" fill="blue">0..1</text>
</g>
<!-- location -->
<g id="node4" class="node">
<title>location</title>
<ellipse fill="none" stroke="black" cx="118" cy="-18" rx="31.21" ry="18"/>
<text text-anchor="middle" x="118" y="-14.12" font-family="Helvetica,Arial,sans-serif" font-size="10.00">Location</text>
</g>
<!-- booking&#45;&gt;location -->
<g id="edge3" class="edge">
<title>booking&#45;&gt;location</title>
<path fill="none" stroke="black" d="M152.99,-163.69C160.88,-138.62 172,-90.5 156,-54 153.61,-48.56 149.92,-43.59 145.75,-39.21"/>
<polygon fill="black" stroke="black" points="148.64,-37.2 138.92,-33 143.9,-42.35 148.64,-37.2"/>
<text text-anchor="middle" x="173" y="-96.08" font-family="Helvetica,Arial,sans-serif" font-size="9.00" fill="dimgrey">from</text>
</g>
<!-- customer -->
<g id="node5" class="node">
<title>customer</title>
<ellipse fill="none" stroke="black" cx="241" cy="-99.75" rx="34.76" ry="18"/>
<text text-anchor="middle" x="241" y="-95.88" font-family="Helvetica,Arial,sans-serif" font-size="10.00">Customer</text>
</g>
<!-- booking&#45;&gt;customer -->
<g id="edge4" class="edge">
<title>booking&#45;&gt;customer</title>
<path fill="none" stroke="black" d="M163.81,-166.24C178.11,-154.11 198.87,-136.49 215.27,-122.58"/>
<polygon fill="black" stroke="black" points="217.02,-124.83 222.38,-115.7 212.49,-119.5 217.02,-124.83"/>
<text text-anchor="middle" x="217.75" y="-136.95" font-family="Helvetica,Arial,sans-serif" font-size="9.00" fill="dimgrey">customer</text>
<text text-anchor="middle" x="215.03" y="-130.19" font-family="Helvetica,Arial,sans-serif" font-size="9.00" fill="blue">1..1</text>
</g>
<!-- vehicle&#45;&gt;class -->
<g id="edge5" class="edge">
<title>vehicle&#45;&gt;class</title>
<path fill="none" stroke="black" d="M85.84,-85.91C77.31,-79.72 67.42,-71.89 59.5,-63.75 53.7,-57.79 48.1,-50.74 43.24,-44.02"/>
<polygon fill="black" stroke="black" points="45.69,-42.41 37.1,-36.19 39.94,-46.4 45.69,-42.41"/>
<text text-anchor="middle" x="83.25" y="-55.2" font-family="Helvetica,Arial,sans-serif" font-size="9.00" fill="dimgrey">rentalClass</text>
<text text-anchor="middle" x="54.39" y="-41.58" font-family="Helvetica,Arial,sans-serif" font-size="9.00" fill="blue">1..1</text>
</g>
<!-- vehicle&#45;&gt;location -->
<g id="edge6" class="edge">
<title>vehicle&#45;&gt;location</title>
<path fill="none" stroke="black" d="M107.02,-81.71C108.08,-73.34 109.48,-63.12 111,-54 111.4,-51.62 111.84,-49.15 112.3,-46.67"/>
<polygon fill="black" stroke="black" points="115.89,-47.53 114.36,-37.05 109.02,-46.2 115.89,-47.53"/>
<text text-anchor="middle" x="133.5" y="-55.2" font-family="Helvetica,Arial,sans-serif" font-size="9.00" fill="dimgrey">onProperty</text>
<text text-anchor="middle" x="119.2" y="-51.78" font-family="Helvetica,Arial,sans-serif" font-size="9.00" fill="blue">0..1</text>
</g>
</g>
</svg>
