<?xml version="1.0" encoding="UTF-8" standalone="no"?>
<!DOCTYPE svg PUBLIC "-//W3C//DTD SVG 1.1//EN"
 "http://www.w3.org/Graphics/SVG/1.1/DTD/svg11.dtd">
<!-- Generated by graphviz version 8.0.5 (20230430.1635)
 -->
<!-- Title: G Pages: 1 -->
<svg width="233pt" height="149pt"
 viewBox="0.00 0.00 233.31 148.75" xmlns="http://www.w3.org/2000/svg" xmlns:xlink="http://www.w3.org/1999/xlink">
<g id="graph0" class="graph" transform="scale(1 1) rotate(0) translate(4 144.75)">
<title>G</title>
<text text-anchor="middle" x="112.66" y="-5.7" font-family="Helvetica,Arial,sans-serif" font-size="14.00">module rentals</text>
<!-- vehicle -->
<g id="node1" class="node">
<title>vehicle</title>
<ellipse fill="none" stroke="black" cx="28.55" cy="-41" rx="28.55" ry="18"/>
<text text-anchor="middle" x="28.55" y="-37.12" font-family="Helvetica,Arial,sans-serif" font-size="10.00">Vehicle</text>
</g>
<!-- location -->
<g id="node2" class="node">
<title>location</title>
<ellipse fill="none" stroke="black" cx="106.55" cy="-41" rx="31.21" ry="18"/>
<text text-anchor="middle" x="106.55" y="-37.12" font-family="Helvetica,Arial,sans-serif" font-size="10.00">Location</text>
</g>
<!-- customer -->
<g id="node3" class="node">
<title>customer</title>
<ellipse fill="none" stroke="black" cx="190.55" cy="-41" rx="34.76" ry="18"/>
<text text-anchor="middle" x="190.55" y="-37.12" font-family="Helvetica,Arial,sans-serif" font-size="10.00">Customer</text>
</g>
<!-- booking -->
<g id="node4" class="node">
<title>booking</title>
<ellipse fill="none" stroke="black" cx="106.55" cy="-122.75" rx="30.32" ry="18"/>
<text text-anchor="middle" x="106.55" y="-118.88" font-family="Helvetica,Arial,sans-serif" font-size="10.00">Booking</text>
</g>
<!-- booking&#45;&gt;vehicle -->
<g id="edge1" class="edge">
<title>booking&#45;&gt;vehicle</title>
<path fill="none" stroke="black" d="M91.88,-106.75C80.22,-94.83 63.74,-77.98 50.51,-64.45"/>
<polygon fill="black" stroke="black" points="53.65,-62.63 44.15,-57.93 48.64,-67.53 53.65,-62.63"/>
<text text-anchor="middle" x="87.17" y="-78.2" font-family="Helvetica,Arial,sans-serif" font-size="9.00" fill="dimgrey">vehicle</text>
</g>
<!-- booking&#45;&gt;location -->
<g id="edge2" class="edge">
<title>booking&#45;&gt;location</title>
<path fill="none" stroke="black" d="M106.55,-104.45C106.55,-94.41 106.55,-81.54 106.55,-70.09"/>
<polygon fill="black" stroke="black" points="110.05,-70.27 106.55,-60.27 103.05,-70.27 110.05,-70.27"/>
<text text-anchor="middle" x="115.55" y="-78.2" font-family="Helvetica,Arial,sans-serif" font-size="9.00" fill="dimgrey">from</text>
</g>
<!-- booking&#45;&gt;customer -->
<g id="edge3" class="edge">
<title>booking&#45;&gt;customer</title>
<path fill="none" stroke="black" d="M121.96,-107.12C134.39,-95.32 152.1,-78.5 166.41,-64.91"/>
<polygon fill="black" stroke="black" points="168.54,-67.77 173.38,-58.35 163.72,-62.7 168.54,-67.77"/>
<text text-anchor="middle" x="172.3" y="-78.2" font-family="Helvetica,Arial,sans-serif" font-size="9.00" fill="dimgrey">customer</text>
</g>
</g>
</svg>
