<?xml version="1.0" encoding="us-ascii" standalone="no"?><svg xmlns="http://www.w3.org/2000/svg" xmlns:xlink="http://www.w3.org/1999/xlink" contentStyleType="text/css" height="850px" preserveAspectRatio="none" style="width:2004px;height:850px;" version="1.1" viewBox="0 0 2004 850" width="2004px" zoomAndPan="magnify"><defs/><g><!--cluster s_cids--><g id="cluster_s_cids"><polygon fill="#FFFFFF" points="1345,241.37,1380,241.37,1387,263.8583,1627,263.8583,1627,358.86,1345,358.86,1345,241.37" style="stroke:#000000;stroke-width:1.5;"/><line style="stroke:#000000;stroke-width:1.5;" x1="1345" x2="1387" y1="263.8583" y2="263.8583"/><text fill="#000000" font-family="sans-serif" font-size="14" font-weight="bold" lengthAdjust="spacing" textLength="29" x="1349" y="256.9052">cids</text><text fill="#000000" font-family="sans-serif" font-size="14" font-style="italic" lengthAdjust="spacing" textLength="66" x="1457" y="279.3934">&#171;module&#187;</text></g><!--cluster s_xsd--><g id="cluster_s_xsd"><polygon fill="#FFFFFF" points="1667,241.37,1698,241.37,1705,263.8583,1987,263.8583,1987,358.86,1667,358.86,1667,241.37" style="stroke:#000000;stroke-width:1.5;"/><line style="stroke:#000000;stroke-width:1.5;" x1="1667" x2="1705" y1="263.8583" y2="263.8583"/><text fill="#000000" font-family="sans-serif" font-size="14" font-weight="bold" lengthAdjust="spacing" textLength="25" x="1671" y="256.9052">xsd</text><text fill="#000000" font-family="sans-serif" font-size="14" font-style="italic" lengthAdjust="spacing" textLength="66" x="1798" y="279.3934">&#171;module&#187;</text></g><!--cluster s_rentals--><g id="cluster_s_rentals"><polygon fill="none" points="16,6,72,6,79,28.4883,1053,28.4883,1053,843.76,16,843.76,16,6" style="stroke:#000000;stroke-width:1.5;"/><line style="stroke:#000000;stroke-width:1.5;" x1="16" x2="79" y1="28.4883" y2="28.4883"/><text fill="#000000" font-family="sans-serif" font-size="14" font-weight="bold" lengthAdjust="spacing" textLength="50" x="20" y="21.5352">rentals</text><text fill="#000000" font-family="sans-serif" font-size="14" font-style="italic" lengthAdjust="spacing" textLength="66" x="505.5" y="44.0234">&#171;module&#187;</text></g><!--class s_cids__VehicleIdentificationNumber--><g id="elem_s_cids__VehicleIdentificationNumber"><rect codeLine="16" fill="#F1F1F1" height="34.4883" id="s_cids__VehicleIdentificationNumber" rx="2.5" ry="2.5" style="stroke:#181818;stroke-width:0.5;" width="200" x="1403" y="300.37"/><text fill="#000000" font-family="sans-serif" font-size="14" lengthAdjust="spacing" textLength="194" x="1406" y="318.9052">VehicleIdentificationNumber</text><line style="stroke:#181818;stroke-width:0.5;" x1="1404" x2="1602" y1="326.8583" y2="326.8583"/></g><path d="M1079.5,291.13 L1111.5,291.13 A3.75,3.75 0 0 1 1114,293.63 L1121,313.6183 L1162.5,313.6183 A2.5,2.5 0 0 1 1165,316.1183 L1165,341.6066 A2.5,2.5 0 0 1 1162.5,344.1066 L1079.5,344.1066 A2.5,2.5 0 0 1 1077,341.6066 L1077,293.63 A2.5,2.5 0 0 1 1079.5,291.13 " fill="#FFFFFF" style="stroke:#181818;stroke-width:0.5;"/><line style="stroke:#181818;stroke-width:0.5;" x1="1077" x2="1121" y1="313.6183" y2="313.6183"/><text fill="#000000" font-family="sans-serif" font-size="14" lengthAdjust="spacing" textLength="31" x="1081" y="306.6652">skos</text><text fill="#000000" font-family="sans-serif" font-size="14" font-style="italic" lengthAdjust="spacing" textLength="66" x="1092" y="329.1534">&#171;module&#187;</text><!--class s_xsd__date--><g id="elem_s_xsd__date"><rect codeLine="23" fill="#F1F1F1" height="34.4883" id="s_xsd__date" rx="2.5" ry="2.5" style="stroke:#181818;stroke-width:0.5;" width="36" x="1927" y="300.37"/><text fill="#000000" font-family="sans-serif" font-size="14" lengthAdjust="spacing" textLength="30" x="1930" y="318.9052">date</text><line style="stroke:#181818;stroke-width:0.5;" x1="1928" x2="1962" y1="326.8583" y2="326.8583"/></g><!--class s_xsd__string--><g id="elem_s_xsd__string"><rect codeLine="24" fill="#F1F1F1" height="34.4883" id="s_xsd__string" rx="2.5" ry="2.5" style="stroke:#181818;stroke-width:0.5;" width="46" x="1831" y="300.37"/><text fill="#000000" font-family="sans-serif" font-size="14" lengthAdjust="spacing" textLength="40" x="1834" y="318.9052">string</text><line style="stroke:#181818;stroke-width:0.5;" x1="1832" x2="1876" y1="326.8583" y2="326.8583"/></g><!--class s_xsd__integer--><g id="elem_s_xsd__integer"><rect codeLine="25" fill="#F1F1F1" height="34.4883" id="s_xsd__integer" rx="2.5" ry="2.5" style="stroke:#181818;stroke-width:0.5;" width="55" x="1725.5" y="300.37"/><text fill="#000000" font-family="sans-serif" font-size="14" lengthAdjust="spacing" textLength="49" x="1728.5" y="318.9052">integer</text><line style="stroke:#181818;stroke-width:0.5;" x1="1726.5" x2="1779.5" y1="326.8583" y2="326.8583"/></g><path d="M1217.5,291.13 L1234.5,291.13 A3.75,3.75 0 0 1 1237,293.63 L1244,313.6183 L1300.5,313.6183 A2.5,2.5 0 0 1 1303,316.1183 L1303,341.6066 A2.5,2.5 0 0 1 1300.5,344.1066 L1217.5,344.1066 A2.5,2.5 0 0 1 1215,341.6066 L1215,293.63 A2.5,2.5 0 0 1 1217.5,291.13 " fill="#FFFFFF" style="stroke:#181818;stroke-width:0.5;"/><line style="stroke:#181818;stroke-width:0.5;" x1="1215" x2="1244" y1="313.6183" y2="313.6183"/><text fill="#000000" font-family="sans-serif" font-size="14" lengthAdjust="spacing" textLength="16" x="1219" y="306.6652">dc</text><text fill="#000000" font-family="sans-serif" font-size="14" font-style="italic" lengthAdjust="spacing" textLength="66" x="1230" y="329.1534">&#171;module&#187;</text><!--class s_Address--><g id="elem_s_Address"><rect codeLine="33" fill="#F1F1F1" height="40.6211" id="s_Address" rx="2.5" ry="2.5" style="stroke:#181818;stroke-width:0.5;" width="65" x="717.5" y="717.43"/><text fill="#000000" font-family="sans-serif" font-size="12" font-style="italic" lengthAdjust="spacing" textLength="63" x="718.5" y="734.0316">&#171;structure&#187;</text><text fill="#000000" font-family="sans-serif" font-size="14" lengthAdjust="spacing" textLength="56" x="722" y="750.098">Address</text></g><!--class s_Booking--><g id="elem_s_Booking"><rect codeLine="37" fill="#F1F1F1" height="155.0625" id="s_Booking" rx="2.5" ry="2.5" style="stroke:#181818;stroke-width:0.5;" width="288" x="211" y="240.08"/><text fill="#000000" font-family="sans-serif" font-size="12" font-style="italic" lengthAdjust="spacing" textLength="43" x="333.5" y="256.6816">&#171;entity&#187;</text><text fill="#000000" font-family="sans-serif" font-size="14" lengthAdjust="spacing" textLength="56" x="327" y="272.748">Booking</text><line style="stroke:#181818;stroke-width:0.5;" x1="212" x2="498" y1="280.7011" y2="280.7011"/><ellipse cx="222" cy="294.4452" fill="none" rx="3" ry="3" style="stroke:#038048;stroke-width:1.0;"/><text fill="#000000" font-family="sans-serif" font-size="14" lengthAdjust="spacing" textLength="262" x="231" y="298.2363">bookingCode &#171;identity&#187;: BookingCode</text><line style="stroke:#181818;stroke-width:1.0;" x1="212" x2="498" y1="305.1894" y2="305.1894"/><line style="stroke:#181818;stroke-width:1.0;" x1="212" x2="498" y1="313.1894" y2="313.1894"/><ellipse cx="222" cy="326.9335" fill="none" rx="3" ry="3" style="stroke:#038048;stroke-width:1.0;"/><text fill="#000000" font-family="sans-serif" font-size="14" lengthAdjust="spacing" textLength="150" x="231" y="330.7245">pickup_date: xsd:date</text><ellipse cx="222" cy="343.4218" fill="none" rx="3" ry="3" style="stroke:#038048;stroke-width:1.0;"/><text fill="#000000" font-family="sans-serif" font-size="14" lengthAdjust="spacing" textLength="174" x="231" y="347.2128">pickup_location: Location</text><ellipse cx="222" cy="359.9101" fill="none" rx="3" ry="3" style="stroke:#038048;stroke-width:1.0;"/><text fill="#000000" font-family="sans-serif" font-size="14" lengthAdjust="spacing" textLength="156" x="231" y="363.7011">dropoff_date: xsd:date</text><ellipse cx="222" cy="376.3984" fill="none" rx="3" ry="3" style="stroke:#038048;stroke-width:1.0;"/><text fill="#000000" font-family="sans-serif" font-size="14" lengthAdjust="spacing" textLength="180" x="231" y="380.1894">dropoff_location: Location</text><line style="stroke:#181818;stroke-width:1.0;" x1="212" x2="498" y1="387.1425" y2="387.1425"/></g><!--class s_Customer--><g id="elem_s_Customer"><rect codeLine="48" fill="#F1F1F1" height="138.5742" id="s_Customer" rx="2.5" ry="2.5" style="stroke:#181818;stroke-width:0.5;" width="184" x="460" y="456.15"/><text fill="#000000" font-family="sans-serif" font-size="12" font-style="italic" lengthAdjust="spacing" textLength="43" x="530.5" y="472.7516">&#171;entity&#187;</text><text fill="#000000" font-family="sans-serif" font-size="14" lengthAdjust="spacing" textLength="67" x="518.5" y="488.818">Customer</text><line style="stroke:#181818;stroke-width:0.5;" x1="461" x2="643" y1="496.7711" y2="496.7711"/><ellipse cx="471" cy="510.5152" fill="none" rx="3" ry="3" style="stroke:#038048;stroke-width:1.0;"/><text fill="#000000" font-family="sans-serif" font-size="14" lengthAdjust="spacing" textLength="152" x="480" y="514.3063">id &#171;identity&#187;: UniqueId</text><line style="stroke:#181818;stroke-width:1.0;" x1="461" x2="643" y1="521.2594" y2="521.2594"/><line style="stroke:#181818;stroke-width:1.0;" x1="461" x2="643" y1="529.2594" y2="529.2594"/><ellipse cx="471" cy="543.0035" fill="none" rx="3" ry="3" style="stroke:#038048;stroke-width:1.0;"/><text fill="#000000" font-family="sans-serif" font-size="14" lengthAdjust="spacing" textLength="123" x="480" y="546.7945">name: sdml:string</text><line style="stroke:#181818;stroke-width:1.0;" x1="461" x2="643" y1="553.7477" y2="553.7477"/><ellipse cx="471" cy="567.4918" fill="none" rx="3" ry="3" style="stroke:#038048;stroke-width:1.0;"/><text fill="#000000" font-family="sans-serif" font-size="14" lengthAdjust="spacing" textLength="158" x="480" y="571.2828">level: MembershipLevel</text><ellipse cx="471" cy="583.9801" fill="none" rx="3" ry="3" style="stroke:#038048;stroke-width:1.0;"/><text fill="#000000" font-family="sans-serif" font-size="14" lengthAdjust="spacing" textLength="102" x="480" y="587.7711">since: xsd:date</text></g><!--class s_LicenseInformation--><g id="elem_s_LicenseInformation"><rect codeLine="58" fill="#F1F1F1" height="98.0859" id="s_LicenseInformation" rx="2.5" ry="2.5" style="stroke:#181818;stroke-width:0.5;" width="164" x="470" y="688.7"/><text fill="#000000" font-family="sans-serif" font-size="12" font-style="italic" lengthAdjust="spacing" textLength="63" x="520.5" y="705.3016">&#171;structure&#187;</text><text fill="#000000" font-family="sans-serif" font-size="14" lengthAdjust="spacing" textLength="131" x="486.5" y="721.368">LicenseInformation</text><line style="stroke:#181818;stroke-width:0.5;" x1="471" x2="633" y1="729.3211" y2="729.3211"/><ellipse cx="481" cy="743.0652" fill="none" rx="3" ry="3" style="stroke:#038048;stroke-width:1.0;"/><text fill="#000000" font-family="sans-serif" font-size="14" lengthAdjust="spacing" textLength="131" x="490" y="746.8563">number: xsd:string</text><ellipse cx="481" cy="759.5535" fill="none" rx="3" ry="3" style="stroke:#038048;stroke-width:1.0;"/><text fill="#000000" font-family="sans-serif" font-size="14" lengthAdjust="spacing" textLength="110" x="490" y="763.3445">state: xsd:string</text><ellipse cx="481" cy="776.0418" fill="none" rx="3" ry="3" style="stroke:#038048;stroke-width:1.0;"/><text fill="#000000" font-family="sans-serif" font-size="14" lengthAdjust="spacing" textLength="138" x="490" y="779.8328">expiration: xsd:date</text></g><!--class s_Location--><g id="elem_s_Location"><rect codeLine="64" fill="#F1F1F1" height="73.1094" id="s_Location" rx="2.5" ry="2.5" style="stroke:#181818;stroke-width:0.5;" width="179" x="694.5" y="488.88"/><text fill="#000000" font-family="sans-serif" font-size="12" font-style="italic" lengthAdjust="spacing" textLength="43" x="762.5" y="505.4816">&#171;entity&#187;</text><text fill="#000000" font-family="sans-serif" font-size="14" lengthAdjust="spacing" textLength="58" x="755" y="521.548">Location</text><line style="stroke:#181818;stroke-width:0.5;" x1="695.5" x2="872.5" y1="529.5011" y2="529.5011"/><ellipse cx="705.5" cy="543.2452" fill="none" rx="3" ry="3" style="stroke:#038048;stroke-width:1.0;"/><text fill="#000000" font-family="sans-serif" font-size="14" lengthAdjust="spacing" textLength="153" x="714.5" y="547.0363">id &#171;identity&#187;: cids:Uuid</text><line style="stroke:#181818;stroke-width:1.0;" x1="695.5" x2="872.5" y1="553.9894" y2="553.9894"/></g><!--class s_MembershipLevel--><g id="elem_s_MembershipLevel"><rect codeLine="69" fill="#F1F1F1" height="98.0859" id="s_MembershipLevel" rx="2.5" ry="2.5" style="stroke:#181818;stroke-width:0.5;" width="125" x="869.5" y="65"/><text fill="#000000" font-family="sans-serif" font-size="12" font-style="italic" lengthAdjust="spacing" textLength="44" x="910" y="81.6016">&#171;enum&#187;</text><text fill="#000000" font-family="sans-serif" font-size="14" lengthAdjust="spacing" textLength="119" x="872.5" y="97.668">MembershipLevel</text><line style="stroke:#181818;stroke-width:0.5;" x1="870.5" x2="993.5" y1="105.6211" y2="105.6211"/><ellipse cx="880.5" cy="119.3652" fill="none" rx="3" ry="3" style="stroke:#038048;stroke-width:1.0;"/><text fill="#000000" font-family="sans-serif" font-size="14" lengthAdjust="spacing" textLength="62" x="889.5" y="123.1563">Basic = 1</text><ellipse cx="880.5" cy="135.8535" fill="none" rx="3" ry="3" style="stroke:#038048;stroke-width:1.0;"/><text fill="#000000" font-family="sans-serif" font-size="14" lengthAdjust="spacing" textLength="65" x="889.5" y="139.6445">Silver = 2</text><ellipse cx="880.5" cy="152.3418" fill="none" rx="3" ry="3" style="stroke:#038048;stroke-width:1.0;"/><text fill="#000000" font-family="sans-serif" font-size="14" lengthAdjust="spacing" textLength="60" x="889.5" y="156.1328">Gold = 3</text></g><!--class s_RentalClass--><g id="elem_s_RentalClass"><rect codeLine="75" fill="#F1F1F1" height="164.0391" id="s_RentalClass" rx="2.5" ry="2.5" style="stroke:#181818;stroke-width:0.5;" width="203" x="187.5" y="655.72"/><text fill="#000000" font-family="sans-serif" font-size="12" font-style="italic" lengthAdjust="spacing" textLength="44" x="267" y="672.3216">&#171;enum&#187;</text><text fill="#000000" font-family="sans-serif" font-size="14" lengthAdjust="spacing" textLength="79" x="249.5" y="688.388">RentalClass</text><line style="stroke:#181818;stroke-width:0.5;" x1="188.5" x2="389.5" y1="696.3411" y2="696.3411"/><ellipse cx="198.5" cy="710.0852" fill="none" rx="3" ry="3" style="stroke:#038048;stroke-width:1.0;"/><text fill="#000000" font-family="sans-serif" font-size="14" lengthAdjust="spacing" textLength="115" x="207.5" y="713.8763">SubCompact = 1</text><ellipse cx="198.5" cy="726.5735" fill="none" rx="3" ry="3" style="stroke:#038048;stroke-width:1.0;"/><text fill="#000000" font-family="sans-serif" font-size="14" lengthAdjust="spacing" textLength="89" x="207.5" y="730.3645">Compact = 2</text><ellipse cx="198.5" cy="743.0618" fill="none" rx="3" ry="3" style="stroke:#038048;stroke-width:1.0;"/><text fill="#000000" font-family="sans-serif" font-size="14" lengthAdjust="spacing" textLength="81" x="207.5" y="746.8528">FullSize = 3</text><ellipse cx="198.5" cy="759.5501" fill="none" rx="3" ry="3" style="stroke:#038048;stroke-width:1.0;"/><text fill="#000000" font-family="sans-serif" font-size="14" lengthAdjust="spacing" textLength="177" x="207.5" y="763.3411">CompactUtilityVehicle = 4</text><ellipse cx="198.5" cy="776.0384" fill="none" rx="3" ry="3" style="stroke:#038048;stroke-width:1.0;"/><text fill="#000000" font-family="sans-serif" font-size="14" lengthAdjust="spacing" textLength="169" x="207.5" y="779.8294">FullSizeUtilityVehicle = 5</text><ellipse cx="198.5" cy="792.5266" fill="none" rx="3" ry="3" style="stroke:#038048;stroke-width:1.0;"/><text fill="#000000" font-family="sans-serif" font-size="14" lengthAdjust="spacing" textLength="75" x="207.5" y="796.3177">Luxury = 6</text><ellipse cx="198.5" cy="809.0149" fill="none" rx="3" ry="3" style="stroke:#038048;stroke-width:1.0;"/><text fill="#000000" font-family="sans-serif" font-size="14" lengthAdjust="spacing" textLength="72" x="207.5" y="812.8059">Sports = 7</text></g><!--class s_BookingCode--><g id="elem_s_BookingCode"><rect codeLine="85" fill="#F1F1F1" height="65.1094" id="s_BookingCode" rx="2.5" ry="2.5" style="stroke:#181818;stroke-width:0.5;" width="259" x="560.5" y="81.49"/><text fill="#000000" font-family="sans-serif" font-size="12" font-style="italic" lengthAdjust="spacing" textLength="63" x="658.5" y="98.0916">&#171;datatype&#187;</text><text fill="#000000" font-family="sans-serif" font-size="14" lengthAdjust="spacing" textLength="92" x="644" y="114.158">BookingCode</text><line style="stroke:#181818;stroke-width:0.5;" x1="561.5" x2="818.5" y1="122.1111" y2="122.1111"/><text fill="#000000" font-family="sans-serif" font-size="14" lengthAdjust="spacing" textLength="247" x="566.5" y="139.6463">{xsd:pattern = "[A-Za-z0-9_-]{22}"}</text></g><!--class s_Vehicle--><g id="elem_s_Vehicle"><rect codeLine="89" fill="#F1F1F1" height="89.5977" id="s_Vehicle" rx="2.5" ry="2.5" style="stroke:#181818;stroke-width:0.5;" width="317" x="40.5" y="480.64"/><text fill="#000000" font-family="sans-serif" font-size="12" font-style="italic" lengthAdjust="spacing" textLength="43" x="177.5" y="497.2416">&#171;entity&#187;</text><text fill="#000000" font-family="sans-serif" font-size="14" lengthAdjust="spacing" textLength="49" x="174.5" y="513.308">Vehicle</text><line style="stroke:#181818;stroke-width:0.5;" x1="41.5" x2="356.5" y1="521.2611" y2="521.2611"/><ellipse cx="51.5" cy="535.0052" fill="none" rx="3" ry="3" style="stroke:#038048;stroke-width:1.0;"/><text fill="#000000" font-family="sans-serif" font-size="14" lengthAdjust="spacing" textLength="291" x="60.5" y="538.7963">vin &#171;identity&#187;: VehicleIdentificationNumber</text><line style="stroke:#181818;stroke-width:1.0;" x1="41.5" x2="356.5" y1="545.7494" y2="545.7494"/><ellipse cx="51.5" cy="559.4935" fill="none" rx="3" ry="3" style="stroke:#038048;stroke-width:1.0;"/><text fill="#000000" font-family="sans-serif" font-size="14" lengthAdjust="spacing" textLength="219" x="60.5" y="563.2845">information: VehicleInformation</text></g><!--class s_VehicleInformation--><g id="elem_s_VehicleInformation"><rect codeLine="95" fill="#F1F1F1" height="98.0859" id="s_VehicleInformation" rx="2.5" ry="2.5" style="stroke:#181818;stroke-width:0.5;" width="146" x="364" y="65"/><text fill="#000000" font-family="sans-serif" font-size="12" font-style="italic" lengthAdjust="spacing" textLength="63" x="405.5" y="81.6016">&#171;structure&#187;</text><text fill="#000000" font-family="sans-serif" font-size="14" lengthAdjust="spacing" textLength="130" x="372" y="97.668">VehicleInformation</text><line style="stroke:#181818;stroke-width:0.5;" x1="365" x2="509" y1="105.6211" y2="105.6211"/><ellipse cx="375" cy="119.3652" fill="none" rx="3" ry="3" style="stroke:#038048;stroke-width:1.0;"/><text fill="#000000" font-family="sans-serif" font-size="14" lengthAdjust="spacing" textLength="114" x="384" y="123.1563">make: xsd:string</text><ellipse cx="375" cy="135.8535" fill="none" rx="3" ry="3" style="stroke:#038048;stroke-width:1.0;"/><text fill="#000000" font-family="sans-serif" font-size="14" lengthAdjust="spacing" textLength="120" x="384" y="139.6445">model: xsd:string</text><ellipse cx="375" cy="152.3418" fill="none" rx="3" ry="3" style="stroke:#038048;stroke-width:1.0;"/><text fill="#000000" font-family="sans-serif" font-size="14" lengthAdjust="spacing" textLength="115" x="384" y="156.1328">year: xsd:integer</text></g><!--class s_VehicleAssigned--><g id="elem_s_VehicleAssigned"><rect codeLine="101" fill="#F1F1F1" height="65.1094" id="s_VehicleAssigned" rx="2.5" ry="2.5" style="stroke:#181818;stroke-width:0.5;" width="275" x="39.5" y="81.49"/><text fill="#000000" font-family="sans-serif" font-size="12" font-style="italic" lengthAdjust="spacing" textLength="43" x="155.5" y="98.0916">&#171;event&#187;</text><text fill="#000000" font-family="sans-serif" font-size="14" lengthAdjust="spacing" textLength="112" x="121" y="114.158">VehicleAssigned</text><line style="stroke:#181818;stroke-width:0.5;" x1="40.5" x2="313.5" y1="122.1111" y2="122.1111"/><ellipse cx="50.5" cy="135.8552" fill="none" rx="3" ry="3" style="stroke:#038048;stroke-width:1.0;"/><text fill="#000000" font-family="sans-serif" font-size="14" lengthAdjust="spacing" textLength="249" x="59.5" y="139.6463">vehicle: VehicleIdentificationNumber</text></g><!--link s_Booking to s_Customer--><g id="link_s_Booking_s_Customer"><path codeLine="105" d="M438.03,405.37 C450.86,418.77 464.04,432.54 476.69,445.75 " fill="none" id="s_Booking-s_Customer" style="stroke:#181818;stroke-width:1.0;"/><polygon fill="none" points="429.64,396.55,430.9,403.6502,437.9386,405.218,436.6786,398.1178,429.64,396.55" style="stroke:#181818;stroke-width:1.0;"/><polygon fill="#181818" points="485.24,454.73,481.9054,445.4628,481.7823,451.1183,476.1268,450.9952,485.24,454.73" style="stroke:#181818;stroke-width:1.0;"/><line style="stroke:#181818;stroke-width:1.0;" x1="481.7823" x2="476.245" y1="451.1183" y2="445.335"/><text fill="#000000" font-family="sans-serif" font-size="13" lengthAdjust="spacing" textLength="69" x="407.3707" y="429.9906">+customer</text><text fill="#000000" font-family="sans-serif" font-size="13" lengthAdjust="spacing" textLength="8" x="437.8707" y="445.3011">1</text></g><!--link s_Booking to s_RentalClass--><g id="link_s_Booking_s_RentalClass"><path codeLine="106" d="M373.37,408.86 C378.65,434.76 383,456.15 383,456.15 C383,456.15 383,594.72 383,594.72 C383,594.72 368.22,617.05 350.38,644 " fill="none" id="s_Booking-s_RentalClass" style="stroke:#181818;stroke-width:1.0;"/><polygon fill="none" points="370.64,396.42,367.9203,403.0985,373.039,408.1778,375.7588,401.4992,370.64,396.42" style="stroke:#181818;stroke-width:1.0;"/><polygon fill="#181818" points="342.86,654.36,351.1612,649.06,345.6183,650.1896,344.4886,644.6467,342.86,654.36" style="stroke:#181818;stroke-width:1.0;"/><line style="stroke:#181818;stroke-width:1.0;" x1="345.6183" x2="350.035" y1="650.1896" y2="643.52"/><text fill="#000000" font-family="sans-serif" font-size="13" lengthAdjust="spacing" textLength="96" x="351.6136" y="629.5865">+bookingClass</text><text fill="#000000" font-family="sans-serif" font-size="13" lengthAdjust="spacing" textLength="8" x="395.6136" y="644.897">1</text></g><!--link s_Booking to s_Vehicle--><g id="link_s_Booking_s_Vehicle"><path codeLine="107" d="M288.49,406.37 C272.35,427.66 255.54,449.83 240.91,469.14 " fill="none" id="s_Booking-s_Vehicle" style="stroke:#181818;stroke-width:1.0;"/><polygon fill="none" points="296.69,396.55,289.8769,398.9126,289.4374,406.1103,296.2504,403.7477,296.69,396.55" style="stroke:#181818;stroke-width:1.0;"/><polygon fill="#181818" points="232.57,479.15,241.1962,474.3973,235.5919,475.1665,234.8227,469.5622,232.57,479.15" style="stroke:#181818;stroke-width:1.0;"/><line style="stroke:#181818;stroke-width:1.0;" x1="235.5919" x2="240.415" y1="475.1665" y2="468.79"/><text fill="#000000" font-family="sans-serif" font-size="13" lengthAdjust="spacing" textLength="54" x="179.4528" y="454.6588">+vehicle</text><text fill="#000000" font-family="sans-serif" font-size="13" lengthAdjust="spacing" textLength="24" x="194.4528" y="469.9693">0..1</text></g><!--link s_Customer to s_Address--><g id="link_s_Customer_s_Address"><path codeLine="108" d="M626.12,605.16 C659.61,640.73 697.16,680.62 722.05,707.05 " fill="none" id="s_Customer-s_Address" style="stroke:#181818;stroke-width:1.0;"/><polygon fill="#181818" points="617.56,596.01,618.7647,603.1198,625.791,604.7422,624.5862,597.6324,617.56,596.01" style="stroke:#181818;stroke-width:1.0;"/><polygon fill="#181818" points="730.57,716.17,727.322,706.8721,727.1461,712.5263,721.492,712.3504,730.57,716.17" style="stroke:#181818;stroke-width:1.0;"/><line style="stroke:#181818;stroke-width:1.0;" x1="727.1461" x2="721.665" y1="712.5263" y2="706.705"/><text fill="#000000" font-family="sans-serif" font-size="13" lengthAdjust="spacing" textLength="108" x="739.7956" y="691.5845">+contactAddress</text><text fill="#000000" font-family="sans-serif" font-size="13" lengthAdjust="spacing" textLength="8" x="789.7956" y="706.895">1</text></g><!--link s_Customer to s_LicenseInformation--><g id="link_s_Customer_s_LicenseInformation"><path codeLine="109" d="M552,608.83 C552,630.67 552,653.89 552,674.46 " fill="none" id="s_Customer-s_LicenseInformation" style="stroke:#181818;stroke-width:1.0;"/><polygon fill="#181818" points="552,596.01,548,602.01,552,608.01,556,602.01,552,596.01" style="stroke:#181818;stroke-width:1.0;"/><polygon fill="#181818" points="552,687.24,556,678.24,552,682.24,548,678.24,552,687.24" style="stroke:#181818;stroke-width:1.0;"/><line style="stroke:#181818;stroke-width:1.0;" x1="552" x2="552" y1="682.24" y2="674.24"/><text fill="#000000" font-family="sans-serif" font-size="13" lengthAdjust="spacing" textLength="93" x="453.0422" y="662.5837">+driverLicense</text><text fill="#000000" font-family="sans-serif" font-size="13" lengthAdjust="spacing" textLength="24" x="487.5422" y="677.8943">0..1</text></g><!--link s_Location to s_Address--><g id="link_s_Location_s_Address"><path codeLine="110" d="M776.04,575.7 C769.66,615.1 760.91,669.27 755.35,703.64 " fill="none" id="s_Location-s_Address" style="stroke:#181818;stroke-width:1.0;"/><polygon fill="#181818" points="778.23,563.11,773.3247,568.3957,776.3171,574.9566,781.2224,569.6709,778.23,563.11" style="stroke:#181818;stroke-width:1.0;"/><polygon fill="#181818" points="753.18,716.06,758.571,707.8176,753.9815,711.1247,750.6745,706.5352,753.18,716.06" style="stroke:#181818;stroke-width:1.0;"/><line style="stroke:#181818;stroke-width:1.0;" x1="753.9815" x2="755.255" y1="711.1247" y2="703.23"/><text fill="#000000" font-family="sans-serif" font-size="13" lengthAdjust="spacing" textLength="59" x="688.0935" y="691.449">+address</text><text fill="#000000" font-family="sans-serif" font-size="13" lengthAdjust="spacing" textLength="8" x="713.5935" y="706.7596">1</text></g><!--link s_BookingCode to s_xsd__string--><g id="link_s_BookingCode_s_xsd__string"><path codeLine="111" d="M793.39,147.09 C821.82,155.9 845,163.08 845,163.08 C845,163.08 1357,193.08 1357,193.08 C1357,193.08 1548,210.08 1548,210.08 C1548,210.08 1806,225.37 1806,225.37 C1806,225.37 1821.93,255.66 1835.44,281.33 " fill="none" id="s_BookingCode-to-s_xsd__string" style="stroke:#181818;stroke-width:1.0;"/><polygon fill="none" points="1842.08,277.92,1845.2,298.88,1829.69,284.44,1842.08,277.92" style="stroke:#181818;stroke-width:1.0;"/></g><!--link s_Vehicle to s_RentalClass--><g id="link_s_Vehicle_s_RentalClass"><path codeLine="112" d="M223.26,583.12 C231.09,601.42 239.99,622.22 248.66,642.48 " fill="none" id="s_Vehicle-s_RentalClass" style="stroke:#181818;stroke-width:1.0;"/><polygon fill="none" points="217.87,571.52,216.5549,578.6102,222.5938,582.5511,223.909,575.4609,217.87,571.52" style="stroke:#181818;stroke-width:1.0;"/><polygon fill="#181818" points="254.16,654.33,254.2984,644.4821,252.1937,649.7329,246.943,647.6282,254.16,654.33" style="stroke:#181818;stroke-width:1.0;"/><line style="stroke:#181818;stroke-width:1.0;" x1="252.1937" x2="249.045" y1="649.7329" y2="642.38"/><text fill="#000000" font-family="sans-serif" font-size="13" lengthAdjust="spacing" textLength="80" x="167.7284" y="629.5539">+rentalClass</text><text fill="#000000" font-family="sans-serif" font-size="13" lengthAdjust="spacing" textLength="8" x="203.7284" y="644.8645">1</text></g><!--link s_VehicleAssigned to s_Booking--><g id="link_s_VehicleAssigned_s_Booking"><path codeLine="113" d="M205.2,146.98 C226.31,170.89 256.16,204.69 283.67,235.83 " fill="none" id="s_VehicleAssigned-to-s_Booking" style="stroke:#181818;stroke-width:1.0;stroke-dasharray:7.0,7.0;"/><polygon fill="#181818" points="286.36,239.01,283.4261,229.6083,283.0604,235.2533,277.4154,234.8876,286.36,239.01" style="stroke:#181818;stroke-width:1.0;"/><text fill="#000000" font-family="sans-serif" font-size="13" lengthAdjust="spacing" textLength="56" x="262" y="206.6484">&#171;source&#187;</text></g><!--link s_rentals to s_cids--><g id="link_s_rentals_s_cids"><path codeLine="116" d="M1053.0491,118.1795 C1054.6401,118.7998 1056.4484,119.5048 1058.4569,120.288 C1066.4912,123.4205 1077.7309,127.8025 1091.0961,133.0131 C1117.8266,143.4344 1153.0594,157.17 1188.1563,170.8525 C1258.35,198.2175 1328,225.37 1328,225.37 C1328,225.37 1334.055,247.475 1340.205,269.925 C1341.7425,275.5375 1343.2859,281.1716 1344.7422,286.4872 C1344.7877,286.6533 1344.8331,286.8191 1344.8785,286.9846 " fill="none" id="s_rentals-to-s_cids" style="stroke:#181818;stroke-width:1.0;stroke-dasharray:7.0,7.0;"/><polygon fill="#181818" points="1344.8785,286.9846,1346.3583,277.2475,1343.5573,282.1623,1338.6426,279.3613,1344.8785,286.9846" style="stroke:#181818;stroke-width:1.0;"/><text fill="#000000" font-family="sans-serif" font-size="13" lengthAdjust="spacing" textLength="56" x="1288" y="206.6484">&#171;import&#187;</text></g><!--link s_rentals to s_skos--><g id="link_s_rentals_s_skos"><path codeLine="117" d="M1053.0928,136.4955 C1053.1634,136.6827 1053.2343,136.8709 1053.3057,137.0601 C1053.4483,137.4385 1053.5924,137.8208 1053.738,138.2069 C1054.0292,138.9792 1054.3262,139.7669 1054.6287,140.5693 C1055.2338,142.1743 1055.8612,143.8384 1056.509,145.5568 C1057.8048,148.9936 1059.1823,152.6473 1060.6268,156.4789 C1063.5159,164.142 1066.6731,172.5163 1069.98,181.2875 C1083.2075,216.3725 1098.83,257.81 1109.27,285.5 " fill="none" id="s_rentals-to-s_skos" style="stroke:#181818;stroke-width:1.0;stroke-dasharray:7.0,7.0;"/><polygon fill="#181818" points="1111.35,290.01,1111.909,280.177,1109.5819,285.3331,1104.4258,283.006,1111.35,290.01" style="stroke:#181818;stroke-width:1.0;"/><text fill="#000000" font-family="sans-serif" font-size="13" lengthAdjust="spacing" textLength="56" x="1082" y="206.6484">&#171;import&#187;</text></g><!--link s_rentals to s_xsd--><g id="link_s_rentals_s_xsd"><path codeLine="118" d="M1053.065,116.579 C1057.7208,117.4679 1064.2889,118.7217 1072.4936,120.288 C1088.903,123.4205 1111.8588,127.8025 1139.1558,133.0131 C1193.7497,143.4344 1265.7081,157.17 1337.3888,170.8525 C1480.75,198.2175 1623,225.37 1623,225.37 C1623,225.37 1635.5975,247.475 1648.3913,269.925 C1654.7881,281.15 1661.2341,292.4612 1666.1789,301.1387 C1666.3334,301.4099 1666.4865,301.6785 1666.638,301.9445 C1666.7138,302.0774 1666.7892,302.2097 1666.8642,302.3414 " fill="none" id="s_rentals-to-s_xsd" style="stroke:#181818;stroke-width:1.0;stroke-dasharray:7.0,7.0;"/><polygon fill="#181818" points="1666.8642,302.3414,1665.8837,292.5415,1664.3887,297.9972,1658.933,296.5023,1666.8642,302.3414" style="stroke:#181818;stroke-width:1.0;"/><text fill="#000000" font-family="sans-serif" font-size="13" lengthAdjust="spacing" textLength="56" x="1540" y="206.6484">&#171;import&#187;</text></g><!--link s_rentals to s_dc--><g id="link_s_rentals_s_dc"><path codeLine="119" d="M1053.1009,121.004 C1054.0186,121.6796 1055.0027,122.4041 1056.0468,123.1728 C1058.1352,124.7102 1060.4641,126.4247 1062.9842,128.28 C1073.0647,135.7013 1086.2044,145.375 1099.2438,154.975 C1125.3225,174.175 1151,193.08 1151,193.08 C1151,193.08 1190,225.37 1190,225.37 C1190,225.37 1215.93,259.66 1235.99,286.19 " fill="none" id="s_rentals-to-s_dc" style="stroke:#181818;stroke-width:1.0;stroke-dasharray:7.0,7.0;"/><polygon fill="#181818" points="1239.41,289.71,1237.1716,280.1189,1236.394,285.722,1230.7909,284.9445,1239.41,289.71" style="stroke:#181818;stroke-width:1.0;"/><text fill="#000000" font-family="sans-serif" font-size="13" lengthAdjust="spacing" textLength="56" x="1172" y="206.6484">&#171;import&#187;</text></g><!--SRC=[bLRTJzim47_FNs5rBsnT46DZqoge1Ds7aBez3B67ZQaojccjEdPcEq3f-h_ld3YrcwIjUA3axdxtwRkppPpB76kSeLjCvbEj2ab7IYYDhCRIW8X9cvWrojY5OF2hER559YA9u9BPHSvGhiJ24P5CAieCoz79KPBCE6KeOtQcgAa8mZKHB4dCJ3sWqrD4iSMbfU6mbjKY28RRHLF0P96raFU0xR1GIAvan4zoo1jF6UeHJaqFOOFCn7q2E5Eq40omBnvct3AqJ10Y0Xk3UZ_PZ8Fw9NKHtN62BPZzNcItJ4Ss9fCTk6GLEJTpLJjtdvtEO_oZeHuENxj3XNAoW9rC71saxYZbD9PNd83WqhBfEgqIubaR4L7Y4PHiYpw0NLTXKMVigLWjYl-SKirCZVMKEyg3gzT8QG8zzD9rP04TgSkcSSeh-2kxAwXap9NT9C7qXLBpaBsdIjEVW-dGSyukGltR2ZU2fWOifnLWE1oWYo0feMaQ_-lddCoBl3o00O923lnH195GLOSCqDX_LMAgLQxkxZfLQzaMtTBvAafwL1YhilM1rkJUj3bjP7ij-Ty2MhihLOap2DJGJ0pM_HIa0gPJ3D2twa1cF1yxHYKpN9BD7EFWnvmmQTYbl5CwAvFqQRG5Url4XLbEOkKjYhDlxBhGCPizvbpx8cyBqDU-3ikJpw-ksn-3wuBJxbDirCwxQt3RNc5H1fyNs722pj2RYhpYuXxwu0mTL_HN9IXGRnkUVvJJEdA4znfnzdYyAcv7AeCrO8FRmF1-lnH2NF4dvdq7oBNb0ghZTog8tsqgjEGdbNnSF1Pw0VHx7qMkj3L0VsYa5itlvaxmiuuEFeNKucjgcInTF-JOMgObMExzFaz_uVJfAFquIVyiZuzNlTNcLeejrzTXythnGTG9xUkXUouRJRJh-ea7aeUn2Kg1roXJ6x0Pw3E7CCFpZbc3gy3jY2PxmR2Vr_eIwepjt1W-bOnk1bPpMvMi7mjr8IlullgLViEzeT9qY7fzuXVgZNpJY_Ph5xI-ILpe7XxDKfU6Z-n67XqUbdWVOObTh_9NFX85jeZrzvztuAbE1QevR02_IeEFzcujjTUxpMlZhNxYNa_JVyFMKoFqkCzJXp9iAKppI0yFXy7J04xOg48JU4kubqTuOrImShcwMSdSAW1C4-0UOJi1hWDtoIdP42V_0G00]--></g></svg>