<?xml version="1.0" encoding="UTF-8" standalone="no"?>
<!DOCTYPE svg PUBLIC "-//W3C//DTD SVG 1.1//EN"
 "http://www.w3.org/Graphics/SVG/1.1/DTD/svg11.dtd">
<!-- Generated by graphviz version 8.0.5 (20230430.1635)
 -->
<!-- Title: G Pages: 1 -->
<svg width="306pt" height="231pt"
 viewBox="0.00 0.00 306.35 230.50" xmlns="http://www.w3.org/2000/svg" xmlns:xlink="http://www.w3.org/1999/xlink">
<g id="graph0" class="graph" transform="scale(1 1) rotate(0) translate(4 226.5)">
<title>G</title>
<text text-anchor="middle" x="149.18" y="-5.7" font-family="Helvetica,Arial,sans-serif" font-size="14.00">module rentals</text>
<!-- class -->
<g id="node1" class="node">
<title>class</title>
<ellipse fill="none" stroke="black" cx="32.59" cy="-41" rx="27" ry="18"/>
<text text-anchor="middle" x="32.59" y="-37.12" font-family="Helvetica,Arial,sans-serif" font-size="10.00">Class</text>
</g>
<!-- vehicle -->
<g id="node2" class="node">
<title>vehicle</title>
<ellipse fill="none" stroke="black" cx="101.59" cy="-122.75" rx="28.55" ry="18"/>
<text text-anchor="middle" x="101.59" y="-118.88" font-family="Helvetica,Arial,sans-serif" font-size="10.00">Vehicle</text>
</g>
<!-- vehicle&#45;&gt;class -->
<g id="edge1" class="edge">
<title>vehicle&#45;&gt;class</title>
<path fill="none" stroke="black" d="M88.29,-106.37C78.2,-94.71 64.17,-78.49 52.71,-65.25"/>
<polygon fill="black" stroke="black" points="54.81,-63.33 45.62,-58.06 49.52,-67.91 54.81,-63.33"/>
<text text-anchor="middle" x="94.84" y="-78.2" font-family="Helvetica,Arial,sans-serif" font-size="9.00" fill="dimgrey">rentalClass</text>
<text text-anchor="middle" x="63.87" y="-61.56" font-family="Helvetica,Arial,sans-serif" font-size="9.00" fill="blue">1</text>
</g>
<!-- location -->
<g id="node3" class="node">
<title>location</title>
<ellipse fill="none" stroke="black" cx="179.59" cy="-122.75" rx="31.21" ry="18"/>
<text text-anchor="middle" x="179.59" y="-118.88" font-family="Helvetica,Arial,sans-serif" font-size="10.00">Location</text>
</g>
<!-- customer -->
<g id="node4" class="node">
<title>customer</title>
<ellipse fill="none" stroke="black" cx="263.59" cy="-122.75" rx="34.76" ry="18"/>
<text text-anchor="middle" x="263.59" y="-118.88" font-family="Helvetica,Arial,sans-serif" font-size="10.00">Customer</text>
</g>
<!-- booking -->
<g id="node5" class="node">
<title>booking</title>
<ellipse fill="none" stroke="black" cx="153.59" cy="-204.5" rx="30.32" ry="18"/>
<text text-anchor="middle" x="153.59" y="-200.62" font-family="Helvetica,Arial,sans-serif" font-size="10.00">Booking</text>
</g>
<!-- booking&#45;&gt;class -->
<g id="edge2" class="edge">
<title>booking&#45;&gt;class</title>
<path fill="none" stroke="black" d="M123.61,-200.24C88.87,-194.68 33.11,-179.85 7.34,-140.75 -7.37,-118.43 4.08,-88.06 15.93,-66.92"/>
<polygon fill="black" stroke="black" points="19.35,-69.01 21.49,-58.64 13.35,-65.42 19.35,-69.01"/>
<text text-anchor="middle" x="35.72" y="-119.08" font-family="Helvetica,Arial,sans-serif" font-size="9.00" fill="dimgrey">bookingClass</text>
<text text-anchor="middle" x="19.43" y="-73.85" font-family="Helvetica,Arial,sans-serif" font-size="9.00" fill="blue">1</text>
</g>
<!-- booking&#45;&gt;vehicle -->
<g id="edge3" class="edge">
<title>booking&#45;&gt;vehicle</title>
<path fill="none" stroke="black" d="M137.15,-189.32C130.97,-183.36 124.25,-176.06 119.34,-168.5 115.78,-163.02 112.74,-156.72 110.24,-150.6"/>
<polygon fill="black" stroke="black" points="113.3,-149.81 106.53,-141.67 106.75,-152.26 113.3,-149.81"/>
<text text-anchor="middle" x="134.22" y="-159.95" font-family="Helvetica,Arial,sans-serif" font-size="9.00" fill="dimgrey">vehicle</text>
</g>
<!-- booking&#45;&gt;location -->
<g id="edge4" class="edge">
<title>booking&#45;&gt;location</title>
<path fill="none" stroke="black" d="M151.63,-186.09C151.26,-177.64 151.7,-167.45 154.59,-158.75 155.81,-155.1 157.55,-151.5 159.55,-148.07"/>
<polygon fill="black" stroke="black" points="162.98,-150.25 165.68,-140.01 157.18,-146.33 162.98,-150.25"/>
<text text-anchor="middle" x="168.09" y="-159.95" font-family="Helvetica,Arial,sans-serif" font-size="9.00" fill="dimgrey">pickup</text>
<text text-anchor="middle" x="162.53" y="-155.08" font-family="Helvetica,Arial,sans-serif" font-size="9.00" fill="blue">1</text>
</g>
<!-- booking&#45;&gt;location -->
<g id="edge5" class="edge">
<title>booking&#45;&gt;location</title>
<path fill="none" stroke="black" d="M168.95,-188.87C173.99,-183.07 178.97,-175.99 181.59,-168.5 183.47,-163.13 184.12,-157.18 184.08,-151.42"/>
<polygon fill="black" stroke="black" points="187.52,-151.48 183.3,-141.76 180.54,-151.99 187.52,-151.48"/>
<text text-anchor="middle" x="198.84" y="-159.95" font-family="Helvetica,Arial,sans-serif" font-size="9.00" fill="dimgrey">dropoff</text>
<text text-anchor="middle" x="193.05" y="-154.55" font-family="Helvetica,Arial,sans-serif" font-size="9.00" fill="blue">1</text>
</g>
<!-- booking&#45;&gt;customer -->
<g id="edge6" class="edge">
<title>booking&#45;&gt;customer</title>
<path fill="none" stroke="black" d="M177.02,-192.62C189.55,-186.33 204.96,-177.83 217.59,-168.5 226.15,-162.18 234.72,-154.35 242.11,-147.02"/>
<polygon fill="black" stroke="black" points="244.12,-149.95 248.6,-140.35 239.11,-145.06 244.12,-149.95"/>
<text text-anchor="middle" x="246.34" y="-159.95" font-family="Helvetica,Arial,sans-serif" font-size="9.00" fill="dimgrey">customer</text>
<text text-anchor="middle" x="242.98" y="-154.55" font-family="Helvetica,Arial,sans-serif" font-size="9.00" fill="blue">1</text>
</g>
</g>
</svg>
