<?xml version="1.0" encoding="UTF-8" standalone="no"?>
<!DOCTYPE svg PUBLIC "-//W3C//DTD SVG 1.1//EN"
 "http://www.w3.org/Graphics/SVG/1.1/DTD/svg11.dtd">
<!-- Generated by graphviz version 8.0.5 (20230430.1635)
 -->
<!-- Title: G Pages: 1 -->
<svg width="410pt" height="231pt"
 viewBox="0.00 0.00 409.62 230.50" xmlns="http://www.w3.org/2000/svg" xmlns:xlink="http://www.w3.org/1999/xlink">
<g id="graph0" class="graph" transform="scale(1 1) rotate(0) translate(4 226.5)">
<title>G</title>
<text text-anchor="middle" x="200.81" y="-5.7" font-family="Helvetica,Arial,sans-serif" font-size="14.00">module rentals</text>
<!-- class -->
<g id="node1" class="node">
<title>class</title>
<ellipse fill="none" stroke="black" cx="27" cy="-41" rx="27" ry="18"/>
<text text-anchor="middle" x="27" y="-37.12" font-family="Helvetica,Arial,sans-serif" font-size="10.00">Class</text>
</g>
<!-- vehicle -->
<g id="node2" class="node">
<title>vehicle</title>
<ellipse fill="none" stroke="black" cx="130" cy="-122.75" rx="28.55" ry="18"/>
<text text-anchor="middle" x="130" y="-118.88" font-family="Helvetica,Arial,sans-serif" font-size="10.00">Vehicle</text>
</g>
<!-- vehicle&#45;&gt;class -->
<g id="edge2" class="edge">
<title>vehicle&#45;&gt;class</title>
<path fill="none" stroke="black" d="M112.26,-108.14C103.84,-101.67 93.64,-93.82 84.5,-86.75 74.08,-78.69 62.63,-69.78 52.7,-62.05"/>
<polygon fill="black" stroke="black" points="55.13,-58.73 45.09,-55.34 50.83,-64.25 55.13,-58.73"/>
<text text-anchor="middle" x="108.25" y="-78.2" font-family="Helvetica,Arial,sans-serif" font-size="9.00" fill="dimgrey">rentalClass</text>
<text text-anchor="middle" x="46.71" y="-56.54" font-family="Helvetica,Arial,sans-serif" font-size="9.00" fill="blue">1</text>
</g>
<!-- vehicleidentificationnumber -->
<g id="node3" class="node">
<title>vehicleidentificationnumber</title>
<polygon fill="azure" stroke="black" points="210.12,-59 71.88,-59 71.88,-23 210.12,-23 210.12,-59"/>
<text text-anchor="middle" x="141" y="-37.12" font-family="Helvetica,Arial,sans-serif" font-size="10.00">VehicleIdentificationNumber</text>
</g>
<!-- vehicle&#45;&gt;vehicleidentificationnumber -->
<g id="edge1" class="edge">
<title>vehicle&#45;&gt;vehicleidentificationnumber</title>
<path fill="none" stroke="black" d="M132.39,-104.45C133.77,-94.41 135.55,-81.54 137.13,-70.09"/>
<polygon fill="black" stroke="black" points="140.72,-70.66 138.62,-60.27 133.78,-69.7 140.72,-70.66"/>
<text text-anchor="middle" x="143" y="-78.2" font-family="Helvetica,Arial,sans-serif" font-size="9.00" fill="dimgrey">vin</text>
</g>
<!-- location -->
<g id="node4" class="node">
<title>location</title>
<ellipse fill="none" stroke="black" cx="208" cy="-122.75" rx="31.21" ry="18"/>
<text text-anchor="middle" x="208" y="-118.88" font-family="Helvetica,Arial,sans-serif" font-size="10.00">Location</text>
</g>
<!-- cids -->
<g id="node5" class="node">
<title>cids</title>
<polygon fill="azure" stroke="black" points="302.62,-59 245.38,-59 245.38,-23 302.62,-23 302.62,-59"/>
<text text-anchor="middle" x="274" y="-37.12" font-family="Helvetica,Arial,sans-serif" font-size="10.00">cids:Uuid</text>
</g>
<!-- location&#45;&gt;cids -->
<g id="edge3" class="edge">
<title>location&#45;&gt;cids:uuid</title>
<path fill="none" stroke="black" d="M221.04,-105.99C230.07,-95.08 242.31,-80.3 252.74,-67.69"/>
<polygon fill="black" stroke="black" points="255.93,-70.32 259.61,-60.38 250.54,-65.86 255.93,-70.32"/>
<text text-anchor="middle" x="248.75" y="-78.2" font-family="Helvetica,Arial,sans-serif" font-size="9.00" fill="dimgrey">id</text>
</g>
<!-- customer -->
<g id="node6" class="node">
<title>customer</title>
<ellipse fill="none" stroke="black" cx="292" cy="-122.75" rx="34.76" ry="18"/>
<text text-anchor="middle" x="292" y="-118.88" font-family="Helvetica,Arial,sans-serif" font-size="10.00">Customer</text>
</g>
<!-- customer&#45;&gt;cids -->
<g id="edge4" class="edge">
<title>customer&#45;&gt;cids:uuid</title>
<path fill="none" stroke="black" d="M288.09,-104.45C285.81,-94.31 282.86,-81.27 280.26,-69.73"/>
<polygon fill="black" stroke="black" points="283.51,-69.25 277.9,-60.27 276.69,-70.8 283.51,-69.25"/>
<text text-anchor="middle" x="287.75" y="-78.2" font-family="Helvetica,Arial,sans-serif" font-size="9.00" fill="dimgrey">id</text>
</g>
<!-- booking -->
<g id="node7" class="node">
<title>booking</title>
<ellipse fill="none" stroke="black" cx="209" cy="-204.5" rx="30.32" ry="18"/>
<text text-anchor="middle" x="209" y="-200.62" font-family="Helvetica,Arial,sans-serif" font-size="10.00">Booking</text>
</g>
<!-- booking&#45;&gt;class -->
<g id="edge6" class="edge">
<title>booking&#45;&gt;class</title>
<path fill="none" stroke="black" d="M178.54,-201.99C138.71,-198.22 69.99,-185.25 35.75,-140.75 20.36,-120.75 19.73,-91.26 22,-69.71"/>
<polygon fill="black" stroke="black" points="25.58,-70.34 23.44,-59.97 18.64,-69.42 25.58,-70.34"/>
<text text-anchor="middle" x="64.12" y="-119.08" font-family="Helvetica,Arial,sans-serif" font-size="9.00" fill="dimgrey">bookingClass</text>
<text text-anchor="middle" x="20.81" y="-60.17" font-family="Helvetica,Arial,sans-serif" font-size="9.00" fill="blue">1</text>
</g>
<!-- booking&#45;&gt;vehicle -->
<g id="edge7" class="edge">
<title>booking&#45;&gt;vehicle</title>
<path fill="none" stroke="black" d="M185.37,-192.98C174.1,-187.05 161.07,-178.76 151.75,-168.5 147.02,-163.3 143.11,-156.88 139.96,-150.55"/>
<polygon fill="black" stroke="black" points="142.91,-149.56 135.64,-141.85 136.51,-152.41 142.91,-149.56"/>
<text text-anchor="middle" x="166.62" y="-159.95" font-family="Helvetica,Arial,sans-serif" font-size="9.00" fill="dimgrey">vehicle</text>
</g>
<!-- booking&#45;&gt;location -->
<g id="edge8" class="edge">
<title>booking&#45;&gt;location</title>
<path fill="none" stroke="black" d="M195.56,-188.19C191.32,-182.42 187.18,-175.54 185,-168.5 182.85,-161.55 184.53,-154.38 187.78,-147.88"/>
<polygon fill="black" stroke="black" points="191.05,-150.25 193.4,-139.92 185.12,-146.53 191.05,-150.25"/>
<text text-anchor="middle" x="198.5" y="-159.95" font-family="Helvetica,Arial,sans-serif" font-size="9.00" fill="dimgrey">pickup</text>
<text text-anchor="middle" x="190.78" y="-140.12" font-family="Helvetica,Arial,sans-serif" font-size="9.00" fill="blue">1</text>
</g>
<!-- booking&#45;&gt;location -->
<g id="edge9" class="edge">
<title>booking&#45;&gt;location</title>
<path fill="none" stroke="black" d="M211.17,-186.08C211.95,-177.8 212.51,-167.77 212,-158.75 211.87,-156.51 211.7,-154.19 211.5,-151.86"/>
<polygon fill="black" stroke="black" points="214.9,-151.75 210.39,-142.16 207.94,-152.47 214.9,-151.75"/>
<text text-anchor="middle" x="227.25" y="-159.95" font-family="Helvetica,Arial,sans-serif" font-size="9.00" fill="dimgrey">dropoff</text>
<text text-anchor="middle" x="207.76" y="-142.36" font-family="Helvetica,Arial,sans-serif" font-size="9.00" fill="blue">1</text>
</g>
<!-- booking&#45;&gt;customer -->
<g id="edge10" class="edge">
<title>booking&#45;&gt;customer</title>
<path fill="none" stroke="black" d="M224.22,-188.87C236.51,-177.07 254.01,-160.25 268.15,-146.66"/>
<polygon fill="black" stroke="black" points="270.24,-149.55 275.02,-140.1 265.39,-144.5 270.24,-149.55"/>
<text text-anchor="middle" x="274.75" y="-159.95" font-family="Helvetica,Arial,sans-serif" font-size="9.00" fill="dimgrey">customer</text>
<text text-anchor="middle" x="278.65" y="-140.3" font-family="Helvetica,Arial,sans-serif" font-size="9.00" fill="blue">1</text>
</g>
<!-- unknown -->
<g id="node8" class="node">
<title>unknown</title>
<polygon fill="none" stroke="grey" points="401.62,-140.75 344.38,-140.75 344.38,-104.75 401.62,-104.75 401.62,-140.75"/>
<text text-anchor="middle" x="373" y="-118.88" font-family="Helvetica,Arial,sans-serif" font-size="10.00" fill="grey">Unknown</text>
</g>
<!-- booking&#45;&gt;unknown -->
<g id="edge5" class="edge">
<title>booking&#45;&gt;unknown</title>
<path fill="none" stroke="black" d="M234.8,-194.62C252.82,-188.11 277.28,-178.67 298,-168.5 311,-162.12 324.73,-154.28 336.84,-146.94"/>
<polygon fill="black" stroke="black" points="338.48,-149.43 345.17,-141.21 334.81,-143.47 338.48,-149.43"/>
<text text-anchor="middle" x="341.75" y="-159.95" font-family="Helvetica,Arial,sans-serif" font-size="9.00" fill="dimgrey">bookingCode</text>
</g>
</g>
</svg>
