<?xml version="1.0" encoding="UTF-8" standalone="no"?>
<!DOCTYPE svg PUBLIC "-//W3C//DTD SVG 1.1//EN"
 "http://www.w3.org/Graphics/SVG/1.1/DTD/svg11.dtd">
<!-- Generated by graphviz version 8.0.5 (20230430.1635)
 -->
<!-- Title: G Pages: 1 -->
<svg width="284pt" height="231pt"
 viewBox="0.00 0.00 283.76 230.50" xmlns="http://www.w3.org/2000/svg" xmlns:xlink="http://www.w3.org/1999/xlink">
<g id="graph0" class="graph" transform="scale(1 1) rotate(0) translate(4 226.5)">
<title>G</title>
<text text-anchor="middle" x="137.88" y="-5.7" font-family="Helvetica,Arial,sans-serif" font-size="14.00">module rentals</text>
<!-- class -->
<g id="node1" class="node">
<title>class</title>
<ellipse fill="none" stroke="black" cx="27" cy="-41" rx="27" ry="18"/>
<text text-anchor="middle" x="27" y="-37.12" font-family="Helvetica,Arial,sans-serif" font-size="10.00">Class</text>
</g>
<!-- vehicle -->
<g id="node2" class="node">
<title>vehicle</title>
<ellipse fill="none" stroke="black" cx="105" cy="-122.75" rx="28.55" ry="18"/>
<text text-anchor="middle" x="105" y="-118.88" font-family="Helvetica,Arial,sans-serif" font-size="10.00">Vehicle</text>
</g>
<!-- vehicle&#45;&gt;class -->
<g id="edge1" class="edge">
<title>vehicle&#45;&gt;class</title>
<path fill="none" stroke="black" d="M85.84,-108.91C77.31,-102.72 67.42,-94.89 59.5,-86.75 53.7,-80.79 48.1,-73.74 43.24,-67.02"/>
<polygon fill="black" stroke="black" points="45.69,-65.41 37.1,-59.19 39.94,-69.4 45.69,-65.41"/>
<text text-anchor="middle" x="83.25" y="-78.2" font-family="Helvetica,Arial,sans-serif" font-size="9.00" fill="dimgrey">rentalClass</text>
<text text-anchor="middle" x="54.39" y="-64.58" font-family="Helvetica,Arial,sans-serif" font-size="9.00" fill="blue">1</text>
</g>
<!-- location -->
<g id="node3" class="node">
<title>location</title>
<ellipse fill="none" stroke="black" cx="118" cy="-41" rx="31.21" ry="18"/>
<text text-anchor="middle" x="118" y="-37.12" font-family="Helvetica,Arial,sans-serif" font-size="10.00">Location</text>
</g>
<!-- vehicle&#45;&gt;location -->
<g id="edge2" class="edge">
<title>vehicle&#45;&gt;location</title>
<path fill="none" stroke="black" d="M107.02,-104.71C108.08,-96.34 109.48,-86.12 111,-77 111.4,-74.62 111.84,-72.15 112.3,-69.67"/>
<polygon fill="black" stroke="black" points="115.89,-70.53 114.36,-60.05 109.02,-69.2 115.89,-70.53"/>
<text text-anchor="middle" x="133.5" y="-78.2" font-family="Helvetica,Arial,sans-serif" font-size="9.00" fill="dimgrey">onProperty</text>
</g>
<!-- customer -->
<g id="node4" class="node">
<title>customer</title>
<ellipse fill="none" stroke="black" cx="241" cy="-122.75" rx="34.76" ry="18"/>
<text text-anchor="middle" x="241" y="-118.88" font-family="Helvetica,Arial,sans-serif" font-size="10.00">Customer</text>
</g>
<!-- booking -->
<g id="node5" class="node">
<title>booking</title>
<ellipse fill="none" stroke="black" cx="147" cy="-204.5" rx="30.32" ry="18"/>
<text text-anchor="middle" x="147" y="-200.62" font-family="Helvetica,Arial,sans-serif" font-size="10.00">Booking</text>
</g>
<!-- booking&#45;&gt;class -->
<g id="edge3" class="edge">
<title>booking&#45;&gt;class</title>
<path fill="none" stroke="black" d="M117.55,-199.3C85.04,-192.92 34.2,-177.37 10.75,-140.75 -3.12,-119.1 4.48,-89.48 13.36,-68.34"/>
<polygon fill="black" stroke="black" points="16.91,-69.98 17.87,-59.43 10.54,-67.08 16.91,-69.98"/>
<text text-anchor="middle" x="39.12" y="-119.08" font-family="Helvetica,Arial,sans-serif" font-size="9.00" fill="dimgrey">bookingClass</text>
<text text-anchor="middle" x="18.05" y="-74.75" font-family="Helvetica,Arial,sans-serif" font-size="9.00" fill="blue">1</text>
</g>
<!-- booking&#45;&gt;vehicle -->
<g id="edge4" class="edge">
<title>booking&#45;&gt;vehicle</title>
<path fill="none" stroke="black" d="M137.28,-187.26C133.85,-181.4 130.04,-174.7 126.75,-168.5 123.63,-162.64 120.43,-156.26 117.47,-150.2"/>
<polygon fill="black" stroke="black" points="120.27,-148.96 112.77,-141.47 113.96,-152 120.27,-148.96"/>
<text text-anchor="middle" x="141.62" y="-159.95" font-family="Helvetica,Arial,sans-serif" font-size="9.00" fill="dimgrey">vehicle</text>
</g>
<!-- booking&#45;&gt;location -->
<g id="edge5" class="edge">
<title>booking&#45;&gt;location</title>
<path fill="none" stroke="black" d="M152.99,-186.69C160.88,-161.62 172,-113.5 156,-77 153.61,-71.56 149.92,-66.59 145.75,-62.21"/>
<polygon fill="black" stroke="black" points="148.64,-60.2 138.92,-56 143.9,-65.35 148.64,-60.2"/>
<text text-anchor="middle" x="173" y="-119.08" font-family="Helvetica,Arial,sans-serif" font-size="9.00" fill="dimgrey">from</text>
</g>
<!-- booking&#45;&gt;customer -->
<g id="edge6" class="edge">
<title>booking&#45;&gt;customer</title>
<path fill="none" stroke="black" d="M163.81,-189.24C178.11,-177.11 198.87,-159.49 215.27,-145.58"/>
<polygon fill="black" stroke="black" points="217.02,-147.83 222.38,-138.7 212.49,-142.5 217.02,-147.83"/>
<text text-anchor="middle" x="217.75" y="-159.95" font-family="Helvetica,Arial,sans-serif" font-size="9.00" fill="dimgrey">customer</text>
<text text-anchor="middle" x="215.03" y="-153.19" font-family="Helvetica,Arial,sans-serif" font-size="9.00" fill="blue">1</text>
</g>
</g>
</svg>
