<?xml version="1.0" encoding="UTF-8" standalone="no"?>
<!DOCTYPE svg PUBLIC "-//W3C//DTD SVG 1.1//EN"
 "http://www.w3.org/Graphics/SVG/1.1/DTD/svg11.dtd">
<!-- Generated by graphviz version 8.0.5 (20230430.1635)
 -->
<!-- Title: G Pages: 1 -->
<svg width="329pt" height="208pt"
 viewBox="0.00 0.00 329.19 207.50" xmlns="http://www.w3.org/2000/svg" xmlns:xlink="http://www.w3.org/1999/xlink">
<g id="graph0" class="graph" transform="scale(1 1) rotate(0) translate(4 203.5)">
<title>G</title>
<!-- booking -->
<g id="node1" class="node">
<title>booking</title>
<ellipse fill="none" stroke="black" cx="176.42" cy="-181.5" rx="30.32" ry="18"/>
<text text-anchor="middle" x="176.42" y="-177.62" font-family="Helvetica,Arial,sans-serif" font-size="10.00">Booking</text>
</g>
<!-- rentalclass -->
<g id="node2" class="node">
<title>rentalclass</title>
<ellipse fill="none" stroke="black" cx="37.42" cy="-18" rx="37.42" ry="18"/>
<text text-anchor="middle" x="37.42" y="-14.12" font-family="Helvetica,Arial,sans-serif" font-size="10.00">rentalclass</text>
</g>
<!-- booking&#45;&gt;rentalclass -->
<g id="edge1" class="edge">
<title>booking&#45;&gt;rentalclass</title>
<path fill="none" stroke="black" d="M146.44,-177.24C111.71,-171.68 55.95,-156.85 30.17,-117.75 16.32,-96.73 20.69,-67.43 26.97,-46.22"/>
<polygon fill="black" stroke="black" points="30.55,-47.54 30.34,-36.94 23.9,-45.36 30.55,-47.54"/>
<text text-anchor="middle" x="58.55" y="-96.08" font-family="Helvetica,Arial,sans-serif" font-size="9.00" fill="dimgrey">bookingClass</text>
<text text-anchor="middle" x="32.72" y="-52.13" font-family="Helvetica,Arial,sans-serif" font-size="9.00" fill="blue">1..1</text>
</g>
<!-- vehicle -->
<g id="node3" class="node">
<title>vehicle</title>
<ellipse fill="none" stroke="black" cx="124.42" cy="-99.75" rx="28.55" ry="18"/>
<text text-anchor="middle" x="124.42" y="-95.88" font-family="Helvetica,Arial,sans-serif" font-size="10.00">Vehicle</text>
</g>
<!-- booking&#45;&gt;vehicle -->
<g id="edge2" class="edge">
<title>booking&#45;&gt;vehicle</title>
<path fill="none" stroke="black" d="M159.98,-166.32C153.8,-160.36 147.08,-153.06 142.17,-145.5 138.62,-140.02 135.58,-133.72 133.07,-127.6"/>
<polygon fill="black" stroke="black" points="136.14,-126.81 129.36,-118.67 129.58,-129.26 136.14,-126.81"/>
<text text-anchor="middle" x="157.05" y="-136.95" font-family="Helvetica,Arial,sans-serif" font-size="9.00" fill="dimgrey">vehicle</text>
<text text-anchor="middle" x="143.62" y="-128.01" font-family="Helvetica,Arial,sans-serif" font-size="9.00" fill="blue">0..1</text>
</g>
<!-- location -->
<g id="node4" class="node">
<title>location</title>
<ellipse fill="none" stroke="black" cx="202.42" cy="-99.75" rx="31.21" ry="18"/>
<text text-anchor="middle" x="202.42" y="-95.88" font-family="Helvetica,Arial,sans-serif" font-size="10.00">Location</text>
</g>
<!-- booking&#45;&gt;location -->
<g id="edge3" class="edge">
<title>booking&#45;&gt;location</title>
<path fill="none" stroke="black" d="M174.46,-163.09C174.09,-154.64 174.53,-144.45 177.42,-135.75 178.64,-132.1 180.38,-128.5 182.39,-125.07"/>
<polygon fill="black" stroke="black" points="185.81,-127.25 188.52,-117.01 180.01,-123.33 185.81,-127.25"/>
<text text-anchor="middle" x="190.92" y="-136.95" font-family="Helvetica,Arial,sans-serif" font-size="9.00" fill="dimgrey">pickup</text>
<text text-anchor="middle" x="185.36" y="-132.08" font-family="Helvetica,Arial,sans-serif" font-size="9.00" fill="blue">1..1</text>
</g>
<!-- booking&#45;&gt;location -->
<g id="edge4" class="edge">
<title>booking&#45;&gt;location</title>
<path fill="none" stroke="black" d="M191.78,-165.87C196.82,-160.07 201.8,-152.99 204.42,-145.5 206.31,-140.13 206.95,-134.18 206.91,-128.42"/>
<polygon fill="black" stroke="black" points="210.35,-128.48 206.13,-118.76 203.37,-128.99 210.35,-128.48"/>
<text text-anchor="middle" x="221.67" y="-136.95" font-family="Helvetica,Arial,sans-serif" font-size="9.00" fill="dimgrey">dropoff</text>
<text text-anchor="middle" x="215.88" y="-131.55" font-family="Helvetica,Arial,sans-serif" font-size="9.00" fill="blue">1..1</text>
</g>
<!-- customer -->
<g id="node5" class="node">
<title>customer</title>
<ellipse fill="none" stroke="black" cx="286.42" cy="-99.75" rx="34.76" ry="18"/>
<text text-anchor="middle" x="286.42" y="-95.88" font-family="Helvetica,Arial,sans-serif" font-size="10.00">Customer</text>
</g>
<!-- booking&#45;&gt;customer -->
<g id="edge5" class="edge">
<title>booking&#45;&gt;customer</title>
<path fill="none" stroke="black" d="M199.85,-169.62C212.38,-163.33 227.79,-154.83 240.42,-145.5 248.98,-139.18 257.55,-131.35 264.94,-124.02"/>
<polygon fill="black" stroke="black" points="266.95,-126.95 271.43,-117.35 261.94,-122.06 266.95,-126.95"/>
<text text-anchor="middle" x="269.17" y="-136.95" font-family="Helvetica,Arial,sans-serif" font-size="9.00" fill="dimgrey">customer</text>
<text text-anchor="middle" x="265.81" y="-131.55" font-family="Helvetica,Arial,sans-serif" font-size="9.00" fill="blue">1..1</text>
</g>
<!-- vehicle&#45;&gt;rentalclass -->
<g id="edge6" class="edge">
<title>vehicle&#45;&gt;rentalclass</title>
<path fill="none" stroke="black" d="M108.87,-84.49C95.92,-72.62 77.24,-55.5 62.23,-41.74"/>
<polygon fill="black" stroke="black" points="65.07,-39.67 55.33,-35.5 60.34,-44.83 65.07,-39.67"/>
<text text-anchor="middle" x="109.67" y="-55.2" font-family="Helvetica,Arial,sans-serif" font-size="9.00" fill="dimgrey">rentalClass</text>
<text text-anchor="middle" x="73.4" y="-36.84" font-family="Helvetica,Arial,sans-serif" font-size="9.00" fill="blue">1..1</text>
</g>
</g>
</svg>
