<?xml version="1.0" encoding="UTF-8" standalone="no"?>
<!DOCTYPE svg PUBLIC "-//W3C//DTD SVG 1.1//EN"
 "http://www.w3.org/Graphics/SVG/1.1/DTD/svg11.dtd">
<!-- Generated by graphviz version 8.0.5 (20230430.1635)
 -->
<!-- Title: G Pages: 1 -->
<svg width="995pt" height="347pt"
 viewBox="0.00 0.00 994.51 347.00" xmlns="http://www.w3.org/2000/svg" xmlns:xlink="http://www.w3.org/1999/xlink">
<g id="graph0" class="graph" transform="scale(1 1) rotate(0) translate(36 311)">
<title>G</title>
<text text-anchor="middle" x="461.25" y="-5.7" font-family="Helvetica,Arial,sans-serif" font-size="14.00">module rentals</text>
<!-- cids_vehicleidentificationnumber -->
<g id="node1" class="node">
<title>cids_vehicleidentificationnumber</title>
<ellipse fill="none" stroke="dimgrey" stroke-dasharray="5,2" cx="94.23" cy="-41" rx="94.23" ry="18"/>
<text text-anchor="middle" x="94.23" y="-37.12" font-family="Helvetica,Arial,sans-serif" font-size="10.00" fill="dimgrey">cids:VehicleIdentificationNumber</text>
</g>
<!-- cids_uuid -->
<g id="node2" class="node">
<title>cids_uuid</title>
<ellipse fill="none" stroke="dimgrey" stroke-dasharray="5,2" cx="700.23" cy="-41" rx="33.87" ry="18"/>
<text text-anchor="middle" x="700.23" y="-37.12" font-family="Helvetica,Arial,sans-serif" font-size="10.00" fill="dimgrey">cids:Uuid</text>
</g>
<!-- xsd_date -->
<g id="node3" class="node">
<title>xsd_date</title>
<ellipse fill="none" stroke="dimgrey" stroke-dasharray="5,2" cx="428.23" cy="-149" rx="31.66" ry="18"/>
<text text-anchor="middle" x="428.23" y="-145.12" font-family="Helvetica,Arial,sans-serif" font-size="10.00" fill="dimgrey">xsd:date</text>
</g>
<!-- xsd_string -->
<g id="node4" class="node">
<title>xsd_string</title>
<ellipse fill="none" stroke="dimgrey" stroke-dasharray="5,2" cx="632.23" cy="-257" rx="34.76" ry="18"/>
<text text-anchor="middle" x="632.23" y="-253.12" font-family="Helvetica,Arial,sans-serif" font-size="10.00" fill="dimgrey">xsd:string</text>
</g>
<!-- class -->
<g id="node5" class="node">
<title>class</title>
<ellipse fill="none" stroke="black" stroke-width="1.5" cx="287.23" cy="-41" rx="27" ry="18"/>
<text text-anchor="middle" x="287.23" y="-37.12" font-family="Helvetica,Arial,sans-serif" font-size="10.00">Class</text>
</g>
<!-- vehicle -->
<g id="node6" class="node">
<title>vehicle</title>
<ellipse fill="none" stroke="black" stroke-width="1.5" cx="149.23" cy="-149" rx="28.55" ry="18"/>
<text text-anchor="middle" x="149.23" y="-145.12" font-family="Helvetica,Arial,sans-serif" font-size="10.00">Vehicle</text>
</g>
<!-- vehicle&#45;&gt;cids_vehicleidentificationnumber -->
<g id="edge1" class="edge">
<title>vehicle&#45;&gt;cids_vehicleidentificationnumber</title>
<g id="a_edge1"><a xlink:title="vin">
<path fill="none" stroke="black" d="M149.23,-125.68C149.23,-125.68 149.23,-60.93 149.23,-60.93"/>
<polygon fill="black" stroke="black" points="154.23,-129.68 144.23,-129.68 144.23,-127.68 154.23,-127.68 154.23,-129.68"/>
<polyline fill="none" stroke="black" points="149.23,-130.68 149.23,-125.68"/>
<polygon fill="black" stroke="black" points="144.23,-56.93 154.23,-56.93 154.23,-58.93 144.23,-58.93 144.23,-56.93"/>
<polyline fill="none" stroke="black" points="149.23,-55.93 149.23,-60.93"/>
</a>
</g>
</g>
<!-- vehicle&#45;&gt;class -->
<g id="edge2" class="edge">
<title>vehicle&#45;&gt;class</title>
<g id="a_edge2"><a xlink:title="rentalClass">
<path fill="none" stroke="black" d="M188.18,-149C188.18,-149 278.23,-149 278.23,-149 278.23,-149 278.23,-63.35 278.23,-63.35"/>
<polygon fill="black" stroke="black" points="188.18,-149 178.18,-144.5 183.18,-149 178.18,-149 178.18,-149 178.18,-149 183.18,-149 178.18,-153.5 188.18,-149 188.18,-149"/>
<polygon fill="black" stroke="black" points="273.23,-59.35 283.23,-59.35 283.23,-61.35 273.23,-61.35 273.23,-59.35"/>
<polyline fill="none" stroke="black" points="278.23,-58.35 278.23,-63.35"/>
</a>
</g>
</g>
<!-- location -->
<g id="node7" class="node">
<title>location</title>
<ellipse fill="none" stroke="black" stroke-width="1.5" cx="563.23" cy="-149" rx="31.21" ry="18"/>
<text text-anchor="middle" x="563.23" y="-145.12" font-family="Helvetica,Arial,sans-serif" font-size="10.00">Location</text>
</g>
<!-- location&#45;&gt;cids_uuid -->
<g id="edge3" class="edge">
<title>location&#45;&gt;cids_uuid</title>
<g id="a_edge3"><a xlink:title="id">
<path fill="none" stroke="black" d="M598.08,-143C598.08,-143 643.39,-143 643.39,-143 643.39,-143 643.39,-35 643.39,-35 643.39,-35 662.82,-35 662.82,-35"/>
<polygon fill="black" stroke="black" points="594.08,-148 594.08,-138 596.08,-138 596.08,-148 594.08,-148"/>
<polyline fill="none" stroke="black" points="593.08,-143 598.08,-143"/>
<polygon fill="black" stroke="black" points="666.82,-30 666.82,-40 664.82,-40 664.82,-30 666.82,-30"/>
<polyline fill="none" stroke="black" points="667.82,-35 662.82,-35"/>
</a>
</g>
</g>
<!-- address -->
<g id="node8" class="node">
<title>address</title>
<ellipse fill="none" stroke="dimgrey" stroke-dasharray="5,2" cx="563.23" cy="-41" rx="30.77" ry="18"/>
<text text-anchor="middle" x="563.23" y="-37.12" font-family="Helvetica,Arial,sans-serif" font-size="10.00" fill="dimgrey">Address</text>
</g>
<!-- location&#45;&gt;address -->
<g id="edge4" class="edge">
<title>location&#45;&gt;address</title>
<g id="a_edge4"><a xlink:title="address">
<path fill="none" stroke="black" d="M563.23,-125.68C563.23,-125.68 563.23,-64.41 563.23,-64.41"/>
<polygon fill="black" stroke="black" points="568.23,-129.68 558.23,-129.68 558.23,-127.68 568.23,-127.68 568.23,-129.68"/>
<polyline fill="none" stroke="black" points="563.23,-130.68 563.23,-125.68"/>
<polygon fill="black" stroke="black" points="558.23,-60.41 568.23,-60.41 568.23,-62.41 558.23,-62.41 558.23,-60.41"/>
<polyline fill="none" stroke="black" points="563.23,-59.41 563.23,-64.41"/>
</a>
</g>
</g>
<!-- customer -->
<g id="node9" class="node">
<title>customer</title>
<ellipse fill="none" stroke="black" stroke-width="1.5" cx="701.23" cy="-149" rx="34.76" ry="18"/>
<text text-anchor="middle" x="701.23" y="-145.12" font-family="Helvetica,Arial,sans-serif" font-size="10.00">Customer</text>
</g>
<!-- customer&#45;&gt;cids_uuid -->
<g id="edge5" class="edge">
<title>customer&#45;&gt;cids_uuid</title>
<g id="a_edge5"><a xlink:title="id">
<path fill="none" stroke="black" d="M700.28,-125.68C700.28,-125.68 700.28,-64.41 700.28,-64.41"/>
<polygon fill="black" stroke="black" points="705.28,-129.68 695.28,-129.68 695.28,-127.68 705.28,-127.68 705.28,-129.68"/>
<polyline fill="none" stroke="black" points="700.28,-130.68 700.28,-125.68"/>
<polygon fill="black" stroke="black" points="695.28,-60.41 705.28,-60.41 705.28,-62.41 695.28,-62.41 695.28,-60.41"/>
<polyline fill="none" stroke="black" points="700.28,-59.41 700.28,-64.41"/>
</a>
</g>
</g>
<!-- customer&#45;&gt;address -->
<g id="edge6" class="edge">
<title>customer&#45;&gt;address</title>
<g id="a_edge6"><a xlink:title="contactAddress">
<path fill="none" stroke="black" d="M662.9,-155C662.9,-155 620.43,-155 620.43,-155 620.43,-155 620.43,-47 620.43,-47 620.43,-47 597.5,-47 597.5,-47"/>
<polygon fill="black" stroke="black" points="666.9,-150 666.9,-160 664.9,-160 664.9,-150 666.9,-150"/>
<polyline fill="none" stroke="black" points="667.9,-155 662.9,-155"/>
<polygon fill="black" stroke="black" points="593.5,-52 593.5,-42 595.5,-42 595.5,-52 593.5,-52"/>
<polyline fill="none" stroke="black" points="592.5,-47 597.5,-47"/>
</a>
</g>
</g>
<!-- licenseinformation -->
<g id="node10" class="node">
<title>licenseinformation</title>
<ellipse fill="none" stroke="dimgrey" stroke-dasharray="5,2" cx="864.23" cy="-41" rx="58.28" ry="18"/>
<text text-anchor="middle" x="864.23" y="-37.12" font-family="Helvetica,Arial,sans-serif" font-size="10.00" fill="dimgrey">LicenseInformation</text>
</g>
<!-- customer&#45;&gt;licenseinformation -->
<g id="edge7" class="edge">
<title>customer&#45;&gt;licenseinformation</title>
<g id="a_edge7"><a xlink:title="driverLicense">
<path fill="none" stroke="black" d="M741.1,-149C741.1,-149 770.97,-149 770.97,-149 770.97,-149 770.97,-41 770.97,-41 770.97,-41 800.69,-41 800.69,-41"/>
<polygon fill="black" stroke="black" points="737.1,-154 737.1,-144 739.1,-144 739.1,-154 737.1,-154"/>
<polyline fill="none" stroke="black" points="736.1,-149 741.1,-149"/>
<polygon fill="black" stroke="black" points="804.69,-36 804.69,-46 802.69,-46 802.69,-36 804.69,-36"/>
<polyline fill="none" stroke="black" points="805.69,-41 800.69,-41"/>
</a>
</g>
</g>
<!-- booking -->
<g id="node11" class="node">
<title>booking</title>
<ellipse fill="none" stroke="black" stroke-width="1.5" cx="495.23" cy="-257" rx="30.32" ry="18"/>
<text text-anchor="middle" x="495.23" y="-253.12" font-family="Helvetica,Arial,sans-serif" font-size="10.00">Booking</text>
</g>
<!-- booking&#45;&gt;xsd_date -->
<g id="edge9" class="edge">
<title>booking&#45;&gt;xsd_date</title>
<g id="a_edge9"><a xlink:title="pickupDate">
<path fill="none" stroke="black" d="M490.9,-234.01C490.9,-234.01 490.9,-145 490.9,-145 490.9,-145 464.56,-145 464.56,-145"/>
<polygon fill="black" stroke="black" points="495.9,-238.01 485.9,-238.01 485.9,-236.01 495.9,-236.01 495.9,-238.01"/>
<polyline fill="none" stroke="black" points="490.9,-239.01 490.9,-234.01"/>
<polygon fill="black" stroke="black" points="460.56,-150 460.56,-140 462.56,-140 462.56,-150 460.56,-150"/>
<polyline fill="none" stroke="black" points="459.56,-145 464.56,-145"/>
</a>
</g>
</g>
<!-- booking&#45;&gt;xsd_date -->
<g id="edge10" class="edge">
<title>booking&#45;&gt;xsd_date</title>
<g id="a_edge10"><a xlink:title="dropoffDate">
<path fill="none" stroke="black" d="M499.56,-233.93C499.56,-233.93 499.56,-138 499.56,-138 499.56,-138 458.98,-138 458.98,-138"/>
<polygon fill="black" stroke="black" points="504.56,-237.93 494.56,-237.93 494.56,-235.93 504.56,-235.93 504.56,-237.93"/>
<polyline fill="none" stroke="black" points="499.56,-238.93 499.56,-233.93"/>
<polygon fill="black" stroke="black" points="454.98,-143 454.98,-133 456.98,-133 456.98,-143 454.98,-143"/>
<polyline fill="none" stroke="black" points="453.98,-138 458.98,-138"/>
</a>
</g>
</g>
<!-- booking&#45;&gt;class -->
<g id="edge11" class="edge">
<title>booking&#45;&gt;class</title>
<g id="a_edge11"><a xlink:title="bookingClass">
<path fill="none" stroke="black" d="M456.29,-251C456.29,-251 296.23,-251 296.23,-251 296.23,-251 296.23,-63.19 296.23,-63.19"/>
<polygon fill="black" stroke="black" points="456.29,-251 466.29,-255.5 461.29,-251 466.29,-251 466.29,-251 466.29,-251 461.29,-251 466.29,-246.5 456.29,-251 456.29,-251"/>
<polygon fill="black" stroke="black" points="291.23,-59.19 301.23,-59.19 301.23,-61.19 291.23,-61.19 291.23,-59.19"/>
<polyline fill="none" stroke="black" points="296.23,-58.19 296.23,-63.19"/>
</a>
</g>
</g>
<!-- booking&#45;&gt;vehicle -->
<g id="edge12" class="edge">
<title>booking&#45;&gt;vehicle</title>
<g id="a_edge12"><a xlink:title="vehicle">
<path fill="none" stroke="black" d="M456.32,-263C456.32,-263 149.23,-263 149.23,-263 149.23,-263 149.23,-172.32 149.23,-172.32"/>
<polygon fill="black" stroke="black" points="456.32,-263 466.32,-267.5 461.32,-263 466.32,-263 466.32,-263 466.32,-263 461.32,-263 466.32,-258.5 456.32,-263 456.32,-263"/>
<polygon fill="black" stroke="black" points="144.23,-168.32 154.23,-168.32 154.23,-170.32 144.23,-170.32 144.23,-168.32"/>
<polyline fill="none" stroke="black" points="149.23,-167.32 149.23,-172.32"/>
</a>
</g>
</g>
<!-- booking&#45;&gt;location -->
<g id="edge13" class="edge">
<title>booking&#45;&gt;location</title>
<g id="a_edge13"><a xlink:title="pickup">
<path fill="none" stroke="black" d="M508.22,-230.59C508.22,-230.59 508.22,-152 508.22,-152 508.22,-152 527.19,-152 527.19,-152"/>
<polygon fill="black" stroke="black" points="508.22,-230.59 503.72,-240.59 508.22,-235.59 508.22,-240.59 508.22,-240.59 508.22,-240.59 508.22,-235.59 512.72,-240.59 508.22,-230.59 508.22,-230.59"/>
<polygon fill="black" stroke="black" points="531.19,-147 531.19,-157 529.19,-157 529.19,-147 531.19,-147"/>
<polyline fill="none" stroke="black" points="532.19,-152 527.19,-152"/>
</a>
</g>
</g>
<!-- booking&#45;&gt;location -->
<g id="edge14" class="edge">
<title>booking&#45;&gt;location</title>
<g id="a_edge14"><a xlink:title="dropoff">
<path fill="none" stroke="black" d="M516.89,-234.19C516.89,-234.19 516.89,-159 516.89,-159 516.89,-159 531.81,-159 531.81,-159"/>
<polygon fill="black" stroke="black" points="516.89,-234.19 512.39,-244.19 516.89,-239.19 516.89,-244.19 516.89,-244.19 516.89,-244.19 516.89,-239.19 521.39,-244.19 516.89,-234.19 516.89,-234.19"/>
<polygon fill="black" stroke="black" points="535.81,-154 535.81,-164 533.81,-164 533.81,-154 535.81,-154"/>
<polyline fill="none" stroke="black" points="536.81,-159 531.81,-159"/>
</a>
</g>
</g>
<!-- booking&#45;&gt;customer -->
<g id="edge15" class="edge">
<title>booking&#45;&gt;customer</title>
<g id="a_edge15"><a xlink:title="customer">
<path fill="none" stroke="black" d="M473.57,-233.96C473.57,-233.96 473.57,-191 473.57,-191 473.57,-191 701.49,-191 701.49,-191 701.49,-191 701.49,-172.06 701.49,-172.06"/>
<polygon fill="black" stroke="black" points="473.57,-233.96 469.07,-243.96 473.57,-238.96 473.57,-243.96 473.57,-243.96 473.57,-243.96 473.57,-238.96 478.07,-243.96 473.57,-233.96 473.57,-233.96"/>
<polygon fill="black" stroke="black" points="696.49,-168.06 706.49,-168.06 706.49,-170.06 696.49,-170.06 696.49,-168.06"/>
<polyline fill="none" stroke="black" points="701.49,-167.06 701.49,-172.06"/>
</a>
</g>
</g>
<!-- unknown -->
<g id="node12" class="node">
<title>unknown</title>
<polygon fill="none" stroke="grey" points="864.85,-167 807.6,-167 807.6,-131 864.85,-131 864.85,-167"/>
<text text-anchor="middle" x="836.23" y="-145.12" font-family="Helvetica,Arial,sans-serif" font-size="10.00" fill="grey">Unknown</text>
</g>
<!-- booking&#45;&gt;unknown -->
<g id="edge8" class="edge">
<title>booking&#45;&gt;unknown</title>
<g id="a_edge8"><a xlink:title="bookingCode">
<path fill="none" stroke="black" d="M482.23,-235.4C482.23,-235.4 482.23,-215 482.23,-215 482.23,-215 836.23,-215 836.23,-215 836.23,-215 836.23,-172.38 836.23,-172.38"/>
<polygon fill="black" stroke="black" points="487.23,-239.4 477.23,-239.4 477.23,-237.4 487.23,-237.4 487.23,-239.4"/>
<polyline fill="none" stroke="black" points="482.23,-240.4 482.23,-235.4"/>
<polygon fill="black" stroke="black" points="831.23,-168.38 841.23,-168.38 841.23,-170.38 831.23,-170.38 831.23,-168.38"/>
<polyline fill="none" stroke="black" points="836.23,-167.38 836.23,-172.38"/>
</a>
</g>
</g>
</g>
</svg>
