<?xml version="1.0" encoding="UTF-8" standalone="no"?>
<!DOCTYPE svg PUBLIC "-//W3C//DTD SVG 1.1//EN"
 "http://www.w3.org/Graphics/SVG/1.1/DTD/svg11.dtd">
<!-- Generated by graphviz version 8.0.5 (20230430.1635)
 -->
<!-- Title: G Pages: 1 -->
<svg width="306pt" height="208pt"
 viewBox="0.00 0.00 306.35 207.50" xmlns="http://www.w3.org/2000/svg" xmlns:xlink="http://www.w3.org/1999/xlink">
<g id="graph0" class="graph" transform="scale(1 1) rotate(0) translate(4 203.5)">
<title>G</title>
<!-- class -->
<g id="node1" class="node">
<title>class</title>
<ellipse fill="none" stroke="black" cx="32.59" cy="-18" rx="27" ry="18"/>
<text text-anchor="middle" x="32.59" y="-14.12" font-family="Helvetica,Arial,sans-serif" font-size="10.00">Class</text>
</g>
<!-- vehicle -->
<g id="node2" class="node">
<title>vehicle</title>
<ellipse fill="none" stroke="black" cx="101.59" cy="-99.75" rx="28.55" ry="18"/>
<text text-anchor="middle" x="101.59" y="-95.88" font-family="Helvetica,Arial,sans-serif" font-size="10.00">Vehicle</text>
</g>
<!-- vehicle&#45;&gt;class -->
<g id="edge1" class="edge">
<title>vehicle&#45;&gt;class</title>
<path fill="none" stroke="black" d="M88.29,-83.37C78.2,-71.71 64.17,-55.49 52.71,-42.25"/>
<polygon fill="black" stroke="black" points="54.81,-40.33 45.62,-35.06 49.52,-44.91 54.81,-40.33"/>
<text text-anchor="middle" x="94.84" y="-55.2" font-family="Helvetica,Arial,sans-serif" font-size="9.00" fill="dimgrey">rentalClass</text>
<text text-anchor="middle" x="63.87" y="-38.56" font-family="Helvetica,Arial,sans-serif" font-size="9.00" fill="blue">1</text>
</g>
<!-- location -->
<g id="node3" class="node">
<title>location</title>
<ellipse fill="none" stroke="black" cx="179.59" cy="-99.75" rx="31.21" ry="18"/>
<text text-anchor="middle" x="179.59" y="-95.88" font-family="Helvetica,Arial,sans-serif" font-size="10.00">Location</text>
</g>
<!-- customer -->
<g id="node4" class="node">
<title>customer</title>
<ellipse fill="none" stroke="black" cx="263.59" cy="-99.75" rx="34.76" ry="18"/>
<text text-anchor="middle" x="263.59" y="-95.88" font-family="Helvetica,Arial,sans-serif" font-size="10.00">Customer</text>
</g>
<!-- booking -->
<g id="node5" class="node">
<title>booking</title>
<ellipse fill="none" stroke="black" cx="153.59" cy="-181.5" rx="30.32" ry="18"/>
<text text-anchor="middle" x="153.59" y="-177.62" font-family="Helvetica,Arial,sans-serif" font-size="10.00">Booking</text>
</g>
<!-- booking&#45;&gt;class -->
<g id="edge2" class="edge">
<title>booking&#45;&gt;class</title>
<path fill="none" stroke="black" d="M123.61,-177.24C88.87,-171.68 33.11,-156.85 7.34,-117.75 -7.37,-95.43 4.08,-65.06 15.93,-43.92"/>
<polygon fill="black" stroke="black" points="19.35,-46.01 21.49,-35.64 13.35,-42.42 19.35,-46.01"/>
<text text-anchor="middle" x="35.72" y="-96.08" font-family="Helvetica,Arial,sans-serif" font-size="9.00" fill="dimgrey">bookingClass</text>
<text text-anchor="middle" x="19.43" y="-50.85" font-family="Helvetica,Arial,sans-serif" font-size="9.00" fill="blue">1</text>
</g>
<!-- booking&#45;&gt;vehicle -->
<g id="edge3" class="edge">
<title>booking&#45;&gt;vehicle</title>
<path fill="none" stroke="black" d="M137.15,-166.32C130.97,-160.36 124.25,-153.06 119.34,-145.5 115.78,-140.02 112.74,-133.72 110.24,-127.6"/>
<polygon fill="black" stroke="black" points="113.3,-126.81 106.53,-118.67 106.75,-129.26 113.3,-126.81"/>
<text text-anchor="middle" x="134.22" y="-136.95" font-family="Helvetica,Arial,sans-serif" font-size="9.00" fill="dimgrey">vehicle</text>
<text text-anchor="middle" x="120.79" y="-128.01" font-family="Helvetica,Arial,sans-serif" font-size="9.00" fill="blue">0..1</text>
</g>
<!-- booking&#45;&gt;location -->
<g id="edge4" class="edge">
<title>booking&#45;&gt;location</title>
<path fill="none" stroke="black" d="M151.63,-163.09C151.26,-154.64 151.7,-144.45 154.59,-135.75 155.81,-132.1 157.55,-128.5 159.55,-125.07"/>
<polygon fill="black" stroke="black" points="162.98,-127.25 165.68,-117.01 157.18,-123.33 162.98,-127.25"/>
<text text-anchor="middle" x="168.09" y="-136.95" font-family="Helvetica,Arial,sans-serif" font-size="9.00" fill="dimgrey">pickup</text>
<text text-anchor="middle" x="162.53" y="-132.08" font-family="Helvetica,Arial,sans-serif" font-size="9.00" fill="blue">1</text>
</g>
<!-- booking&#45;&gt;location -->
<g id="edge5" class="edge">
<title>booking&#45;&gt;location</title>
<path fill="none" stroke="black" d="M168.95,-165.87C173.99,-160.07 178.97,-152.99 181.59,-145.5 183.47,-140.13 184.12,-134.18 184.08,-128.42"/>
<polygon fill="black" stroke="black" points="187.52,-128.48 183.3,-118.76 180.54,-128.99 187.52,-128.48"/>
<text text-anchor="middle" x="198.84" y="-136.95" font-family="Helvetica,Arial,sans-serif" font-size="9.00" fill="dimgrey">dropoff</text>
<text text-anchor="middle" x="193.05" y="-131.55" font-family="Helvetica,Arial,sans-serif" font-size="9.00" fill="blue">1</text>
</g>
<!-- booking&#45;&gt;customer -->
<g id="edge6" class="edge">
<title>booking&#45;&gt;customer</title>
<path fill="none" stroke="black" d="M177.02,-169.62C189.55,-163.33 204.96,-154.83 217.59,-145.5 226.15,-139.18 234.72,-131.35 242.11,-124.02"/>
<polygon fill="black" stroke="black" points="244.12,-126.95 248.6,-117.35 239.11,-122.06 244.12,-126.95"/>
<text text-anchor="middle" x="246.34" y="-136.95" font-family="Helvetica,Arial,sans-serif" font-size="9.00" fill="dimgrey">customer</text>
<text text-anchor="middle" x="242.98" y="-131.55" font-family="Helvetica,Arial,sans-serif" font-size="9.00" fill="blue">1</text>
</g>
</g>
</svg>
