<?xml version="1.0" encoding="UTF-8" standalone="no"?>
<!DOCTYPE svg PUBLIC "-//W3C//DTD SVG 1.1//EN"
 "http://www.w3.org/Graphics/SVG/1.1/DTD/svg11.dtd">
<!-- Generated by graphviz version 8.0.5 (20230430.1635)
 -->
<!-- Pages: 1 -->
<svg width="530pt" height="181pt"
 viewBox="0.00 0.00 530.00 180.55" xmlns="http://www.w3.org/2000/svg" xmlns:xlink="http://www.w3.org/1999/xlink">
<g id="graph0" class="graph" transform="scale(1 1) rotate(0) translate(4 176.55)">
<!-- Type -->
<g id="node1" class="node">
<title>Type</title>
<polygon fill="none" stroke="grey" points="206,-172.55 134,-172.55 134,-142.05 206,-142.05 206,-172.55"/>
<text text-anchor="middle" x="170" y="-159.05" font-family="Helvetica,Arial,sans-serif" font-size="10.00" fill="grey">Any</text>
<text text-anchor="middle" x="170" y="-147.8" font-family="Helvetica,Arial,sans-serif" font-size="10.00" fill="grey">(⊤)</text>
</g>
<!-- Unknown -->
<g id="node2" class="node">
<title>Unknown</title>
<polygon fill="none" stroke="grey" points="72,-96.3 0,-96.3 0,-65.8 72,-65.8 72,-96.3"/>
<text text-anchor="middle" x="36" y="-82.8" font-family="Helvetica,Arial,sans-serif" font-size="10.00">Unknown</text>
<text text-anchor="middle" x="36" y="-71.55" font-family="Helvetica,Arial,sans-serif" font-size="10.00">(⊥)</text>
</g>
<!-- Unknown&#45;&gt;Type -->
<g id="edge10" class="edge">
<title>Unknown&#45;&gt;Type</title>
<path fill="none" stroke="black" d="M62.47,-96.72C82.94,-108.06 111.48,-123.87 134.02,-136.36"/>
<polygon fill="none" stroke="black" points="132.14,-139.88 142.58,-141.66 135.53,-133.75 132.14,-139.88"/>
<text text-anchor="middle" x="126.62" y="-115.5" font-family="Helvetica,Arial,sans-serif" font-size="9.00" fill="darkgrey">disjoint</text>
</g>
<!-- Scalar -->
<g id="node3" class="node">
<title>Scalar</title>
<polygon fill="none" stroke="grey" points="162,-95.45 90,-95.45 90,-66.65 162,-66.65 162,-95.45"/>
<text text-anchor="middle" x="126" y="-77.18" font-family="Helvetica,Arial,sans-serif" font-size="10.00" fill="grey">Scalar</text>
</g>
<!-- Scalar&#45;&gt;Type -->
<g id="edge1" class="edge">
<title>Scalar&#45;&gt;Type</title>
<path fill="none" stroke="black" d="M134.07,-95.67C140.18,-105.98 148.72,-120.39 155.94,-132.58"/>
<polygon fill="none" stroke="black" points="153.27,-133.93 161.38,-140.75 159.29,-130.37 153.27,-133.93"/>
</g>
<!-- Datatype -->
<g id="node4" class="node">
<title>Datatype</title>
<polygon fill="none" stroke="black" points="72,-28.8 0,-28.8 0,0 72,0 72,-28.8"/>
<text text-anchor="middle" x="36" y="-10.53" font-family="Helvetica,Arial,sans-serif" font-size="10.00">Datatype</text>
</g>
<!-- Datatype&#45;&gt;Scalar -->
<g id="edge2" class="edge">
<title>Datatype&#45;&gt;Scalar</title>
<path fill="none" stroke="black" d="M55.09,-29.11C67.62,-38.11 84.21,-50.03 98.2,-60.08"/>
<polygon fill="none" stroke="black" points="95.78,-63.37 105.94,-66.36 99.86,-57.68 95.78,-63.37"/>
</g>
<!-- Sum -->
<g id="node5" class="node">
<title>Sum</title>
<polygon fill="none" stroke="grey" points="252,-95.45 180,-95.45 180,-66.65 252,-66.65 252,-95.45"/>
<text text-anchor="middle" x="216" y="-77.18" font-family="Helvetica,Arial,sans-serif" font-size="10.00" fill="grey">Sum</text>
</g>
<!-- Sum&#45;&gt;Type -->
<g id="edge3" class="edge">
<title>Sum&#45;&gt;Type</title>
<path fill="none" stroke="black" d="M207.56,-95.67C201.18,-105.98 192.25,-120.39 184.7,-132.58"/>
<polygon fill="none" stroke="black" points="181.3,-130.41 179.01,-140.75 187.25,-134.09 181.3,-130.41"/>
</g>
<!-- Enumeration -->
<g id="node6" class="node">
<title>Enumeration</title>
<polygon fill="none" stroke="black" points="162,-28.8 90,-28.8 90,0 162,0 162,-28.8"/>
<text text-anchor="middle" x="126" y="-10.53" font-family="Helvetica,Arial,sans-serif" font-size="10.00">Enumeration</text>
</g>
<!-- Enumeration&#45;&gt;Scalar -->
<g id="edge4" class="edge">
<title>Enumeration&#45;&gt;Scalar</title>
<path fill="none" stroke="black" d="M126,-29.11C126,-36.74 126,-46.47 126,-55.37"/>
<polygon fill="none" stroke="black" points="122.5,-55.36 126,-65.36 129.5,-55.36 122.5,-55.36"/>
</g>
<!-- Union -->
<g id="node7" class="node">
<title>Union</title>
<polygon fill="none" stroke="black" points="252,-28.8 180,-28.8 180,0 252,0 252,-28.8"/>
<text text-anchor="middle" x="216" y="-10.53" font-family="Helvetica,Arial,sans-serif" font-size="10.00">Union</text>
</g>
<!-- Union&#45;&gt;Sum -->
<g id="edge5" class="edge">
<title>Union&#45;&gt;Sum</title>
<path fill="none" stroke="black" d="M216,-29.11C216,-36.74 216,-46.47 216,-55.37"/>
<polygon fill="none" stroke="black" points="212.5,-55.36 216,-65.36 219.5,-55.36 212.5,-55.36"/>
</g>
<!-- Product -->
<g id="node8" class="node">
<title>Product</title>
<polygon fill="none" stroke="grey" points="387,-95.45 315,-95.45 315,-66.65 387,-66.65 387,-95.45"/>
<text text-anchor="middle" x="351" y="-77.18" font-family="Helvetica,Arial,sans-serif" font-size="10.00" fill="grey">Product</text>
</g>
<!-- Product&#45;&gt;Type -->
<g id="edge6" class="edge">
<title>Product&#45;&gt;Type</title>
<path fill="none" stroke="black" d="M317.38,-95.84C288.78,-107.57 247.44,-124.53 215.82,-137.5"/>
<polygon fill="none" stroke="black" points="214.84,-134.53 206.92,-141.56 217.5,-141.01 214.84,-134.53"/>
</g>
<!-- Entity -->
<g id="node9" class="node">
<title>Entity</title>
<polygon fill="none" stroke="black" points="342,-28.8 270,-28.8 270,0 342,0 342,-28.8"/>
<text text-anchor="middle" x="306" y="-10.53" font-family="Helvetica,Arial,sans-serif" font-size="10.00">Entity</text>
</g>
<!-- Entity&#45;&gt;Product -->
<g id="edge7" class="edge">
<title>Entity&#45;&gt;Product</title>
<path fill="none" stroke="black" d="M315.54,-29.11C321.27,-37.34 328.7,-48.01 335.27,-57.46"/>
<polygon fill="none" stroke="black" points="332.88,-59.15 341.47,-65.36 338.63,-55.15 332.88,-59.15"/>
</g>
<!-- Event -->
<g id="node10" class="node">
<title>Event</title>
<polygon fill="none" stroke="black" points="432,-28.8 360,-28.8 360,0 432,0 432,-28.8"/>
<text text-anchor="middle" x="396" y="-10.53" font-family="Helvetica,Arial,sans-serif" font-size="10.00">Event</text>
</g>
<!-- Event&#45;&gt;Product -->
<g id="edge8" class="edge">
<title>Event&#45;&gt;Product</title>
<path fill="none" stroke="black" d="M386.46,-29.11C380.73,-37.34 373.3,-48.01 366.73,-57.46"/>
<polygon fill="none" stroke="black" points="363.37,-55.15 360.53,-65.36 369.12,-59.15 363.37,-55.15"/>
</g>
<!-- Structure -->
<g id="node11" class="node">
<title>Structure</title>
<polygon fill="none" stroke="black" points="522,-28.8 450,-28.8 450,0 522,0 522,-28.8"/>
<text text-anchor="middle" x="486" y="-10.53" font-family="Helvetica,Arial,sans-serif" font-size="10.00">Structure</text>
</g>
<!-- Structure&#45;&gt;Product -->
<g id="edge9" class="edge">
<title>Structure&#45;&gt;Product</title>
<path fill="none" stroke="black" d="M457.04,-29.27C437.38,-38.69 411.15,-51.24 389.7,-61.52"/>
<polygon fill="none" stroke="black" points="388.42,-58.73 380.91,-66.2 391.44,-65.04 388.42,-58.73"/>
</g>
</g>
</svg>
