<?xml version="1.0" encoding="UTF-8" standalone="no"?>
<!DOCTYPE svg PUBLIC "-//W3C//DTD SVG 1.1//EN"
 "http://www.w3.org/Graphics/SVG/1.1/DTD/svg11.dtd">
<!-- Generated by graphviz version 8.0.5 (20230430.1635)
 -->
<!-- Title: G Pages: 1 -->
<svg width="567pt" height="53pt"
 viewBox="0.00 0.00 566.71 53.25" xmlns="http://www.w3.org/2000/svg" xmlns:xlink="http://www.w3.org/1999/xlink">
<g id="graph0" class="graph" transform="scale(1 1) rotate(0) translate(4 49.25)">
<title>G</title>
<!-- instance -->
<g id="node1" class="node">
<title>instance</title>
<polygon fill="none" stroke="black" points="66,-44.23 0,-44.23 0,-1.03 72,-1.03 72,-38.23 66,-44.23"/>
<polyline fill="none" stroke="black" points="66,-44.23 66,-38.23"/>
<polyline fill="none" stroke="black" points="72,-38.23 66,-38.23"/>
<text text-anchor="middle" x="36" y="-25.13" font-family="Helvetica Neue,Helvetica,Arial,sans-serif" font-size="10.00">My Domain</text>
<text text-anchor="middle" x="36" y="-13.13" font-family="Helvetica Neue,Helvetica,Arial,sans-serif" font-size="10.00">Model</text>
</g>
<!-- sdml -->
<g id="node2" class="node">
<title>sdml</title>
<ellipse fill="none" stroke="black" cx="195.75" cy="-22.63" rx="36" ry="22.63"/>
<text text-anchor="middle" x="195.75" y="-25.13" font-family="Helvetica Neue,Helvetica,Arial,sans-serif" font-size="10.00">Surface</text>
<text text-anchor="middle" x="195.75" y="-13.13" font-family="Helvetica Neue,Helvetica,Arial,sans-serif" font-size="10.00">Syntax</text>
</g>
<!-- instance&#45;&gt;sdml -->
<g id="edge1" class="edge">
<title>instance&#45;&gt;sdml</title>
<path fill="none" stroke="black" d="M72.4,-22.63C95.24,-22.63 125.14,-22.63 149.67,-22.63"/>
<polygon fill="black" stroke="black" points="159.47,-22.63 149.47,-27.13 154.47,-22.63 149.47,-22.63 149.47,-22.63 149.47,-22.63 154.47,-22.63 149.47,-18.13 159.47,-22.63 159.47,-22.63"/>
<text text-anchor="middle" x="115.88" y="-25.33" font-family="Helvetica Neue,Helvetica,Arial,sans-serif" font-size="9.00" fill="darkgrey">expressed&#45;in</text>
</g>
<!-- semantics -->
<g id="node3" class="node">
<title>semantics</title>
<ellipse fill="none" stroke="black" cx="358.48" cy="-22.63" rx="40.48" ry="22.63"/>
<text text-anchor="middle" x="358.48" y="-25.13" font-family="Helvetica Neue,Helvetica,Arial,sans-serif" font-size="10.00">Semantic</text>
<text text-anchor="middle" x="358.48" y="-13.13" font-family="Helvetica Neue,Helvetica,Arial,sans-serif" font-size="10.00">Model</text>
</g>
<!-- sdml&#45;&gt;semantics -->
<g id="edge2" class="edge">
<title>sdml&#45;&gt;semantics</title>
<path fill="none" stroke="black" d="M232.02,-22.63C254.28,-22.63 283.35,-22.63 307.91,-22.63"/>
<polygon fill="black" stroke="black" points="317.77,-22.63 307.77,-27.13 312.77,-22.63 307.77,-22.63 307.77,-22.63 307.77,-22.63 312.77,-22.63 307.77,-18.13 317.77,-22.63 317.77,-22.63"/>
<text text-anchor="middle" x="274.88" y="-25.33" font-family="Helvetica Neue,Helvetica,Arial,sans-serif" font-size="9.00" fill="darkgrey">conforms&#45;to</text>
</g>
<!-- rdf -->
<g id="node4" class="node">
<title>rdf</title>
<ellipse fill="none" stroke="black" cx="522.71" cy="-22.63" rx="36" ry="21.6"/>
<text text-anchor="middle" x="522.71" y="-19.13" font-family="Helvetica Neue,Helvetica,Arial,sans-serif" font-size="10.00">RDF/OWL</text>
</g>
<!-- semantics&#45;&gt;rdf -->
<g id="edge3" class="edge">
<title>semantics&#45;&gt;rdf</title>
<path fill="none" stroke="black" d="M399.17,-22.63C422.58,-22.63 452.29,-22.63 476.6,-22.63"/>
<polygon fill="black" stroke="black" points="486.3,-22.63 476.3,-27.13 481.3,-22.63 476.3,-22.63 476.3,-22.63 476.3,-22.63 481.3,-22.63 476.3,-18.13 486.3,-22.63 486.3,-22.63"/>
<text text-anchor="middle" x="442.84" y="-25.33" font-family="Helvetica Neue,Helvetica,Arial,sans-serif" font-size="9.00" fill="darkgrey">expressed&#45;in</text>
</g>
</g>
</svg>
