<?xml version="1.0" encoding="UTF-8" standalone="no"?>
<!DOCTYPE svg PUBLIC "-//W3C//DTD SVG 1.1//EN"
 "http://www.w3.org/Graphics/SVG/1.1/DTD/svg11.dtd">
<!-- Generated by graphviz version 8.0.5 (20230430.1635)
 -->
<!-- Title: G Pages: 1 -->
<svg width="567pt" height="51pt"
 viewBox="0.00 0.00 567.34 51.20" xmlns="http://www.w3.org/2000/svg" xmlns:xlink="http://www.w3.org/1999/xlink">
<g id="graph0" class="graph" transform="scale(1 1) rotate(0) translate(4 47.2)">
<title>G</title>
<!-- instance -->
<g id="node1" class="node">
<title>instance</title>
<polygon fill="none" stroke="black" points="66,-43.2 0,-43.2 0,0 72,0 72,-37.2 66,-43.2"/>
<polyline fill="none" stroke="black" points="66,-43.2 66,-37.2"/>
<polyline fill="none" stroke="black" points="72,-37.2 66,-37.2"/>
<text text-anchor="middle" x="36" y="-23.35" font-family="Helvetica,Arial,sans-serif" font-size="10.00">My Domain</text>
<text text-anchor="middle" x="36" y="-12.1" font-family="Helvetica,Arial,sans-serif" font-size="10.00">Model</text>
</g>
<!-- sdml -->
<g id="node2" class="node">
<title>sdml</title>
<ellipse fill="none" stroke="black" cx="197.25" cy="-21.6" rx="36" ry="21.6"/>
<text text-anchor="middle" x="197.25" y="-23.35" font-family="Helvetica,Arial,sans-serif" font-size="10.00">Surface</text>
<text text-anchor="middle" x="197.25" y="-12.1" font-family="Helvetica,Arial,sans-serif" font-size="10.00">Syntax</text>
</g>
<!-- instance&#45;&gt;sdml -->
<g id="edge1" class="edge">
<title>instance&#45;&gt;sdml</title>
<path fill="none" stroke="black" d="M72.34,-21.6C95.54,-21.6 126.08,-21.6 151.04,-21.6"/>
<polygon fill="black" stroke="black" points="161.01,-21.6 151.01,-26.1 156.01,-21.6 151.01,-21.6 151.01,-21.6 151.01,-21.6 156.01,-21.6 151.01,-17.1 161.01,-21.6 161.01,-21.6"/>
<text text-anchor="middle" x="116.62" y="-22.8" font-family="Helvetica,Arial,sans-serif" font-size="9.00" fill="darkgrey">expressed&#45;in</text>
</g>
<!-- semantics -->
<g id="node3" class="node">
<title>semantics</title>
<ellipse fill="none" stroke="black" cx="357.67" cy="-21.6" rx="40.42" ry="21.6"/>
<text text-anchor="middle" x="357.67" y="-23.35" font-family="Helvetica,Arial,sans-serif" font-size="10.00">Semantic</text>
<text text-anchor="middle" x="357.67" y="-12.1" font-family="Helvetica,Arial,sans-serif" font-size="10.00">Model</text>
</g>
<!-- sdml&#45;&gt;semantics -->
<g id="edge2" class="edge">
<title>sdml&#45;&gt;semantics</title>
<path fill="none" stroke="black" d="M233.41,-21.6C255.02,-21.6 283.06,-21.6 306.93,-21.6"/>
<polygon fill="black" stroke="black" points="316.87,-21.6 306.87,-26.1 311.87,-21.6 306.87,-21.6 306.87,-21.6 306.87,-21.6 311.87,-21.6 306.87,-17.1 316.87,-21.6 316.87,-21.6"/>
<text text-anchor="middle" x="275.25" y="-22.8" font-family="Helvetica,Arial,sans-serif" font-size="9.00" fill="darkgrey">conforms&#45;to</text>
</g>
<!-- rdf -->
<g id="node4" class="node">
<title>rdf</title>
<ellipse fill="none" stroke="black" cx="523.34" cy="-21.6" rx="36" ry="21.6"/>
<text text-anchor="middle" x="523.34" y="-17.72" font-family="Helvetica,Arial,sans-serif" font-size="10.00">RDF/OWL</text>
</g>
<!-- semantics&#45;&gt;rdf -->
<g id="edge3" class="edge">
<title>semantics&#45;&gt;rdf</title>
<path fill="none" stroke="black" d="M398.29,-21.6C422.07,-21.6 452.4,-21.6 477.12,-21.6"/>
<polygon fill="black" stroke="black" points="486.98,-21.6 476.98,-26.1 481.98,-21.6 476.98,-21.6 476.98,-21.6 476.98,-21.6 481.98,-21.6 476.98,-17.1 486.98,-21.6 486.98,-21.6"/>
<text text-anchor="middle" x="442.71" y="-22.8" font-family="Helvetica,Arial,sans-serif" font-size="9.00" fill="darkgrey">expressed&#45;in</text>
</g>
</g>
</svg>
