<?xml version="1.0" encoding="UTF-8" standalone="no"?>
<!DOCTYPE svg PUBLIC "-//W3C//DTD SVG 1.1//EN"
 "http://www.w3.org/Graphics/SVG/1.1/DTD/svg11.dtd">
<!-- Generated by graphviz version 8.0.5 (20230430.1635)
 -->
<!-- Title: G Pages: 1 -->
<svg width="795pt" height="84pt"
 viewBox="0.00 0.00 794.75 84.00" xmlns="http://www.w3.org/2000/svg" xmlns:xlink="http://www.w3.org/1999/xlink">
<g id="graph0" class="graph" transform="scale(1 1) rotate(0) translate(4 80)">
<title>G</title>
<g id="clust1" class="cluster">
<title>cluster_0</title>
<polygon fill="none" stroke="black" points="8,-8 8,-68 420,-68 420,-8 8,-8"/>
</g>
<g id="clust2" class="cluster">
<title>cluster_1</title>
<polygon fill="none" stroke="black" points="582.75,-8 582.75,-68 778.75,-68 778.75,-8 582.75,-8"/>
</g>
<!-- sdml -->
<g id="node1" class="node">
<title>sdml</title>
<polygon fill="none" stroke="black" points="412,-59.6 340,-59.6 340,-16.4 412,-16.4 412,-59.6"/>
<text text-anchor="middle" x="376" y="-34.12" font-family="Helvetica,Arial,sans-serif" font-size="10.00">SDML</text>
</g>
<!-- foundation -->
<g id="node5" class="node">
<title>foundation</title>
<polygon fill="none" stroke="black" points="554.75,-59.6 448,-59.6 448,-16.4 554.75,-16.4 554.75,-59.6"/>
<text text-anchor="middle" x="501.38" y="-39.75" font-family="Helvetica,Arial,sans-serif" font-size="10.00">Common Foundation</text>
<text text-anchor="middle" x="501.38" y="-28.5" font-family="Helvetica,Arial,sans-serif" font-size="10.00">(RDF/OWL)</text>
</g>
<!-- sdml&#45;&gt;foundation -->
<g id="edge4" class="edge">
<title>sdml&#45;&gt;foundation</title>
<path fill="none" stroke="black" d="M420,-38C427.23,-38 436.93,-38 436.93,-38"/>
<polygon fill="black" stroke="black" points="436.93,-41.5 446.93,-38 436.93,-34.5 436.93,-41.5"/>
</g>
<!-- catalog -->
<g id="node2" class="node">
<title>catalog</title>
<polygon fill="none" stroke="black" points="88,-59.6 16,-59.6 16,-16.4 88,-16.4 88,-59.6"/>
<text text-anchor="middle" x="52" y="-39.75" font-family="Helvetica,Arial,sans-serif" font-size="10.00">Data</text>
<text text-anchor="middle" x="52" y="-28.5" font-family="Helvetica,Arial,sans-serif" font-size="10.00">Catalog</text>
</g>
<!-- dictionary -->
<g id="node3" class="node">
<title>dictionary</title>
<polygon fill="none" stroke="black" points="196,-59.6 124,-59.6 124,-16.4 196,-16.4 196,-59.6"/>
<text text-anchor="middle" x="160" y="-39.75" font-family="Helvetica,Arial,sans-serif" font-size="10.00">Data</text>
<text text-anchor="middle" x="160" y="-28.5" font-family="Helvetica,Arial,sans-serif" font-size="10.00">Dictionary</text>
</g>
<!-- catalog&#45;&gt;dictionary -->
<g id="edge3" class="edge">
<title>catalog&#45;&gt;dictionary</title>
<path fill="none" stroke="black" stroke-dasharray="5,2" d="M88.26,-38C88.26,-38 112.65,-38 112.65,-38"/>
<polygon fill="black" stroke="black" points="112.65,-41.5 122.65,-38 112.65,-34.5 112.65,-41.5"/>
</g>
<!-- glossary -->
<g id="node4" class="node">
<title>glossary</title>
<polygon fill="none" stroke="black" points="304,-59.6 232,-59.6 232,-16.4 304,-16.4 304,-59.6"/>
<text text-anchor="middle" x="268" y="-39.75" font-family="Helvetica,Arial,sans-serif" font-size="10.00">Business</text>
<text text-anchor="middle" x="268" y="-28.5" font-family="Helvetica,Arial,sans-serif" font-size="10.00">Glossary</text>
</g>
<!-- dictionary&#45;&gt;glossary -->
<g id="edge2" class="edge">
<title>dictionary&#45;&gt;glossary</title>
<path fill="none" stroke="black" stroke-dasharray="5,2" d="M196.26,-38C196.26,-38 220.65,-38 220.65,-38"/>
<polygon fill="black" stroke="black" points="220.65,-41.5 230.65,-38 220.65,-34.5 220.65,-41.5"/>
</g>
<!-- glossary&#45;&gt;sdml -->
<g id="edge1" class="edge">
<title>glossary&#45;&gt;sdml</title>
<path fill="none" stroke="black" stroke-dasharray="5,2" d="M304.26,-38C304.26,-38 328.65,-38 328.65,-38"/>
<polygon fill="black" stroke="black" points="328.65,-41.5 338.65,-38 328.65,-34.5 328.65,-41.5"/>
</g>
<!-- sparql -->
<g id="node6" class="node">
<title>sparql</title>
<polygon fill="none" stroke="black" points="662.75,-59.6 590.75,-59.6 590.75,-16.4 662.75,-16.4 662.75,-59.6"/>
<text text-anchor="middle" x="626.75" y="-34.12" font-family="Helvetica,Arial,sans-serif" font-size="10.00">SPARQL</text>
</g>
<!-- foundation&#45;&gt;sparql -->
<g id="edge6" class="edge">
<title>foundation&#45;&gt;sparql</title>
<path fill="none" stroke="black" d="M565.91,-38C565.91,-38 575.56,-38 582.75,-38"/>
<polygon fill="black" stroke="black" points="565.91,-34.5 555.91,-38 565.91,-41.5 565.91,-34.5"/>
</g>
<!-- tools -->
<g id="node7" class="node">
<title>tools</title>
<polygon fill="none" stroke="black" points="770.75,-59.6 698.75,-59.6 698.75,-16.4 770.75,-16.4 770.75,-59.6"/>
<text text-anchor="middle" x="734.75" y="-34.12" font-family="Helvetica,Arial,sans-serif" font-size="10.00">Tools</text>
</g>
<!-- sparql&#45;&gt;tools -->
<g id="edge5" class="edge">
<title>sparql&#45;&gt;tools</title>
<path fill="none" stroke="black" stroke-dasharray="5,2" d="M674.01,-38C674.01,-38 698.4,-38 698.4,-38"/>
<polygon fill="black" stroke="black" points="674.01,-34.5 664.01,-38 674.01,-41.5 674.01,-34.5"/>
</g>
</g>
</svg>
