<?xml version="1.0" encoding="UTF-8" standalone="no"?>
<!DOCTYPE svg PUBLIC "-//W3C//DTD SVG 1.1//EN"
 "http://www.w3.org/Graphics/SVG/1.1/DTD/svg11.dtd">
<!-- Generated by graphviz version 8.0.5 (20230430.1635)
 -->
<!-- Title: G Pages: 1 -->
<svg width="269pt" height="384pt"
 viewBox="0.00 0.00 269.00 384.00" xmlns="http://www.w3.org/2000/svg" xmlns:xlink="http://www.w3.org/1999/xlink">
<g id="graph0" class="graph" transform="scale(1 1) rotate(0) translate(4 380)">
<title>G</title>
<g id="clust1" class="cluster">
<title>cluster_0</title>
<polygon fill="none" stroke="none" points="8,-71.2 8,-368 96,-368 96,-71.2 8,-71.2"/>
</g>
<!-- sdml -->
<g id="node1" class="node">
<title>sdml</title>
<polygon fill="none" stroke="black" points="88,-360 16,-360 16,-316.8 88,-316.8 88,-360"/>
<text text-anchor="middle" x="52" y="-334.52" font-family="Helvetica,Arial,sans-serif" font-size="10.00">SDML</text>
</g>
<!-- glossary -->
<g id="node4" class="node">
<title>glossary</title>
<polygon fill="none" stroke="black" points="88,-280.8 16,-280.8 16,-237.6 88,-237.6 88,-280.8"/>
<text text-anchor="middle" x="52" y="-260.95" font-family="Helvetica,Arial,sans-serif" font-size="10.00">Business</text>
<text text-anchor="middle" x="52" y="-249.7" font-family="Helvetica,Arial,sans-serif" font-size="10.00">Glossary</text>
</g>
<!-- sdml&#45;&gt;glossary -->
<g id="edge1" class="edge">
<title>sdml&#45;&gt;glossary</title>
<path fill="none" stroke="black" stroke-dasharray="5,2" d="M52,-316.34C52,-316.34 52,-292.14 52,-292.14"/>
<polygon fill="black" stroke="black" points="55.5,-292.14 52,-282.14 48.5,-292.14 55.5,-292.14"/>
</g>
<!-- foundation -->
<g id="node5" class="node">
<title>foundation</title>
<polygon fill="none" stroke="black" points="261,-43.2 9,-43.2 9,0 261,0 261,-43.2"/>
<text text-anchor="middle" x="135" y="-17.72" font-family="Helvetica,Arial,sans-serif" font-size="10.00">Common Foundation (RDF/OWL)</text>
</g>
<!-- sdml&#45;&gt;foundation -->
<g id="edge4" class="edge">
<title>sdml&#45;&gt;foundation</title>
<path fill="none" stroke="black" d="M15.81,-338C12.72,-338 10.75,-338 10.75,-338 10.75,-338 10.75,-53.6 10.75,-53.6"/>
<polygon fill="black" stroke="black" points="10.75,-43.6 15.25,-53.6 10.75,-48.6 10.75,-53.6 10.75,-53.6 10.75,-53.6 10.75,-48.6 6.25,-53.6 10.75,-43.6 10.75,-43.6"/>
</g>
<!-- catalog -->
<g id="node2" class="node">
<title>catalog</title>
<polygon fill="none" stroke="black" points="88,-122.4 16,-122.4 16,-79.2 88,-79.2 88,-122.4"/>
<text text-anchor="middle" x="52" y="-102.55" font-family="Helvetica,Arial,sans-serif" font-size="10.00">Data</text>
<text text-anchor="middle" x="52" y="-91.3" font-family="Helvetica,Arial,sans-serif" font-size="10.00">Catalog</text>
</g>
<!-- catalog&#45;&gt;foundation -->
<g id="edge7" class="edge">
<title>catalog&#45;&gt;foundation</title>
<path fill="none" stroke="black" d="M52,-78.74C52,-78.74 52,-53.54 52,-53.54"/>
<polygon fill="black" stroke="black" points="52,-43.54 56.5,-53.54 52,-48.54 52,-53.54 52,-53.54 52,-53.54 52,-48.54 47.5,-53.54 52,-43.54 52,-43.54"/>
</g>
<!-- dictionary -->
<g id="node3" class="node">
<title>dictionary</title>
<polygon fill="none" stroke="black" points="88,-201.6 16,-201.6 16,-158.4 88,-158.4 88,-201.6"/>
<text text-anchor="middle" x="52" y="-181.75" font-family="Helvetica,Arial,sans-serif" font-size="10.00">Data</text>
<text text-anchor="middle" x="52" y="-170.5" font-family="Helvetica,Arial,sans-serif" font-size="10.00">Dictionary</text>
</g>
<!-- dictionary&#45;&gt;catalog -->
<g id="edge3" class="edge">
<title>dictionary&#45;&gt;catalog</title>
<path fill="none" stroke="black" stroke-dasharray="5,2" d="M52,-157.94C52,-157.94 52,-133.74 52,-133.74"/>
<polygon fill="black" stroke="black" points="55.5,-133.74 52,-123.74 48.5,-133.74 55.5,-133.74"/>
</g>
<!-- dictionary&#45;&gt;foundation -->
<g id="edge6" class="edge">
<title>dictionary&#45;&gt;foundation</title>
<path fill="none" stroke="black" d="M15.51,-179C14.7,-179 14.25,-179 14.25,-179 14.25,-179 14.25,-53.49 14.25,-53.49"/>
<polygon fill="black" stroke="black" points="14.25,-43.49 18.75,-53.49 14.25,-48.49 14.25,-53.49 14.25,-53.49 14.25,-53.49 14.25,-48.49 9.75,-53.49 14.25,-43.49 14.25,-43.49"/>
</g>
<!-- glossary&#45;&gt;dictionary -->
<g id="edge2" class="edge">
<title>glossary&#45;&gt;dictionary</title>
<path fill="none" stroke="black" stroke-dasharray="5,2" d="M52,-237.14C52,-237.14 52,-212.94 52,-212.94"/>
<polygon fill="black" stroke="black" points="55.5,-212.94 52,-202.94 48.5,-212.94 55.5,-212.94"/>
</g>
<!-- glossary&#45;&gt;foundation -->
<g id="edge5" class="edge">
<title>glossary&#45;&gt;foundation</title>
<path fill="none" stroke="black" d="M15.6,-259C13.67,-259 12.5,-259 12.5,-259 12.5,-259 12.5,-53.51 12.5,-53.51"/>
<polygon fill="black" stroke="black" points="12.5,-43.51 17,-53.51 12.5,-48.51 12.5,-53.51 12.5,-53.51 12.5,-53.51 12.5,-48.51 8,-53.51 12.5,-43.51 12.5,-43.51"/>
</g>
</g>
</svg>
