<?xml version="1.0" encoding="UTF-8" standalone="no"?>
<!DOCTYPE svg PUBLIC "-//W3C//DTD SVG 1.1//EN"
 "http://www.w3.org/Graphics/SVG/1.1/DTD/svg11.dtd">
<!-- Generated by graphviz version 8.0.5 (20230430.1635)
 -->
<!-- Title: G Pages: 1 -->
<svg width="260pt" height="130pt"
 viewBox="0.00 0.00 260.00 130.40" xmlns="http://www.w3.org/2000/svg" xmlns:xlink="http://www.w3.org/1999/xlink">
<g id="graph0" class="graph" transform="scale(1 1) rotate(0) translate(4 126.4)">
<title>G</title>
<!-- sdml -->
<g id="node1" class="node">
<title>sdml</title>
<polygon fill="none" stroke="black" points="72,-122.4 0,-122.4 0,-79.2 72,-79.2 72,-122.4"/>
<text text-anchor="middle" x="36" y="-96.92" font-family="Helvetica,Arial,sans-serif" font-size="10.00">SDML</text>
</g>
<!-- foundation -->
<g id="node4" class="node">
<title>foundation</title>
<polygon fill="none" stroke="black" points="252,-43.2 0,-43.2 0,0 252,0 252,-43.2"/>
<text text-anchor="middle" x="126" y="-17.72" font-family="Helvetica,Arial,sans-serif" font-size="10.00">Common Foundation (RDF/OWL)</text>
</g>
<!-- sdml&#45;&gt;foundation -->
<g id="edge1" class="edge">
<title>sdml&#45;&gt;foundation</title>
<path fill="none" stroke="black" d="M60.59,-78.7C70.91,-69.85 83.04,-59.45 94.04,-50.01"/>
<polygon fill="black" stroke="black" points="101.44,-43.67 96.78,-53.6 97.64,-46.93 93.85,-50.18 93.85,-50.18 93.85,-50.18 97.64,-46.93 90.92,-46.76 101.44,-43.67 101.44,-43.67"/>
</g>
<!-- catalog -->
<g id="node2" class="node">
<title>catalog</title>
<polygon fill="none" stroke="black" points="162,-122.4 90,-122.4 90,-79.2 162,-79.2 162,-122.4"/>
<text text-anchor="middle" x="126" y="-102.55" font-family="Helvetica,Arial,sans-serif" font-size="10.00">Data</text>
<text text-anchor="middle" x="126" y="-91.3" font-family="Helvetica,Arial,sans-serif" font-size="10.00">Catalog</text>
</g>
<!-- catalog&#45;&gt;foundation -->
<g id="edge2" class="edge">
<title>catalog&#45;&gt;foundation</title>
<path fill="none" stroke="black" d="M126,-78.7C126,-70.96 126,-62.02 126,-53.59"/>
<polygon fill="black" stroke="black" points="126,-43.67 130.5,-53.67 126,-48.67 126,-53.67 126,-53.67 126,-53.67 126,-48.67 121.5,-53.67 126,-43.67 126,-43.67"/>
</g>
<!-- glossary -->
<g id="node3" class="node">
<title>glossary</title>
<polygon fill="none" stroke="black" points="252,-122.4 180,-122.4 180,-79.2 252,-79.2 252,-122.4"/>
<text text-anchor="middle" x="216" y="-102.55" font-family="Helvetica,Arial,sans-serif" font-size="10.00">Business</text>
<text text-anchor="middle" x="216" y="-91.3" font-family="Helvetica,Arial,sans-serif" font-size="10.00">Glossary</text>
</g>
<!-- glossary&#45;&gt;foundation -->
<g id="edge3" class="edge">
<title>glossary&#45;&gt;foundation</title>
<path fill="none" stroke="black" d="M191.41,-78.7C181.09,-69.85 168.96,-59.45 157.96,-50.01"/>
<polygon fill="black" stroke="black" points="150.56,-43.67 161.08,-46.76 154.36,-46.93 158.15,-50.18 158.15,-50.18 158.15,-50.18 154.36,-46.93 155.22,-53.6 150.56,-43.67 150.56,-43.67"/>
</g>
</g>
</svg>
