<?xml version="1.0" encoding="UTF-8" standalone="no"?>
<!DOCTYPE svg PUBLIC "-//W3C//DTD SVG 1.1//EN"
 "http://www.w3.org/Graphics/SVG/1.1/DTD/svg11.dtd">
<!-- Generated by graphviz version 8.0.5 (20230430.1635)
 -->
<!-- Pages: 1 -->
<svg width="454pt" height="188pt"
 viewBox="0.00 0.00 454.25 188.00" xmlns="http://www.w3.org/2000/svg" xmlns:xlink="http://www.w3.org/1999/xlink">
<g id="graph0" class="graph" transform="scale(1 1) rotate(0) translate(4 184)">
<polygon fill="white" stroke="none" points="-4,4 -4,-184 450.25,-184 450.25,4 -4,4"/>
<!-- Type -->
<g id="node1" class="node">
<title>Type</title>
<polygon fill="none" stroke="black" points="176.25,-180 104.25,-180 104.25,-144 176.25,-144 176.25,-180"/>
<text text-anchor="middle" x="140.25" y="-156.95" font-family="Times,serif" font-size="14.00">Type</text>
</g>
<!-- Scalar -->
<g id="node2" class="node">
<title>Scalar</title>
<polygon fill="none" stroke="black" points="86.25,-108 14.25,-108 14.25,-72 86.25,-72 86.25,-108"/>
<text text-anchor="middle" x="50.25" y="-84.95" font-family="Times,serif" font-size="14.00">Scalar</text>
</g>
<!-- Scalar&#45;&gt;Type -->
<g id="edge1" class="edge">
<title>Scalar&#45;&gt;Type</title>
<path fill="none" stroke="black" d="M72.5,-108.3C83.64,-116.97 97.31,-127.6 109.44,-137.04"/>
<polygon fill="none" stroke="black" points="106.9,-140.28 116.95,-143.65 111.2,-134.75 106.9,-140.28"/>
</g>
<!-- Sum -->
<g id="node3" class="node">
<title>Sum</title>
<polygon fill="none" stroke="black" points="176.25,-108 104.25,-108 104.25,-72 176.25,-72 176.25,-108"/>
<text text-anchor="middle" x="140.25" y="-84.95" font-family="Times,serif" font-size="14.00">Sum</text>
</g>
<!-- Sum&#45;&gt;Type -->
<g id="edge2" class="edge">
<title>Sum&#45;&gt;Type</title>
<path fill="none" stroke="black" d="M140.25,-108.3C140.25,-115.76 140.25,-124.68 140.25,-133.03"/>
<polygon fill="none" stroke="black" points="136.75,-132.9 140.25,-142.9 143.75,-132.9 136.75,-132.9"/>
</g>
<!-- Enumeration -->
<g id="node4" class="node">
<title>Enumeration</title>
<polygon fill="none" stroke="black" points="86.5,-36 0,-36 0,0 86.5,0 86.5,-36"/>
<text text-anchor="middle" x="43.25" y="-12.95" font-family="Times,serif" font-size="14.00">Enumeration</text>
</g>
<!-- Enumeration&#45;&gt;Sum -->
<g id="edge3" class="edge">
<title>Enumeration&#45;&gt;Sum</title>
<path fill="none" stroke="black" d="M67.23,-36.3C79.35,-45.05 94.25,-55.81 107.42,-65.31"/>
<polygon fill="none" stroke="black" points="105.05,-68.64 115.21,-71.65 109.15,-62.96 105.05,-68.64"/>
</g>
<!-- Union -->
<g id="node5" class="node">
<title>Union</title>
<polygon fill="none" stroke="black" points="176.25,-36 104.25,-36 104.25,0 176.25,0 176.25,-36"/>
<text text-anchor="middle" x="140.25" y="-12.95" font-family="Times,serif" font-size="14.00">Union</text>
</g>
<!-- Union&#45;&gt;Sum -->
<g id="edge4" class="edge">
<title>Union&#45;&gt;Sum</title>
<path fill="none" stroke="black" d="M140.25,-36.3C140.25,-43.76 140.25,-52.68 140.25,-61.03"/>
<polygon fill="none" stroke="black" points="136.75,-60.9 140.25,-70.9 143.75,-60.9 136.75,-60.9"/>
</g>
<!-- Product -->
<g id="node6" class="node">
<title>Product</title>
<polygon fill="none" stroke="black" points="311.25,-108 239.25,-108 239.25,-72 311.25,-72 311.25,-108"/>
<text text-anchor="middle" x="275.25" y="-84.95" font-family="Times,serif" font-size="14.00">Product</text>
</g>
<!-- Product&#45;&gt;Type -->
<g id="edge5" class="edge">
<title>Product&#45;&gt;Type</title>
<path fill="none" stroke="black" d="M241.53,-108.48C223.84,-117.66 201.98,-128.99 183.1,-138.78"/>
<polygon fill="none" stroke="black" points="181.8,-136.03 174.54,-143.74 185.03,-142.24 181.8,-136.03"/>
</g>
<!-- Entity -->
<g id="node7" class="node">
<title>Entity</title>
<polygon fill="none" stroke="black" points="266.25,-36 194.25,-36 194.25,0 266.25,0 266.25,-36"/>
<text text-anchor="middle" x="230.25" y="-12.95" font-family="Times,serif" font-size="14.00">Entity</text>
</g>
<!-- Entity&#45;&gt;Product -->
<g id="edge6" class="edge">
<title>Entity&#45;&gt;Product</title>
<path fill="none" stroke="black" d="M241.37,-36.3C246.5,-44.27 252.69,-53.9 258.37,-62.74"/>
<polygon fill="none" stroke="black" points="255.9,-64.38 264.25,-70.9 261.79,-60.59 255.9,-64.38"/>
</g>
<!-- Event -->
<g id="node8" class="node">
<title>Event</title>
<polygon fill="none" stroke="black" points="356.25,-36 284.25,-36 284.25,0 356.25,0 356.25,-36"/>
<text text-anchor="middle" x="320.25" y="-12.95" font-family="Times,serif" font-size="14.00">Event</text>
</g>
<!-- Event&#45;&gt;Product -->
<g id="edge7" class="edge">
<title>Event&#45;&gt;Product</title>
<path fill="none" stroke="black" d="M309.13,-36.3C304,-44.27 297.81,-53.9 292.13,-62.74"/>
<polygon fill="none" stroke="black" points="288.71,-60.59 286.25,-70.9 294.6,-64.38 288.71,-60.59"/>
</g>
<!-- Structure -->
<g id="node9" class="node">
<title>Structure</title>
<polygon fill="none" stroke="black" points="446.25,-36 374.25,-36 374.25,0 446.25,0 446.25,-36"/>
<text text-anchor="middle" x="410.25" y="-12.95" font-family="Times,serif" font-size="14.00">Structure</text>
</g>
<!-- Structure&#45;&gt;Product -->
<g id="edge8" class="edge">
<title>Structure&#45;&gt;Product</title>
<path fill="none" stroke="black" d="M376.53,-36.48C358.84,-45.66 336.98,-56.99 318.1,-66.78"/>
<polygon fill="none" stroke="black" points="316.8,-64.03 309.54,-71.74 320.03,-70.24 316.8,-64.03"/>
</g>
</g>
</svg>
