<?xml version="1.0" encoding="UTF-8" standalone="no"?>
<!DOCTYPE svg PUBLIC "-//W3C//DTD SVG 1.1//EN"
 "http://www.w3.org/Graphics/SVG/1.1/DTD/svg11.dtd">
<!-- Generated by graphviz version 8.0.5 (20230430.1635)
 -->
<!-- Pages: 1 -->
<svg width="530pt" height="236pt"
 viewBox="0.00 0.00 530.00 236.30" xmlns="http://www.w3.org/2000/svg" xmlns:xlink="http://www.w3.org/1999/xlink">
<g id="graph0" class="graph" transform="scale(1 1) rotate(0) translate(4 232.3)">
<!-- Type -->
<g id="node1" class="node">
<title>Type</title>
<polygon fill="none" stroke="grey" points="297,-228.3 225,-228.3 225,-197.8 297,-197.8 297,-228.3"/>
<text text-anchor="middle" x="261" y="-214.8" font-family="Helvetica,Arial,sans-serif" font-size="10.00" fill="grey">Any</text>
<text text-anchor="middle" x="261" y="-203.55" font-family="Helvetica,Arial,sans-serif" font-size="10.00" fill="grey">(⊤)</text>
</g>
<!-- Scalar -->
<g id="node2" class="node">
<title>Scalar</title>
<polygon fill="none" stroke="grey" points="162,-160.95 90,-160.95 90,-132.15 162,-132.15 162,-160.95"/>
<text text-anchor="middle" x="126" y="-142.68" font-family="Helvetica,Arial,sans-serif" font-size="10.00" fill="grey">Scalar</text>
</g>
<!-- Scalar&#45;&gt;Type -->
<g id="edge1" class="edge">
<title>Scalar&#45;&gt;Type</title>
<path fill="none" stroke="black" d="M154.96,-161.39C174.09,-170.53 199.43,-182.63 220.54,-192.72"/>
<polygon fill="none" stroke="black" points="218.68,-196.19 229.21,-197.34 221.7,-189.87 218.68,-196.19"/>
</g>
<!-- Datatype -->
<g id="node3" class="node">
<title>Datatype</title>
<polygon fill="none" stroke="black" points="72,-95.3 0,-95.3 0,-66.5 72,-66.5 72,-95.3"/>
<text text-anchor="middle" x="36" y="-77.03" font-family="Helvetica,Arial,sans-serif" font-size="10.00">Datatype</text>
</g>
<!-- Datatype&#45;&gt;Scalar -->
<g id="edge2" class="edge">
<title>Datatype&#45;&gt;Scalar</title>
<path fill="none" stroke="black" d="M55.53,-95.71C67.91,-104.47 84.13,-115.94 97.89,-125.67"/>
<polygon fill="none" stroke="black" points="95.32,-128.85 105.51,-131.77 99.37,-123.13 95.32,-128.85"/>
</g>
<!-- Sum -->
<g id="node4" class="node">
<title>Sum</title>
<polygon fill="none" stroke="grey" points="252,-160.95 180,-160.95 180,-132.15 252,-132.15 252,-160.95"/>
<text text-anchor="middle" x="216" y="-142.68" font-family="Helvetica,Arial,sans-serif" font-size="10.00" fill="grey">Sum</text>
</g>
<!-- Sum&#45;&gt;Type -->
<g id="edge3" class="edge">
<title>Sum&#45;&gt;Type</title>
<path fill="none" stroke="black" d="M225.54,-161.23C231.12,-169.22 238.3,-179.51 244.74,-188.74"/>
<polygon fill="none" stroke="black" points="242.25,-190.3 250.85,-196.49 247.99,-186.29 242.25,-190.3"/>
</g>
<!-- Enumeration -->
<g id="node5" class="node">
<title>Enumeration</title>
<polygon fill="none" stroke="black" points="162,-95.3 90,-95.3 90,-66.5 162,-66.5 162,-95.3"/>
<text text-anchor="middle" x="126" y="-77.03" font-family="Helvetica,Arial,sans-serif" font-size="10.00">Enumeration</text>
</g>
<!-- Enumeration&#45;&gt;Scalar -->
<g id="edge4" class="edge">
<title>Enumeration&#45;&gt;Scalar</title>
<path fill="none" stroke="black" d="M126,-95.71C126,-103.05 126,-112.3 126,-120.83"/>
<polygon fill="none" stroke="black" points="122.5,-120.77 126,-130.77 129.5,-120.77 122.5,-120.77"/>
</g>
<!-- Union -->
<g id="node6" class="node">
<title>Union</title>
<polygon fill="none" stroke="black" points="252,-95.3 180,-95.3 180,-66.5 252,-66.5 252,-95.3"/>
<text text-anchor="middle" x="216" y="-77.03" font-family="Helvetica,Arial,sans-serif" font-size="10.00">Union</text>
</g>
<!-- Union&#45;&gt;Sum -->
<g id="edge5" class="edge">
<title>Union&#45;&gt;Sum</title>
<path fill="none" stroke="black" d="M216,-95.71C216,-103.05 216,-112.3 216,-120.83"/>
<polygon fill="none" stroke="black" points="212.5,-120.77 216,-130.77 219.5,-120.77 212.5,-120.77"/>
</g>
<!-- Product -->
<g id="node7" class="node">
<title>Product</title>
<polygon fill="none" stroke="grey" points="342,-160.95 270,-160.95 270,-132.15 342,-132.15 342,-160.95"/>
<text text-anchor="middle" x="306" y="-142.68" font-family="Helvetica,Arial,sans-serif" font-size="10.00" fill="grey">Product</text>
</g>
<!-- Product&#45;&gt;Type -->
<g id="edge6" class="edge">
<title>Product&#45;&gt;Type</title>
<path fill="none" stroke="black" d="M296.46,-161.23C290.88,-169.22 283.7,-179.51 277.26,-188.74"/>
<polygon fill="none" stroke="black" points="274.01,-186.29 271.15,-196.49 279.75,-190.3 274.01,-186.29"/>
</g>
<!-- Entity -->
<g id="node8" class="node">
<title>Entity</title>
<polygon fill="none" stroke="black" points="342,-95.3 270,-95.3 270,-66.5 342,-66.5 342,-95.3"/>
<text text-anchor="middle" x="306" y="-77.03" font-family="Helvetica,Arial,sans-serif" font-size="10.00">Entity</text>
</g>
<!-- Entity&#45;&gt;Product -->
<g id="edge7" class="edge">
<title>Entity&#45;&gt;Product</title>
<path fill="none" stroke="black" d="M306,-95.71C306,-103.05 306,-112.3 306,-120.83"/>
<polygon fill="none" stroke="black" points="302.5,-120.77 306,-130.77 309.5,-120.77 302.5,-120.77"/>
</g>
<!-- Event -->
<g id="node9" class="node">
<title>Event</title>
<polygon fill="none" stroke="black" points="432,-95.3 360,-95.3 360,-66.5 432,-66.5 432,-95.3"/>
<text text-anchor="middle" x="396" y="-77.03" font-family="Helvetica,Arial,sans-serif" font-size="10.00">Event</text>
</g>
<!-- Event&#45;&gt;Product -->
<g id="edge8" class="edge">
<title>Event&#45;&gt;Product</title>
<path fill="none" stroke="black" d="M376.47,-95.71C364.09,-104.47 347.87,-115.94 334.11,-125.67"/>
<polygon fill="none" stroke="black" points="332.63,-123.13 326.49,-131.77 336.68,-128.85 332.63,-123.13"/>
</g>
<!-- Structure -->
<g id="node10" class="node">
<title>Structure</title>
<polygon fill="none" stroke="black" points="522,-95.3 450,-95.3 450,-66.5 522,-66.5 522,-95.3"/>
<text text-anchor="middle" x="486" y="-77.03" font-family="Helvetica,Arial,sans-serif" font-size="10.00">Structure</text>
</g>
<!-- Structure&#45;&gt;Product -->
<g id="edge9" class="edge">
<title>Structure&#45;&gt;Product</title>
<path fill="none" stroke="black" d="M449.57,-94.78C421.64,-104.66 382.88,-118.37 352.67,-129.05"/>
<polygon fill="none" stroke="black" points="351.63,-126.05 343.37,-132.69 353.97,-132.65 351.63,-126.05"/>
</g>
<!-- Unknown -->
<g id="node11" class="node">
<title>Unknown</title>
<polygon fill="none" stroke="black" points="432,-161.8 360,-161.8 360,-131.3 432,-131.3 432,-161.8"/>
<text text-anchor="middle" x="396" y="-148.3" font-family="Helvetica,Arial,sans-serif" font-size="10.00">Unknown</text>
<text text-anchor="middle" x="396" y="-137.05" font-family="Helvetica,Arial,sans-serif" font-size="10.00">(⊥)</text>
</g>
<!-- Unknown&#45;&gt;Type -->
<g id="edge10" class="edge">
<title>Unknown&#45;&gt;Type</title>
<path fill="none" stroke="black" d="M365.37,-162.19C346.38,-171.26 321.78,-183.01 301.23,-192.83"/>
<polygon fill="none" stroke="black" points="300.03,-190 292.51,-197.47 303.04,-196.32 300.03,-190"/>
</g>
<!-- None -->
<g id="node12" class="node">
<title>None</title>
<polygon fill="none" stroke="grey" points="297,-30.5 225,-30.5 225,0 297,0 297,-30.5"/>
<text text-anchor="middle" x="261" y="-17" font-family="Helvetica,Arial,sans-serif" font-size="10.00" fill="grey">None</text>
<text text-anchor="middle" x="261" y="-5.75" font-family="Helvetica,Arial,sans-serif" font-size="10.00" fill="grey">(⊥)</text>
</g>
<!-- None&#45;&gt;Datatype -->
<g id="edge11" class="edge">
<title>None&#45;&gt;Datatype</title>
<path fill="none" stroke="black" d="M224.75,-26.17C190.49,-35.59 137.4,-50.31 82.59,-66.07"/>
<polygon fill="none" stroke="black" points="81.97,-62.89 73.33,-69.02 83.91,-69.62 81.97,-62.89"/>
</g>
<!-- None&#45;&gt;Enumeration -->
<g id="edge12" class="edge">
<title>None&#45;&gt;Enumeration</title>
<path fill="none" stroke="black" d="M230.03,-30.85C210.76,-39.94 185.81,-51.7 165.18,-61.43"/>
<polygon fill="none" stroke="black" points="163.99,-58.59 156.44,-66.02 166.98,-64.92 163.99,-58.59"/>
</g>
<!-- None&#45;&gt;Union -->
<g id="edge13" class="edge">
<title>None&#45;&gt;Union</title>
<path fill="none" stroke="black" d="M250.79,-30.69C245.17,-38.64 238.07,-48.68 231.76,-57.61"/>
<polygon fill="none" stroke="black" points="228.47,-55.2 225.56,-65.38 234.19,-59.24 228.47,-55.2"/>
</g>
<!-- None&#45;&gt;Entity -->
<g id="edge14" class="edge">
<title>None&#45;&gt;Entity</title>
<path fill="none" stroke="black" d="M271.21,-30.69C276.83,-38.64 283.93,-48.68 290.24,-57.61"/>
<polygon fill="none" stroke="black" points="287.81,-59.24 296.44,-65.38 293.53,-55.2 287.81,-59.24"/>
</g>
<!-- None&#45;&gt;Event -->
<g id="edge15" class="edge">
<title>None&#45;&gt;Event</title>
<path fill="none" stroke="black" d="M291.97,-30.85C311.24,-39.94 336.19,-51.7 356.82,-61.43"/>
<polygon fill="none" stroke="black" points="355.02,-64.92 365.56,-66.02 358.01,-58.59 355.02,-64.92"/>
</g>
<!-- None&#45;&gt;Structure -->
<g id="edge16" class="edge">
<title>None&#45;&gt;Structure</title>
<path fill="none" stroke="black" d="M297.25,-26.17C331.51,-35.59 384.6,-50.31 439.41,-66.07"/>
<polygon fill="none" stroke="black" points="438.09,-69.62 448.67,-69.02 440.03,-62.89 438.09,-69.62"/>
</g>
</g>
</svg>
