<?xml version="1.0" encoding="UTF-8" standalone="no"?>
<!DOCTYPE svg PUBLIC "-//W3C//DTD SVG 1.1//EN"
 "http://www.w3.org/Graphics/SVG/1.1/DTD/svg11.dtd">
<!-- Generated by graphviz version 8.0.5 (20230430.1635)
 -->
<!-- Pages: 1 -->
<svg width="530pt" height="177pt"
 viewBox="0.00 0.00 530.00 177.15" xmlns="http://www.w3.org/2000/svg" xmlns:xlink="http://www.w3.org/1999/xlink">
<g id="graph0" class="graph" transform="scale(1 1) rotate(0) translate(4 173.15)">
<!-- Type -->
<g id="node1" class="node">
<title>Type</title>
<polygon fill="none" stroke="black" points="296,-169.15 224,-169.15 224,-140.35 296,-140.35 296,-169.15"/>
<text text-anchor="middle" x="260" y="-150.88" font-family="Helvetica,Arial,sans-serif" font-size="10.00">Any</text>
</g>
<!-- Scalar -->
<g id="node2" class="node">
<title>Scalar</title>
<polygon fill="none" stroke="grey" points="117,-94.6 45,-94.6 45,-65.8 117,-65.8 117,-94.6"/>
<text text-anchor="middle" x="81" y="-76.33" font-family="Helvetica,Arial,sans-serif" font-size="10.00" fill="grey">Scalar</text>
</g>
<!-- Scalar&#45;&gt;Type -->
<g id="edge1" class="edge">
<title>Scalar&#45;&gt;Type</title>
<path fill="none" stroke="black" d="M115.09,-95.02C143.61,-106.58 184.52,-123.16 215.6,-135.75"/>
<polygon fill="none" stroke="black" points="214.15,-139.35 224.73,-139.86 216.78,-132.86 214.15,-139.35"/>
</g>
<!-- Datatype -->
<g id="node3" class="node">
<title>Datatype</title>
<polygon fill="none" stroke="black" points="72,-28.8 0,-28.8 0,0 72,0 72,-28.8"/>
<text text-anchor="middle" x="36" y="-10.53" font-family="Helvetica,Arial,sans-serif" font-size="10.00">Datatype</text>
</g>
<!-- Datatype&#45;&gt;Scalar -->
<g id="edge2" class="edge">
<title>Datatype&#45;&gt;Scalar</title>
<path fill="none" stroke="black" d="M45.76,-29.24C51.37,-37.19 58.54,-47.36 64.95,-56.44"/>
<polygon fill="none" stroke="black" points="62.63,-58.23 71.25,-64.38 68.35,-54.19 62.63,-58.23"/>
</g>
<!-- Sum -->
<g id="node4" class="node">
<title>Sum</title>
<polygon fill="none" stroke="grey" points="252,-94.6 180,-94.6 180,-65.8 252,-65.8 252,-94.6"/>
<text text-anchor="middle" x="216" y="-76.33" font-family="Helvetica,Arial,sans-serif" font-size="10.00" fill="grey">Sum</text>
</g>
<!-- Sum&#45;&gt;Type -->
<g id="edge3" class="edge">
<title>Sum&#45;&gt;Type</title>
<path fill="none" stroke="black" d="M224.28,-94.85C230.42,-104.98 238.95,-119.04 246.13,-130.88"/>
<polygon fill="none" stroke="black" points="243.58,-132.43 251.76,-139.17 249.57,-128.8 243.58,-132.43"/>
</g>
<!-- Enumeration -->
<g id="node5" class="node">
<title>Enumeration</title>
<polygon fill="none" stroke="black" points="162,-28.8 90,-28.8 90,0 162,0 162,-28.8"/>
<text text-anchor="middle" x="126" y="-10.53" font-family="Helvetica,Arial,sans-serif" font-size="10.00">Enumeration</text>
</g>
<!-- Enumeration&#45;&gt;Sum -->
<g id="edge4" class="edge">
<title>Enumeration&#45;&gt;Sum</title>
<path fill="none" stroke="black" d="M145.53,-29.24C157.91,-38.02 174.13,-49.52 187.89,-59.27"/>
<polygon fill="none" stroke="black" points="185.33,-62.46 195.51,-65.38 189.38,-56.74 185.33,-62.46"/>
</g>
<!-- Union -->
<g id="node6" class="node">
<title>Union</title>
<polygon fill="none" stroke="black" points="252,-28.8 180,-28.8 180,0 252,0 252,-28.8"/>
<text text-anchor="middle" x="216" y="-10.53" font-family="Helvetica,Arial,sans-serif" font-size="10.00">Union</text>
</g>
<!-- Union&#45;&gt;Sum -->
<g id="edge5" class="edge">
<title>Union&#45;&gt;Sum</title>
<path fill="none" stroke="black" d="M216,-29.24C216,-36.6 216,-45.87 216,-54.42"/>
<polygon fill="none" stroke="black" points="212.5,-54.38 216,-64.38 219.5,-54.38 212.5,-54.38"/>
</g>
<!-- Product -->
<g id="node7" class="node">
<title>Product</title>
<polygon fill="none" stroke="grey" points="342,-94.6 270,-94.6 270,-65.8 342,-65.8 342,-94.6"/>
<text text-anchor="middle" x="306" y="-76.33" font-family="Helvetica,Arial,sans-serif" font-size="10.00" fill="grey">Product</text>
</g>
<!-- Product&#45;&gt;Type -->
<g id="edge6" class="edge">
<title>Product&#45;&gt;Type</title>
<path fill="none" stroke="black" d="M297.35,-94.85C290.92,-104.98 282.01,-119.04 274.5,-130.88"/>
<polygon fill="none" stroke="black" points="271.01,-128.85 268.61,-139.17 276.92,-132.59 271.01,-128.85"/>
</g>
<!-- Entity -->
<g id="node8" class="node">
<title>Entity</title>
<polygon fill="none" stroke="black" points="342,-28.8 270,-28.8 270,0 342,0 342,-28.8"/>
<text text-anchor="middle" x="306" y="-10.53" font-family="Helvetica,Arial,sans-serif" font-size="10.00">Entity</text>
</g>
<!-- Entity&#45;&gt;Product -->
<g id="edge7" class="edge">
<title>Entity&#45;&gt;Product</title>
<path fill="none" stroke="black" d="M306,-29.24C306,-36.6 306,-45.87 306,-54.42"/>
<polygon fill="none" stroke="black" points="302.5,-54.38 306,-64.38 309.5,-54.38 302.5,-54.38"/>
</g>
<!-- Event -->
<g id="node9" class="node">
<title>Event</title>
<polygon fill="none" stroke="black" points="432,-28.8 360,-28.8 360,0 432,0 432,-28.8"/>
<text text-anchor="middle" x="396" y="-10.53" font-family="Helvetica,Arial,sans-serif" font-size="10.00">Event</text>
</g>
<!-- Event&#45;&gt;Product -->
<g id="edge8" class="edge">
<title>Event&#45;&gt;Product</title>
<path fill="none" stroke="black" d="M376.47,-29.24C364.09,-38.02 347.87,-49.52 334.11,-59.27"/>
<polygon fill="none" stroke="black" points="332.62,-56.74 326.49,-65.38 336.67,-62.46 332.62,-56.74"/>
</g>
<!-- Structure -->
<g id="node10" class="node">
<title>Structure</title>
<polygon fill="none" stroke="black" points="522,-28.8 450,-28.8 450,0 522,0 522,-28.8"/>
<text text-anchor="middle" x="486" y="-10.53" font-family="Helvetica,Arial,sans-serif" font-size="10.00">Structure</text>
</g>
<!-- Structure&#45;&gt;Product -->
<g id="edge9" class="edge">
<title>Structure&#45;&gt;Product</title>
<path fill="none" stroke="black" d="M449.57,-28.31C421.64,-38.21 382.88,-51.95 352.67,-62.66"/>
<polygon fill="none" stroke="black" points="351.63,-59.67 343.37,-66.31 353.97,-66.27 351.63,-59.67"/>
</g>
<!-- Unknown -->
<g id="node11" class="node">
<title>Unknown</title>
<polygon fill="none" stroke="black" points="432,-94.6 360,-94.6 360,-65.8 432,-65.8 432,-94.6"/>
<text text-anchor="middle" x="396" y="-76.33" font-family="Helvetica,Arial,sans-serif" font-size="10.00">Unknown</text>
</g>
<!-- Unknown&#45;&gt;Type -->
<g id="edge10" class="edge">
<title>Unknown&#45;&gt;Type</title>
<path fill="none" stroke="black" d="M370.1,-95.02C348.92,-106.31 318.77,-122.4 295.37,-134.88"/>
<polygon fill="none" stroke="black" points="293.98,-132.19 286.8,-139.98 297.27,-138.37 293.98,-132.19"/>
<text text-anchor="middle" x="350.62" y="-113.8" font-family="Helvetica,Arial,sans-serif" font-size="9.00" fill="darkgrey">disjoint</text>
</g>
</g>
</svg>
