<?xml version="1.0" encoding="us-ascii" standalone="no"?><svg xmlns="http://www.w3.org/2000/svg" xmlns:xlink="http://www.w3.org/1999/xlink" contentStyleType="text/css" height="132px" preserveAspectRatio="none" style="width:153px;height:132px;" version="1.1" viewBox="0 0 153 132" width="153px" zoomAndPan="magnify"><defs/><g><!--cluster rentals-model--><g id="cluster_rentals-model"><polygon fill="none" points="16,6,126,6,133,28.4883,136,28.4883,136,125.98,16,125.98,16,6" style="stroke:#000000;stroke-width:1.5;"/><line style="stroke:#000000;stroke-width:1.5;" x1="16" x2="133" y1="28.4883" y2="28.4883"/><text fill="#000000" font-family="sans-serif" font-size="14" font-weight="bold" lengthAdjust="spacing" textLength="104" x="20" y="21.5352">rentals-model</text><text fill="#000000" font-family="sans-serif" font-size="14" font-style="italic" lengthAdjust="spacing" textLength="47" x="56.5" y="44.0234">&#171;sdml&#187;</text></g><path d="M34.5,57 L82.5,57 A3.75,3.75 0 0 1 85,59.5 L92,79.4883 L117.5,79.4883 A2.5,2.5 0 0 1 120,81.9883 L120,107.4766 A2.5,2.5 0 0 1 117.5,109.9766 L34.5,109.9766 A2.5,2.5 0 0 1 32,107.4766 L32,59.5 A2.5,2.5 0 0 1 34.5,57 " fill="#F1F1F1" style="stroke:#181818;stroke-width:0.5;"/><line style="stroke:#181818;stroke-width:0.5;" x1="32" x2="92" y1="79.4883" y2="79.4883"/><text fill="#000000" font-family="sans-serif" font-size="14" lengthAdjust="spacing" textLength="47" x="36" y="72.5352">rentals</text><text fill="#000000" font-family="sans-serif" font-size="14" font-style="italic" lengthAdjust="spacing" textLength="66" x="47" y="95.0234">&#171;module&#187;</text><!--SRC=[NOun2iCm34LtdK8NA7Jg5BBq98ujKXF9Df8zc9Axro6bX2v2uhtFbsqn5QTES75-MpMt59wPis9LbsmWIXNiPrdjJ6DgzBK9NmZ7HBKNmfAv7yU5fHp8gE3Z3l2AWT17zKpdBYGBgG6KyO5R2OzAntQJaMAS9Wl2yunlGFnJ1XnIO_hY7VOF]--></g></svg>