<?xml version="1.0" encoding="us-ascii" standalone="no"?><svg xmlns="http://www.w3.org/2000/svg" xmlns:xlink="http://www.w3.org/1999/xlink" contentStyleType="text/css" height="246px" preserveAspectRatio="none" style="width:722px;height:246px;" version="1.1" viewBox="0 0 722 246" width="722px" zoomAndPan="magnify"><defs/><g><!--cluster rentals--><g id="cluster_rentals"><polygon fill="none" points="16,6,72,6,79,28.4883,705,28.4883,705,239.73,16,239.73,16,6" style="stroke:#000000;stroke-width:1.5;"/><line style="stroke:#000000;stroke-width:1.5;" x1="16" x2="79" y1="28.4883" y2="28.4883"/><text fill="#000000" font-family="sans-serif" font-size="14" font-weight="bold" lengthAdjust="spacing" textLength="50" x="20" y="21.5352">rentals</text><text fill="#000000" font-family="sans-serif" font-size="14" font-style="italic" lengthAdjust="spacing" textLength="66" x="331.5" y="44.0234">&#171;module&#187;</text></g><!--class string--><g id="elem_string"><rect codeLine="10" fill="#FFFFFF" height="40.6211" id="string" rx="2.5" ry="2.5" style="stroke:#181818;stroke-width:0.5;" width="87" x="584.5" y="57"/><text fill="#000000" font-family="sans-serif" font-size="12" font-style="italic" lengthAdjust="spacing" textLength="63" x="596.5" y="73.6016">&#171;datatype&#187;</text><text fill="#000000" font-family="sans-serif" font-size="14" lengthAdjust="spacing" textLength="81" x="587.5" y="89.668">sdml::string</text></g><!--class VehicleIdNumber--><g id="elem_VehicleIdNumber"><rect codeLine="11" fill="#F1F1F1" height="40.6211" id="VehicleIdNumber" rx="2.5" ry="2.5" style="stroke:#181818;stroke-width:0.5;" width="123" x="566.5" y="170.86"/><text fill="#000000" font-family="sans-serif" font-size="12" font-style="italic" lengthAdjust="spacing" textLength="63" x="596.5" y="187.4616">&#171;datatype&#187;</text><text fill="#000000" font-family="sans-serif" font-size="14" lengthAdjust="spacing" textLength="117" x="569.5" y="203.528">VehicleIdNumber</text></g><!--class Vehicle--><g id="elem_Vehicle"><rect codeLine="12" fill="#F1F1F1" height="40.6211" id="Vehicle" rx="2.5" ry="2.5" style="stroke:#181818;stroke-width:0.5;" width="55" x="348.5" y="170.86"/><text fill="#000000" font-family="sans-serif" font-size="12" font-style="italic" lengthAdjust="spacing" textLength="43" x="354.5" y="187.4616">&#171;entity&#187;</text><text fill="#000000" font-family="sans-serif" font-size="14" lengthAdjust="spacing" textLength="49" x="351.5" y="203.528">Vehicle</text></g><!--class Booking--><g id="elem_Booking"><rect codeLine="13" fill="#F1F1F1" height="65.1094" id="Booking" rx="2.5" ry="2.5" style="stroke:#181818;stroke-width:0.5;" width="184" x="32" y="158.62"/><text fill="#000000" font-family="sans-serif" font-size="12" font-style="italic" lengthAdjust="spacing" textLength="43" x="102.5" y="175.2216">&#171;entity&#187;</text><text fill="#000000" font-family="sans-serif" font-size="14" lengthAdjust="spacing" textLength="56" x="96" y="191.288">Booking</text><line style="stroke:#181818;stroke-width:0.5;" x1="33" x2="215" y1="199.2411" y2="199.2411"/><text fill="#000000" font-family="sans-serif" font-size="14" lengthAdjust="spacing" textLength="172" x="38" y="216.7762">&#171;identity&#187; +id: uuid::Uuid</text></g><!--reverse link string to VehicleIdNumber--><g id="link_string_VehicleIdNumber"><path codeLine="16" d="M628,118.95 C628,136.57 628,156.38 628,170.63 " fill="none" id="string-backto-VehicleIdNumber" style="stroke:#181818;stroke-width:1.0;"/><polygon fill="none" points="621,119.05,628,99.05,635,119.05,621,119.05" style="stroke:#181818;stroke-width:1.0;"/></g><!--link Booking to Vehicle--><g id="link_Booking_Vehicle"><path codeLine="17" d="M230.27,191.18 C267.01,191.18 306.04,191.18 334.45,191.18 " fill="none" id="Booking-Vehicle" style="stroke:#181818;stroke-width:1.0;"/><polygon fill="none" points="217.4,191.18,223.4,195.18,229.4,191.18,223.4,187.18,217.4,191.18" style="stroke:#181818;stroke-width:1.0;"/><polygon fill="#181818" points="347.27,191.18,338.27,187.18,342.27,191.18,338.27,195.18,347.27,191.18" style="stroke:#181818;stroke-width:1.0;"/><line style="stroke:#181818;stroke-width:1.0;" x1="342.27" x2="334.27" y1="191.18" y2="191.18"/><text fill="#000000" font-family="sans-serif" font-size="13" lengthAdjust="spacing" textLength="31" x="266.75" y="184.7484">&#171;ref&#187;</text><text fill="#000000" font-family="sans-serif" font-size="13" lengthAdjust="spacing" textLength="4" x="224.0669" y="172.67">&#160;</text><text fill="#000000" font-family="sans-serif" font-size="13" lengthAdjust="spacing" textLength="24" x="224.0669" y="187.9805">0..1</text><text fill="#000000" font-family="sans-serif" font-size="13" lengthAdjust="spacing" textLength="4" x="336.4482" y="170.8582">&#160;</text><text fill="#000000" font-family="sans-serif" font-size="13" lengthAdjust="spacing" textLength="24" x="316.4482" y="186.1688">0..1</text></g><!--link Vehicle to VehicleIdNumber--><g id="link_Vehicle_VehicleIdNumber"><path codeLine="18" d="M417.8,191.18 C454.28,191.18 508.14,191.18 552.21,191.18 " fill="none" id="Vehicle-VehicleIdNumber" style="stroke:#181818;stroke-width:1.0;"/><polygon fill="#181818" points="404.93,191.18,410.93,195.18,416.93,191.18,410.93,187.18,404.93,191.18" style="stroke:#181818;stroke-width:1.0;"/><polygon fill="#181818" points="565.14,191.18,556.14,187.18,560.14,191.18,556.14,195.18,565.14,191.18" style="stroke:#181818;stroke-width:1.0;"/><line style="stroke:#181818;stroke-width:1.0;" x1="560.14" x2="552.14" y1="191.18" y2="191.18"/><text fill="#000000" font-family="sans-serif" font-size="13" lengthAdjust="spacing" textLength="62" x="454" y="184.7484">&#171;identity&#187;</text><text fill="#000000" font-family="sans-serif" font-size="13" lengthAdjust="spacing" textLength="4" x="411.3138" y="170.3536">&#160;</text><text fill="#000000" font-family="sans-serif" font-size="13" lengthAdjust="spacing" textLength="8" x="411.3138" y="185.6642">1</text><text fill="#000000" font-family="sans-serif" font-size="13" lengthAdjust="spacing" textLength="29" x="529.2654" y="172.2345">+vin</text><text fill="#000000" font-family="sans-serif" font-size="13" lengthAdjust="spacing" textLength="8" x="550.2654" y="187.545">1</text></g><!--SRC=[RK-xRiCm3Dpr5OIxDN3Wh8RXePsoT6kdB8h5saBqWXujZ3J_NigE6oSe1qBKtV6EuIIDuvvhEFBkr7kRZ7Yrodg8dfj049h8mXyhn54XTI-xcBHQ8KeQZAD3S5QDULXXnWeCw61NLOmDKY1qqdSAvpTg5qVGg8_e0sEEWl0U8Jjp5Q1fj1L9OTl2cG5LftW8K0IXLLtdAAOlW0UOdyGNFF8SXHHFtuEC2EVBIlc1WoJplNXBsV9Uy1-J69H5nl4HVx7sD5lUy0dErJHqtFAzaQA6bAZNxzGdqhpfCKsPNFdJNe-P68jBSL3LThihm9QbBrkQ_JnVLzHawV6pRTTxiueeprcIDPilQGx-9bfywxkyxF8B]--></g></svg>