<?xml version="1.0" encoding="us-ascii" standalone="no"?><svg xmlns="http://www.w3.org/2000/svg" xmlns:xlink="http://www.w3.org/1999/xlink" contentStyleType="text/css" height="221px" preserveAspectRatio="none" style="width:167px;height:221px;" version="1.1" viewBox="0 0 167 221" width="167px" zoomAndPan="magnify"><defs/><g><!--cluster rentals--><g id="cluster_rentals"><path d="M8.5,6 L59.5,6 A3.75,3.75 0 0 1 62,8.5 L69,28.4883 L157.5,28.4883 A2.5,2.5 0 0 1 160,30.9883 L160,211.74 A2.5,2.5 0 0 1 157.5,214.24 L8.5,214.24 A2.5,2.5 0 0 1 6,211.74 L6,8.5 A2.5,2.5 0 0 1 8.5,6 " fill="none" style="stroke:#000000;stroke-width:1.5;"/><line style="stroke:#000000;stroke-width:1.5;" x1="6" x2="69" y1="28.4883" y2="28.4883"/><text fill="#000000" font-family="sans-serif" font-size="14" font-weight="bold" lengthAdjust="spacing" textLength="50" x="10" y="21.5352">rentals</text><text fill="#000000" font-family="sans-serif" font-size="14" font-style="italic" lengthAdjust="spacing" textLength="66" x="54" y="44.0234">&#171;module&#187;</text></g><!--class sdml::string--><g id="elem_sdml::string"><rect codeLine="6" fill="#F1F1F1" height="40.6211" id="sdml::string" rx="2.5" ry="2.5" style="stroke:#181818;stroke-width:0.5;" width="87" x="39.5" y="57"/><text fill="#000000" font-family="sans-serif" font-size="12" font-style="italic" lengthAdjust="spacing" textLength="63" x="51.5" y="73.6016">&#171;datatype&#187;</text><text fill="#000000" font-family="sans-serif" font-size="14" lengthAdjust="spacing" textLength="81" x="42.5" y="89.668">sdml::string</text></g><!--class VehicleIdNumber--><g id="elem_VehicleIdNumber"><rect codeLine="7" fill="#F1F1F1" height="40.6211" id="VehicleIdNumber" rx="2.5" ry="2.5" style="stroke:#181818;stroke-width:0.5;" width="123" x="21.5" y="157.62"/><text fill="#000000" font-family="sans-serif" font-size="12" font-style="italic" lengthAdjust="spacing" textLength="63" x="51.5" y="174.2216">&#171;datatype&#187;</text><text fill="#000000" font-family="sans-serif" font-size="14" lengthAdjust="spacing" textLength="117" x="24.5" y="190.288">VehicleIdNumber</text></g><!--reverse link sdml::string to VehicleIdNumber--><g id="link_sdml::string_VehicleIdNumber"><path codeLine="8" d="M83,118.6 C83,131.89 83,146.09 83,157.15 " fill="none" id="sdml::string-backto-VehicleIdNumber" style="stroke:#181818;stroke-width:1.0;"/><polygon fill="none" points="76,118.79,83,98.79,90,118.79,76,118.79" style="stroke:#181818;stroke-width:1.0;"/></g><!--SRC=[RSqz3i8m30NWFQVm1Ng1gkh2nCB8xYPM6jNvaPqC27ftKbW0uScIl-UdMqW51ICiQ3SlkILtofm5gc3IVg9KpHeSWGrYcTvxfBYGg36bfz0J70nPOPfYTerfdk5ke8zbL0LraSTHguJakt5OiTxAI-qVx4fhw1rdTsd7_x_ormnjUCnV1MP_0W00]--></g></svg>