<?xml version="1.0" encoding="us-ascii" standalone="no"?><svg xmlns="http://www.w3.org/2000/svg" xmlns:xlink="http://www.w3.org/1999/xlink" contentStyleType="text/css" height="132px" preserveAspectRatio="none" style="width:133px;height:132px;" version="1.1" viewBox="0 0 133 132" width="133px" zoomAndPan="magnify"><defs/><g><!--cluster rentals-model--><g id="cluster_rentals-model"><path d="M8.5,6 L113.5,6 A3.75,3.75 0 0 1 116,8.5 L123,28.4883 L123.5,28.4883 A2.5,2.5 0 0 1 126,30.9883 L126,123.48 A2.5,2.5 0 0 1 123.5,125.98 L8.5,125.98 A2.5,2.5 0 0 1 6,123.48 L6,8.5 A2.5,2.5 0 0 1 8.5,6 " fill="none" style="stroke:#000000;stroke-width:1.5;"/><line style="stroke:#000000;stroke-width:1.5;" x1="6" x2="123" y1="28.4883" y2="28.4883"/><text fill="#000000" font-family="sans-serif" font-size="14" font-weight="bold" lengthAdjust="spacing" textLength="104" x="10" y="21.5352">rentals-model</text><text fill="#000000" font-family="sans-serif" font-size="14" font-style="italic" lengthAdjust="spacing" textLength="47" x="46.5" y="44.0234">&#171;sdml&#187;</text></g><path d="M24.5,57 L72.5,57 A3.75,3.75 0 0 1 75,59.5 L82,79.4883 L107.5,79.4883 A2.5,2.5 0 0 1 110,81.9883 L110,107.4766 A2.5,2.5 0 0 1 107.5,109.9766 L24.5,109.9766 A2.5,2.5 0 0 1 22,107.4766 L22,59.5 A2.5,2.5 0 0 1 24.5,57 " fill="#F1F1F1" style="stroke:#181818;stroke-width:0.5;"/><line style="stroke:#181818;stroke-width:0.5;" x1="22" x2="82" y1="79.4883" y2="79.4883"/><text fill="#000000" font-family="sans-serif" font-size="14" lengthAdjust="spacing" textLength="47" x="26" y="72.5352">rentals</text><text fill="#000000" font-family="sans-serif" font-size="14" font-style="italic" lengthAdjust="spacing" textLength="66" x="37" y="95.0234">&#171;module&#187;</text><!--SRC=[NSkn3O0m34JHtbDu0JP0D4nY4WiYx2IoGuNOdI2ew4vw_tnFkPAHua9XNwqSESv5Yc4pojw9SuCjHSQGB0Y_MraNDWUe_KKhuvEH-A0bik0uUbIP9Zm1yPTqxD4X_F45rmq0]--></g></svg>